<?xml version="1.0" encoding="UTF-8"?>
<svg id="Layer_1" data-name="Layer 1" xmlns="http://www.w3.org/2000/svg" viewBox="0 0 2000 2000">
  <defs>
    <style>
      .cls-1 {
        fill: #f8a93c;
      }
    </style>
  </defs>
  <path class="cls-1" d="M1079.96,446.72c5.6-1.09,28.22-3.33,30.41,1.45-1.76,21.31,2.25,42.28,6.24,63.17l41.29,1.3c3.39-2.51-3.68-71.54-1.7-84.23,3.26-20.91,23.82-37.04,26.48-58.14-1.8-3.42-43.25-6.35-48.96-2.69l-20.28,45.06c-43.54,4.67-75.57-24.72-115.25-36.72-104.35-31.57-198.39,11.26-282.75,69.35-103.42,71.21-192.18,164.58-305.57,221.25,200.99,15.07,406.09-32.23,571.17-149.09,24.42-17.29,73.96-65.83,98.94-70.7ZM903.3,450.43c-73.99,22.49-135.32,70.93-195.65,117.95-85.18,63.75-193.06,92.39-297.78,98.13,84.53-22.19,167.21-48.85,242.45-92.79,7.63-5.1,16.24-10.25,23.72-15.42,8.92-6.62,21.91-16.22,30.51-23.06,75.32-57.47,174.5-120.97,272.92-93.09-26.17-1.58-51.82,1.08-76.16,8.28Z"/>
  <path class="cls-1" d="M1589.29,1465.38c-6.72-86.91-35.37-172.14-37.52-262.24-3.72-156.3,64.57-275.46-8.07-429.97-58.9-125.29-186.27-206.5-320.37-231.52-255.15-47.6-472.49,106.54-494.35,368.25-23.9,286.2,178.57,533.67,423.51,654.69,135.43,66.91,456.33,153.23,436.8-99.21ZM1486.92,956.36c-17.75-47.09-34.78-90.61-61.06-132.12-41.98-68.07-104.61-121.02-175.65-157.73,104.87,5.96,195.38,90.26,225.09,188.72,10.04,32.99,14.52,67.31,11.62,101.13Z"/>
</svg>