<?xml version="1.0" encoding="UTF-8"?>
<svg id="Layer_1" data-name="Layer 1" xmlns="http://www.w3.org/2000/svg" viewBox="0 0 180 180">
  <defs>
    <style>
      .cls-1 {
        fill: #f8a93c;
      }
    </style>
  </defs>
  <path class="cls-1" d="M101.33,11.65c.79-.15,4-.47,4.31.21-.25,3.02.32,5.99.88,8.95l5.85.18c.48-.35-.52-10.14-.24-11.94.46-2.96,3.38-5.25,3.75-8.24-.26-.48-6.13-.9-6.94-.38l-2.87,6.38c-6.17.66-10.71-3.5-16.33-5.2-14.79-4.47-28.11,1.6-40.07,9.83-14.65,10.09-27.23,23.32-43.3,31.35,28.48,2.13,57.54-4.57,80.94-21.13,3.46-2.45,10.48-9.33,14.02-10.02ZM76.3,12.17c-10.48,3.19-19.18,10.05-27.72,16.71-12.07,9.03-27.36,13.09-42.2,13.9,11.98-3.14,23.69-6.92,34.36-13.15,1.08-.72,2.3-1.45,3.36-2.19,1.26-.94,3.11-2.3,4.32-3.27,10.67-8.14,24.73-17.14,38.67-13.19-3.71-.22-7.34.15-10.79,1.17Z"/>
  <path class="cls-1" d="M173.5,155.99c-.95-12.32-5.01-24.39-5.32-37.16-.53-22.15,9.15-39.03-1.14-60.93-8.35-17.75-26.39-29.26-45.4-32.81-36.16-6.74-66.95,15.1-70.05,52.18-3.39,40.56,25.3,75.62,60.01,92.77,19.19,9.48,64.66,21.71,61.9-14.06ZM159,83.86c-2.51-6.67-4.93-12.84-8.65-18.72-5.95-9.65-14.82-17.15-24.89-22.35,14.86.85,27.69,12.79,31.9,26.74,1.42,4.67,2.06,9.54,1.65,14.33Z"/>
</svg>