<?xml version="1.0" encoding="UTF-8"?>
<svg id="Layer_1" data-name="Layer 1" xmlns="http://www.w3.org/2000/svg" viewBox="0 0 32 32">
  <defs>
    <style>
      .cls-1 {
        fill: #f8a93c;
      }
    </style>
  </defs>
  <path class="cls-1" d="M18.01,2.15c.14-.03.71-.08.76.04-.04.54.06,1.06.16,1.59l1.04.03c.09-.06-.09-1.8-.04-2.12.08-.53.6-.93.67-1.46-.05-.09-1.09-.16-1.23-.07l-.51,1.13c-1.09.12-1.9-.62-2.9-.92-2.62-.79-4.98.28-7.1,1.74-2.6,1.79-4.83,4.13-7.68,5.56,5.05.38,10.2-.81,14.35-3.75.61-.43,1.86-1.65,2.49-1.78ZM13.57,2.25c-1.86.57-3.4,1.78-4.92,2.96-2.14,1.6-4.85,2.32-7.48,2.47,2.12-.56,4.2-1.23,6.09-2.33.19-.13.41-.26.6-.39.22-.17.55-.41.77-.58,1.89-1.44,4.38-3.04,6.86-2.34-.66-.04-1.3.03-1.91.21Z"/>
  <path class="cls-1" d="M30.8,27.74c-.17-2.18-.89-4.32-.94-6.59-.09-3.93,1.62-6.92-.2-10.8-1.48-3.15-4.68-5.19-8.05-5.82-6.41-1.2-11.87,2.68-12.42,9.25-.6,7.19,4.49,13.41,10.64,16.45,3.4,1.68,11.46,3.85,10.97-2.49ZM28.23,14.96c-.45-1.18-.87-2.28-1.53-3.32-1.05-1.71-2.63-3.04-4.41-3.96,2.63.15,4.91,2.27,5.65,4.74.25.83.36,1.69.29,2.54Z"/>
</svg>