<?xml version="1.0" encoding="UTF-8"?>
<svg id="Layer_1" data-name="Layer 1" xmlns="http://www.w3.org/2000/svg" viewBox="0 0 16 16">
  <defs>
    <style>
      .cls-1 {
        fill: #f8a93c;
      }
    </style>
  </defs>
  <path class="cls-1" d="M9.01,1.03c.07-.01.36-.04.38.02-.02.27.03.53.08.8l.52.02s-.05-.9-.02-1.06c.04-.26.3-.47.33-.73-.02-.04-.54-.08-.62-.03l-.26.57c-.55.06-.95-.31-1.45-.46-1.31-.4-2.5.14-3.56.87C3.11,1.91,1.99,3.09.57,3.8c2.53.19,5.12-.41,7.19-1.88.31-.22.93-.83,1.25-.89ZM6.78,1.08c-.93.28-1.7.89-2.46,1.49-1.07.8-2.43,1.16-3.75,1.24,1.06-.28,2.11-.62,3.05-1.17.1-.06.2-.13.3-.19.11-.08.28-.2.38-.29.95-.72,2.2-1.52,3.44-1.17-.33-.02-.65.01-.96.1Z"/>
  <path class="cls-1" d="M15.42,13.86c-.08-1.09-.45-2.17-.47-3.3-.05-1.97.81-3.47-.1-5.42-.74-1.58-2.35-2.6-4.04-2.92-3.21-.6-5.95,1.34-6.23,4.64-.3,3.61,2.25,6.72,5.33,8.25,1.71.84,5.75,1.93,5.5-1.25ZM14.13,7.45c-.22-.59-.44-1.14-.77-1.66-.53-.86-1.32-1.52-2.21-1.99,1.32.08,2.46,1.14,2.84,2.38.13.42.18.85.15,1.27Z"/>
</svg>