<?xml version="1.0" encoding="UTF-8"?>
<svg id="Layer_1" data-name="Layer 1" xmlns="http://www.w3.org/2000/svg" viewBox="0 0 1080 1080">
  <defs>
    <style>
      .cls-1 {
        fill: #f8a93c;
      }
    </style>
  </defs>
  <path class="cls-1" d="M608.01,69.49c4.77-.93,24-2.83,25.86,1.23-1.49,18.13,1.91,35.96,5.31,53.73l35.12,1.1c2.88-2.13-3.13-60.85-1.45-71.64,2.77-17.78,20.26-31.51,22.52-49.45-1.53-2.91-36.79-5.4-41.64-2.29l-17.25,38.32c-37.03,3.97-64.27-21.02-98.02-31.23-88.75-26.85-168.74,9.58-240.5,58.98-87.96,60.57-163.46,139.99-259.9,188.19,170.95,12.81,345.4-27.41,485.8-126.81,20.77-14.7,62.91-55.99,84.15-60.13ZM457.75,72.65c-62.93,19.13-115.1,60.33-166.41,100.32-72.45,54.22-164.21,78.58-253.28,83.46,71.9-18.87,142.22-41.55,206.21-78.92,6.49-4.34,13.82-8.71,20.17-13.12,7.59-5.63,18.64-13.8,25.95-19.62,64.06-48.88,148.42-102.89,232.13-79.17-22.26-1.34-44.07.92-64.77,7.04Z"/>
  <path class="cls-1" d="M1041.22,935.91c-5.72-73.92-30.09-146.41-31.91-223.05-3.17-132.94,54.92-234.29-6.87-365.71-50.1-106.57-158.43-175.64-272.49-196.91-217.01-40.48-401.88,90.61-420.47,313.21-20.33,243.43,151.88,453.91,360.21,556.84,115.19,56.91,388.13,130.33,371.52-84.38ZM954.14,502.97c-15.09-40.05-29.58-77.07-51.94-112.37-35.7-57.9-88.98-102.94-149.4-134.16,89.2,5.07,166.18,76.77,191.45,160.51,8.54,28.06,12.35,57.25,9.89,86.02Z"/>
</svg>