<svg xmlns="http://www.w3.org/2000/svg" height="1024" preserveAspectRatio="none" style="display: block;" version="1.1" viewBox="0 0 2048 2048" width="1024">
<path d="M 0 0 L 2048 0 L 2048 2048 L 0 2048 L 0 0 z" fill="rgb(255,255,255)" transform="translate(0,0)"></path>
<path d="M 266.95 685.421 C 294.812 682.99 325.432 694.424 348.119 709.914 C 354.079 713.983 361.822 717.609 359.746 725.737 C 355.248 731.019 332.643 739.556 324.297 743.258 C 327.178 755.489 328.993 766.986 331.027 779.376 C 326.061 780.135 319.247 780.13 318.354 785.909 C 320.861 790.609 323.439 793.719 321.433 798.907 C 318.945 799.666 318.257 799.803 315.992 801.018 C 315.603 804.068 315.369 809.214 313.036 811.004 C 306.255 816.207 293.24 809.315 286.714 808.572 C 287.038 812.554 292.788 827.319 294.359 832.198 C 301.638 852.998 305.701 869.579 308.303 891.888 C 312.691 929.506 291.212 967.595 301.27 1004.07 C 302.753 1009.45 307.945 1022.68 310.422 1027.19 C 311.212 1028.62 323.834 1031.88 327.337 1025.1 C 326.49 1022.17 325.481 1021.78 323.046 1019.97 L 317.913 1016.14 L 318.834 1015.33 C 330.722 1014.91 345.669 1018.04 335.346 1035.39 C 332.228 1040.63 320.245 1041.5 314.147 1041.67 L 312.632 1041.7 C 311.91 1045.19 332.942 1113.84 336.665 1124.46 C 354.074 1174.17 354.105 1224.23 362.223 1275.72 C 364.111 1287.7 366.304 1299.92 367.615 1312.18 L 351.383 1317.2 C 373.193 1337.88 387.092 1339.16 414.812 1339.13 C 423.194 1344.52 424.28 1347.07 427.823 1355.93 C 406.77 1366.38 374.03 1368.86 351.511 1362.34 C 349.082 1361.64 349.188 1361.5 346.37 1361.57 L 345.515 1364.31 C 342.341 1365.93 312.891 1365.23 307.368 1365.21 C 307.273 1351.3 308.09 1335.49 308.237 1321.23 C 296.868 1320.66 285.555 1319.25 274.39 1317.03 C 267.256 1263.51 256.478 1201.82 235.867 1151.72 C 226.9 1167.49 222.197 1188.38 211.168 1205.8 C 201.221 1221.5 151.25 1296.76 137.079 1300.24 C 121.709 1300.2 115.208 1299.19 100.006 1296.1 C 99.0718 1307.07 97.5586 1322.46 105.29 1330.97 C 121.49 1348.82 141.804 1329.06 141.134 1362.04 C 106.444 1363.74 82.7723 1370.24 70.205 1330.28 C 69.1684 1326.98 68.4832 1321.48 65.9373 1319.8 C 63.835 1322.12 64.7954 1321.49 62.0391 1322.78 C 56.1899 1318.94 47.6953 1308.52 43.0361 1303.11 C 50.2339 1293.12 59.13 1283.42 67.2736 1274.11 C 63.0491 1269.86 60.5215 1266.59 56.8238 1261.9 C 72.9503 1236.34 99.6158 1206.53 118.787 1182.65 C 124.577 1175.44 147.017 1151.22 150.003 1144.91 C 154.203 1136.02 159.402 1104.68 162.248 1092.99 C 166.695 1074.73 171.918 1055.16 175.883 1036.99 C 175.599 1037.14 175.315 1037.29 175.031 1037.44 L 173.598 1038.16 C 169.703 1040.16 163.982 1042.61 160.151 1040.17 C 151.744 1034.81 150.619 1021.27 163.453 1020.98 C 168.926 1020.85 169.349 1026.04 174.349 1027.81 L 175.753 1026.51 C 175.575 1027.44 176.484 985.315 176.513 985.46 C 172.236 963.873 145.313 913.117 152.673 891.999 C 163.06 862.196 192.359 823.377 210.578 797.989 C 199.409 803.25 185.618 807.74 173.872 812.972 C 155.546 821.135 140.018 830.162 122.845 840.286 C 107.359 849.415 93.7884 865.479 80.2784 873.789 C 74.3461 877.437 45.5653 880.234 37.5215 881.152 C 50.8927 866.513 68.1799 847.195 82.9011 834.152 C 88.6273 829.078 112.431 821 120.774 817.445 C 160.061 800.707 199.489 788.085 239.589 774.098 C 233.025 750.294 231.663 743.303 240.585 720.341 C 233.165 714.297 216.999 704.915 212.559 697.841 C 213.255 687.517 257.664 686.15 266.95 685.421 z" fill="rgb(6,6,6)" transform="translate(0,0)"></path>
<path d="M 234.318 794.191 C 277.011 789.361 293.098 852.742 296.304 885.204 C 297.481 897.129 294.391 918.559 293.141 930.918 C 291.235 920.629 288.158 908.602 285.743 898.263 C 279.538 871.693 275.929 844.714 261.555 821.093 C 241.282 847.173 222.058 872.881 199.751 897.514 C 193.394 904.534 194.915 911.375 196.198 920.022 C 200.029 941.417 205.28 969.345 211.41 990.056 C 214.39 1000.13 223.196 1009.96 226.96 1023.99 C 220.819 1024.25 214.393 1024.29 208.224 1024.43 C 204.178 1010.19 199.096 1011.44 196.6 1004.76 C 191.518 990.828 186.17 978.432 181.093 964.362 C 174.108 944.56 163.307 919.273 162.762 898.368 C 162.54 889.854 181.259 861.289 186.647 852.247 C 199.417 830.817 209.374 803.198 234.318 794.191 z" fill="rgb(255,255,255)" transform="translate(0,0)"></path>
<path d="M 181.336 1049.71 L 182.636 1051.48 C 185.182 1072.57 187.08 1126.09 181.572 1145.53 C 178.191 1157.47 150.297 1200.8 142.37 1213.97 C 127.886 1238.17 113.597 1262.49 99.5059 1286.92 C 93.677 1283.4 88.6581 1280.07 83.0317 1276.23 C 77.7611 1271.93 72.3757 1267.13 67.2046 1262.66 C 86.227 1232.77 114.111 1198.06 136.948 1171.04 C 144.216 1162.44 156.83 1151.77 165.272 1142.66 C 165.882 1117.45 173.682 1074.25 181.336 1049.71 z" fill="rgb(255,255,255)" transform="translate(0,0)"></path>
<path d="M 277.709 1040.01 C 286.206 1041.74 293.32 1044.95 302.633 1046.55 C 310.655 1067.22 316.364 1089.65 324.004 1109.56 C 342.024 1156.51 347.401 1201.74 352.113 1251.37 C 353.413 1265.05 358.106 1286.14 357.41 1299.66 L 354.581 1298.49 C 350.107 1291.7 349.125 1273.06 346.795 1264.58 C 337.477 1230.69 333.626 1195.35 325.311 1161.27 C 322.049 1147.9 315.075 1133.05 310.05 1120.06 C 299.682 1093.28 287.729 1066.94 277.709 1040.01 z" fill="rgb(255,255,255)" transform="translate(0,0)"></path>
<path d="M 256.846 694.411 C 293.611 690.165 319.7 701.954 348.929 721.612 C 338.844 726.309 332.341 728.626 321.541 730.965 C 300.596 731.802 270.176 726.507 251.388 716.349 C 244.578 712.667 233.758 702.947 227.968 697.661 C 237.576 696.424 247.203 695.34 256.846 694.411 z" fill="rgb(255,255,255)" transform="translate(0,0)"></path>
<path d="M 223.316 1002.85 C 245.85 1013.33 266.414 1006.08 292.02 1005.73 C 294.688 1012.3 296.002 1015.62 297.739 1022.47 C 290.131 1023.07 281.9 1022.48 274.222 1022.12 L 266.696 1017.03 C 253.829 1016.85 246.481 1016.62 234.01 1019.22 C 231.025 1013.6 226.966 1008.12 223.316 1002.85 z" fill="rgb(255,255,255)" transform="translate(0,0)"></path>
<path d="M 1806.17 773.815 C 1814.72 775.155 1812.66 775.562 1816.13 782.957 C 1821.49 794.386 1831.56 805.243 1839.33 815.503 L 1878.9 867.908 C 1901.89 861.585 1909.52 855.891 1935.74 856.914 C 1977.32 858.537 2009.08 893.585 2035.32 923.544 C 2002.11 939.66 1958.58 946.219 1923.36 932.748 C 1912.85 928.73 1903.19 922.833 1893.57 917.066 C 1900.64 934.096 1902.89 947.09 1906.77 965.075 C 1963.75 992.853 2000.73 1046.49 1987.77 1111.2 C 1980.37 1143.11 1962.54 1162.49 1932.98 1176.46 C 1905.04 1167.43 1898.48 1161.85 1878.77 1141.18 C 1864.85 1147.92 1839.58 1162.19 1824.48 1161.76 C 1819.43 1161.62 1814.24 1156.15 1811.26 1152.31 C 1789.28 1123.64 1779.75 1087.34 1784.8 1051.57 C 1791.12 1005.94 1819.86 978.524 1854.46 952.456 C 1856.06 930.066 1856.58 904.791 1857.69 882.094 C 1851.35 871.409 1843.91 864.551 1836.05 855.333 C 1820.55 837.153 1799.7 817.36 1786.23 798.156 C 1793.04 787.355 1796.21 781.765 1806.17 773.815 z" fill="rgb(6,6,6)" transform="translate(0,0)"></path>
<path d="M 1906.3 975.359 C 1983.04 1008.49 2017.1 1121.7 1932.54 1167.23 C 1906.36 1157.1 1886.95 1139.39 1872.33 1115.49 C 1857.17 1090.23 1852.62 1060.01 1859.68 1031.41 C 1864.02 1014.09 1876.54 989.717 1892.39 977.755 C 1894.59 976.091 1897.89 978.717 1900.79 980.179 C 1904.55 978.643 1903.45 978.998 1906.3 975.359 z" fill="rgb(250,189,58)" transform="translate(0,0)"></path>
<path d="M 1886.49 994.048 C 1886.51 994.799 1876.73 1016.67 1875.01 1024.48 C 1868.02 1056.17 1871.6 1080.6 1884.08 1110.39 C 1886.28 1115.63 1894.01 1129.17 1894.78 1131.63 L 1892.75 1130.54 C 1859.49 1087.59 1852.87 1038.87 1886.49 994.048 z" fill="rgb(6,6,6)" transform="translate(0,0)"></path>
<path d="M 1861.81 955.379 L 1863.04 955.078 L 1865.05 959.504 C 1864.29 962.494 1864.42 962.525 1864.59 965.658 L 1865.84 966.75 C 1867.55 965.934 1869.28 965.137 1871.01 964.357 C 1875.01 967.168 1878.2 970.228 1881.82 973.501 C 1839.49 1027.41 1832.1 1076.1 1873.23 1133.88 C 1832.21 1151.04 1825.67 1169.11 1802.34 1115.65 C 1790.35 1087.69 1789.81 1056.15 1800.83 1027.79 C 1809.03 1007.2 1834.35 973.961 1854.01 965.382 C 1856.72 966.005 1856.7 966.141 1859.41 965.816 C 1861.17 963.866 1861.19 958.748 1861.81 955.379 z" fill="rgb(250,189,58)" transform="translate(0,0)"></path>
<path d="M 1849.71 975.933 L 1850.45 976.751 C 1837.38 993.745 1834.13 994.293 1823.15 1016.06 C 1807.39 1047.28 1804.24 1073.97 1812.1 1108.3 C 1814.23 1117.6 1817.62 1125.28 1820.47 1134.14 L 1819.46 1133.56 C 1787.1 1080.88 1798.27 1011.8 1849.71 975.933 z" fill="rgb(6,6,6)" transform="translate(0,0)"></path>
<path d="M 1924.02 862.382 C 1927.02 862.321 1930.01 862.339 1933.01 862.436 C 1973.66 864.121 1999.4 893.495 2025 921.756 C 2003.83 931.028 1988.99 933.387 1965.8 934.303 C 1922.24 934.618 1890.84 915.057 1864.94 880.966 C 1880.06 870.551 1905.89 863.969 1924.02 862.382 z" fill="rgb(91,129,118)" transform="translate(0,0)"></path>
<path d="M 1810 780.956 C 1810.08 781.049 1811.61 787.36 1813.06 789.425 C 1832.22 816.662 1855.51 842.645 1873.26 870.785 C 1870.23 872.898 1865.45 877.164 1862.4 877.531 L 1860.52 875.464 C 1842.53 852.355 1812.73 819.016 1791.02 799.435 C 1800.06 786.729 1798.64 789.414 1810 780.956 z" fill="rgb(91,129,118)" transform="translate(0,0)"></path>
<path d="M 1872.23 899.545 C 1874.5 900.956 1877.8 904.084 1878.31 906.556 C 1880.42 916.774 1892.53 959.198 1889.48 966.473 C 1882.88 962.735 1875.3 956.233 1869.88 950.886 C 1868.79 944.406 1871.04 906.413 1872.23 899.545 z" fill="rgb(255,255,255)" transform="translate(0,0)"></path>
<path d="M 1861.81 955.379 C 1860.45 949.234 1861.73 895.437 1863.71 891.13 C 1866.86 891.71 1868.91 895.137 1867.74 898.416 C 1861.88 914.922 1866.31 937.738 1863.04 955.078 L 1861.81 955.379 z" fill="rgb(250,189,58)" transform="translate(0,0)"></path>
<path d="M 1885.2 911.593 C 1890.75 915.272 1898.9 953.649 1900.84 962.179 C 1892.62 959.097 1887.4 921.388 1885.2 911.593 z" fill="rgb(250,189,58)" transform="translate(0,0)"></path>
<path d="M 640.937 753.5 L 1985.78 752.792 L 1985.69 770.182 C 1927.93 769.167 1860.12 769.466 1802.75 771.238 C 1745.37 772.901 1683.66 771.864 1625.9 771.88 L 1318.4 771.856 L 458.059 771.773 L 458.095 754.133 C 518.363 754.805 580.561 753.994 640.937 753.5 z" fill="rgb(250,189,58)" transform="translate(0,0)"></path>
<path d="M 454.847 1180.01 L 1989.01 1182.52 L 1988.95 1196.95 L 1987.9 1198.23 C 1969.61 1199.12 1944.25 1198.25 1925.2 1198.26 L 1773.64 1197.06 L 1465.85 1196.8 L 921.223 1196.9 C 766.691 1197 609.525 1197.5 454.996 1195.44 L 454.847 1180.01 z" fill="rgb(250,189,58)" transform="translate(0,0)"></path>
<path d="M 452.622 719.351 C 497.775 718.376 546.144 719.197 591.505 719.189 L 884.318 719.35 L 1986.49 719.535 C 1986.52 724.412 1986.87 730.121 1985.78 734.768 L 452.525 733.552 C 452.442 728.945 452.581 723.99 452.622 719.351 z" fill="rgb(6,6,6)" transform="translate(0,0)"></path>
<path d="M 447.715 1218.12 C 509.851 1216.44 578.256 1217.75 640.743 1217.86 L 967.132 1217.98 L 1989.05 1217.88 C 1989.19 1223.02 1989.28 1225.83 1988.73 1230.99 L 1987.08 1232.23 C 1937.62 1231.44 1886.92 1231.89 1837.34 1231.8 L 1483.3 1231.69 L 447.423 1231.78 L 447.715 1218.12 z" fill="rgb(6,6,6)" transform="translate(0,0)"></path>
<path d="M 1070.56 860.818 C 1111.58 860.11 1145.44 892.737 1146.25 933.759 C 1147.06 974.781 1114.51 1008.72 1073.5 1009.63 C 1032.33 1010.55 998.245 977.865 997.432 936.699 C 996.619 895.532 1029.39 861.528 1070.56 860.818 z" fill="rgb(6,6,6)" transform="translate(0,0)"></path>
<path d="M 1060.99 892.03 C 1084.86 886.137 1109 900.688 1114.94 924.553 C 1120.87 948.417 1106.37 972.583 1082.51 978.563 C 1058.6 984.56 1034.35 970.007 1028.4 946.08 C 1022.45 922.153 1037.05 897.938 1060.99 892.03 z" fill="rgb(255,255,255)" transform="translate(0,0)"></path>
<path d="M 479.144 856.637 C 489.637 862.744 530.605 906.765 540.626 917.709 C 559.741 897.727 578.76 875.786 598.912 856.991 C 600.567 908.342 599.23 958.842 599.611 1010.05 L 568.993 1010.01 L 568.842 991.5 L 568.925 932.472 C 559.138 943.49 549.467 954.609 539.911 965.828 C 529.091 952.923 519.478 942.271 507.973 929.879 C 508.058 956.265 507.986 982.652 507.758 1009.04 C 497.915 1009.36 488.241 1009.23 478.403 1009.14 C 477.515 962.181 477.684 903.248 479.144 856.637 z" fill="rgb(6,6,6)" transform="translate(0,0)"></path>
<path d="M 1409.38 858.324 C 1419.98 857.967 1432.16 858.215 1442.88 858.215 C 1452.39 882.922 1465.66 911.541 1476.18 936.455 C 1484.66 920.561 1491.35 903.892 1499.97 888.219 C 1506.52 903.734 1513.26 919.168 1520.19 934.515 C 1529.85 912.043 1545.81 882.981 1557.07 861.012 L 1586 861.067 C 1577.76 881.235 1569.26 901.297 1560.5 921.247 C 1547.37 949.867 1534.19 985.916 1520.75 1012.85 C 1513.26 996.866 1505.42 976.29 1498.61 959.641 C 1492.43 970.715 1479.99 1001.75 1474.67 1014.34 C 1460.25 981.389 1446.59 947.219 1432.75 913.993 C 1427.93 902.423 1411.28 866.987 1409.38 858.324 z" fill="rgb(6,6,6)" transform="translate(0,0)"></path>
<path d="M 925.476 861.216 C 927.483 861.014 929.496 860.872 931.512 860.788 C 956.214 859.673 973.601 867.981 991.422 884.465 C 984.872 891.628 977.234 899.926 970.097 906.337 C 960.17 897.363 947.635 891.913 934.115 892.084 C 922.285 892.26 911.041 897.266 902.993 905.939 C 885.314 924.891 888.703 954.434 908.116 970.784 C 916.267 977.737 926.96 980.953 937.593 979.649 C 946.675 978.524 965.042 970.374 963.275 959.206 C 958.98 955.147 938.255 956.872 930.464 956.932 C 930.174 950.449 928.44 933.286 931.777 928.096 C 932.526 926.931 934.97 927.221 936.75 927.111 L 991.093 927.054 C 991.67 943.711 995.151 970.406 985.965 983.75 C 966.932 1011.4 923.444 1017.44 896.285 999.075 C 837.478 959.301 856.885 875.672 925.476 861.216 z" fill="rgb(6,6,6)" transform="translate(0,0)"></path>
<path d="M 744.027 857.947 C 749.608 862.573 762.526 876.352 767.711 881.809 C 784.829 900.092 801.774 918.537 818.543 937.14 C 818.9 911.283 818.706 884.908 818.78 859.008 L 848.158 859.033 C 847.705 903.452 848.356 947.97 848.268 992.396 C 848.255 998.833 848.428 1005.02 848.067 1011.48 L 846.978 1012.3 C 824.346 985.186 796.678 956.545 772.64 929.893 C 772.911 956.568 772.967 983.245 772.807 1009.92 L 743.126 1009.99 L 743.053 910.066 C 743.072 898.181 742.564 868.463 744.027 857.947 z" fill="rgb(6,6,6)" transform="translate(0,0)"></path>
<path d="M 672.76 858.581 C 677.311 861.747 727.982 992.567 736.192 1010.01 L 703.858 1009.89 C 700.645 1002.58 697.39 995.3 694.093 988.037 L 675.022 988.064 L 650.024 988.418 C 646.773 995.055 643.616 1002.79 640.645 1009.64 C 630.631 1010.08 619.265 1009.86 609.147 1009.89 C 611.939 1001.86 615.108 993.759 618.468 985.941 C 636.641 943.651 654.198 900.669 672.76 858.581 z" fill="rgb(6,6,6)" transform="translate(0,0)"></path>
<path d="M 671.989 934.526 C 674.287 938.049 680.83 954.344 682.781 958.992 C 680.733 960.701 678.18 960.066 674.75 960.161 L 661.435 960.102 C 664.687 951.641 667.926 942.577 671.989 934.526 z" fill="rgb(255,255,255)" transform="translate(0,0)"></path>
<path d="M 1362.36 859.597 C 1368.98 866.135 1418.31 991.535 1425 1008.4 C 1414.99 1008.66 1404.62 1008.53 1394.58 1008.54 L 1386.02 989.76 L 1366.25 989.793 L 1339.91 989.879 C 1337.88 995.829 1334.56 1003.15 1332.05 1009.07 C 1321.87 1009.42 1311.34 1009.2 1301.14 1009.14 C 1312.89 975.449 1327.45 940.941 1341.51 908.199 C 1348.33 892.313 1354.99 875.092 1362.36 859.597 z" fill="rgb(6,6,6)" transform="translate(0,0)"></path>
<path d="M 1362.68 933.792 C 1365.9 937.573 1371.68 953.438 1372.04 958.954 C 1369.57 960.438 1367.49 959.925 1364.13 960.039 C 1359.81 960.009 1357.85 960.751 1354.73 958.646 C 1352.6 952.273 1359.51 941.095 1362.68 933.792 z" fill="rgb(255,255,255)" transform="translate(0,0)"></path>
<path d="M 1214.57 858.626 L 1244 858.647 L 1244.11 981.328 L 1296.87 981.339 L 1297.01 1009.36 C 1271.83 1010.64 1240.42 1009.9 1214.74 1009.92 L 1214.57 858.626 z" fill="rgb(6,6,6)" transform="translate(0,0)"></path>
<path d="M 988.043 1052.26 C 996.882 1050.57 1005.95 1053.78 1011.75 1060.66 C 1017.55 1067.54 1019.19 1077.01 1016.03 1085.44 C 1012.87 1093.87 1005.41 1099.93 996.514 1101.3 C 983.106 1103.36 970.516 1094.31 968.206 1080.94 C 965.897 1067.57 974.72 1054.82 988.043 1052.26 z" fill="rgb(6,6,6)" transform="translate(0,0)"></path>
<path d="M 987.032 1060.21 C 1011.93 1056.5 1017.34 1083.52 998.111 1093.73 C 973.894 1095.46 967.077 1071.93 987.032 1060.21 z" fill="rgb(255,255,255)" transform="translate(0,0)"></path>
<path d="M 1250.87 1052.09 C 1261.67 1051.87 1271.71 1050.91 1281.08 1057.42 C 1295.08 1067.14 1292.61 1081.53 1283.67 1093.74 C 1272.48 1102.75 1264.84 1101.37 1250.82 1101.21 L 1250.87 1052.09 z" fill="rgb(6,6,6)" transform="translate(0,0)"></path>
<path d="M 1258.28 1058.71 C 1278.81 1058.42 1289.62 1069.45 1278.04 1088.69 C 1252.7 1110.15 1258.15 1072.39 1258.28 1058.71 z" fill="rgb(255,255,255)" transform="translate(0,0)"></path>
<path d="M 1103.76 1053.1 C 1114.52 1052.81 1123.74 1052.01 1133.13 1058.46 C 1146.54 1067.67 1144.66 1082.67 1135.71 1094.25 C 1125.16 1102.29 1116.71 1100.92 1103.72 1100.98 L 1103.76 1053.1 z" fill="rgb(6,6,6)" transform="translate(0,0)"></path>
<path d="M 1110.63 1059.65 C 1130.78 1059.42 1142.6 1070.95 1130.47 1089.76 C 1123.19 1094.77 1119.36 1094.22 1110.61 1094.59 C 1110.46 1082.94 1110.47 1071.29 1110.63 1059.65 z" fill="rgb(255,255,255)" transform="translate(0,0)"></path>
<path d="M 904.341 1049.17 C 921.473 1051.65 920.49 1063.36 908.791 1073.06 C 912.002 1077.35 916.026 1081.44 919.699 1085.4 C 922.408 1081.35 923.064 1078.59 928.101 1079.03 L 929.15 1081.14 C 929.076 1085.26 927.212 1086.65 924.438 1090.09 C 927.338 1092.72 931.631 1095.98 932.972 1099.42 C 931.476 1101.76 932.463 1100.77 929.373 1101.82 L 919.934 1095.7 C 913.018 1100.15 907.689 1102.32 899.382 1100.6 C 895.204 1099.74 891.162 1097.57 889.178 1093.62 C 882.139 1079.62 896.665 1076.28 896.971 1071.31 C 897.295 1066.05 892.037 1060.34 894.496 1055.21 C 896.328 1051.39 900.667 1050.33 904.341 1049.17 z" fill="rgb(6,6,6)" transform="translate(0,0)"></path>
<path d="M 902.041 1077.68 C 905.89 1079.8 913.363 1087.13 912.62 1092.19 L 908.42 1094.81 C 894.742 1096.07 891.952 1086.45 902.041 1077.68 z" fill="rgb(255,255,255)" transform="translate(0,0)"></path>
<path d="M 903.37 1055.36 C 907.777 1056.33 908.67 1056.48 910.349 1060.4 C 909.671 1064.44 908.817 1064.92 906.008 1068.19 C 899.428 1066.35 900.528 1060 903.37 1055.36 z" fill="rgb(255,255,255)" transform="translate(0,0)"></path>
<path d="M 543.981 1052.95 C 553.953 1052.72 562.923 1051.56 571.508 1057.97 C 580.864 1064.96 575.34 1077.07 568.068 1083.25 C 570.704 1089.41 575.111 1094.13 575.838 1099.65 L 574.733 1100.96 L 569.605 1101.05 C 566.029 1093.99 564.093 1088.45 557.424 1084.22 C 549.44 1084.66 552.955 1096.44 547.296 1101.01 L 545.181 1100.75 C 543.218 1096.3 543.973 1060.52 543.981 1052.95 z" fill="rgb(6,6,6)" transform="translate(0,0)"></path>
<path d="M 550.893 1059 C 565.941 1058.71 571.296 1060.84 566.417 1077.04 C 561.062 1079.67 556.702 1079.24 550.853 1079.29 L 550.893 1059 z" fill="rgb(255,255,255)" transform="translate(0,0)"></path>
<path d="M 620.059 1051.44 C 624.903 1054.3 639.401 1072.81 644.088 1078.53 C 652.074 1069.47 658.112 1058.82 667.082 1050.4 C 667.217 1059.66 668.342 1093.26 666.367 1100.05 C 663.441 1101.39 664.986 1101.06 661.509 1100.68 C 659.219 1097.96 660.121 1088.25 660.126 1083.71 L 659.918 1070.02 C 654.522 1077.25 649.944 1083.64 643.687 1090.2 C 637.793 1083.8 632.257 1075.92 627.046 1068.86 C 626.979 1077.84 627.093 1087.64 627.04 1096.67 C 627.026 1099.04 624.705 1100.27 623.089 1101.25 L 621.295 1100.54 C 618.544 1094.3 619.915 1060.42 620.059 1051.44 z" fill="rgb(6,6,6)" transform="translate(0,0)"></path>
<path d="M 1707.5 911.067 C 1720.38 910.306 1723.63 912.23 1734.1 919.046 C 1731.79 921.559 1729.23 923.693 1726.66 925.947 L 1725.92 925.328 C 1690.6 896.395 1675.59 976.314 1722.23 963.107 C 1724.66 961.001 1725.4 960.476 1727.99 958.801 C 1731.78 958.94 1730.39 958.183 1732.61 960.478 L 1732.29 963.18 C 1726.22 972.512 1711.94 974.831 1703 970.579 C 1674.53 957.047 1678.97 921.185 1707.5 911.067 z" fill="rgb(6,6,6)" transform="translate(0,0)"></path>
<path d="M 748.48 1084.99 C 748.502 1074.69 748.582 1064.38 748.72 1054.07 C 750.136 1052.04 749.191 1052.8 751.621 1051.89 L 753.293 1053.11 C 757.392 1062.9 754.631 1086.49 755.652 1099.13 L 755.747 1100.19 C 752.61 1099.96 726.144 1073.08 720.461 1068.25 C 720.484 1075.91 721.484 1096.62 717.004 1101.48 L 715.836 1100.71 C 711.893 1092.51 712.294 1060.91 713.946 1051.93 C 725.757 1062.64 737.273 1073.66 748.48 1084.99 z" fill="rgb(6,6,6)" transform="translate(0,0)"></path>
<path d="M 790.086 1052.42 C 792.701 1053.78 813.188 1097.83 812.745 1100.79 C 809.265 1101.61 807.064 1101.1 804.352 1098.93 C 801.625 1090.52 802.493 1089.42 794.25 1089.14 L 782.117 1089.2 C 780.295 1093.04 778.536 1098.64 775.453 1101.09 C 772.324 1101.01 771.291 1101.6 769.44 1100.03 C 775.039 1085.16 783.362 1067.04 790.086 1052.42 z" fill="rgb(6,6,6)" transform="translate(0,0)"></path>
<path d="M 791.052 1067.54 C 793.482 1071.08 797.421 1078.38 795.896 1082.62 L 792.51 1083.54 C 789.805 1083.37 788.667 1083.58 786.386 1082.19 C 785.493 1077.06 788.605 1072.67 791.052 1067.54 z" fill="rgb(255,255,255)" transform="translate(0,0)"></path>
<path d="M 1468.09 1051.52 C 1471.02 1051.56 1471.72 1051.31 1474.33 1052.63 C 1475.42 1057.34 1474.96 1093.28 1474.94 1100.8 C 1464.14 1089.21 1455.1 1079.59 1443.79 1068.27 L 1443.72 1098.15 L 1443.47 1100.16 L 1441.45 1101.38 L 1438.98 1100.64 C 1435.76 1094.89 1437.37 1061.7 1437.53 1053.5 C 1445.3 1059.33 1460.4 1074.78 1468.02 1082.24 L 1468.09 1051.52 z" fill="rgb(6,6,6)" transform="translate(0,0)"></path>
<path d="M 1538.01 1052.01 C 1545.23 1051.95 1561.43 1050.58 1567.34 1052.7 C 1567.57 1055.9 1568 1054.54 1566.24 1056.99 C 1560.91 1059.35 1551.28 1058.48 1544.98 1058.43 L 1544.95 1073.05 C 1549.67 1073.01 1559.2 1072.51 1563.29 1073.89 C 1563.98 1076.78 1564.07 1075.38 1562.82 1078.22 C 1557.69 1080.79 1552.32 1077.48 1545.54 1079.6 L 1544.71 1081.75 L 1545.01 1094.3 C 1551.68 1094.37 1561.49 1093.16 1567.17 1095.8 C 1568.54 1098.55 1568.27 1097.09 1567.63 1100.38 C 1561.25 1102.2 1544.28 1101.23 1536.8 1101.03 C 1538.73 1089.96 1538.04 1064.39 1538.01 1052.01 z" fill="rgb(6,6,6)" transform="translate(0,0)"></path>
<path d="M 1392.76 1052.11 C 1399.02 1052.02 1420.45 1050.28 1424.32 1053.31 C 1423.96 1056.35 1424.5 1055.36 1422.83 1057.58 C 1416.82 1058.72 1406.25 1058.41 1399.74 1058.43 L 1399.75 1072.92 C 1404.79 1072.84 1413.99 1072.12 1418.03 1074.02 C 1418.96 1076.6 1418.84 1075.32 1418.05 1077.92 C 1415.27 1079.1 1404.04 1078.71 1399.63 1079.02 L 1399.77 1094.64 C 1406.47 1094.71 1420.95 1092.08 1424.07 1098.24 L 1423.29 1100.19 C 1416.06 1101.79 1400.72 1101.06 1392.53 1100.96 L 1392.76 1052.11 z" fill="rgb(6,6,6)" transform="translate(0,0)"></path>
<path d="M 1155.99 1052.01 C 1158.09 1052.18 1159.97 1052.42 1162.05 1052.68 C 1165.41 1062.55 1157.2 1085.82 1166.72 1094.27 C 1169.99 1095.59 1171.9 1095.34 1175.25 1094.21 C 1189.36 1089.44 1178.46 1064.29 1183.46 1052.79 C 1186.66 1051.58 1185 1051.67 1188.62 1053.11 L 1189.11 1055.75 C 1188.99 1065.05 1191.98 1089.93 1184.17 1097.27 C 1175.52 1105.41 1158.52 1103.02 1156.17 1089.73 C 1154.28 1079.04 1155.57 1063.67 1155.99 1052.01 z" fill="rgb(6,6,6)" transform="translate(0,0)"></path>
<path d="M 1331.91 1051.51 L 1333.61 1052.58 C 1333.58 1055.49 1334.17 1056.55 1332.68 1058.04 C 1327.38 1058.97 1317.06 1058.48 1311.24 1058.38 L 1311.19 1073.47 C 1316.05 1073.48 1324.32 1071.85 1327.13 1076.25 L 1325.83 1077.79 C 1321.14 1079.86 1316.35 1079.15 1311.09 1079 L 1311.08 1094.64 L 1328.25 1094.7 C 1330.37 1094.69 1331.98 1094.85 1334.08 1095.02 L 1334.99 1096.21 C 1334.84 1097.73 1335.12 1098.74 1334.05 1099.36 C 1328.82 1102.38 1310.75 1101.02 1304.12 1100.9 L 1304.22 1052.02 C 1313.45 1051.91 1322.68 1051.74 1331.91 1051.51 z" fill="rgb(6,6,6)" transform="translate(0,0)"></path>
<path d="M 1503.06 1051.02 C 1507.62 1050.71 1516.98 1052.32 1519.19 1056.7 C 1516.83 1067.99 1509.58 1057.04 1501.57 1058.79 C 1492.74 1069.89 1522.83 1073.26 1523.58 1087.59 C 1524.08 1097.02 1514 1100.65 1506.2 1101.78 C 1500.33 1100.47 1492.42 1097.68 1490.29 1091.38 L 1492.53 1089.11 C 1498.99 1088.58 1497.37 1090.45 1504.85 1094.93 C 1509.73 1095.45 1514.64 1093.66 1515.99 1088.58 C 1512.8 1077.62 1471.96 1066.14 1503.06 1051.02 z" fill="rgb(6,6,6)" transform="translate(0,0)"></path>
<path d="M 508.497 1053.1 C 516.333 1052.71 522.078 1052.67 527.503 1059.09 L 526.791 1061.06 C 525.945 1061.72 525.099 1062.37 524.252 1063.03 C 518.816 1061.92 512.563 1060.48 507.057 1061.33 C 503.498 1061.88 499.802 1063.47 497.912 1066.56 C 494.939 1071.42 496.775 1079.57 498.439 1084.51 C 499.615 1088 503.003 1092.53 506.592 1093.7 C 513.463 1095.96 515.473 1095.43 521.675 1092.64 L 522.159 1091.68 L 523.935 1091.28 L 526.313 1092.77 L 526.703 1094.86 C 522.652 1103.67 509.084 1103.48 502.508 1099.58 C 479.956 1086.2 486.018 1060.98 508.497 1053.1 z" fill="rgb(6,6,6)" transform="translate(0,0)"></path>
<path d="M 1645.55 911.066 C 1648.69 910.955 1650.23 910.631 1653.13 911.882 C 1654.62 916.494 1653.97 955.181 1653.93 962.905 C 1660.11 962.831 1668.58 961.772 1674.13 963.669 C 1676.69 966.365 1675.82 966.166 1676.04 971.1 L 1645.51 971.089 C 1645.32 951.081 1645.33 931.073 1645.55 911.066 z" fill="rgb(6,6,6)" transform="translate(0,0)"></path>
<path d="M 1602.1 911.05 C 1606.38 911.302 1606.39 910.648 1609.54 912.621 C 1610.87 920.448 1610.2 952.634 1610.16 962.799 C 1616.73 962.719 1624.64 961.647 1630.22 963.564 C 1632.98 966.382 1632.07 965.895 1632.45 971.048 L 1602.02 971.144 C 1601.87 951.113 1601.89 931.081 1602.1 911.05 z" fill="rgb(6,6,6)" transform="translate(0,0)"></path>
<path d="M 1031 1050.77 C 1037.37 1053.1 1044.76 1075.74 1047.57 1082.81 C 1050.65 1073.99 1054.53 1061.65 1058.72 1053.63 C 1061.87 1051.52 1060.11 1052.32 1064.64 1052.17 L 1065.37 1053.12 C 1064.8 1057.88 1061.31 1065.6 1059.39 1070.41 C 1054.67 1082.33 1051.18 1092.15 1047.27 1104.36 C 1044.53 1098.33 1027.34 1055.52 1027.66 1052.13 L 1031 1050.77 z" fill="rgb(6,6,6)" transform="translate(0,0)"></path>
<path d="M 1349.24 1051.98 C 1355.02 1051.83 1375.09 1050.41 1378.8 1053.26 L 1378.95 1056.69 L 1377.87 1057.85 C 1372.03 1059.24 1363.16 1058.79 1356.9 1058.74 L 1356.79 1073.39 C 1361.69 1073.49 1368.76 1072.32 1372.98 1074.5 C 1374.39 1075.23 1374.39 1077.21 1374.89 1079.23 L 1356.61 1079.56 C 1356.41 1085.6 1357.82 1096.15 1354.44 1100.41 C 1351.58 1100.92 1352.62 1101.04 1349.91 1100.05 C 1348.03 1092.4 1349.1 1061.82 1349.24 1051.98 z" fill="rgb(6,6,6)" transform="translate(0,0)"></path>
<path d="M 825.105 1052.93 C 827.767 1053.03 829.841 1052.74 831.925 1054.25 C 833.129 1061.15 832.381 1086.23 832.319 1094.82 C 838.027 1095.03 846.182 1093.47 851.093 1095.88 C 852.445 1096.55 852.584 1098.97 853.068 1100.86 L 824.963 1100.92 L 825.105 1052.93 z" fill="rgb(6,6,6)" transform="translate(0,0)"></path>
<path d="M 1203.88 1051.96 C 1206.53 1051.96 1208.34 1051.6 1210.43 1053.12 C 1211.77 1061.35 1210.97 1091.59 1210.92 1101.27 C 1207.36 1101.08 1206.23 1101.73 1204.3 1099.86 C 1203.1 1088.08 1203.83 1064.63 1203.88 1051.96 z" fill="rgb(6,6,6)" transform="translate(0,0)"></path>
<path d="M 687.033 1051.54 C 690.154 1051.81 690.301 1051.77 693.232 1052.77 C 694.815 1058.53 693.973 1092.75 693.889 1101.3 C 691.77 1101.09 690.208 1100.79 688.112 1100.39 C 686.013 1096.7 686.987 1058.67 687.033 1051.54 z" fill="rgb(6,6,6)" transform="translate(0,0)"></path>
<path d="M 598.398 1051.67 C 601.582 1055.1 599.882 1092.76 599.765 1099.83 C 599.748 1100.88 596.126 1101.76 595.048 1102.15 C 592.218 1098.49 593.144 1061.06 593.471 1054.55 C 595.045 1052.19 595.06 1052.82 598.398 1051.67 z" fill="rgb(6,6,6)" transform="translate(0,0)"></path>
<path d="M 1088.77 1051.96 C 1092.24 1052.26 1092.22 1051.66 1094.4 1053.51 C 1089.39 1068.18 1080.07 1088.59 1073.87 1103.31 C 1069.68 1102.64 1070.77 1103.67 1068.94 1101.32 C 1074.18 1085.48 1082.81 1069.02 1088.39 1053.08 L 1088.77 1051.96 z" fill="rgb(6,6,6)" transform="translate(0,0)"></path>
<metadata><recraft-signature>{"signed_by": "recraft", "signature_b64": "refdxn4TeKhCUBZL1lr/OOHt/aqHAwac2uTRBgvNNr2seA1QnUai7P62dCHc7hhh1vVQ2B1F/VLyvj/KxBfkAg==", "signing_algo": "Ed25519", "generation_timestamp": 1764903641, "identifier": "fe90f3b8-29fa-4ab3-947f-a26795713eff"}</recraft-signature></metadata></svg>