<svg xmlns="http://www.w3.org/2000/svg" height="1024" preserveAspectRatio="none" style="display: block;" version="1.1" viewBox="0 0 2048 2048" width="1024">
<path d="M 0 0 L 2048 0 L 2048 2048 L 0 2048 L 0 0 z" fill="rgb(255,255,255)" transform="translate(0,0)"></path>
<path d="M 1000.72 74.4582 C 1012.69 73.9693 1025.41 74.3791 1036.87 74.7498 C 1181.65 79.4322 1317.56 136.168 1431.14 224.315 C 1444.81 228.996 1464.32 230.27 1478.33 232.007 C 1556.91 241.744 1645.12 246.163 1718.94 213.041 C 1731.42 207.443 1744.86 176.851 1765.73 189.512 C 1773.52 194.239 1777.54 198.91 1779.8 207.238 C 1785.64 225.887 1768.24 230.333 1756.26 241.085 C 1711.17 281.542 1675.6 329.998 1646.6 382.925 C 1720.67 422.075 1773.2 473.43 1814.04 546.71 C 1901.85 704.262 1904.72 937.213 1857.25 1106.74 C 1863.57 1117.58 1870.93 1128.77 1876.46 1139.94 C 1972.81 1334.9 1977.4 1574.35 1852.33 1756.68 C 1781.38 1859.92 1672.06 1930.47 1548.77 1952.59 C 1406.56 1979.04 1246.32 1948.3 1126.93 1865.94 C 1022.69 1794.03 969.585 1697.68 947.341 1575.19 C 909.396 1540.2 882.549 1506.15 853.867 1463.88 C 729.313 1273.02 735.566 1010.17 824.26 806.687 C 908.523 613.362 1067.04 456.172 1263.74 378.906 C 1369.87 337.214 1504.5 322.927 1611.15 370.284 C 1628.2 328.526 1656.74 288.789 1683.49 252.861 C 1608.48 269.759 1503 265.925 1428.51 248.353 C 1390.52 266.533 1351.86 287.808 1314.32 307.464 C 1271.1 330.1 1227.58 352.152 1183.76 373.614 C 1105.61 412.3 1028.5 448.207 942.094 463.565 C 872.528 475.93 799.765 474.959 729.517 469.13 C 660.33 463.39 598.112 449.66 528.381 463.513 C 485.315 472.068 459.919 484.513 420.642 501.633 C 458.434 419.251 529.35 320.414 590.256 254.671 C 694.599 142.038 847.964 79.3426 1000.72 74.4582 z" fill="rgb(176,119,40)" transform="translate(0,0)"></path>
<path d="M 1468.6 946.41 C 1526.99 943.262 1587.74 951.609 1639.79 978.598 C 1672.71 995.665 1684.8 1010.72 1723.48 1018.01 C 1745.16 1022.09 1780.38 1044.9 1798.76 1058.64 C 1856.47 1101.76 1884.52 1169.74 1893 1239.45 C 1904.69 1349.74 1863.15 1458.75 1809.67 1552.93 C 1768.39 1625.62 1725.14 1690.04 1660.69 1744.08 C 1640.02 1761.42 1618.65 1781.33 1596.11 1796.13 C 1528.55 1840.47 1454.85 1871.93 1374.24 1881.63 C 1370.13 1882.02 1366.01 1882.37 1361.89 1882.68 C 1262.66 1890.12 1159.59 1853.78 1083.53 1790.11 C 873.031 1613.91 935.973 1326.46 1096.5 1140.74 C 1190.09 1032.45 1323.92 956.991 1468.6 946.41 z" fill="rgb(212,168,75)" transform="translate(0,0)"></path>
<path d="M 1660.37 1081.01 C 1665.26 1067.8 1671.06 1047.42 1683.94 1040.92 C 1736.22 1014.53 1807.71 1079.62 1831.15 1117.56 C 1875.4 1189.18 1882.66 1279.04 1864.37 1358.97 C 1831.45 1500.96 1751.55 1642.35 1640.83 1738.18 C 1534.37 1830.32 1397.59 1879.55 1257.91 1848.47 C 1162.94 1826.47 1080.65 1767.55 1029.23 1684.73 C 975.324 1599.72 964.935 1505.18 986.739 1408.12 C 1022.27 1253.9 1116.87 1119.76 1250.23 1034.53 C 1342.27 976.558 1456.5 945.15 1565.09 967.555 C 1663.76 987.915 1680.58 1054.28 1587.4 1103.43 C 1538.17 1129.4 1480.46 1151.05 1433.13 1179.84 C 1348.26 1231.46 1271 1316.66 1247.1 1415.22 C 1242.88 1432.16 1240.5 1449.51 1240.01 1466.96 C 1239.21 1498.19 1244.74 1528.47 1245.67 1559.92 C 1246.15 1574.37 1246.12 1588.84 1245.59 1603.29 C 1245.07 1615.78 1243.94 1628.33 1244.43 1640.84 C 1245.33 1663.89 1255.34 1669.03 1275.84 1660.04 C 1300.7 1649.14 1323.88 1634.96 1348.27 1623.08 C 1428.19 1583.29 1506.52 1559.43 1561.93 1484.05 C 1634.07 1385.93 1652.65 1267.5 1657.19 1148.44 C 1657.63 1136.88 1656.37 1123.73 1657.39 1112.53 L 1656.02 1103.07 L 1654.73 1096.83 L 1653.49 1096.12 C 1648.5 1099.71 1644.34 1104.02 1639.56 1107.58 C 1583.78 1149.04 1533 1192.21 1487.38 1245.27 C 1475.27 1259.51 1463.52 1274.07 1452.16 1288.93 C 1448.31 1294.04 1427.49 1324.03 1424.66 1326.23 C 1406.27 1353.54 1387.78 1380.75 1371.27 1409.26 C 1331.93 1475.27 1294.63 1540.27 1269.99 1613.63 C 1267.76 1620.25 1261.33 1637.47 1263.61 1643.39 C 1264.77 1641.66 1264.71 1642.08 1265.29 1640.16 L 1267.5 1640.72 C 1272.09 1646.81 1275.24 1643.89 1281.15 1641.3 C 1302.91 1631.76 1322.52 1617.51 1343.47 1606.68 C 1376.25 1589.74 1409.18 1573.2 1441.6 1555.53 L 1442.25 1558.67 C 1438.53 1561.51 1431.74 1565.15 1427.43 1567.31 C 1377.83 1592.11 1330 1619.98 1280.74 1645.35 C 1275.72 1647.93 1265.54 1652.42 1260.41 1648.96 C 1251.43 1633.14 1258.44 1589.4 1257.66 1570.54 C 1257.46 1565.74 1257.97 1553.89 1258.83 1549.27 C 1259.13 1527.76 1260.3 1506.26 1262.32 1484.84 C 1263.62 1471.09 1265.73 1457.43 1268.63 1443.93 C 1293.06 1331.25 1377.66 1243.11 1475.1 1187.02 C 1519.17 1161.64 1564.18 1141.36 1608.72 1117.24 C 1627.08 1107.31 1642.58 1092.43 1660.37 1081.01 z" fill="rgb(176,119,40)" transform="translate(0,0)"></path>
<path d="M 1371.27 1409.26 L 1369.92 1406.91 C 1371.03 1399.72 1411.96 1338.74 1419.56 1328.91 C 1422 1325.75 1421.43 1326.53 1424.66 1326.23 C 1406.27 1353.54 1387.78 1380.75 1371.27 1409.26 z" fill="rgb(142,87,34)" transform="translate(0,0)"></path>
<path d="M 1262.32 1484.84 C 1265.21 1494.14 1262.99 1541.42 1258.83 1549.27 C 1259.13 1527.76 1260.3 1506.26 1262.32 1484.84 z" fill="rgb(142,87,34)" transform="translate(0,0)"></path>
<path d="M 1656.02 1103.07 C 1655.65 1098.48 1655.24 1096.92 1656.32 1092.55 L 1657.48 1092.53 C 1659.11 1098.93 1659.54 1106.19 1657.39 1112.53 L 1656.02 1103.07 z" fill="rgb(142,87,34)" transform="translate(0,0)"></path>
<path d="M 1485.98 968.441 C 1500.67 967.924 1513.17 969.071 1528.81 970.345 C 1578.03 974.355 1687.23 1006.41 1619.96 1071.64 C 1608.77 1082.48 1590.94 1091.86 1576.78 1099.78 C 1538.44 1121.21 1496.99 1136.69 1457.93 1156.77 C 1431.43 1170.31 1406.34 1186.42 1383.02 1204.88 C 1306.85 1264.74 1245.22 1347.36 1232.58 1446.02 C 1227.34 1486.88 1237.3 1530.03 1237.97 1572.48 C 1238.23 1584 1237.96 1595.53 1237.14 1607.03 C 1235.7 1626.1 1231.05 1650.66 1243.64 1666.75 C 1252.54 1677.56 1270.75 1672.97 1281.72 1667.75 C 1307.47 1655.48 1332.13 1640.59 1357.71 1627.86 C 1413.24 1600.21 1474.58 1579.56 1522.48 1539.01 C 1548.49 1516.98 1570.56 1488.49 1588.32 1459.51 C 1653.84 1355.9 1661.65 1232.12 1667.2 1113.03 C 1669.1 1095.28 1669.51 1061.58 1685.93 1050.56 C 1723.35 1025.46 1787.39 1075.3 1808.63 1101.41 C 1854.33 1157.59 1870.83 1235.88 1863.74 1306.24 C 1852.24 1430.52 1777.95 1577.44 1695.78 1670.67 C 1611.81 1765.97 1500.29 1839.73 1370.51 1848.2 C 1270.35 1854.74 1178.75 1825.77 1102.96 1759.01 C 1035.41 1699.51 990.409 1613.3 985.28 1522.95 C 977.552 1386.82 1047.23 1239.14 1136.93 1140.03 C 1212.89 1056.1 1321.62 990.628 1434.28 972.999 C 1452 970.226 1468.06 969.336 1485.98 968.441 z" fill="rgb(232,163,60)" transform="translate(0,0)"></path>
<path d="M 1416.34 1254.14 C 1438.16 1253.05 1428.12 1274.34 1422.98 1285.91 C 1412.48 1309.57 1391.6 1346.95 1366.11 1356.35 C 1346.74 1356.7 1350.23 1337.83 1355.09 1325.6 C 1365.41 1299.59 1390.43 1265.9 1416.34 1254.14 z" fill="rgb(142,87,34)" transform="translate(0,0)"></path>
<path d="M 1416.73 1257.91 C 1429.58 1257.55 1423.32 1272.14 1420.46 1279.1 C 1410.72 1302.81 1388.9 1342.28 1364.3 1352.41 C 1342.43 1348.59 1365.84 1312.27 1371.87 1302.72 C 1382.53 1285.82 1398.58 1267.01 1416.73 1257.91 z" fill="rgb(222,211,194)" transform="translate(0,0)"></path>
<path d="M 1312.28 1378.96 C 1332.5 1377.83 1324.07 1412.57 1321.05 1423.91 C 1317.12 1438.67 1310.6 1455.39 1296.79 1463.19 C 1278.89 1463.5 1283.73 1439.37 1286.4 1427.89 C 1290.17 1411.69 1297.53 1388.3 1312.28 1378.96 z" fill="rgb(142,87,34)" transform="translate(0,0)"></path>
<path d="M 1313.61 1382.45 L 1316.58 1383.49 C 1326.08 1392.7 1317.22 1424.8 1313.21 1436.01 C 1309.41 1446.63 1305.08 1454.84 1294.53 1459.7 C 1286.95 1456.45 1285.75 1449.34 1286.86 1441.65 C 1289.8 1421.29 1297.24 1395.97 1313.61 1382.45 z" fill="rgb(222,211,194)" transform="translate(0,0)"></path>
<path d="M 1265.29 1640.16 C 1267.31 1630.8 1272.37 1619.57 1275.9 1610.48 C 1287.42 1580.82 1301.15 1553.45 1315.77 1525.19 C 1381.96 1397.28 1462.11 1271.87 1569.68 1174.73 C 1590.96 1155.51 1615.66 1137.81 1638.93 1121.28 C 1640.68 1180.63 1628.56 1257.07 1613.19 1314.4 C 1589.03 1404.47 1524.99 1511.89 1442.25 1558.67 L 1441.6 1555.53 C 1409.18 1573.2 1376.25 1589.74 1343.47 1606.68 C 1322.52 1617.51 1302.91 1631.76 1281.15 1641.3 C 1275.24 1643.89 1272.09 1646.81 1267.5 1640.72 L 1265.29 1640.16 z" fill="rgb(212,168,75)" transform="translate(0,0)"></path>
<path d="M 1265.29 1640.16 C 1267.31 1630.8 1272.37 1619.57 1275.9 1610.48 C 1287.42 1580.82 1301.15 1553.45 1315.77 1525.19 C 1381.96 1397.28 1462.11 1271.87 1569.68 1174.73 C 1590.96 1155.51 1615.66 1137.81 1638.93 1121.28 C 1640.68 1180.63 1628.56 1257.07 1613.19 1314.4 C 1589.03 1404.47 1524.99 1511.89 1442.25 1558.67 L 1441.6 1555.53 C 1523.81 1509.15 1587.24 1399.72 1611.55 1310.63 C 1626.06 1257.47 1637.62 1181.63 1635.97 1126.59 C 1624.05 1138.06 1608.14 1147.92 1595.17 1158.49 C 1471.12 1259.55 1386.59 1398.58 1312.33 1538.1 C 1300.51 1560.3 1290.72 1584.7 1280.56 1607.73 C 1276.53 1616.84 1271.7 1632.84 1267.5 1640.72 L 1265.29 1640.16 z" fill="rgb(142,87,34)" transform="translate(0,0)"></path>
<path d="M 1484.6 1415.93 C 1489.56 1415.78 1495.32 1415.73 1496.17 1422.64 C 1500.24 1455.75 1468.5 1506.74 1436.5 1516.16 C 1423.21 1515.85 1423.1 1504.43 1425.95 1494.51 C 1433.73 1467.45 1460.56 1430.09 1484.6 1415.93 z" fill="rgb(142,87,34)" transform="translate(0,0)"></path>
<path d="M 1486.92 1418.55 C 1507.13 1422.46 1472.14 1503.22 1433.49 1512.12 C 1412.25 1493.67 1469.69 1429.37 1486.92 1418.55 z" fill="rgb(222,211,194)" transform="translate(0,0)"></path>
<path d="M 1574.01 1307.89 C 1595.74 1314.12 1579.86 1347.1 1574.53 1360.91 C 1568.91 1375.46 1555.23 1396.71 1540.08 1402.44 C 1524.8 1401.63 1526.95 1386.87 1530.61 1376.25 C 1537.25 1356.91 1555.49 1317.51 1574.01 1307.89 z" fill="rgb(142,87,34)" transform="translate(0,0)"></path>
<path d="M 1573.88 1313.56 C 1575.93 1313.58 1575.73 1313.72 1577.77 1314.31 C 1588.91 1326.64 1567.73 1368.86 1559.81 1380.38 C 1554.11 1388.66 1549.05 1394.96 1539.31 1398.25 C 1536.51 1398.04 1536.59 1397.84 1534.13 1396.35 C 1524.04 1381.09 1559.7 1324.36 1573.88 1313.56 z" fill="rgb(222,211,194)" transform="translate(0,0)"></path>
<path d="M 1385.32 1523.17 C 1388.12 1523.03 1392.07 1522.43 1394.73 1523.42 C 1397.3 1524.37 1398.89 1525.89 1400.08 1528.33 C 1401.6 1531.45 1401.65 1534.84 1400.51 1538.1 C 1394.57 1554.98 1369.83 1569.66 1354.56 1576.86 C 1351.73 1577.13 1348.65 1577.58 1345.81 1577.45 C 1342.87 1577.31 1341.31 1576.1 1339.36 1573.98 C 1337.85 1569.93 1338.41 1567.22 1340.1 1563.4 C 1347.61 1546.44 1368.48 1530.14 1385.32 1523.17 z" fill="rgb(142,87,34)" transform="translate(0,0)"></path>
<path d="M 1386.83 1527.02 C 1388.22 1526.99 1390.19 1526.79 1391.52 1527.16 C 1394.17 1527.91 1394.6 1528.93 1395.92 1531.12 C 1396.1 1533.76 1395.75 1535.61 1394.64 1537.98 C 1387.35 1553.48 1366.07 1567.99 1350.6 1574.15 L 1345.45 1574.69 C 1342.74 1573.52 1342.75 1573.72 1341.63 1571.01 C 1341.94 1568.03 1342.72 1565.83 1344.18 1563.2 C 1352.25 1548.66 1370.77 1531.56 1386.83 1527.02 z" fill="rgb(222,211,194)" transform="translate(0,0)"></path>
<path d="M 944.395 1560.52 C 940.319 1556.72 936.695 1552.62 932.816 1548.66 C 738.238 1350.16 726.345 1036.49 840.309 794.081 C 854.095 764.416 869.556 736.514 886.734 708.558 C 1017.62 495.556 1286.7 307.06 1546.97 360.314 C 1566.68 364.349 1589.03 370.392 1607.04 378.855 C 1603.8 387.234 1600.25 395.728 1596.88 404.078 C 1581.81 400.312 1553.03 396.926 1545.44 411.256 C 1520.93 457.532 1624.94 498.286 1650.95 460.685 C 1663.42 442.655 1642.44 427.123 1629.66 419.293 C 1633.72 410.088 1637.26 402.105 1641.95 393.156 C 1678.42 407.419 1721.87 444.389 1749.11 472.608 C 1770.85 614.608 1746.02 852.364 1657.74 971.351 C 1656.49 973.035 1655.17 974.667 1653.79 976.244 C 1554.75 918.925 1426.75 930.672 1323.51 970.185 C 1312.34 974.462 1301.58 979.595 1290.54 983.874 C 1221.44 1017.03 1176.87 1047.98 1121.35 1101.27 C 1074.7 1148.61 1036.77 1199.08 1006.55 1258.43 C 1003.25 1264.91 999.353 1272.88 995.642 1279.04 C 966.382 1345.7 942.397 1412.43 940.853 1486.24 C 940.197 1514.43 941.514 1532.66 944.395 1560.52 z" fill="rgb(232,163,60)" transform="translate(0,0)"></path>
<path d="M 940.853 1486.24 L 938.885 1486.26 C 934.72 1483.03 928.681 1469.42 926.125 1463.97 C 907.624 1423.75 890.962 1380.08 881.583 1336.76 C 821.864 1060.89 938.139 754.719 1154.17 576.2 C 1231.75 512.089 1308.65 471.521 1405.92 449.962 C 1384.88 470.471 1364.51 491.65 1344.83 513.469 C 1311.99 550.52 1275.62 593.807 1246.41 633.489 C 1133.85 785.986 1055.24 960.814 1015.87 1146.22 C 1010.49 1171.56 994.104 1254.02 995.642 1279.04 C 966.382 1345.7 942.397 1412.43 940.853 1486.24 z" fill="rgb(212,168,75)" transform="translate(0,0)"></path>
<path d="M 1414.63 530.2 C 1401.89 565.254 1388.44 616.231 1378.18 652.246 C 1358.18 720.45 1339.24 788.96 1321.36 857.75 L 1300.88 935.745 C 1297.43 949.293 1291.62 970.449 1290.54 983.874 C 1221.44 1017.03 1176.87 1047.98 1121.35 1101.27 C 1120.98 1099.41 1120.74 1097.89 1120.96 1095.97 C 1145.27 886.398 1258.99 670.592 1414.63 530.2 z" fill="rgb(212,168,75)" transform="translate(0,0)"></path>
<path d="M 1749.11 472.608 C 1763.95 487.891 1778.79 508.741 1790.59 526.732 C 1858.46 630.176 1879.03 762.438 1878.66 884.001 C 1878.46 951.927 1868.32 1031.98 1850.17 1097.91 C 1838.7 1084.59 1829.92 1074.84 1817.21 1062.49 C 1822.11 1041.58 1824.76 1032.61 1832.77 999.909 C 1848.06 937.425 1856.37 858.798 1846.38 793.621 C 1846.01 793.193 1845.64 792.765 1845.27 792.337 L 1843.61 793.43 C 1842.77 801.829 1843.45 813.847 1843.47 822.591 C 1843.49 838.886 1843.05 855.179 1842.14 871.449 C 1837.87 938.01 1825.57 990.832 1807.89 1054.05 C 1796.3 1045.01 1788.38 1039.49 1775.54 1032.36 C 1783.93 1006.98 1806.22 931.152 1803.76 906.304 L 1802.83 905.947 C 1799.07 913.214 1789.92 953.676 1787.04 964.38 C 1781.04 986.666 1774.5 1005.6 1767.1 1027.49 C 1740.8 1012 1715.96 1007.42 1688.12 998.176 C 1682.7 996.374 1660.64 980.336 1653.79 976.244 C 1655.17 974.667 1656.49 973.035 1657.74 971.351 C 1746.02 852.364 1770.85 614.608 1749.11 472.608 z" fill="rgb(212,168,75)" transform="translate(0,0)"></path>
<path d="M 1107.48 220.452 L 1108.33 220.386 L 1108.83 221.27 C 1104.73 225.734 1099.69 229.474 1095.13 233.621 C 1086.27 241.642 1077.81 250.091 1069.77 258.939 C 1014.4 320.301 982.328 378.497 951.011 453.382 C 916.94 459.653 891.324 461.262 857.074 463.902 C 855.698 463.42 856.387 463.863 855.358 462.143 C 858.603 452.531 869.518 430.733 874.276 420.628 C 909.592 345.634 947.311 285.876 1009.88 231.385 C 1017.89 229.636 1026.78 228.608 1034.99 227.773 C 1058.95 225.341 1083.45 221.543 1107.48 220.452 z" fill="rgb(212,168,75)" transform="translate(0,0)"></path>
<path d="M 986.627 235.334 L 986.945 235.448 C 987.13 236.387 959.325 265.804 956.303 269.375 C 909.384 324.83 867.777 395.518 843.59 464.113 C 809.695 464.391 782.43 463.464 748.734 461.753 L 745.633 460.644 L 745.235 458.739 C 771.323 390.899 824.118 313.836 872.907 260.688 C 881.11 257.566 899.666 253.727 908.761 251.649 C 934.594 245.642 960.555 240.202 986.627 235.334 z" fill="rgb(212,168,75)" transform="translate(0,0)"></path>
<path d="M 946.6 87.3377 C 947.704 87.0954 948.785 86.9791 949.916 86.9161 C 964.673 86.0941 1063.45 158.028 1081.62 172.053 C 1095.85 183.175 1109.73 194.734 1123.24 206.714 C 1085.54 208.542 1046.46 213.904 1009.01 218.629 C 1004.72 219.17 999.561 221.167 996.059 219.278 C 987.032 211.04 969.888 201.411 958.878 194.887 C 933.731 179.857 908.036 165.765 881.845 152.641 C 858.845 141.384 836.773 132.136 813.629 121.61 C 858.794 103.197 898.46 94.7427 946.6 87.3377 z" fill="rgb(212,168,75)" transform="translate(0,0)"></path>
<path d="M 1165.79 217.44 C 1181.14 216.356 1201.55 216.74 1217.3 216.676 C 1160.4 263.582 1093.59 344.926 1070.98 415.613 C 1049.62 425.228 1027.86 432.297 1005.61 439.507 C 992.284 443.427 977.354 447.63 963.818 450.34 C 967.234 439.755 977.72 418.393 982.769 408.158 C 1017.22 338.314 1067.66 267.697 1128.85 219.005 C 1140.74 218.81 1153.82 217.972 1165.79 217.44 z" fill="rgb(212,168,75)" transform="translate(0,0)"></path>
<path d="M 798.909 126.994 C 863.495 153.775 925.872 185.601 985.461 222.176 C 961.583 227.009 937.769 231.827 914.013 237.227 C 907.724 238.657 874.486 247.581 870.693 246.684 C 859.302 240.501 842.47 234.316 830.185 229.776 C 781.586 211.648 731.288 198.45 680.05 190.379 C 716.508 165.154 757.251 142.285 798.909 126.994 z" fill="rgb(212,168,75)" transform="translate(0,0)"></path>
<path d="M 851.153 266.032 L 852.425 266.259 C 851.599 269.199 842.06 279.257 839.337 282.496 C 828.775 295.273 818.727 308.466 809.217 322.043 C 780.685 362.185 751.042 414.366 732.597 460.243 C 705.888 457.969 677.872 454.378 651.185 451.255 L 636.591 449.762 C 652.369 412.249 701.209 336.707 732.053 309.641 C 742.42 300.544 832.977 271.657 851.153 266.032 z" fill="rgb(212,168,75)" transform="translate(0,0)"></path>
<path d="M 667.145 199.961 C 678.874 202.623 694.59 203.506 707.357 206.252 C 748.822 215.17 817.525 231.434 854.897 250.992 C 844.373 255.207 827.615 260.158 816.451 263.928 C 794.258 271.485 772.169 279.343 750.19 287.5 C 737.611 292.27 725.258 297.613 713.167 303.512 C 687.598 290.804 607.559 285.222 577.854 284.988 C 591.715 264.127 645.805 215.827 667.145 199.961 z" fill="rgb(212,168,75)" transform="translate(0,0)"></path>
<path d="M 1234.11 218.022 C 1260.21 217.825 1290.24 218.944 1316.11 222.312 L 1315.02 223.024 C 1294.59 236.501 1267.18 263.914 1251.08 282.58 C 1239.12 296.446 1208.96 336.939 1205.57 353.344 L 1140.96 384.5 C 1122.59 393.135 1102.76 402.311 1083.83 409.502 C 1106.38 350.314 1180.93 252.064 1234.11 218.022 z" fill="rgb(212,168,75)" transform="translate(0,0)"></path>
<path d="M 987.118 84.5644 C 1006.44 83.0949 1106.31 85.5893 1118.24 94.3043 C 1152.85 119.596 1220.51 172.196 1246.78 205.222 L 1233.26 205.023 C 1203.45 204.968 1166.93 204.041 1137.61 206.118 C 1130.81 200.308 1124.24 194.267 1117.54 188.342 C 1073.62 149.469 1023.35 116.917 974.287 85.1485 C 978.549 84.9993 982.854 84.7633 987.118 84.5644 z" fill="rgb(212,168,75)" transform="translate(0,0)"></path>
<path d="M 568.728 295.111 C 574.389 296.29 603.633 296.56 611.6 296.989 C 641.137 298.435 670.487 302.496 699.307 309.123 C 640.119 335.425 583.329 366.824 529.58 402.965 C 504.404 421.462 480.23 439.076 456.163 459.041 C 462.998 443.165 477.893 420.265 487.65 405.46 C 512.746 367.378 538.939 329.672 568.728 295.111 z" fill="rgb(212,168,75)" transform="translate(0,0)"></path>
<path d="M 704.86 320.076 L 705.457 321.494 C 670.636 365.361 647.976 398.808 625.275 449.63 C 588.109 447.191 545.817 448.674 509.963 458.327 C 493.227 462.833 476.709 469.499 459.796 473.829 L 458.439 473.675 C 460.388 470.282 467.638 464.664 471.13 461.836 C 522.027 420.619 577.374 385.291 635.311 354.872 C 658.486 342.705 680.528 329.74 704.86 320.076 z" fill="rgb(212,168,75)" transform="translate(0,0)"></path>
<path d="M 1142.96 97.6701 C 1195.28 104.773 1266.08 135.382 1312.77 159.415 C 1320.95 163.627 1361.29 206.772 1367.4 215.592 C 1333.02 210.562 1295.94 207.921 1261.19 205.901 C 1254.99 197.925 1243.92 188.367 1236.7 180.793 C 1207.6 150.297 1174.09 125.198 1142.96 97.6701 z" fill="rgb(212,168,75)" transform="translate(0,0)"></path>
<path d="M 1332.18 224.082 C 1347.59 223.375 1413.65 232.567 1431.07 235.625 C 1421.23 242.683 1399.55 252.699 1387.57 259.107 L 1282.34 314.666 C 1260.36 326.091 1239.42 336.94 1216.7 346.91 C 1243.76 302.437 1287.79 251.562 1332.18 224.082 z" fill="rgb(212,168,75)" transform="translate(0,0)"></path>
<path d="M 1484.9 1863.1 C 1489.13 1863.57 1503.51 1876.47 1507.79 1879.77 C 1472.85 1907.19 1434.71 1928.64 1393.78 1945.58 C 1379.14 1937.78 1364.68 1929.62 1350.43 1921.12 C 1334.26 1911.18 1318.08 1901.38 1302.84 1890.02 C 1318.79 1890.01 1334.72 1891.99 1350.7 1891.7 C 1396.97 1890.84 1441.52 1878.21 1484.9 1863.1 z" fill="rgb(232,163,60)" transform="translate(0,0)"></path>
<path d="M 1705.12 1713.6 C 1712.64 1716.98 1727.96 1744.29 1733.4 1752.6 C 1727.13 1762.77 1719.23 1772.29 1712.02 1781.82 C 1694.97 1804.38 1677.5 1826.23 1659.2 1847.79 C 1655.99 1844.67 1653.19 1841.22 1650.32 1837.79 C 1637.2 1824.26 1623.27 1811.65 1609.98 1798.32 C 1622.56 1787.29 1636.18 1777.34 1648.89 1766.41 C 1668.41 1749.62 1686.84 1731.71 1705.12 1713.6 z" fill="rgb(212,168,75)" transform="translate(0,0)"></path>
<path d="M 1595.98 427.153 C 1596.3 422.376 1605.29 402.042 1607.94 395.929 C 1638.64 324.942 1684.02 257.613 1740.3 204.396 C 1759.08 186.636 1770.03 195.78 1774.06 218.667 C 1760.14 225.311 1746.85 238.597 1735.87 249.536 C 1693.85 291.043 1659.24 339.445 1633.57 392.641 C 1629.85 400.239 1618.78 421.804 1617.46 429.218 C 1612.27 439.09 1602.34 431.969 1595.98 427.153 z" fill="rgb(212,168,75)" transform="translate(0,0)"></path>
<path d="M 1602.62 1806.62 C 1608.49 1811.11 1614 1818.27 1619.15 1823.69 C 1629.8 1834.9 1640.53 1846.03 1651.34 1857.08 C 1631.75 1878.56 1612.36 1901.35 1590.17 1920.17 L 1583.56 1915.58 C 1564.85 1903.38 1546.07 1891.47 1527.63 1878.86 C 1536.48 1869.84 1546.74 1861.95 1556 1853.29 C 1572.04 1838.31 1587.43 1822.44 1602.62 1806.62 z" fill="rgb(212,168,75)" transform="translate(0,0)"></path>
<path d="M 1810.43 1653.87 C 1818.05 1663.05 1832.07 1700.32 1836.07 1712.55 C 1824.71 1730.42 1814.66 1749.24 1803.69 1767.37 C 1793.31 1784.52 1781.95 1800.96 1770.34 1817.28 L 1769.9 1817.43 C 1767.41 1815.52 1766.55 1808.9 1765.69 1805.72 C 1760.96 1788.29 1754.96 1770.93 1746.86 1754.75 C 1769.21 1721.89 1787.71 1686.34 1810.43 1653.87 z" fill="rgb(212,168,75)" transform="translate(0,0)"></path>
<path d="M 1738.56 1766.54 C 1747.22 1773.31 1758.07 1819.06 1760.94 1831.77 C 1742.68 1863.08 1715.92 1878.37 1685.37 1895.49 C 1683.21 1896.7 1681.9 1897.43 1679.39 1897.48 C 1673.69 1885.16 1671.89 1872.1 1664.99 1859.93 C 1691.08 1830.07 1715.63 1798.9 1738.56 1766.54 z" fill="rgb(212,168,75)" transform="translate(0,0)"></path>
<path d="M 995.601 1701.68 C 1000.21 1705.42 1003.83 1712.62 1007.26 1717.66 C 1056.03 1789.44 1127.01 1843.25 1209.29 1870.83 C 1233.18 1878.74 1257.79 1883.45 1282.46 1888.16 C 1287.32 1892.97 1293.77 1895.96 1298.26 1901.11 L 1297.01 1901.76 C 1278.22 1903.86 1227.72 1908.98 1211.71 1903.33 C 1200.38 1899.33 1189.38 1892.64 1178.75 1887 C 1102.93 1846.74 1033.23 1779.27 995.601 1701.68 z" fill="rgb(232,163,60)" transform="translate(0,0)"></path>
<path d="M 1866.48 1533.67 C 1875.18 1542.71 1888.24 1583.71 1893.04 1597.03 C 1882.94 1620.8 1871.24 1644.3 1859.47 1667.29 C 1854.11 1677.76 1849.05 1688.6 1842.95 1698.64 C 1835.32 1678.16 1827.72 1656.5 1816.06 1637.94 C 1823.08 1627.28 1828.51 1615.42 1834.2 1604.02 C 1845.81 1580.79 1856.69 1557.75 1866.48 1533.67 z" fill="rgb(212,168,75)" transform="translate(0,0)"></path>
<path d="M 1517.49 1886.62 C 1525.55 1890.93 1533.22 1896.95 1540.87 1902 C 1553.95 1910.72 1567.25 1919.1 1580.76 1927.14 C 1573.12 1932.38 1565.25 1937.71 1556.58 1941.06 C 1536.9 1948.65 1500.48 1949.95 1478.59 1951.91 C 1457.45 1952.42 1434.35 1954.34 1413.5 1950.39 C 1450.98 1934.1 1485.98 1912.63 1517.49 1886.62 z" fill="rgb(212,168,75)" transform="translate(0,0)"></path>
<path d="M 1905.82 1416.59 C 1915.88 1430.88 1930.7 1464.13 1933.62 1481.62 C 1927.64 1496.28 1922.92 1513.19 1917.61 1528.21 C 1911.66 1545.04 1905.39 1561.64 1899.14 1578.35 L 1898.75 1578.34 C 1896.3 1576.8 1876.7 1526.24 1872.31 1518.15 C 1884.79 1484.74 1895.97 1450.87 1905.82 1416.59 z" fill="rgb(212,168,75)" transform="translate(0,0)"></path>
<path d="M 1788.56 1603.89 C 1795.6 1612.24 1800.27 1626.61 1804.89 1636.61 C 1789.5 1663.34 1774.28 1690.13 1757.82 1716.22 C 1752.56 1724.55 1747.25 1734.69 1740.46 1741.8 C 1738.05 1740.36 1737.16 1738.01 1735.78 1735.62 C 1730.16 1724.23 1723.21 1713.29 1713.97 1704.54 C 1743.11 1675.5 1766.3 1638.27 1788.56 1603.89 z" fill="rgb(212,168,75)" transform="translate(0,0)"></path>
<path d="M 1624.24 430.309 C 1624.99 429.86 1626.93 427.433 1627.63 426.613 C 1643.94 427.017 1652.73 450.493 1642.24 458.742 C 1621.94 476.281 1573.16 462.482 1558.01 442.486 C 1532.35 408.629 1572.45 405.138 1595.29 408.5 C 1592.7 416.671 1590.12 421.867 1593.36 429.76 L 1595.98 427.153 C 1602.34 431.969 1612.27 439.09 1617.46 429.218 L 1617.64 432.218 C 1621.9 431.972 1622.04 430.554 1624.24 430.309 z" fill="rgb(212,168,75)" transform="translate(0,0)"></path>
<path d="M 1622.72 434.122 C 1625.7 436.152 1630.35 440.712 1629.99 443.463 C 1627.17 465.252 1586.81 454.898 1576.78 444.532 C 1570.09 437.619 1567.51 428.958 1572.85 422.144 C 1576.6 418.257 1584.08 415.515 1589.27 418.611 C 1584.86 422.895 1576.55 424.195 1576.82 430.438 C 1577.36 442.819 1600.22 449.11 1609.93 449.385 C 1617.13 449.589 1627.5 446.575 1622.06 438.084 L 1622.72 434.122 z" fill="rgb(176,119,40)" transform="translate(0,0)"></path>
<path d="M 1593.36 429.76 L 1595.98 427.153 C 1602.34 431.969 1612.27 439.09 1617.46 429.218 L 1617.64 432.218 C 1621.9 431.972 1622.04 430.554 1624.24 430.309 C 1623.34 432.021 1622.44 432.876 1622.72 434.122 L 1622.06 438.084 C 1609.37 439.408 1601.71 440.884 1593.36 429.76 z" fill="rgb(142,87,34)" transform="translate(0,0)"></path>
<path d="M 1849.51 1498.55 C 1854.38 1502.89 1857.56 1510.89 1860.57 1516.59 C 1854.32 1533.33 1820.64 1610.63 1811.92 1621.24 L 1810.75 1620.54 C 1805.97 1611.83 1801.14 1603.08 1795.2 1595.09 C 1814.98 1563.88 1833.11 1531.66 1849.51 1498.55 z" fill="rgb(212,168,75)" transform="translate(0,0)"></path>
<path d="M 1696.83 230.245 L 1699.62 229.918 L 1700.31 231.026 C 1699.21 233.423 1694.89 239.031 1692.9 239.803 C 1623.14 266.783 1505.1 253.794 1439.19 242.877 L 1436.32 242.368 C 1434.21 239.399 1434.66 240.979 1434.65 237.551 C 1435.73 236.273 1436.81 234.628 1438.85 234.948 C 1531.17 249.493 1605.32 254.165 1696.83 230.245 z" fill="rgb(212,168,75)" transform="translate(0,0)"></path>
<path d="M 1896.37 1613.59 C 1900.2 1617.04 1902.5 1632.66 1903.93 1638.08 C 1893.31 1670.67 1873.48 1711.58 1853.65 1739.33 L 1852.96 1739.44 C 1849.47 1735.52 1848.17 1721.57 1846.54 1715.75 C 1852.73 1705.93 1857.63 1695 1862.88 1684.65 C 1874.79 1661.17 1885.88 1637.72 1896.37 1613.59 z" fill="rgb(212,168,75)" transform="translate(0,0)"></path>
<path d="M 1924.35 1310.74 C 1933.86 1319.54 1939.55 1435.82 1939.14 1456.95 C 1937.43 1454.54 1935.58 1450.22 1934.26 1447.38 C 1926.34 1432.52 1918.56 1415.41 1910.96 1400.16 C 1916.36 1388.64 1922.37 1327.14 1924.35 1310.74 z" fill="rgb(212,168,75)" transform="translate(0,0)"></path>
<path d="M 1309.45 1908.42 C 1331.68 1923.13 1354.3 1937.03 1377.98 1949.29 C 1356.44 1946.4 1335.4 1941.5 1314.24 1936.63 C 1287.19 1929.72 1261.47 1922.05 1235 1913.27 C 1259.98 1914.66 1284.72 1911.61 1309.45 1908.42 z" fill="rgb(232,163,60)" transform="translate(0,0)"></path>
<path d="M 1899.78 1219.55 C 1903.95 1226.17 1906.74 1238.86 1909.53 1246.32 C 1925.98 1290.37 1913.56 1334.47 1904.88 1380.79 L 1903.78 1383.6 C 1902.22 1383.27 1898.47 1372.39 1894.05 1367.13 C 1905.51 1311.46 1905.87 1275.12 1899.78 1219.55 z" fill="rgb(212,168,75)" transform="translate(0,0)"></path>
<path d="M 1657.82 1869.59 C 1662.37 1871.88 1669.92 1896.68 1671.93 1902.48 C 1652.47 1911.9 1632.86 1920.78 1612.25 1927.37 C 1608.08 1929.05 1603.29 1930.02 1598.96 1931.28 C 1606.81 1920.51 1617.12 1911.48 1626.54 1902.12 C 1637.13 1891.44 1647.56 1880.59 1657.82 1869.59 z" fill="rgb(212,168,75)" transform="translate(0,0)"></path>
<path d="M 1889.64 1384.81 C 1891.51 1387.07 1897.84 1398.87 1899.66 1402.13 C 1888.14 1436.96 1879.61 1468.3 1865.91 1502.48 C 1862.22 1496.27 1859.97 1491.18 1854.88 1485.93 C 1871.57 1447.52 1878.5 1425.12 1889.64 1384.81 z" fill="rgb(212,168,75)" transform="translate(0,0)"></path>
<path d="M 1838.69 1727.85 C 1842.42 1732.34 1843.39 1747.41 1844.44 1753.58 C 1822.5 1780.6 1802.68 1807.6 1776.74 1831.15 L 1775.03 1832.44 L 1774.62 1831.83 C 1782.79 1815.82 1794.54 1801.14 1804.24 1786.03 C 1816.42 1767.06 1827.26 1747.27 1838.69 1727.85 z" fill="rgb(212,168,75)" transform="translate(0,0)"></path>
<path d="M 1934.45 1503.74 C 1934.55 1504.5 1934.64 1505.27 1934.71 1506.05 C 1937.04 1531.78 1925.74 1564.28 1919.35 1589.2 C 1917.17 1597.7 1915.15 1613.65 1909.59 1620.35 L 1908.44 1618.77 C 1906.67 1611.95 1904.46 1605.24 1902.37 1598.52 C 1916.6 1568.1 1922.28 1534.95 1934.45 1503.74 z" fill="rgb(212,168,75)" transform="translate(0,0)"></path>
<path d="M 1579.59 1816.2 C 1578.65 1821.84 1524.11 1865.56 1516.38 1872.01 L 1509.05 1866.23 L 1499.23 1858.06 C 1526.9 1845.12 1553.07 1831.38 1579.59 1816.2 z" fill="rgb(212,168,75)" transform="translate(0,0)"></path>
<path d="M 1346.6 179.289 C 1343.54 176.929 1339.43 174.305 1337.96 171.019 C 1341.4 171.907 1344.53 174.942 1347.4 177.244 C 1365.36 187.859 1400.15 210.195 1414.64 223.639 C 1405.19 222.384 1388.74 219.741 1379.47 217.506 C 1372.43 207.337 1356.03 187.826 1346.6 179.289 z" fill="rgb(212,168,75)" transform="translate(0,0)"></path>
<path d="M 282.489 763.735 C 293.659 762.763 329.393 764.441 342.202 764.935 C 372.068 766.087 403.21 766.116 432.828 767.58 C 436.436 776.515 439.376 786.916 443.023 795.978 C 455.753 827.606 466.902 859.984 479.358 891.664 C 498.347 939.437 517.788 987.029 537.68 1034.43 C 568.464 1110.3 600.721 1185.57 634.435 1260.18 C 685.482 1368.75 741.116 1475.1 801.187 1578.94 C 828.437 1627.16 858.206 1681.98 895.417 1722.81 C 910.943 1739.85 915.771 1753.54 926.407 1774.11 C 934.601 1789.7 943.025 1805.16 951.677 1820.5 C 961.384 1838.15 971.26 1855.7 981.301 1873.16 C 989.428 1887.1 1000.6 1903.65 1005.79 1918.43 C 1002.45 1933.8 904.264 1963.84 886.728 1966.58 C 868.768 1969.38 833.491 1970.83 814.465 1971.16 L 811.449 1971.31 C 656.492 1978.64 484.511 1946.9 354.738 1859.53 C 28.0531 1639.61 37.7123 1187.26 211.421 873.119 C 229.056 841.227 258.16 790.472 282.489 763.735 z" fill="rgb(176,119,40)" transform="translate(0,0)"></path>
<path d="M 866.75 1960.03 C 844.058 1962.93 794.672 1963.08 771.064 1962.94 C 614.655 1961.99 455.642 1926.8 329.81 1829.72 C 202.18 1732.41 124.269 1580.74 105.99 1422.21 C 84.7943 1238.39 130.087 1039.67 219.029 878.02 C 237.276 844.857 260.093 806.099 283.279 775.909 C 285.289 784.828 287.181 792.884 288.443 801.971 C 293.523 824.706 300.258 848.966 306.573 871.435 C 294.82 874.231 285.648 875.258 273.692 876.713 L 298.334 880.021 C 296.895 894.623 290.982 918.797 287.745 934.276 C 282.042 961.862 276.553 989.491 271.276 1017.16 C 249.261 1007.68 215.956 992.262 193.681 985.49 L 192.995 987.425 C 216.072 1000.58 245.614 1017.77 269.756 1028.31 C 262.055 1062.51 253.131 1103.22 247.47 1137.62 C 225.154 1127.91 176.398 1106.06 154.566 1099.87 C 150.316 1098.43 145.663 1096.73 141.392 1095.5 C 144.449 1097.33 152.198 1101.66 154.486 1103.74 C 185.244 1119.27 213.676 1135.09 245.646 1148.77 L 220.307 1275.46 C 197.658 1264.58 155.2 1244.6 130.955 1238.29 L 113.825 1234.23 C 118.866 1236.43 125.737 1239.04 130.048 1242.16 C 156.07 1258.08 190.315 1271.86 217.678 1286.72 C 211.204 1327.27 201.74 1367.82 196.251 1408.65 C 195.401 1414.97 194.141 1423.16 192.574 1429.23 C 184.079 1425.57 137.436 1405.17 131.15 1405.95 C 131.269 1406.12 185.56 1434.02 190.846 1437.29 C 186.286 1470 181 1502.67 177.507 1535.52 C 176.697 1543.13 174.013 1564.1 174.391 1571.26 C 186.298 1527.38 192.135 1486.93 201.023 1443.18 L 312.506 1497.05 L 298.998 1578.69 C 296.69 1592.89 293.868 1613.87 290.598 1627.3 C 267.294 1617.81 243.109 1608.12 220.031 1598.17 C 236.271 1608.88 270.978 1626.19 289.476 1635.25 C 286.586 1657.79 277.823 1722.45 279.097 1742.38 C 282.264 1734.9 285.891 1714.69 287.62 1706.08 C 292.051 1684.27 296.33 1662.44 300.457 1640.57 C 335.906 1660.7 372.964 1678.65 409.773 1696.16 C 403.768 1734.1 393.203 1799.68 393.781 1836.37 L 394.233 1837.14 C 397.443 1827.79 400.049 1810.38 402.409 1800.01 C 409.64 1768.21 414.544 1735.82 420.435 1703.77 C 436.988 1710.15 463.726 1724.43 480.229 1732.73 C 496.627 1740.98 516.782 1750.21 532.548 1758.68 C 527.573 1789.72 516.647 1863.64 518.431 1895.07 C 525.407 1852.04 536.004 1809.18 542.551 1764.89 C 585.48 1786.89 629.094 1807.01 671.519 1828.73 L 662.431 1921.8 C 673.585 1890.83 674.826 1864.53 682.036 1834.65 C 712.714 1849.81 750.864 1871.82 780.742 1885.2 C 779.023 1905.27 778.008 1916.8 780.511 1937.04 C 784.541 1922.18 787.508 1906.06 790.576 1890.88 C 808.364 1898.7 824.625 1908.44 842.133 1916.48 C 847.173 1924.3 850.608 1930.94 854.867 1939.15 L 866.75 1960.03 z" fill="rgb(212,168,75)" transform="translate(0,0)"></path>
<path d="M 420.435 1703.77 C 436.988 1710.15 463.726 1724.43 480.229 1732.73 C 496.627 1740.98 516.782 1750.21 532.548 1758.68 C 527.573 1789.72 516.647 1863.64 518.431 1895.07 C 525.407 1852.04 536.004 1809.18 542.551 1764.89 C 585.48 1786.89 629.094 1807.01 671.519 1828.73 L 662.431 1921.8 C 673.585 1890.83 674.826 1864.53 682.036 1834.65 C 712.714 1849.81 750.864 1871.82 780.742 1885.2 C 779.023 1905.27 778.008 1916.8 780.511 1937.04 C 784.541 1922.18 787.508 1906.06 790.576 1890.88 C 808.364 1898.7 824.625 1908.44 842.133 1916.48 C 847.173 1924.3 850.608 1930.94 854.867 1939.15 C 839.423 1940.67 820.715 1940.04 804.798 1940.11 C 673.76 1940.73 537.378 1921.51 422.066 1855.59 C 415.211 1851.67 398.171 1842.73 394.233 1837.14 C 397.443 1827.79 400.049 1810.38 402.409 1800.01 C 409.64 1768.21 414.544 1735.82 420.435 1703.77 z" fill="rgb(232,163,60)" transform="translate(0,0)"></path>
<path d="M 279.097 1742.38 C 242.608 1709.67 204.673 1645.51 184.075 1602 C 139.809 1508.49 121.59 1401.79 127.209 1298.81 C 127.874 1286.64 126.346 1252.53 130.048 1242.16 C 156.07 1258.08 190.315 1271.86 217.678 1286.72 C 211.204 1327.27 201.74 1367.82 196.251 1408.65 C 195.401 1414.97 194.141 1423.16 192.574 1429.23 C 184.079 1425.57 137.436 1405.17 131.15 1405.95 C 131.269 1406.12 185.56 1434.02 190.846 1437.29 C 186.286 1470 181 1502.67 177.507 1535.52 C 176.697 1543.13 174.013 1564.1 174.391 1571.26 C 186.298 1527.38 192.135 1486.93 201.023 1443.18 L 312.506 1497.05 L 298.998 1578.69 C 296.69 1592.89 293.868 1613.87 290.598 1627.3 C 267.294 1617.81 243.109 1608.12 220.031 1598.17 C 236.271 1608.88 270.978 1626.19 289.476 1635.25 C 286.586 1657.79 277.823 1722.45 279.097 1742.38 z" fill="rgb(232,163,60)" transform="translate(0,0)"></path>
<path d="M 300.457 1640.57 C 335.906 1660.7 372.964 1678.65 409.773 1696.16 C 403.768 1734.1 393.203 1799.68 393.781 1836.37 L 391.615 1836.39 C 356.938 1815.47 329.312 1792.97 300.608 1764.33 C 294.016 1757.75 284.926 1749.41 279.097 1742.38 C 282.264 1734.9 285.891 1714.69 287.62 1706.08 C 292.051 1684.27 296.33 1662.44 300.457 1640.57 z" fill="rgb(232,163,60)" transform="translate(0,0)"></path>
<path d="M 130.955 1238.29 C 132.325 1211.87 145.341 1126.27 154.486 1103.74 C 185.244 1119.27 213.676 1135.09 245.646 1148.77 L 220.307 1275.46 C 197.658 1264.58 155.2 1244.6 130.955 1238.29 z" fill="rgb(232,163,60)" transform="translate(0,0)"></path>
<path d="M 288.443 801.971 C 293.523 824.706 300.258 848.966 306.573 871.435 C 294.82 874.231 285.648 875.258 273.692 876.713 L 298.334 880.021 C 296.895 894.623 290.982 918.797 287.745 934.276 C 282.042 961.862 276.553 989.491 271.276 1017.16 C 249.261 1007.68 215.956 992.262 193.681 985.49 C 194.703 983.861 195.107 982.046 195.832 980.251 C 213.741 935.99 235.291 893.349 258.22 851.503 C 263.578 841.726 280.687 805.335 288.443 801.971 z" fill="rgb(232,163,60)" transform="translate(0,0)"></path>
<path d="M 192.995 987.425 C 216.072 1000.58 245.614 1017.77 269.756 1028.31 C 262.055 1062.51 253.131 1103.22 247.47 1137.62 C 225.154 1127.91 176.398 1106.06 154.566 1099.87 C 156.538 1090.6 162.618 1072.82 165.803 1063.1 C 173.774 1038.76 182.791 1010.92 192.995 987.425 z" fill="rgb(232,163,60)" transform="translate(0,0)"></path>
<path d="M 777.016 1558.39 C 777.111 1558.38 777.205 1558.35 777.299 1558.36 C 777.487 1558.37 779.442 1558.61 779.444 1558.61 C 783.154 1561.46 791.075 1578.86 793.89 1583.78 C 815.072 1620.79 836.052 1659.51 861.118 1694.02 C 870.552 1707.01 881.021 1718.99 891.527 1731.11 C 853.617 1746.28 814.241 1757.74 776.263 1772.73 C 765.537 1765.08 755.62 1756.67 746.003 1747.67 C 697.363 1703.16 652.41 1617.38 620.489 1558.69 C 631.058 1563.79 641.566 1569.18 653.075 1571.83 C 687.68 1579.78 740.981 1563.79 777.016 1558.39 z" fill="rgb(212,168,75)" transform="translate(0,0)"></path>
<path d="M 770.962 1575.19 L 773.219 1575.81 C 791.142 1612.63 807.751 1647.36 832.983 1680.01 C 837.615 1686.01 863.503 1710.86 864.274 1715.42 C 863.494 1717.24 862.721 1718.45 861.137 1719.63 C 845.857 1731.02 799.429 1741.67 780.921 1739.51 C 779.463 1738.84 778.065 1738.17 776.682 1737.36 C 765.848 1730.94 756.138 1721.81 747.342 1712.89 C 715.708 1680.82 694.929 1642.13 683.394 1598.75 C 711.572 1588.96 742.051 1582.7 770.962 1575.19 z" fill="rgb(176,119,40)" transform="translate(0,0)"></path>
<path d="M 766.998 1587.33 C 770.449 1588.64 784.444 1620.08 787.287 1625.52 C 804.745 1658.93 827.909 1687.32 853.535 1714.7 C 834.431 1721.94 803.459 1734.71 783.536 1731.49 C 771.264 1724.83 760.792 1715.07 751.208 1705.04 C 722.669 1675.17 706.806 1644.91 694.083 1606.22 C 717.879 1599.21 742.711 1592.31 766.998 1587.33 z" fill="rgb(212,168,75)" transform="translate(0,0)"></path>
<path d="M 781.908 1780.17 C 789.173 1776.84 798.038 1773.85 805.683 1771.23 C 836.77 1760.58 867.513 1748.01 898.704 1737.77 C 907.47 1754.57 915.468 1771.89 924.368 1788.67 C 945.121 1827.72 966.86 1866.23 989.564 1904.18 L 998.186 1917.88 C 974.416 1932.83 904.557 1956.81 876.65 1960.58 C 873.576 1955.37 870.258 1950 867.629 1944.57 C 858.705 1930.86 848.592 1909.54 840.448 1894.63 C 819.886 1857 801.134 1818.47 781.908 1780.17 z" fill="rgb(232,163,60)" transform="translate(0,0)"></path>
<path d="M 989.564 1904.18 L 998.186 1917.88 C 974.416 1932.83 904.557 1956.81 876.65 1960.58 C 873.576 1955.37 870.258 1950 867.629 1944.57 C 875.973 1942.87 887.935 1938.68 896.653 1936.45 C 929.669 1927.97 958.281 1917.49 989.564 1904.18 z" fill="rgb(212,168,75)" transform="translate(0,0)"></path>
<path d="M 542.663 1075.31 L 543.405 1075.3 C 543.99 1075.65 544.576 1075.99 545.162 1076.34 C 562.221 1119.66 595.377 1187.4 611.228 1227.9 C 580.595 1234.11 545.446 1233.18 514.238 1239.97 C 500.259 1243.02 478.301 1245.02 464.648 1241.72 C 462.402 1241.13 459.263 1240.5 458.188 1238.3 C 433.938 1188.52 413.615 1135.32 391.11 1084.99 C 430.106 1086.11 468.289 1081.88 507.11 1079.04 C 518.807 1078.19 531.202 1077.62 542.663 1075.31 z" fill="rgb(212,168,75)" transform="translate(0,0)"></path>
<path d="M 427.569 1095.73 C 437.42 1096.64 447.85 1099 457.761 1099.52 C 482.518 1100.82 517.675 1100.57 542.005 1095.91 C 544.812 1101.72 547.943 1109.35 550.132 1115.5 C 563.507 1153.07 583.541 1190.43 597.217 1227.53 C 585.483 1228.44 574.075 1230.03 562.393 1231.09 C 532.069 1233.83 500.331 1225.74 476.864 1205.86 C 468.298 1198.61 458.983 1186.94 453.576 1177.18 C 443.151 1158.35 429.252 1116.82 427.569 1095.73 z" fill="rgb(176,119,40)" transform="translate(0,0)"></path>
<path d="M 436.749 1106.71 C 463.675 1113.62 510.92 1109.74 538.62 1106.77 C 552.402 1145.32 568.75 1181.54 586.158 1218.48 C 547.412 1229.38 497.475 1219.98 471.087 1187.79 C 452.737 1165.4 444.849 1134.12 436.749 1106.71 z" fill="rgb(212,168,75)" transform="translate(0,0)"></path>
<path d="M 609.488 1238.38 C 612.249 1237.79 612.217 1237.58 614.893 1238.26 C 616.467 1239.69 643.245 1297.49 647.236 1306 C 660.031 1333.26 677.153 1362.3 689.097 1389.59 C 669.258 1391.64 649.459 1394.05 629.711 1396.84 C 600.495 1401.09 574.221 1410.65 545.675 1402.6 C 542.057 1401.17 538.343 1399.56 534.739 1398.07 C 524.756 1381.66 512.42 1354.82 503.912 1337.02 C 489.157 1306.46 474.787 1275.72 460.805 1244.81 C 491.64 1252.42 522.139 1245.64 553.477 1243.32 C 571.602 1241.98 591.593 1240.62 609.488 1238.38 z" fill="rgb(212,168,75)" transform="translate(0,0)"></path>
<path d="M 602.496 1250.38 L 603.78 1250.23 C 606.687 1252.4 616.95 1279.27 619.187 1284.53 C 627.452 1304.15 636.33 1323.51 645.808 1342.58 C 652.932 1356.9 660.828 1371.01 667.499 1385.49 C 637.473 1392.21 601.627 1396.1 572.386 1385.29 C 569.836 1384.06 567.31 1382.78 564.812 1381.44 C 524.372 1359.62 509.8 1303.8 497.561 1262.21 C 534.765 1259.99 565.654 1256.12 602.496 1250.38 z" fill="rgb(176,119,40)" transform="translate(0,0)"></path>
<path d="M 594.562 1262.41 C 601.236 1261.11 601.092 1263.02 603.464 1268.88 C 618.779 1306.75 636.442 1342.55 655.379 1378.67 C 629.562 1384.23 602.059 1385.47 576.71 1377.09 C 532.109 1358.17 522.537 1314.58 509.293 1272.15 C 518.557 1270.56 532.432 1269.57 542.119 1268.54 C 559.613 1266.61 577.095 1264.57 594.562 1262.41 z" fill="rgb(212,168,75)" transform="translate(0,0)"></path>
<path d="M 690.968 1397.29 C 693.8 1398.84 761.818 1529.89 774.927 1548.28 C 744.974 1553.58 715.831 1561.21 685.753 1565.44 C 661.979 1568.79 642.843 1566.53 621.754 1554.94 C 608.233 1546.48 546.378 1422.9 535.498 1400.62 C 545.773 1404.92 556.484 1409.86 567.588 1411.45 C 588.738 1414.49 668.072 1402.92 690.968 1397.29 z" fill="rgb(212,168,75)" transform="translate(0,0)"></path>
<path d="M 678.865 1415.19 L 680.105 1414.83 C 685.06 1416.6 689.439 1431.34 691.901 1436.93 C 703.432 1463.12 716.627 1489.38 732.038 1513.5 C 738.819 1524.11 746.94 1533.35 754.219 1543.45 C 724.559 1550.72 701.194 1552.23 671.728 1544.31 L 670.089 1543.68 C 621.824 1524.5 609.409 1483.1 590.936 1438.98 C 607.382 1431.12 658.188 1420.5 678.865 1415.19 z" fill="rgb(176,119,40)" transform="translate(0,0)"></path>
<path d="M 676.536 1427.17 L 678.061 1427.19 C 680.406 1429.65 695.88 1465.17 698.605 1470.79 C 710.342 1495.01 723.708 1515.77 738.624 1538.12 C 716.557 1541.32 695.127 1542.44 673.754 1535.47 C 631.234 1520.37 617.872 1482.22 602.093 1444.05 C 618.818 1438.27 657.28 1431.54 676.536 1427.17 z" fill="rgb(212,168,75)" transform="translate(0,0)"></path>
<path d="M 566.59 1618.31 C 578.914 1623.16 591.024 1629.76 603.124 1635.29 C 617.17 1641.71 661.751 1660 671.459 1667.6 C 679.796 1674.12 686.367 1687.61 692.508 1696.46 C 690.662 1713.65 686.376 1731.01 683.684 1748.14 C 680.441 1768.79 678.662 1789.91 674.871 1810.43 C 674.361 1813.19 674.477 1814.07 672.509 1816.04 L 544.444 1752.7 C 546.697 1736.15 549.905 1719.62 552.532 1703.11 C 557.033 1674.84 561.29 1646.45 566.59 1618.31 z" fill="rgb(232,163,60)" transform="translate(0,0)"></path>
<path d="M 348.546 1349.12 C 357.75 1352.41 379.574 1363.95 389.075 1368.64 C 412.7 1380.29 436.453 1391.67 460.328 1402.8 C 453.777 1448.1 444.248 1496.48 436.051 1541.75 C 428.761 1542.29 337.299 1496.19 324.796 1489.9 C 333.946 1444.34 339.06 1393.87 348.546 1349.12 z" fill="rgb(232,163,60)" transform="translate(0,0)"></path>
<path d="M 228.494 1291.5 L 289.511 1320.64 C 304.707 1327.76 324.173 1336.26 338.595 1344.17 C 330.234 1384.49 324.198 1424.97 317.337 1465.56 C 316.208 1472.24 315.16 1478.87 313.514 1485.44 C 276.618 1467.75 239.845 1451.76 202.941 1433.58 C 211.005 1386.16 220.63 1338.93 228.494 1291.5 z" fill="rgb(232,163,60)" transform="translate(0,0)"></path>
<path d="M 470.716 1407.33 C 494.77 1418.49 523.876 1433.41 547.676 1443.26 C 557.005 1461.93 566.516 1480.51 576.207 1499 C 573.877 1509.12 559.781 1596.84 557.011 1599.87 L 554.549 1599.14 C 518.621 1581.79 482.565 1564.7 446.384 1547.89 C 448.174 1533.19 452.979 1511.05 455.729 1495.99 C 461.205 1466.52 466.201 1436.96 470.716 1407.33 z" fill="rgb(232,163,60)" transform="translate(0,0)"></path>
<path d="M 444.615 1560.1 C 456.506 1564.25 468.586 1571.42 480.056 1576.84 C 505.134 1588.74 530.272 1600.51 555.468 1612.16 C 546.548 1656.64 540.779 1702.3 533.641 1747.14 C 519.917 1741.64 506.404 1733.41 493.157 1726.73 L 422.47 1691.81 C 431.318 1648.31 436.821 1603.85 444.615 1560.1 z" fill="rgb(232,163,60)" transform="translate(0,0)"></path>
<path d="M 322.832 1502.34 L 434.393 1555.14 C 424.872 1597.8 419.655 1641.71 411.538 1684.7 C 407.594 1685.82 312.386 1638.81 301.424 1633.04 C 309.65 1589.72 316.037 1545.9 322.832 1502.34 z" fill="rgb(232,163,60)" transform="translate(0,0)"></path>
<path d="M 372.746 1207.19 C 396.793 1217.82 424.387 1230.76 448.588 1240.2 C 455.281 1256.67 469.634 1286.2 477.933 1301.95 C 475.556 1313.08 463.964 1387.61 462.501 1389.08 L 459.014 1388.11 C 452.144 1384.32 443.631 1380.51 436.475 1377.15 C 407.733 1363.68 379.328 1348.98 350.475 1335.81 C 358.351 1293.42 365.461 1249.72 372.746 1207.19 z" fill="rgb(232,163,60)" transform="translate(0,0)"></path>
<path d="M 316.069 878.644 C 366.698 878.331 416.872 882.425 467.092 883.896 L 499.994 965.517 C 513.776 998.915 528.415 1032.77 541.447 1066.44 C 508.487 1060.67 499.555 1050.84 488.334 1019.43 C 475.101 982.383 452.97 939.667 444.09 901.982 C 414.086 903.821 384.828 902.076 354.75 901.917 C 352.304 902.054 353.104 901.849 350.971 902.828 C 347.518 916.962 371.075 982.653 378.411 996.699 C 399.034 1036.19 423.993 1055.28 468.475 1060.67 C 488.554 1063.1 501.024 1062.88 520.5 1069.35 L 521.375 1069.64 C 509.64 1071.42 484.477 1072.96 472.23 1073.91 C 452.012 1075.49 407.095 1082.93 389.147 1079.77 C 383.324 1067.77 377.009 1050.08 371.776 1037.4 C 350.335 985.429 333.386 932.08 316.069 878.644 z" fill="rgb(212,168,75)" transform="translate(0,0)"></path>
<path d="M 256.728 1154.32 C 289.928 1167.53 328.787 1188.59 363.186 1203.09 C 354.868 1244.82 348.332 1290.12 339.5 1330.92 C 303.606 1313.66 267.607 1296.62 231.505 1279.8 C 234.955 1258.17 239.812 1235.3 244.179 1213.77 C 248.085 1194.52 252.004 1173.3 256.728 1154.32 z" fill="rgb(232,163,60)" transform="translate(0,0)"></path>
<path d="M 291.37 773.818 C 336.949 773.411 381.481 776.808 426.989 777.23 C 438.922 809.395 452.255 841.35 463.751 873.484 C 447.965 874.388 426.179 873.106 409.993 872.453 C 377.648 871.146 347.118 869.723 314.691 870.17 C 312.839 859.961 308.933 845.841 306.399 835.517 L 291.37 773.818 z" fill="rgb(232,163,60)" transform="translate(0,0)"></path>
<path d="M 279.302 1034.17 L 380.549 1080.03 L 384.995 1090.18 C 378.486 1106.09 368.69 1170.35 365.469 1190 C 329.592 1174.23 293.928 1157.97 258.488 1141.24 C 266.033 1111.33 273.341 1065.55 279.302 1034.17 z" fill="rgb(232,163,60)" transform="translate(0,0)"></path>
<path d="M 359.571 910.565 C 385.704 912.042 411.856 913.173 438.019 913.961 C 443.839 931.83 454.12 956.453 461.118 974.356 C 470.482 998.309 482.45 1033.27 496.294 1053.89 C 469.919 1052.18 444.543 1050 421.706 1035.62 C 384.188 1011.99 368.156 951.986 359.571 910.565 z" fill="rgb(212,168,75)" transform="translate(0,0)"></path>
<path d="M 701.231 1710.85 C 715.512 1725.58 728.182 1741.74 742.882 1756.16 C 751.402 1764.52 763.379 1770.55 770.507 1779.86 C 778.936 1790.87 784.644 1804.68 790.737 1817.07 C 785.261 1834.57 786.007 1853.2 782.521 1871.1 L 781.041 1871.83 L 777.594 1870.29 C 746.494 1853.55 714.332 1838.98 683.63 1821.43 C 689.499 1784.59 694.73 1747.58 701.231 1710.85 z" fill="rgb(232,163,60)" transform="translate(0,0)"></path>
<path d="M 308.343 886.627 C 310.773 889.051 327.873 945.971 331.342 955.843 C 344.255 991.914 358.255 1027.59 373.321 1062.81 L 355.755 1054.59 C 334.021 1044.71 300.637 1031.71 281.085 1021.26 C 283.516 1007.33 287.494 991.092 290.326 976.855 C 296.143 946.742 302.149 916.665 308.343 886.627 z" fill="rgb(232,163,60)" transform="translate(0,0)"></path>
<path d="M 584.327 1514.45 C 587.8 1517.27 654.422 1635.11 661.437 1648.3 C 657.394 1646.49 653.373 1644.63 649.377 1642.72 C 622.575 1630.42 595.853 1617.95 569.212 1605.31 C 574.545 1575.07 578.802 1544.64 584.327 1514.45 z" fill="rgb(232,163,60)" transform="translate(0,0)"></path>
<path d="M 390.482 1108.67 C 393.375 1111.35 436.625 1211.64 441.456 1223.39 L 430.245 1218.57 C 412.106 1210.81 393.353 1202.7 375.745 1193.87 C 379.604 1168.53 385.196 1133.32 390.482 1108.67 z" fill="rgb(232,163,60)" transform="translate(0,0)"></path>
<path d="M 485.509 1318.04 C 488.278 1321.62 490.547 1327.47 492.417 1331.68 C 506.504 1363.38 522.821 1393.88 538.335 1424.89 L 531.945 1422.06 L 473.571 1394.11 C 476.32 1370.82 481.748 1341.53 485.509 1318.04 z" fill="rgb(232,163,60)" transform="translate(0,0)"></path>
<path d="M 798.386 1835.47 C 798.663 1835.66 798.961 1835.83 799.215 1836.05 C 802.757 1839.18 830.268 1891.91 830.457 1896.28 L 828.897 1896.13 C 817.235 1889.5 804.675 1883.91 792.658 1877.9 C 795.067 1863.85 795.953 1849.55 798.386 1835.47 z" fill="rgb(232,163,60)" transform="translate(0,0)"></path>
<metadata><recraft-signature>{"signed_by": "recraft", "signature_b64": "nI4rJZ8j/rCOmasIvLWt2Gnt/+IQ3Q9BUZsUEtvpIj+T0Yxe5mDaCEeCGS1gcmPhxJHCRndMfN6aGldC9B3lBw==", "signing_algo": "Ed25519", "generation_timestamp": 1764903577, "identifier": "30af8cf7-f6d3-4fc2-ba59-5c01c77c6b97"}</recraft-signature></metadata></svg>