<svg xmlns="http://www.w3.org/2000/svg" height="1024" preserveAspectRatio="none" style="display: block;" version="1.1" viewBox="0 0 2048 2048" width="1024">
<path d="M 0 0 L 799.577 0 L 1248.55 0 L 2048 0 L 2048 2048 L 0 2048 L 0 0 z" fill="rgb(232,163,60)" transform="translate(0,0)"></path>
<path d="M 0 0 L 799.577 0 C 799.304 0.096853 799.03 0.193706 798.757 0.290559 C 712.32 11.3457 651.159 47.0431 601.891 119.034 L 197.32 118.897 L 198.004 1932.98 L 912.863 1933.09 C 949.537 1966.71 987.893 2006.86 1025.24 2039.28 L 1136.35 1933.22 L 1851.03 1933.01 C 1850.62 1867.87 1850.56 1802.73 1850.85 1737.58 L 1851.01 1290.59 L 1850.79 118.8 L 1591.98 119.032 C 1544.26 119.041 1492.17 120.054 1444.74 118.748 C 1388.7 45.2367 1340.89 12.8023 1249.5 0.282473 C 1249.18 0.188315 1248.86 0.0941577 1248.55 0 L 2048 0 L 2048 2048 L 0 2048 L 0 0 z" fill="rgb(254,254,254)" transform="translate(0,0)"></path>
<path d="M 799.577 0 L 1248.55 0 C 1248.86 0.0941577 1249.18 0.188315 1249.5 0.282473 C 1340.89 12.8023 1388.7 45.2367 1444.74 118.748 C 1446.08 122.839 1450.55 130.473 1453.74 133.152 C 1454.89 137.302 1457.36 142.416 1459.27 146.375 C 1467.46 163.338 1472.81 180.646 1477.84 198.755 C 1504.4 202.897 1529.3 208.169 1555.64 213.348 C 1575.1 217.174 1594.49 219.963 1613.98 224.176 C 1613.39 270.658 1608.99 319.358 1608.89 364.145 C 1654.9 385.191 1704.88 402.979 1749.86 423.676 C 1734.8 463.981 1722.11 508.636 1708.1 549.839 C 1724.05 561.901 1830.03 629.383 1833.17 637.78 C 1832.36 651.907 1821.33 665.705 1813.82 677.478 C 1802.42 695.428 1790.83 713.255 1779.05 730.958 C 1794.3 730.875 1812.04 730.378 1827.08 731.174 C 1815.21 732.68 1772.83 731.847 1759.61 731.838 L 1630.3 731.994 L 1165.5 732.197 L 517.327 731.893 L 306.412 731.599 C 286.812 731.565 267.212 731.68 247.614 731.943 C 236.992 732.036 221.722 732.502 211.587 731.597 C 220.899 730.09 265.107 730.945 276.674 730.983 C 268.84 720.909 215.658 645.025 215.449 638.44 C 222.384 629.878 242.163 618.925 252.213 612.187 L 308.843 573.704 C 318.728 566.985 331.142 559.225 340.323 552.089 L 341.23 551.374 C 324.961 509.892 312.421 461.45 295.977 419.533 C 309.647 412.459 327.956 405.564 342.267 399.112 C 372.32 385.563 403.058 372.863 433.083 359.321 L 428.72 280.267 C 428.104 267.887 427.67 243.672 425.639 232.314 C 473.524 221.304 521.242 209.579 568.776 197.143 C 576.909 172.559 582.076 156.372 593.796 132.974 L 601.891 119.034 C 651.159 47.0431 712.32 11.3457 798.757 0.290559 C 799.03 0.193706 799.304 0.096853 799.577 0 z" fill="rgb(251,223,150)" transform="translate(0,0)"></path>
<path d="M 790.543 174.38 C 834.132 167.719 923.93 212.64 969.224 224.018 C 981.357 227.065 989.364 228.247 1002 227.047 C 1014.66 225.845 1029.74 220.595 1042.13 224.001 C 1059.26 228.712 1064.37 240.092 1083.96 241.941 C 1117.8 245.135 1152.54 235.398 1185.7 229.615 C 1205.96 225.926 1223.42 223.649 1244.29 222.924 C 1280.91 221.653 1335.24 231.874 1335.89 278.638 C 1336.08 292.19 1326.36 302.675 1316.9 311.53 C 1333.68 356.469 1355.43 400.909 1373.24 445.572 C 1385.28 475.761 1398.41 506.408 1411.65 536.098 L 1423.21 536.178 C 1423.21 541.66 1423.18 547.183 1423 552.71 C 1419.51 660.26 1291.84 718.424 1217.5 633.019 C 1194.02 606.045 1185.05 573.562 1187.4 537.604 C 1196.44 531.463 1198.98 520.011 1203.35 509.856 L 1226.44 456.106 L 1263.74 369.38 C 1271.84 350.472 1280.74 330.711 1287.48 311.367 C 1279.99 302.401 1276.75 289.983 1285.94 280.352 C 1293.48 272.451 1300.91 272.065 1311.14 271.603 C 1286.02 256.114 1261.83 255.219 1232.76 257.394 C 1173.31 261.954 1118.47 298.526 1064.75 284.973 C 1043.28 318.877 1000.37 313.039 987.505 277.216 C 965.548 271.282 940.824 263.212 919.333 251.237 C 871.417 224.537 799.734 178.58 747.861 221.67 C 745.516 223.618 740.546 230.014 740.651 233.35 C 754.622 234.36 767.951 233.565 769.497 252.668 C 770.096 260.067 767.483 264.916 762.833 270.473 C 776.673 297.007 853.201 485.1 861.296 489.813 C 861.845 490.132 862.448 490.369 862.954 490.752 C 864.69 492.064 864.811 494.57 865.072 496.538 C 869.353 528.827 861.04 559.526 841.037 585.165 C 822.275 609.214 795.478 625.292 765.099 629.038 C 734.227 632.846 703.189 625.078 678.783 605.592 C 651.984 584.573 634.875 553.568 631.382 519.689 C 630.807 514.004 629.472 498.546 632.944 494.257 C 635.422 492.958 638.602 491.567 639.873 489.07 C 650.221 468.932 658.526 447.771 668.014 427.224 C 683.241 394.251 697.817 361.104 711.865 327.608 C 719.736 308.841 727.663 289.806 736.087 271.31 C 721.528 252.189 729.913 253.353 734.999 237.282 C 733.64 234.363 729.104 226.441 728.949 223.621 C 727.084 189.718 763.166 177.321 790.543 174.38 z" fill="rgb(232,163,60)" transform="translate(0,0)"></path>
<path d="M 1295.45 314.591 L 1297.35 316.048 C 1301.16 323.471 1299.11 509.274 1299.11 535.725 L 1205.75 535.473 C 1203.85 535.366 1204.84 535.621 1202.85 534.418 C 1203.45 529.221 1213.62 506.529 1216.04 500.784 C 1229.08 469.724 1242.34 438.759 1255.83 407.892 C 1269.21 376.835 1281.72 345.513 1295.45 314.591 z" fill="rgb(251,223,150)" transform="translate(0,0)"></path>
<path d="M 753.087 273.197 L 756.417 274.565 C 760.008 280.395 764.856 292.961 767.81 299.916 C 773.678 313.697 779.619 327.447 785.632 341.165 C 805.819 387.478 826.18 433.824 846.235 480.194 C 848.004 484.285 850.072 487.158 848.764 490.292 C 817.349 491.057 783.758 490.307 752.036 490.476 C 752.008 419.643 750.779 343.699 753.087 273.197 z" fill="rgb(251,223,150)" transform="translate(0,0)"></path>
<path d="M 1308.12 315.868 C 1312.53 319.507 1394.06 514.598 1402.57 535.822 L 1307.08 535.889 C 1306.85 509.41 1305.61 322.724 1308.12 315.868 z" fill="rgb(251,223,150)" transform="translate(0,0)"></path>
<path d="M 743.555 274.835 C 745.414 277.646 744.249 348.129 744.216 357.056 C 744.051 401.411 745.085 446.246 744.296 490.558 L 650.967 490.901 L 649.557 490.313 C 649.624 488.481 735.36 292.914 743.555 274.835 z" fill="rgb(251,223,150)" transform="translate(0,0)"></path>
<path d="M 659.729 506.456 C 669 505.955 680.155 506.299 689.511 506.554 C 745.153 508.071 801.962 505.213 857.455 508.01 C 855.649 542.872 833.27 575.488 803.552 592.964 C 794.404 598.344 784.732 602.081 774.794 605.715 C 772.736 606.231 772.674 606.174 770.552 606.346 C 772.965 603.291 787.207 596.085 791.362 592.623 C 816.012 572.081 828.605 555.333 833.111 524.256 C 790.879 522.393 746.555 516.825 704.06 513.943 C 695.894 513.389 648.781 509.729 643.22 507.987 C 647.979 506.605 654.619 506.673 659.729 506.456 z" fill="rgb(251,223,150)" transform="translate(0,0)"></path>
<path d="M 1021.09 231.323 C 1067.73 226.244 1072.98 280.415 1038.48 295.859 C 991.566 305.646 986.15 246.72 1021.09 231.323 z" fill="rgb(251,223,150)" transform="translate(0,0)"></path>
<path d="M 1026.81 242.169 C 1029.96 241.399 1031.26 240.904 1034.5 242.515 L 1038.01 242.693 C 1040.15 243.053 1039.75 242.688 1041.39 243.776 L 1044.15 244.145 L 1047.18 244.958 C 1058.78 255.328 1056.48 265.085 1047.97 276.661 C 1047.07 276.346 1046.35 275.682 1045.52 275.079 C 1042.72 279.413 1041.61 280.114 1037.16 283 L 1033.78 282.924 C 1030.44 284.295 1028.32 283.965 1024.97 282.789 C 1023.02 282.399 1021.56 282.528 1019.57 282.525 C 1015.5 281.653 1016.86 282.699 1014.59 280.248 L 1011.66 278.246 C 999.924 266.582 1005.59 254.011 1017.52 245.462 L 1020.41 243.605 L 1026.81 242.169 z" fill="rgb(232,163,60)" transform="translate(0,0)"></path>
<path d="M 1026.81 242.169 C 1028.52 248.069 1021.87 276.326 1019.57 282.525 C 1015.5 281.653 1016.86 282.699 1014.59 280.248 L 1011.66 278.246 C 999.924 266.582 1005.59 254.011 1017.52 245.462 L 1020.41 243.605 L 1026.81 242.169 z" fill="rgb(232,163,60)" transform="translate(0,0)"></path>
<path d="M 1017.52 245.462 C 1017.14 246.56 1016.12 249.78 1015.62 250.704 C 1011.88 257.624 1013.09 272.643 1011.66 278.246 C 999.924 266.582 1005.59 254.011 1017.52 245.462 z" fill="rgb(232,163,60)" transform="translate(0,0)"></path>
<path d="M 1017.52 245.462 L 1020.41 243.605 C 1017.22 256.09 1015.13 267.358 1014.59 280.248 L 1011.66 278.246 C 1013.09 272.643 1011.88 257.624 1015.62 250.704 C 1016.12 249.78 1017.14 246.56 1017.52 245.462 z" fill="rgb(251,223,150)" transform="translate(0,0)"></path>
<path d="M 1041.39 243.776 L 1044.15 244.145 L 1047.18 244.958 C 1058.78 255.328 1056.48 265.085 1047.97 276.661 C 1047.07 276.346 1046.35 275.682 1045.52 275.079 C 1042.72 279.413 1041.61 280.114 1037.16 283 C 1037.87 271.649 1040.21 255.798 1041.39 243.776 z" fill="rgb(183,125,30)" transform="translate(0,0)"></path>
<path d="M 1044.15 244.145 L 1047.18 244.958 C 1058.78 255.328 1056.48 265.085 1047.97 276.661 C 1047.07 276.346 1046.35 275.682 1045.52 275.079 C 1047 262.362 1047.01 256.285 1044.15 244.145 z" fill="rgb(232,163,60)" transform="translate(0,0)"></path>
<path d="M 1044.15 244.145 L 1047.18 244.958 C 1048.07 252.423 1049.57 257.656 1049.2 265.289 C 1049.02 269.125 1048.08 273.314 1047.97 276.661 C 1047.07 276.346 1046.35 275.682 1045.52 275.079 C 1047 262.362 1047.01 256.285 1044.15 244.145 z" fill="rgb(251,223,150)" transform="translate(0,0)"></path>
<path d="M 1026.81 242.169 C 1029.96 241.399 1031.26 240.904 1034.5 242.515 C 1031.74 243.689 1031.78 242.995 1030.93 245.421 C 1027.01 256.638 1026.63 270.907 1024.97 282.789 C 1023.02 282.399 1021.56 282.528 1019.57 282.525 C 1021.87 276.326 1028.52 248.069 1026.81 242.169 z" fill="rgb(251,223,150)" transform="translate(0,0)"></path>
<path d="M 1038.01 242.693 C 1040.15 243.053 1039.75 242.688 1041.39 243.776 C 1040.21 255.798 1037.87 271.649 1037.16 283 L 1033.78 282.924 C 1033.93 273.317 1036.93 253.44 1038.01 242.693 z" fill="rgb(251,223,150)" transform="translate(0,0)"></path>
<path d="M 1385.87 555.566 C 1394.48 554.917 1404.45 555.038 1413.17 554.938 C 1405.2 601.165 1378.52 627.304 1337.19 646.188 C 1336.42 644.933 1336.52 645.533 1338.33 644.395 C 1368.85 625.295 1379.36 604.186 1386.84 568.451 C 1380.45 568.114 1373.22 568.179 1366.75 568.095 C 1326.19 568.113 1257.45 563.285 1216.2 558.366 C 1233.39 557.082 1253.62 557.715 1271.23 557.563 C 1309.45 557.577 1347.67 556.911 1385.87 555.566 z" fill="rgb(251,223,150)" transform="translate(0,0)"></path>
<path d="M 756.578 192.062 C 801.88 170.445 841.023 187.923 885.584 202.722 C 927.97 216.799 955.154 232.915 1000.54 237.46 C 941.192 259.058 832.61 159.338 758.109 193.05 L 756.578 192.062 z" fill="rgb(251,223,150)" transform="translate(0,0)"></path>
<path d="M 1069.84 247.416 C 1092.07 249.845 1100.39 250.997 1123.33 248.597 C 1179.96 242.673 1258.03 212.516 1310.66 245.337 L 1307.8 245.974 C 1268.82 219.211 1145.6 258.579 1099.59 256.817 C 1085.47 256.276 1081.04 256.364 1069.84 247.416 z" fill="rgb(251,223,150)" transform="translate(0,0)"></path>
<path d="M 1301.08 279.152 C 1309.19 277.702 1316.95 283.085 1318.43 291.191 C 1319.91 299.298 1314.55 307.075 1306.45 308.588 C 1298.31 310.109 1290.48 304.721 1288.99 296.57 C 1287.5 288.419 1292.92 280.609 1301.08 279.152 z" fill="rgb(251,223,150)" transform="translate(0,0)"></path>
<path d="M 744.491 242.501 C 750.911 239.854 758.267 242.861 760.995 249.247 C 763.723 255.634 760.809 263.027 754.457 265.835 C 750.277 267.684 745.425 267.14 741.757 264.413 C 738.089 261.686 736.171 257.196 736.737 252.66 C 737.303 248.125 740.265 244.244 744.491 242.501 z" fill="rgb(251,223,150)" transform="translate(0,0)"></path>
<path d="M 1310.66 245.337 C 1316.22 249.773 1319.43 253.065 1323.24 259.128 C 1317.2 255.133 1313.45 250.435 1307.8 245.974 L 1310.66 245.337 z" fill="rgb(212,168,75)" transform="translate(0,0)"></path>
<path d="M 758.109 193.05 C 754.539 195.468 750.721 198.558 746.664 199.511 C 748.505 195.945 752.968 193.932 756.578 192.062 L 758.109 193.05 z" fill="rgb(212,168,75)" transform="translate(0,0)"></path>
<path d="M 996.044 371.984 L 1037.28 371.94 C 1037.15 399.18 1038.78 647.667 1043.3 654.554 C 1045.38 646.178 1045.04 592.275 1045.08 581.748 L 1046.54 416.204 C 1046.57 409.422 1045.87 374.871 1047.25 372.401 C 1050.88 371.628 1051.19 371.864 1054.79 372.31 C 1056.32 375.314 1055.68 379.603 1055.62 383.349 L 1056.08 667.019 L 996.071 666.98 L 996.044 371.984 z" fill="rgb(232,163,60)" transform="translate(0,0)"></path>
<path d="M 869.732 700.506 C 933.792 699.254 1002.39 700.71 1066.87 700.644 L 1135.69 700.444 C 1148.62 700.408 1162.41 700.001 1175.28 701.227 C 1182.88 701.951 1187.75 706.498 1192.34 712.29 L 1192.31 728.925 L 1173.81 728.875 C 1066.49 729.472 959.174 729.363 851.861 728.549 L 851.549 712.151 C 857.155 705.903 861.377 701.405 869.732 700.506 z" fill="rgb(232,163,60)" transform="translate(0,0)"></path>
<path d="M 1029.36 91.6184 C 1031.27 93.3575 1037.47 109.169 1038.74 112.715 C 1049.73 143.519 1092.93 172.481 1064.6 207.176 C 1056.96 216.533 1040.98 219.774 1029.27 220.144 C 1010.79 219.014 991.976 211.129 985.732 192.022 C 977.77 167.658 999.263 147.008 1010.67 127.934 C 1017.73 116.12 1023.51 104.122 1029.36 91.6184 z" fill="rgb(232,163,60)" transform="translate(0,0)"></path>
<path d="M 1033.03 122.721 C 1037.64 126.11 1055.25 163.432 1058.04 171.078 C 1064.08 187.611 1058.9 200.186 1046.25 210.965 C 1044.29 211.647 1044.92 211.446 1042.76 211.45 L 1043.93 210.044 C 1068.58 180.125 1037 161.525 1033.03 122.721 z" fill="rgb(251,223,150)" transform="translate(0,0)"></path>
<path d="M 1019.68 133.828 C 1019.45 142.317 1002.05 167.376 1003.21 181.516 C 1004.18 193.299 1006.6 198.576 1015.29 207.822 C 1017.83 210.521 1017.24 208.963 1018.51 212.191 L 1015.94 212.43 C 1014.67 211.753 1013.42 211.036 1012.2 210.281 C 1004.73 205.605 999.192 197.613 997.299 188.993 C 992.986 169.355 1008.96 149.443 1019.68 133.828 z" fill="rgb(251,223,150)" transform="translate(0,0)"></path>
<path d="M 993.9 669.927 C 999.584 666.743 1051.38 666.334 1056.18 669.973 C 1076.85 672.435 1118.49 663.849 1133.15 676.415 C 1138.07 680.63 1137.6 686.659 1137.62 692.56 L 914.53 692.667 L 915.12 678.925 C 920.319 673.918 926.497 670.818 933.705 670.353 C 953.639 669.067 973.907 670.632 993.9 669.927 z" fill="rgb(232,163,60)" transform="translate(0,0)"></path>
<path d="M 993.9 669.927 C 999.584 666.743 1051.38 666.334 1056.18 669.973 C 1037.1 670.806 1012.97 670.332 993.9 669.927 z" fill="rgb(254,233,193)" transform="translate(0,0)"></path>
<path d="M 1026.21 328.423 C 1036.28 328.12 1046.11 328.271 1055.4 333.046 C 1061.41 336.133 1066.43 346.667 1062.87 352.432 C 1055.75 353.616 1036.75 353.016 1028.5 352.937 C 1019.12 352.866 997.505 354.242 989.819 351.703 C 987.965 347.139 989.835 340.425 993.213 336.955 C 1001.13 328.819 1015.67 328.976 1026.21 328.423 z" fill="rgb(232,163,60)" transform="translate(0,0)"></path>
<path d="M 1014.82 313.356 C 1020.52 313.26 1038.55 311.905 1042.51 314.313 L 1042.67 317.126 C 1036.93 317.86 1019.66 319.742 1015.24 316.406 L 1014.82 313.356 z" fill="rgb(183,125,30)" transform="translate(0,0)"></path>
<path d="M 1453.74 133.152 L 1696.37 132.904 C 1742.23 132.906 1790.35 132.204 1836.05 133 L 1836.17 587.759 L 1836.12 697.608 C 1836.1 702.564 1836.73 727.712 1834.94 730.786 C 1831.19 731.467 1830.77 731.343 1827.08 731.174 C 1812.04 730.378 1794.3 730.875 1779.05 730.958 C 1790.83 713.255 1802.42 695.428 1813.82 677.478 C 1821.33 665.705 1832.36 651.907 1833.17 637.78 C 1830.03 629.383 1724.05 561.901 1708.1 549.839 C 1722.11 508.636 1734.8 463.981 1749.86 423.676 C 1704.88 402.979 1654.9 385.191 1608.89 364.145 C 1608.99 319.358 1613.39 270.658 1613.98 224.176 C 1594.49 219.963 1575.1 217.174 1555.64 213.348 C 1529.3 208.169 1504.4 202.897 1477.84 198.755 C 1472.81 180.646 1467.46 163.338 1459.27 146.375 C 1457.36 142.416 1454.89 137.302 1453.74 133.152 z" fill="rgb(254,254,254)" transform="translate(0,0)"></path>
<path d="M 212.007 132.941 L 593.796 132.974 C 582.076 156.372 576.909 172.559 568.776 197.143 C 521.242 209.579 473.524 221.304 425.639 232.314 C 427.67 243.672 428.104 267.887 428.72 280.267 L 433.083 359.321 C 403.058 372.863 372.32 385.563 342.267 399.112 C 327.956 405.564 309.647 412.459 295.977 419.533 C 312.421 461.45 324.961 509.892 341.23 551.374 L 340.323 552.089 C 331.142 559.225 318.728 566.985 308.843 573.704 L 252.213 612.187 C 242.163 618.925 222.384 629.878 215.449 638.44 C 215.658 645.025 268.84 720.909 276.674 730.983 C 265.107 730.945 220.899 730.09 211.587 731.597 C 210.51 656.114 211.763 578.475 211.919 502.984 L 212.007 132.941 z" fill="rgb(254,254,254)" transform="translate(0,0)"></path>
<path d="M 277.4 817.491 L 1836 818.118 L 1836.06 1225.12 L 1772.83 1225.07 L 211.69 1224.85 L 211.957 817.614 L 277.4 817.491 z" fill="rgb(254,254,254)" transform="translate(0,0)"></path>
<path d="M 1573.61 844.512 L 1809.91 843.843 C 1810.19 881.468 1809.36 920.566 1809.26 958.394 L 1808.95 1198.85 C 1663.38 1196.31 1515.08 1198.57 1369.3 1198.53 L 476.5 1198.82 C 397.802 1198.96 317.773 1199.46 239.136 1198.56 C 237.6 1121.73 238.994 1039.92 239.007 962.744 L 239.026 889.978 C 239.03 878.915 238.467 857.066 240.125 846.85 C 242.785 845.084 244.921 844.979 248.286 844.985 C 291.854 845.062 335.488 844.996 379.053 844.997 L 641.582 845.008 L 1573.61 844.512 z" fill="rgb(232,163,60)" transform="translate(0,0)"></path>
<path d="M 1616.83 853.5 L 1799.75 853.244 L 1799.98 1188.99 L 433.5 1189.32 L 247.969 1189.12 L 248.024 854.037 C 353.607 852.857 460.315 854.037 565.971 853.877 L 1616.83 853.5 z" fill="rgb(254,254,254)" transform="translate(0,0)"></path>
<path d="M 1008.28 924.832 C 1048.23 919.475 1084.93 947.546 1090.23 987.495 C 1095.52 1027.44 1067.39 1064.11 1027.43 1069.34 C 987.566 1074.56 951.003 1046.5 945.721 1006.64 C 940.44 966.785 968.434 930.178 1008.28 924.832 z" fill="rgb(183,125,30)" transform="translate(0,0)"></path>
<path d="M 1009.47 954.043 C 1033.3 949.346 1056.43 964.87 1061.1 988.704 C 1065.77 1012.54 1050.23 1035.65 1026.39 1040.3 C 1002.58 1044.94 979.513 1029.42 974.846 1005.62 C 970.179 981.817 985.676 958.734 1009.47 954.043 z" fill="rgb(254,254,254)" transform="translate(0,0)"></path>
<path d="M 1466.04 948.701 C 1469.14 942.266 1474.61 930.006 1479.09 925.036 C 1482.22 924.141 1483.23 924.455 1486.41 924.804 C 1491.07 928.268 1517.69 989.428 1522.2 999.647 C 1533.75 976.014 1543.22 948.388 1556.02 924.383 L 1585.76 924.521 L 1576.99 945.616 C 1558.73 988.781 1540.58 1028.46 1523.21 1072.4 C 1514.38 1053.87 1506.4 1035.08 1497.66 1016.52 C 1488.83 1033.69 1479.68 1054.86 1471.59 1072.66 C 1457.15 1037.03 1441.62 1002.89 1424.39 968.54 C 1417.2 954.209 1409.65 939.078 1403.62 924.244 L 1434.84 924.239 C 1447.93 949.442 1461.21 979.218 1473.54 1005.13 C 1477.04 998.853 1480.56 991.556 1483.86 985.085 C 1477.82 973.277 1471.89 960.664 1466.04 948.701 z" fill="rgb(183,125,30)" transform="translate(0,0)"></path>
<path d="M 432.853 920.88 C 439.134 925.332 484.397 982.614 494.741 993.78 C 515.296 970.768 536.656 941.18 555.999 920.595 C 556.089 969.082 555.848 1017.57 555.276 1066.05 C 549.521 1066.06 532.121 1066.58 527.521 1065.34 L 526.83 1063.25 L 526.94 997.342 L 494.284 1036.45 C 483.579 1024.85 472.315 1010.56 461.61 998.329 C 461.185 1020.36 461.576 1043.94 461.537 1066.12 L 432.073 1066.22 L 432.172 969.958 C 432.134 960.144 431.429 928.189 432.853 920.88 z" fill="rgb(183,125,30)" transform="translate(0,0)"></path>
<path d="M 894.691 923.418 C 913.129 922.579 926.349 929.067 940.995 939.124 C 934.526 946.527 928.612 954.397 923.3 962.669 C 909.439 952.699 895.681 948.59 878.878 954.827 C 867.665 958.996 858.631 967.549 853.856 978.518 C 836.785 1017.66 874.519 1053.83 914.123 1036.4 L 914.176 1021.59 C 905.086 1021.16 894.242 1021.46 885.021 1021.49 L 884.818 994.186 L 912.682 994.261 L 941.346 994.115 C 940.724 1012.79 941.127 1033.63 941.08 1052.47 C 930.238 1062.75 918.713 1068.95 903.662 1070.36 C 883.221 1072.29 862.861 1065.93 847.147 1052.72 C 832.417 1040.25 823.293 1022.41 821.812 1003.17 C 818.651 957.691 850.571 926.696 894.691 923.418 z" fill="rgb(183,125,30)" transform="translate(0,0)"></path>
<path d="M 710.724 919.174 C 715.419 921.234 785.063 996.675 791.131 1003.85 L 791.076 923.928 L 819.491 923.84 L 819.047 1070.81 C 814.657 1068.89 747.79 996.331 738.974 987.266 L 739.79 1066.48 C 730.135 1066.22 720.457 1066.43 710.798 1066.55 L 710.724 919.174 z" fill="rgb(183,125,30)" transform="translate(0,0)"></path>
<path d="M 1327.53 923.488 C 1329.29 924.798 1330.46 926.539 1331.4 928.524 C 1353.65 975.723 1380.34 1021.45 1403.03 1068.26 L 1370.21 1068.68 C 1366.91 1060.41 1362.34 1051.33 1358.48 1043.21 L 1333.08 1043.18 L 1297.76 1043.14 C 1293.25 1051.58 1288.62 1059.96 1283.89 1068.28 L 1253.3 1068.15 L 1299.55 976.856 C 1307.95 960.372 1318.12 939.116 1327.53 923.488 z" fill="rgb(183,125,30)" transform="translate(0,0)"></path>
<path d="M 1326.4 985.671 C 1330.16 989.674 1338.14 1008 1340.86 1013.87 L 1330.25 1013.94 L 1313.21 1014.05 C 1317.53 1004.17 1321.39 995.236 1326.4 985.671 z" fill="rgb(254,254,254)" transform="translate(0,0)"></path>
<path d="M 634.652 922.613 C 638.542 925.547 699.846 1051.61 708.421 1066.82 C 697.181 1066.55 685.936 1066.51 674.694 1066.69 C 670.162 1057.39 666.034 1049.17 661.015 1040.07 L 637.5 1039.99 L 608.76 1040 C 604.366 1048.79 599.846 1057.52 595.203 1066.18 C 584.233 1065.87 572.023 1066.1 560.967 1066.1 C 571.024 1047.84 579.402 1030.28 588.887 1011.82 C 604.322 982.18 619.578 952.442 634.652 922.613 z" fill="rgb(183,125,30)" transform="translate(0,0)"></path>
<path d="M 635.277 985.621 C 639.335 989.752 646.076 1006.65 648.702 1012.82 L 635.5 1012.86 L 621.527 1012.81 C 625.883 1003.82 630.739 994.565 635.277 985.621 z" fill="rgb(254,254,254)" transform="translate(0,0)"></path>
<path d="M 1149.19 924.323 L 1178.99 924.359 L 1179.12 1037.68 C 1201.14 1037.13 1223.87 1037.18 1245.95 1037 L 1245.69 1068.36 C 1213.67 1068.26 1181.64 1068.34 1149.62 1068.62 L 1149.19 924.323 z" fill="rgb(183,125,30)" transform="translate(0,0)"></path>
<path d="M 1170.91 1120.67 C 1186.46 1120.15 1200.4 1126.27 1189.86 1143.7 C 1182.88 1148.2 1179.31 1147.31 1170.88 1147.25 L 1170.91 1120.67 z" fill="rgb(160,66,13)" transform="translate(0,0)"></path>
<path d="M 1174.86 1123.8 C 1186.36 1124.29 1192.72 1128.61 1187.38 1140.84 C 1182.85 1142.98 1179.18 1145.36 1175.36 1141.41 C 1173.74 1136.32 1174.6 1129.36 1174.86 1123.8 z" fill="rgb(254,254,254)" transform="translate(0,0)"></path>
<path d="M 993.859 1121.8 C 998.232 1120.32 1003.06 1121.32 1006.49 1124.4 C 1009.92 1127.49 1011.43 1132.18 1010.42 1136.68 C 1009.42 1141.19 1006.07 1144.8 1001.65 1146.14 C 994.971 1148.17 987.901 1144.45 985.772 1137.8 C 983.644 1131.16 987.244 1124.03 993.859 1121.8 z" fill="rgb(160,66,13)" transform="translate(0,0)"></path>
<path d="M 996.929 1124.98 C 1001.77 1124.45 1006.15 1127.86 1006.83 1132.68 C 1007.51 1137.49 1004.24 1141.98 999.452 1142.82 C 996.211 1143.38 992.92 1142.14 990.865 1139.57 C 988.809 1137 988.317 1133.52 989.579 1130.48 C 990.842 1127.44 993.659 1125.33 996.929 1124.98 z" fill="rgb(254,254,254)" transform="translate(0,0)"></path>
<path d="M 1076.73 1120.88 C 1095 1120.08 1098.53 1136.06 1085.58 1146.74 C 1084.16 1146.95 1082.72 1147.01 1081.29 1146.91 C 1068.32 1146.12 1065.2 1129.67 1076.73 1120.88 z" fill="rgb(160,66,13)" transform="translate(0,0)"></path>
<path d="M 1079 1123.76 C 1091.43 1125.84 1092.36 1136.52 1083.16 1143.56 C 1070.47 1141.97 1070.54 1131.18 1079 1123.76 z" fill="rgb(254,254,254)" transform="translate(0,0)"></path>
<path d="M 729.299 1120.98 C 736.108 1120.78 744.182 1119.47 748.44 1125.67 C 748.576 1129.76 746.369 1132.04 744.727 1135.72 C 743.411 1138.67 747.746 1142.71 750.249 1146.5 L 749.627 1147.8 L 746.337 1147.67 C 743.518 1142.99 742.035 1139.78 737.949 1136.13 L 736.017 1136.42 C 734.113 1138.78 733.042 1144.03 732.171 1147.17 L 730.305 1147.67 C 728.468 1145.04 729.272 1125.65 729.299 1120.98 z" fill="rgb(160,66,13)" transform="translate(0,0)"></path>
<path d="M 732.934 1124.02 C 737.124 1123.98 739.178 1123.55 742.84 1125.28 C 745.331 1128.58 744.56 1127.53 745.135 1132.16 C 742.053 1133.01 737.141 1134.13 734.319 1132.5 C 732.217 1128.86 732.974 1128.92 732.934 1124.02 z" fill="rgb(254,254,254)" transform="translate(0,0)"></path>
<path d="M 943.701 1117.45 C 947.794 1118.76 948.431 1118.82 950.82 1121.73 C 950.451 1127.91 947.781 1125.29 946.376 1131.29 L 948.218 1134.25 C 951.953 1136.33 949.927 1135.69 954.686 1135.59 C 955.489 1137.93 955.295 1139.53 955.387 1142.07 C 956.933 1144.41 957.017 1144.06 957.786 1146.62 L 955.641 1146.1 L 952.381 1144.01 C 947.785 1145.64 943.395 1147.47 938.749 1145.51 C 931.968 1138.89 940.003 1134.64 941.402 1130.16 C 939.662 1122.47 939.177 1123.31 943.701 1117.45 z" fill="rgb(160,66,13)" transform="translate(0,0)"></path>
<path d="M 943.343 1134.84 C 945.711 1134.34 948.048 1135.8 948.638 1138.15 C 949.227 1140.5 947.857 1142.89 945.535 1143.57 C 943.95 1144.04 942.238 1143.6 941.073 1142.42 C 939.908 1141.25 939.477 1139.54 939.951 1137.96 C 940.424 1136.37 941.726 1135.18 943.343 1134.84 z" fill="rgb(254,254,254)" transform="translate(0,0)"></path>
<path d="M 1672.84 1066.26 C 1678.66 1066.64 1680.29 1067.23 1684.47 1071.04 L 1684.3 1071.98 C 1678.87 1072.01 1663.82 1070.64 1661.92 1076.53 C 1657.37 1090.63 1670.14 1097.34 1681.63 1090.1 L 1682.15 1089.08 L 1683.51 1088.84 L 1684.49 1090.79 L 1683.42 1093.78 C 1678.35 1098.8 1669.76 1098.69 1663.74 1095.46 C 1659.98 1093.48 1657.27 1089.95 1656.34 1085.79 C 1653.72 1073.9 1662.28 1067.82 1672.84 1066.26 z" fill="rgb(160,66,13)" transform="translate(0,0)"></path>
<path d="M 821.653 1120.21 C 826.413 1121.96 837.013 1135.43 840.913 1140.01 C 840.91 1133.49 840.922 1128.03 841.988 1121.57 C 845.742 1124.3 846.098 1144.57 843.224 1148.39 C 838.197 1143.34 829.713 1133.05 824.381 1127.15 C 824.5 1133.09 825.11 1141.63 822.873 1146.92 C 819.606 1141.45 820.903 1126.69 821.653 1120.21 z" fill="rgb(160,66,13)" transform="translate(0,0)"></path>
<path d="M 868.498 1120.5 C 872.727 1124 877.664 1138.64 879.259 1144.28 L 878.528 1145.27 C 870.275 1140.74 873.656 1140.99 864.755 1140.91 C 858.617 1141.59 860.949 1144.96 855.092 1147.14 C 855.081 1143.16 865.864 1125.24 868.498 1120.5 z" fill="rgb(160,66,13)" transform="translate(0,0)"></path>
<path d="M 1283.71 1119.45 C 1286.66 1121.8 1296.94 1133.49 1300.05 1136.89 C 1300 1132.03 1299.64 1126.17 1301.57 1121.75 L 1302.65 1122.91 C 1304.72 1133.25 1304.1 1137.21 1303.66 1147.69 C 1302.23 1146.44 1291.32 1132.35 1287.66 1128.38 C 1287.7 1132.74 1288.27 1141.98 1286.01 1145.32 C 1282.77 1140.39 1283.62 1125.96 1283.71 1119.45 z" fill="rgb(160,66,13)" transform="translate(0,0)"></path>
<path d="M 1203.96 1119.85 C 1210.99 1119.65 1214.11 1119.49 1221.1 1120.48 C 1219.89 1122 1210.31 1124.57 1207.64 1125.5 L 1208.32 1128.15 C 1211.16 1131.42 1214.99 1132.75 1219.12 1133.89 C 1217.1 1135.68 1211.15 1135.13 1208.16 1135.12 C 1208.06 1138.7 1207.34 1141.04 1210.11 1143.5 C 1214.94 1143.08 1217.22 1142.66 1221.51 1145.17 L 1220.79 1146.23 C 1214.88 1147.53 1210.28 1147.17 1204.26 1147.09 C 1204.31 1138.01 1204.21 1128.93 1203.96 1119.85 z" fill="rgb(160,66,13)" transform="translate(0,0)"></path>
<path d="M 1340.3 1120.07 C 1346.24 1119.92 1351.06 1119.79 1356.87 1121.16 L 1353.6 1122.34 C 1349.29 1123.88 1347.29 1124.06 1344.21 1127.24 C 1343.52 1130.5 1343.16 1129.1 1344.69 1131.66 C 1348.22 1131.8 1351.32 1131.96 1354.84 1132.27 L 1355.57 1133.49 C 1352.2 1135.95 1348.83 1135.22 1343.93 1135.46 C 1343.87 1138.87 1343.75 1139.71 1344.59 1143.12 C 1348.56 1145.23 1351.39 1142.73 1356.79 1144.2 L 1357.05 1145.95 C 1354.51 1147.77 1344.29 1147.08 1340.26 1147.09 C 1340.18 1138.08 1340.19 1129.08 1340.3 1120.07 z" fill="rgb(160,66,13)" transform="translate(0,0)"></path>
<path d="M 1120.09 1119.68 L 1121.51 1121.37 C 1122.41 1126.38 1123.85 1137.04 1120.53 1140.68 C 1103.91 1158.94 1102.11 1135.58 1102.15 1125.75 C 1102.23 1122.76 1101.87 1123.8 1103.37 1121.3 C 1107.39 1122.76 1103.54 1134.48 1110.02 1142.63 C 1113.25 1143.64 1111.57 1143.57 1115.2 1142.21 C 1121.38 1135 1116.01 1127.36 1120.09 1119.68 z" fill="rgb(160,66,13)" transform="translate(0,0)"></path>
<path d="M 1257.88 1120.02 C 1262.19 1119.92 1270.95 1119.03 1273.89 1121.33 L 1273.61 1122.42 C 1269.51 1124.11 1266.17 1124.08 1261.74 1124.45 C 1259.69 1126.37 1260.27 1125.22 1259.98 1128.04 C 1262.59 1131.08 1268.63 1132.57 1272.7 1133.94 C 1268.55 1135.44 1265.53 1135.2 1261.15 1135.3 C 1260.79 1150.79 1265.91 1138.86 1274.14 1146.27 C 1272.85 1147.43 1260.39 1147.24 1257.91 1147.22 L 1257.88 1120.02 z" fill="rgb(160,66,13)" transform="translate(0,0)"></path>
<path d="M 1595.58 1065.21 C 1598.04 1065.99 1597.35 1065.57 1599.19 1067.12 C 1600.72 1074.03 1599.99 1084.97 1599.84 1092.35 C 1606.62 1092.12 1614.08 1090.01 1616.87 1096.82 L 1594.96 1096.96 C 1594.93 1087.89 1594.47 1073.83 1595.58 1065.21 z" fill="rgb(160,66,13)" transform="translate(0,0)"></path>
<path d="M 708.981 1120.16 C 713.155 1120.9 715.93 1120.94 718.141 1124.79 C 716.626 1128.86 709.398 1121.81 702.217 1126.63 C 699.184 1131.61 699.218 1139.29 704.512 1142.95 C 707.797 1145.23 713.02 1143.33 716.555 1142.35 L 717.847 1142.22 L 718.658 1143.43 C 717.306 1145.6 717.405 1145.52 714.888 1146.54 C 694.837 1154.7 687.686 1125.78 708.981 1120.16 z" fill="rgb(160,66,13)" transform="translate(0,0)"></path>
<path d="M 1627.46 1065.22 L 1629.99 1065.97 C 1633.17 1069.48 1631.82 1086.41 1631.76 1092.23 C 1639.08 1091.99 1645.25 1089.61 1647.75 1096.82 L 1627 1097.01 C 1626.96 1087.1 1626.58 1074.91 1627.46 1065.22 z" fill="rgb(160,66,13)" transform="translate(0,0)"></path>
<path d="M 1317.5 1120.04 C 1322.94 1119.59 1325.64 1118.42 1329.12 1123.04 C 1325.82 1125.7 1323.03 1121.8 1318.95 1124.91 C 1320.25 1130.73 1343.45 1142.06 1321.52 1148.25 C 1317.83 1146.37 1314.46 1144.82 1313.64 1140.47 L 1314.96 1139.38 L 1321.08 1143.42 C 1324.15 1143.76 1323.97 1143.87 1326.8 1142.7 C 1327.36 1138.04 1318.47 1133.33 1315.33 1126.96 C 1315.18 1123.2 1315.55 1123.18 1317.5 1120.04 z" fill="rgb(160,66,13)" transform="translate(0,0)"></path>
<path d="M 1037.42 1118.76 L 1038.35 1119.85 C 1037.81 1125.93 1030.94 1142.99 1028.45 1149.29 C 1025.28 1143.21 1022.5 1136.11 1019.83 1129.72 C 1018.66 1126.45 1017.6 1124.4 1017.77 1120.93 L 1018.94 1121.32 C 1023.59 1128.01 1024.86 1132.19 1027.76 1139.87 C 1030.94 1132.12 1032.78 1125.81 1037.42 1118.76 z" fill="rgb(160,66,13)" transform="translate(0,0)"></path>
<path d="M 782.456 1120.22 L 784.949 1121.58 C 788.759 1128.02 791.968 1138.44 790.56 1145.89 L 789.478 1145.53 C 787.186 1140.34 786.231 1136.88 784.677 1131.51 L 783.887 1131.33 C 780.46 1135.04 781.408 1142.41 777.558 1147.67 L 776.288 1147.05 C 776.363 1140.47 780.538 1126.81 782.456 1120.22 z" fill="rgb(160,66,13)" transform="translate(0,0)"></path>
<path d="M 1231.49 1119.81 C 1235.33 1119.8 1243.9 1119.56 1247.09 1121.11 L 1247.72 1120.8 C 1241.91 1122.67 1237.57 1123.12 1234.7 1128.27 C 1236.43 1135.85 1241.68 1128.47 1247.72 1134.52 C 1243.7 1135.04 1240.63 1135.27 1236.58 1135.46 C 1233.21 1139.56 1237.27 1143.18 1234.03 1147.14 L 1232.5 1146.94 C 1230.92 1143.6 1231.49 1124.8 1231.49 1119.81 z" fill="rgb(160,66,13)" transform="translate(0,0)"></path>
<path d="M 1049.26 1119.7 L 1051.19 1121.42 C 1052.43 1128.83 1051.7 1140.15 1051.33 1147.76 C 1050.09 1147.3 1049 1147.24 1048.73 1146.26 C 1047.09 1140.42 1047.33 1124.86 1049.26 1119.7 z" fill="rgb(181,93,23)" transform="translate(0,0)"></path>
<path d="M 803.843 1119.38 C 808.602 1122.73 806.611 1142.62 806.134 1148.71 L 804.664 1147.91 C 801.73 1143.32 803.2 1125.37 803.843 1119.38 z" fill="rgb(160,66,13)" transform="translate(0,0)"></path>
<path d="M 762.205 1120.27 C 763.922 1120.92 763.013 1120.41 764.749 1122.08 C 765.791 1130.62 765.111 1139.68 764.596 1148.28 L 763.118 1147.69 C 760.585 1143.96 761.993 1125.74 762.205 1120.27 z" fill="rgb(160,66,13)" transform="translate(0,0)"></path>
<path d="M 891.335 1147.89 C 890.336 1139.79 891.073 1127.97 891.965 1119.84 C 894.425 1123.33 893.921 1138.17 894.446 1143.1 L 894.544 1143.96 L 891.335 1147.89 z" fill="rgb(160,66,13)" transform="translate(0,0)"></path>
<path d="M 1134.96 1119.6 L 1136.68 1121.58 C 1137.54 1129.44 1137.19 1139.74 1136.54 1147.67 C 1134.91 1146.41 1135.42 1146.8 1134.26 1144.96 C 1133.58 1137.7 1133.33 1126.63 1134.96 1119.6 z" fill="rgb(160,66,13)" transform="translate(0,0)"></path>
<path d="M 894.544 1143.96 C 899.484 1143.6 902.029 1143.02 906.715 1144.65 L 906.739 1145.77 C 902.433 1147.77 902.642 1147.65 898.04 1147.75 C 895.805 1147.81 893.57 1147.86 891.335 1147.89 L 894.544 1143.96 z" fill="rgb(160,66,13)" transform="translate(0,0)"></path>
<path d="M 281.415 1239.49 L 1310.92 1239.74 L 1661.05 1240.02 L 1773.7 1240.11 C 1793.14 1240.14 1819.23 1239.49 1838.33 1240.88 C 1833 1247.52 1807.17 1271.19 1799.63 1278.45 L 1721.4 1354.39 C 1617.62 1455.18 1512.92 1555.01 1407.3 1653.87 C 1369.31 1689.25 1331.29 1727.3 1293.75 1763.29 L 1025.18 2019.25 C 1007.04 2005.18 986.825 1984.83 970.444 1968.76 C 955.686 1954.36 940.779 1940.13 925.723 1926.05 C 845.819 1850.77 766.579 1774.79 688.012 1698.11 L 424.62 1446.63 C 373.566 1398.95 323.103 1350.65 273.242 1301.73 C 253.003 1282.11 228.249 1260.19 209.105 1240.22 C 231.116 1239.05 259.036 1239.63 281.415 1239.49 z" fill="rgb(254,254,254)" transform="translate(0,0)"></path>
<path d="M 1416.67 1250.4 C 1438.94 1249.46 1465.14 1250.05 1487.71 1250.08 L 1613.56 1250.2 C 1594.66 1272.63 1555.55 1307.85 1534.21 1328.59 L 1398.93 1461.1 L 983.341 1867.01 C 967.312 1882.55 951.533 1898.34 936.01 1914.38 C 902.076 1887.27 866.343 1844.97 832.346 1817.97 C 863.333 1785.71 898.412 1752.59 930.536 1721.19 L 1115.58 1539.88 L 1307.63 1349.98 C 1334.74 1323.28 1361.71 1296.3 1388.73 1269.51 C 1396.22 1262.08 1406.27 1252.53 1416.67 1250.4 z" fill="rgb(232,163,60)" transform="translate(0,0)"></path>
<path d="M 1143.86 1250.07 C 1166.87 1249.36 1193.09 1249.87 1216.35 1249.89 L 1368.51 1249.82 C 1355.52 1267.23 1325.66 1294.27 1309.2 1310.18 L 1223.33 1394.57 L 866.374 1745.82 C 848.386 1762.7 830.564 1779.76 812.91 1796.98 C 772.143 1760.53 733.348 1719.33 693.533 1684.03 L 1006.14 1380.37 L 1090.91 1297.81 C 1105.06 1284.17 1128.19 1261.18 1143.86 1250.07 z" fill="rgb(232,163,60)" transform="translate(0,0)"></path>
<path d="M 1653.26 1251.14 C 1670.18 1250.22 1690.98 1250.73 1708.16 1250.72 L 1804.5 1250.63 C 1790.66 1266.45 1759.48 1295.26 1743.62 1310.75 L 1598.37 1450.64 L 1063.81 1961.39 C 1050.36 1973.86 1037.25 1986.69 1024.51 1999.88 L 952.058 1930.73 C 971.833 1914.22 997.915 1887.31 1016.88 1868.89 L 1146.01 1742.23 C 1264.01 1628.64 1381.22 1514.22 1497.63 1398.98 L 1594.79 1303.55 C 1609.24 1289.49 1637.32 1260.47 1653.26 1251.14 z" fill="rgb(232,163,60)" transform="translate(0,0)"></path>
<path d="M 901.407 1249.44 C 908.346 1248.83 916.684 1249.13 923.73 1249.05 C 981.29 1248.37 1039.05 1249.97 1096.58 1248.9 C 1081.93 1260.7 1059.76 1283.81 1045.84 1297.52 L 965.528 1375.99 L 716.726 1617.19 C 701.666 1631.67 686.004 1647.21 670.527 1661.12 C 652.991 1643.36 631.302 1624.97 613.097 1607.13 C 602.083 1596.34 576.692 1570.21 565.858 1562.62 C 582.882 1548.2 597.704 1532.39 613.406 1516.67 L 670.937 1459.79 C 712.697 1419.29 754.193 1378.51 795.423 1337.47 C 825.198 1308.63 854.627 1279.44 883.702 1249.89 C 889.666 1250.02 895.453 1249.69 901.407 1249.44 z" fill="rgb(212,168,75)" transform="translate(0,0)"></path>
<path d="M 615.895 1249.55 C 688.256 1246.92 763.49 1250.61 836.038 1248.89 C 755.307 1325.72 677.016 1407.93 596.271 1484.77 C 578.107 1501.71 559.322 1520.97 542.098 1538.84 C 525.969 1524.87 508.54 1506.92 493.175 1491.82 C 472.272 1471.27 451.072 1451.02 429.585 1431.08 C 441.649 1420.02 454.037 1408.18 465.607 1396.63 C 513.788 1348.49 562.806 1301.22 610.393 1252.51 C 612.234 1250.62 613.399 1250.05 615.895 1249.55 z" fill="rgb(251,223,150)" transform="translate(0,0)"></path>
<path d="M 242.108 1250.06 C 281.187 1252.06 330.795 1250.36 370.656 1250.29 C 435.255 1250.52 499.855 1250.37 564.453 1249.84 C 539.446 1275.5 510.972 1302.42 485.246 1327.83 C 458.767 1355.11 431.11 1380.85 404.733 1407.94 C 367.845 1373.62 331.52 1338.69 295.773 1303.18 C 279.573 1287.3 256.592 1266.55 242.108 1250.06 z" fill="rgb(251,223,150)" transform="translate(0,0)"></path>
<path d="M 212.056 1264.38 C 215.656 1266.12 221.564 1271.79 224.605 1274.65 C 263.528 1311.28 301.389 1349.31 340.034 1386.16 L 714.573 1743.44 L 808.668 1833.83 C 821.039 1845.57 891.453 1910.35 895.96 1918.62 C 877.383 1920.02 844.267 1919.04 824.662 1919.09 L 682.788 1919.38 L 211.758 1919.37 C 211.206 1879.87 211.857 1839.91 211.646 1800.32 L 212.056 1264.38 z" fill="rgb(254,254,254)" transform="translate(0,0)"></path>
<path d="M 1834.84 1263.93 C 1836.79 1266.74 1835.98 1332.04 1835.98 1339.32 L 1836 1484.39 L 1835.57 1919.06 L 1155.75 1919.04 C 1154.49 1918.88 1155.19 1919.09 1153.77 1918.1 C 1158.13 1908.66 1223.77 1849.89 1236.72 1837.41 L 1668.18 1425.06 L 1780.61 1316.59 C 1797.55 1300.2 1817.37 1279.12 1834.84 1263.93 z" fill="rgb(254,254,254)" transform="translate(0,0)"></path>
<path d="M 212.976 791.198 L 1835.61 791.884 C 1835.79 796.44 1836.61 800.231 1834.02 803.211 L 213.015 803.77 L 212.976 791.198 z" fill="rgb(254,254,254)" transform="translate(0,0)"></path>
<metadata><recraft-signature>{"signed_by": "recraft", "signature_b64": "p5iNZCx3jU8p69KdOmCF7hVAS1h9oLHiFyhE+eXL/l52zBCKBoEavyJmC6IcE91slhrrb7K6bwaMhYqee0KJAQ==", "signing_algo": "Ed25519", "generation_timestamp": 1764903630, "identifier": "09f307fe-f434-4a6c-bee6-c5df25e637a9"}</recraft-signature></metadata></svg>