<svg xmlns="http://www.w3.org/2000/svg" height="1024" preserveAspectRatio="none" style="display: block;" version="1.1" viewBox="0 0 2048 2048" width="1024">
<path d="M 0 0 L 2048 0 L 2048 2048 L 0 2048 L 0 0 z" fill="rgb(245,244,243)" transform="translate(0,0)"></path>
<path d="M 393.602 628.411 C 424.013 626.027 440.421 631.741 466.622 646.288 L 479.056 627.671 C 482.465 629.583 485.692 631.873 488.933 634.069 C 487.234 643.507 485.477 648.073 480.969 656.417 C 525.098 699.254 540.056 754.503 521.224 813.674 C 496.486 802.281 482.82 781.504 458.127 769.51 C 436.433 758.973 428.083 766.145 404.126 755.972 C 396.24 771.537 386.995 803.227 381.517 820.625 C 379.392 832.458 383.889 840.663 378.291 851.842 C 371.842 864.72 368.855 883.147 364.721 897.045 C 353.622 934.36 343.971 971.83 335.049 1009.69 C 332.662 1019.82 333.929 1031.07 330.103 1040.67 C 329.685 1041.66 326.646 1041.95 325.19 1042.26 C 324.727 1042.84 315.493 1085.14 314.124 1089.95 C 318.842 1091.88 323.989 1093.66 328.8 1095.42 C 332.131 1082.88 334.605 1068.67 337.865 1055.8 C 351.561 1001.73 363.828 947.255 377.168 893.113 C 380.47 879.715 392.175 866.488 394.805 851.457 C 396.81 839.993 396.015 835.653 393.748 824.716 C 399.486 808.096 405.012 791.403 410.324 774.642 L 441.696 775.093 C 477.19 796.14 484.822 816.539 528.493 827.92 C 536.021 809.506 541.328 795.829 543.274 775.872 C 603.532 774.001 669.707 775.147 730.46 775.132 L 1071.82 775.183 L 1938.02 774.91 L 1938.66 1281.13 L 965.807 1281.15 L 628.048 1281.09 C 556.777 1280.91 485.506 1281.25 414.24 1282.11 C 401.31 1243.01 384.73 1158.12 362.189 1127.85 C 347.66 1108.34 327.852 1097.33 304.017 1093.89 C 303.864 1101.17 303.55 1106.59 302.829 1113.83 C 354.25 1115.73 363.067 1160.94 374.441 1200.21 C 382.545 1228.19 396.031 1292.6 411.58 1314.48 C 418.942 1312.69 439.22 1307.09 444.35 1314.38 C 443.94 1323.4 382.557 1358.28 377.34 1356.32 C 373.901 1350.09 374.865 1335.52 374.903 1327.85 C 365.145 1332.12 361.042 1333.49 350.544 1334.85 C 352.936 1342.4 352.831 1345.77 352.818 1353.73 C 352.754 1391.77 379.554 1379.89 397.608 1362.96 L 1130.67 1362.1 L 1953.76 1362.49 L 1954.62 691.75 C 1954.71 689.325 1954.67 689.352 1954.09 686.978 C 1949.51 685.061 1783.38 685.814 1766.85 685.758 L 524.006 685.753 C 518.757 680.066 514.465 673.279 510.549 666.649 C 566.838 666.426 623.128 666.497 679.416 666.86 L 1006.26 666.893 L 1975.04 666.117 L 1975.05 1381.72 L 742.845 1381.89 L 399.76 1381.75 C 327.551 1381.55 249.68 1380.11 177.633 1381.83 C 186.806 1376.3 185.57 1375.65 192.779 1367.88 C 194.311 1366.23 197.893 1363.58 200.121 1363.41 C 214.3 1362.34 230.643 1362.77 244.859 1362.77 L 350.236 1362.68 C 348.86 1341.59 343.822 1333.73 337.663 1314.09 C 326.544 1278.62 319.375 1241.66 307.585 1206.35 C 303.212 1193.26 290.317 1177.26 275.461 1187.59 C 273.992 1188.75 263.753 1222.89 261.371 1228.37 C 240.375 1276.64 214.604 1324.22 181.783 1365.45 C 178.692 1369.34 173.304 1368.44 168.679 1368.32 C 158.336 1388.38 164.966 1389.78 179.93 1402.38 C 184.444 1406.18 191.264 1409.69 188.425 1416.13 L 186.293 1416.69 C 168.449 1413.43 154.006 1397.52 139.317 1389.02 C 126.651 1381.69 111.931 1376.82 99.8424 1368.3 C 102.139 1365.26 111.082 1354.3 111.564 1351.43 L 108.364 1348.89 C 108.549 1346.64 120.772 1331.9 123.436 1328.73 C 155.725 1290.33 178.481 1249.19 201.389 1204.93 C 199.211 1204.32 197.039 1203.7 194.872 1203.06 C 174.078 1196.87 150.674 1182.65 140.001 1161.77 C 124.802 1132.05 136.456 1086.73 141.583 1055.01 C 142.152 1051.48 147.305 1048.76 150.312 1047.56 C 152.349 1042.32 155.891 1024.3 157.628 1017.63 C 166.347 984.102 176.706 954.056 198.784 926.67 C 205.034 918.836 212.379 911.941 220.591 906.197 C 228.943 900.295 258.076 887.047 260.83 880.133 C 257.952 877.525 254.329 878.018 250.843 877.118 C 247.499 875.7 250.322 871.162 247.362 868.956 C 236.283 860.699 228.567 853.041 219.684 842.466 C 243.731 822.468 274.865 809.394 305.176 802.389 C 316.164 799.849 348.546 796.377 350.717 811.964 C 345.78 815.89 315.762 816.883 307.266 817.497 C 302.964 823.902 300.103 830.126 297.71 837.414 C 299.675 843.761 304.755 852.357 308.073 858.45 C 304.077 863.052 298.256 868.73 293.909 873.215 C 316.918 887.078 309.548 894.911 320.089 915.526 L 320.84 916.972 C 323.972 909.24 326.644 901.9 329.442 894.036 C 321.515 880.654 319.676 874.834 333.77 863.856 C 338.238 860.376 343.023 857.029 347.618 853.702 L 345.44 842.323 C 350.06 830.253 352.421 826.646 365.126 824.643 C 367.896 817.853 370.573 807.116 373.232 799.552 C 379.918 780.678 387.054 761.965 394.633 743.431 C 381.929 715.655 339.649 702.269 313.281 691.134 C 305.395 687.803 297.955 683.759 290.393 679.743 C 324.418 655.417 350.935 632.348 393.602 628.411 z" fill="rgb(10,10,10)" transform="translate(0,0)"></path>
<path d="M 1060.91 896.272 C 1101.59 890.703 1139.15 918.975 1145.06 959.608 C 1150.97 1000.24 1123.01 1038.04 1082.42 1044.28 C 1041.36 1050.6 1003.02 1022.24 997.046 981.122 C 991.07 940.01 1019.75 901.906 1060.91 896.272 z" fill="rgb(245,244,243)" transform="translate(0,0)"></path>
<path d="M 1063.51 916.97 C 1093.05 912.896 1120.31 933.525 1124.41 963.063 C 1128.51 992.601 1107.91 1019.88 1078.38 1024.01 C 1048.8 1028.15 1021.48 1007.51 1017.37 977.931 C 1013.26 948.352 1033.93 921.049 1063.51 916.97 z" fill="rgb(10,10,10)" transform="translate(0,0)"></path>
<path d="M 1478.19 894.635 C 1481.38 898.045 1506.82 978.034 1509.84 987.145 C 1520.93 957.759 1531.41 926.522 1541.78 896.834 L 1566.1 896.835 C 1562.93 904.539 1559.55 912.596 1556.75 920.417 C 1540.93 964.462 1523.97 1008.18 1509.02 1052.51 C 1501.7 1023.71 1488.1 993.711 1480.27 964.633 L 1479.85 964.692 C 1476.89 967.034 1452.75 1041.21 1448.82 1052.22 C 1445.53 1044.6 1441.71 1032.21 1438.77 1024.05 L 1419.46 971.539 C 1411.99 951.037 1398.13 917.177 1393 897.716 L 1415.33 897.328 C 1425.89 927.536 1437.1 957.514 1448.94 987.244 C 1457.92 956.898 1468.73 925.115 1478.19 894.635 z" fill="rgb(245,244,243)" transform="translate(0,0)"></path>
<path d="M 471.701 893.365 C 477.188 897.639 514.594 973.041 520.935 984.918 C 525.956 976.94 532.274 963.029 536.809 954.026 C 547.25 933.575 557.537 913.044 567.668 892.437 C 571.528 912.681 573.858 935.015 577.488 955.595 C 582.431 983.626 588.465 1012.79 590.591 1041.1 L 569.713 1041.27 C 566.434 1020.53 562.816 999.84 558.861 979.214 L 555.109 961.157 C 544.999 977.323 529.142 1021.26 520.562 1040.72 C 509.25 1012.93 496.991 985.545 483.807 958.598 C 478.558 981.455 473.389 1018.01 469.695 1042 C 461.729 1041.94 457.941 1041.9 450.169 1040.6 C 449.65 1024.56 456.14 988.954 458.934 971.904 C 463.131 946.299 466.857 918.714 471.701 893.365 z" fill="rgb(245,244,243)" transform="translate(0,0)"></path>
<path d="M 242.415 898.91 L 243.809 899.433 C 230.56 916.932 229.46 923.657 247.411 937.798 C 232.223 977.973 224.715 1023.91 218.487 1066.28 C 203.269 1064.05 192.182 1062.24 177.224 1058.81 C 168.417 1056.52 162.781 1054.26 154.424 1050.74 C 158.126 1033.67 162.534 1016.76 167.636 1000.06 C 182.196 953.611 199.036 921.654 242.415 898.91 z" fill="rgb(245,244,243)" transform="translate(0,0)"></path>
<path d="M 913.88 895.292 C 915.916 895.08 917.959 894.937 920.006 894.865 C 944.893 893.913 961.246 902.616 978.751 919.136 L 963.482 932.649 C 960.157 929.483 956.041 926.169 952.064 923.863 C 938.603 916.037 922.492 914.17 907.599 918.708 C 893.307 922.959 881.403 932.918 874.695 946.234 C 868.266 958.832 867.087 973.463 871.416 986.928 C 876.071 1001.14 886.334 1012.84 899.823 1019.3 C 926.791 1032.08 956.8 1022.95 969.102 994.888 C 963.257 994.843 938.237 995.185 934.512 993.755 C 934.511 986.708 934.745 979.436 934.883 972.371 C 951.936 971.844 972.865 971.721 989.786 972.767 C 991.724 1009.39 974.573 1036.39 937.63 1043.74 C 918.079 1047.65 897.777 1043.61 881.222 1032.49 C 824.674 994.13 844.454 907.651 913.88 895.292 z" fill="rgb(245,244,243)" transform="translate(0,0)"></path>
<path d="M 723.859 893.272 C 733.119 897.366 796.022 975.834 806.973 989.149 L 807.114 897.006 L 827.808 897.027 L 828.125 996.782 C 828.17 1003.86 830.177 1037.83 827.458 1041.52 C 817.545 1038.67 802.893 1017.8 795.755 1009.25 C 778.723 988.86 762.692 967.505 745.604 947.107 C 744.716 976.926 745.652 1010.81 745.806 1040.93 L 724.032 1040.97 C 723.643 991.735 723.585 942.503 723.859 893.272 z" fill="rgb(245,244,243)" transform="translate(0,0)"></path>
<path d="M 1344.25 892.459 C 1347.59 895.33 1361.25 933.925 1364.07 940.971 C 1377.84 974.775 1391.86 1008.48 1406.12 1042.08 L 1381.81 1042.2 C 1379.48 1035.65 1375.8 1027.4 1373.1 1020.84 L 1345.91 1020.91 L 1315.33 1020.77 C 1313.2 1028.13 1310.86 1035.42 1308.32 1042.65 C 1301.88 1042.02 1291.53 1042.23 1284.8 1042.17 C 1299.47 1004.8 1316.13 968.173 1329.57 930.269 C 1334.03 917.702 1339.01 904.703 1344.25 892.459 z" fill="rgb(245,244,243)" transform="translate(0,0)"></path>
<path d="M 1344.38 948.807 C 1347.16 951.745 1362.17 993.442 1365.01 1000.95 L 1344.75 1000.93 L 1323.94 1000.92 C 1331.22 983.735 1338.03 966.357 1344.38 948.807 z" fill="rgb(10,10,10)" transform="translate(0,0)"></path>
<path d="M 653.042 894.514 C 657.872 899.017 708.821 1025.53 713.98 1040.92 L 692.631 1041 L 684.606 1018.48 C 676.286 1017.83 664.108 1018.13 655.5 1018.08 L 626.092 1018.1 L 615.301 1041.08 L 594.777 1040.99 C 612.533 991.237 634.04 943.931 653.042 894.514 z" fill="rgb(245,244,243)" transform="translate(0,0)"></path>
<path d="M 653.79 951.774 C 657.392 955.472 671.377 991.618 674.352 999.036 L 655.5 999.137 L 633.597 999.193 C 640.004 986.832 648.049 965.361 653.79 951.774 z" fill="rgb(10,10,10)" transform="translate(0,0)"></path>
<path d="M 136.836 1125.13 C 170.123 1140.08 216.182 1147.34 252.959 1145.76 C 266.094 1145.19 281.327 1142.26 294.359 1139.82 C 291.12 1155.79 288.848 1167.05 278.766 1180.09 C 266.133 1192.04 242.482 1201.65 225.168 1202.1 C 194.644 1202.89 161.884 1188.55 145.686 1161.88 C 138.381 1149.86 137.339 1138.78 136.836 1125.13 z" fill="rgb(245,244,243)" transform="translate(0,0)"></path>
<path d="M 271.186 917.601 C 279.246 928.381 293.346 1001.7 294.967 1019.99 C 296.086 1032.6 296.302 1053.49 296.191 1066.86 C 279.846 1068.43 267.839 1069.32 251.294 1068.57 L 224.216 1066.7 C 228.833 1031.51 240.897 971.866 254.339 940.166 C 264.505 933.914 266.379 928.184 271.186 917.601 z" fill="rgb(245,244,243)" transform="translate(0,0)"></path>
<path d="M 1827.59 895.191 C 1849.21 893.108 1861.12 896.921 1879.83 907.006 C 1879.9 916.419 1879.8 925.832 1879.54 935.241 C 1861.31 919.551 1840.89 910.284 1817.45 921.56 C 1752.28 952.911 1797.56 1045.68 1863.77 1014.44 C 1871.11 1010.53 1874.23 1007.7 1879.93 1002.07 L 1879.86 1029.75 C 1870.85 1034.89 1863.15 1038.96 1852.96 1041.31 C 1814.65 1050.14 1773.74 1024.25 1765.56 985.678 C 1761.39 965.71 1765.37 944.9 1776.62 927.886 C 1788.89 909.388 1806.18 899.427 1827.59 895.191 z" fill="rgb(245,244,243)" transform="translate(0,0)"></path>
<path d="M 143.895 1067.55 C 181.783 1088.33 256.227 1088.61 298.88 1084.35 C 299.232 1093.65 300.696 1110.44 297.64 1119.06 C 297.027 1120.79 296.216 1120.44 293.735 1121.26 L 292.516 1121.56 C 247.409 1132.71 178.894 1126.99 138.647 1102.88 C 139.078 1092.09 141.768 1078.27 143.895 1067.55 z" fill="rgb(245,244,243)" transform="translate(0,0)"></path>
<path d="M 1697.39 897.063 L 1719.11 897.029 L 1719.42 1021.1 L 1759.97 1021.1 L 1759.92 1042 L 1697.08 1042.02 C 1696.92 993.703 1697.02 945.382 1697.39 897.063 z" fill="rgb(245,244,243)" transform="translate(0,0)"></path>
<path d="M 1212.63 897.064 L 1233.98 897.236 L 1234.43 1021.23 C 1246.83 1021.83 1262.27 1021.47 1275 1021.62 L 1274.94 1041.99 C 1254.77 1042.45 1232.94 1042.14 1212.65 1042.2 L 1212.63 897.064 z" fill="rgb(245,244,243)" transform="translate(0,0)"></path>
<path d="M 1622.21 896.493 C 1629.22 896.255 1636.37 896.477 1643.39 896.6 L 1643.31 1021.33 L 1684.82 1021.27 C 1684.97 1028.18 1684.89 1035.1 1684.6 1042 L 1621.14 1042.05 L 1621.8 967.672 C 1621.86 944.735 1621.35 919.254 1622.21 896.493 z" fill="rgb(245,244,243)" transform="translate(0,0)"></path>
<path d="M 1071.74 1123.14 C 1077.94 1122.97 1082.53 1122.96 1088.35 1125.48 C 1096.24 1128.92 1102.39 1135.44 1105.36 1143.53 C 1113.02 1163.8 1102.31 1181.28 1082.61 1188.03 C 1045.35 1194.79 1028.83 1135.33 1071.74 1123.14 z" fill="rgb(245,244,243)" transform="translate(0,0)"></path>
<path d="M 1073.33 1132.17 C 1077.65 1131.94 1081.93 1132.31 1085.89 1134.16 C 1091.56 1136.79 1095.91 1141.61 1097.96 1147.51 C 1103.21 1162.22 1094.62 1175.05 1080.62 1180 C 1050.91 1181.54 1043.9 1142.02 1073.33 1132.17 z" fill="rgb(10,10,10)" transform="translate(0,0)"></path>
<path d="M 355.182 859.012 C 359.848 858.628 362.239 857.704 365.095 861.732 C 355.469 893.115 349.021 927.475 337.608 958.185 C 335.77 963.128 321.988 967.151 316.715 968.752 C 310.345 966.21 308.452 964.886 303.703 960.063 C 297.073 950.69 295.607 946.809 292.52 935.744 C 297.305 921.238 300.064 913.678 312.46 929.529 C 315.956 927.81 320.22 925.065 323.633 923.006 C 330.186 910.306 345.136 866.502 355.182 859.012 z" fill="rgb(245,244,243)" transform="translate(0,0)"></path>
<path d="M 1303.35 1124.81 C 1315.59 1124.4 1325.67 1124.35 1335.8 1132.9 C 1342.3 1138.39 1346.25 1146.3 1346.75 1154.79 C 1347.44 1164.94 1344.02 1172.97 1337.38 1180.38 C 1326.27 1188.65 1316.47 1187.98 1303.37 1187.9 C 1302.95 1167.5 1303.34 1145.33 1303.35 1124.81 z" fill="rgb(245,244,243)" transform="translate(0,0)"></path>
<path d="M 1311.05 1131.66 C 1334.59 1134.99 1349.53 1153.32 1332.21 1173.84 C 1327.04 1177.62 1319.43 1180.96 1312.92 1179.98 C 1308.97 1175.95 1310.99 1139.52 1311.05 1131.66 z" fill="rgb(10,10,10)" transform="translate(0,0)"></path>
<path d="M 983.908 1122.12 C 1005.51 1122.62 1002.97 1138.93 989.387 1150.38 C 992.401 1156.27 997.711 1163.3 1001.66 1168.87 C 1004.96 1164.15 1005.4 1162.22 1010.56 1161.16 C 1015.73 1165.38 1009.7 1171.36 1006.7 1175.24 C 1008.62 1178.24 1013.03 1183.54 1013.3 1186.66 L 1009.82 1188.64 C 1006.4 1186.62 1004.14 1183.89 1001.37 1181.02 C 996.295 1184.72 992.974 1187.88 986.504 1188.47 C 975.047 1189.5 965.655 1181.72 965.617 1170.02 C 965.583 1159.52 970.867 1154.44 977.797 1147.66 C 969.16 1136.42 971.849 1128.47 983.908 1122.12 z" fill="rgb(245,244,243)" transform="translate(0,0)"></path>
<path d="M 981.454 1155.11 C 985.937 1158.9 994.473 1169.45 993.924 1175.55 C 992.169 1178.44 990.504 1178.83 987.434 1180.31 C 967.84 1180.26 971.765 1166 981.454 1155.11 z" fill="rgb(10,10,10)" transform="translate(0,0)"></path>
<path d="M 986.077 1128.47 C 996.092 1132.58 993.595 1137 987.285 1143.55 C 977.939 1141.5 979.439 1133.52 986.077 1128.47 z" fill="rgb(10,10,10)" transform="translate(0,0)"></path>
<path d="M 1213.17 1119.34 C 1215.2 1119.52 1216.99 1119.76 1219.02 1120.02 L 1220.11 1121.54 C 1220.59 1131.19 1221.1 1179.67 1219.33 1187.22 C 1215.28 1187.74 1217.02 1188.16 1213.82 1186.68 L 1213.21 1183.27 C 1204.2 1182.11 1206.81 1194.44 1188.21 1185.22 C 1164.81 1164.88 1188.13 1126.52 1213.06 1149.08 L 1213.17 1119.34 z" fill="rgb(245,244,243)" transform="translate(0,0)"></path>
<path d="M 1194.95 1150.02 C 1217.05 1149.12 1219.08 1169.3 1203.87 1180.91 C 1183.57 1181.65 1178.82 1160.1 1194.95 1150.02 z" fill="rgb(10,10,10)" transform="translate(0,0)"></path>
<path d="M 883.314 1141.31 C 888.828 1141.79 890.335 1142.88 894.955 1145.63 L 896.401 1146.5 C 899.22 1143.06 899.565 1141.37 903.543 1143.59 C 904.803 1151.47 904.152 1177.4 903.429 1186.57 C 903.349 1187.58 902.223 1187.53 901.087 1187.87 C 895.264 1182.85 896.124 1183.31 890.403 1187.45 C 860.95 1195.82 848.2 1147.49 883.314 1141.31 z" fill="rgb(245,244,243)" transform="translate(0,0)"></path>
<path d="M 880.953 1149.12 C 900.028 1149.14 904.034 1172.26 885.986 1180.84 C 867.517 1180.83 862.553 1157.9 880.953 1149.12 z" fill="rgb(10,10,10)" transform="translate(0,0)"></path>
<path d="M 744.181 1141 C 747.61 1141.12 751.239 1141.26 754.007 1143.19 C 759.525 1147.49 763.961 1144 770.11 1142.25 C 782.283 1138.78 788.058 1149.57 789.488 1160.01 C 790.072 1164.26 791.15 1183.92 788.899 1187.02 L 786.004 1187.44 C 785.228 1187.06 784.453 1186.68 783.677 1186.29 C 781.007 1177.16 785.761 1162.6 780.55 1154.29 C 776.542 1147.89 766.054 1147.31 764.49 1156.47 C 763.522 1162.13 763.88 1169.79 764.011 1176.25 C 764.112 1179.52 764.449 1181.79 763.389 1184.89 C 760.634 1187.7 762.194 1187.18 758.973 1187.6 C 752.178 1180.56 763.741 1153.08 749.156 1149.41 C 730.112 1144.61 738.079 1175.51 735.613 1186.42 L 733.868 1187.24 C 730.2 1186.88 731.689 1187.63 729.232 1184.93 C 728.502 1182.21 728.714 1146.78 729.52 1145.15 C 737.023 1142.76 735.361 1146.4 744.181 1141 z" fill="rgb(245,244,243)" transform="translate(0,0)"></path>
<path d="M 643.463 1122.22 C 652.24 1121.63 671.559 1123.66 675.092 1132.81 C 674.321 1133.82 670.832 1137.08 669.725 1136.56 C 659.317 1131.09 637.219 1126.81 630.29 1139.97 C 618.748 1161.88 632.68 1184.65 657.986 1179.38 C 663.877 1176.95 667.386 1171.21 673.288 1173.53 C 674.882 1179.08 665.497 1185.04 661.268 1186.83 C 653.275 1190.2 646.257 1189.77 638.397 1186.25 C 629.723 1182.45 623.051 1175.18 620.02 1166.21 C 617.01 1157.2 617.789 1147.37 622.176 1138.95 C 627.105 1129.39 633.644 1125.3 643.463 1122.22 z" fill="rgb(245,244,243)" transform="translate(0,0)"></path>
<path d="M 1557.18 1141.07 L 1558.18 1140.97 C 1576.16 1139.27 1580.57 1150.74 1581.94 1166.19 C 1572.83 1166.49 1558.11 1165 1550.08 1167.28 C 1546.85 1174.62 1559.3 1183.46 1569.69 1179.99 C 1573.35 1177.42 1573.52 1176.46 1577.39 1178.66 L 1577.75 1181.07 C 1567.38 1201.39 1533.63 1180.92 1542.84 1158.62 C 1547.18 1148.14 1546.81 1146.89 1557.18 1141.07 z" fill="rgb(245,244,243)" transform="translate(0,0)"></path>
<path d="M 1558.84 1148.04 C 1565.35 1147.92 1571.8 1150.28 1572.82 1157.43 L 1571.55 1158.89 L 1567.25 1159.1 L 1549.64 1159.02 C 1553.03 1153.41 1553.71 1152.12 1558.84 1148.04 z" fill="rgb(10,10,10)" transform="translate(0,0)"></path>
<path d="M 1366.29 1141.16 C 1385.11 1138.5 1388.02 1150.85 1390.73 1166.36 C 1381.26 1166.94 1367.65 1166.68 1357.86 1166.76 C 1361.81 1180.31 1367.59 1183.74 1381.18 1179.26 C 1381.77 1178.32 1381.29 1178.97 1383.04 1177.72 C 1386.06 1179.2 1385.03 1178.09 1386.38 1181 C 1383.53 1188.97 1373.1 1190.61 1366.49 1188.24 C 1342.93 1179.79 1347.85 1151.85 1366.29 1141.16 z" fill="rgb(245,244,243)" transform="translate(0,0)"></path>
<path d="M 1368.09 1147.76 C 1374.24 1147.73 1380.59 1150.7 1379.84 1157.63 C 1377.19 1159.87 1377.46 1159.11 1373.04 1159.3 C 1367.46 1159.52 1364.19 1160.52 1360.27 1157.28 L 1360.47 1154.91 C 1363.45 1150.93 1363.96 1150.72 1368.09 1147.76 z" fill="rgb(10,10,10)" transform="translate(0,0)"></path>
<path d="M 1431.97 1142.16 C 1449.88 1139.94 1453.81 1150.16 1456.33 1165.51 C 1448.17 1166.1 1430.73 1164.76 1424.72 1166.97 C 1422.45 1175.94 1434.47 1184.54 1444.64 1179.85 C 1445.84 1179.14 1447.14 1178.46 1448.37 1177.79 L 1450.93 1178.62 L 1451.68 1180.8 C 1450.66 1183 1449.01 1185.46 1446.64 1186.36 C 1416.51 1197.83 1404.14 1156.29 1431.97 1142.16 z" fill="rgb(245,244,243)" transform="translate(0,0)"></path>
<path d="M 1431.75 1149.06 C 1437.52 1148.43 1450.66 1151.33 1446.01 1158.78 L 1442.25 1159.2 C 1436.95 1159.3 1430.82 1160.16 1426.27 1158.19 L 1425.57 1156.26 C 1427.11 1152.61 1428.65 1151.76 1431.75 1149.06 z" fill="rgb(10,10,10)" transform="translate(0,0)"></path>
<path d="M 817.965 1141.37 C 820.225 1141.56 822.192 1141.91 824.43 1142.27 L 825.199 1145.35 C 831.239 1145.07 834.585 1139.55 841.588 1142.17 C 851.582 1145.62 854.394 1159.21 854.624 1168.53 C 854.749 1173.57 856.341 1185.81 850.885 1187.85 L 848.495 1186.36 C 846.444 1183.28 847.263 1164.91 847.11 1159.45 C 844.676 1153.71 840.644 1147.93 833.362 1149.19 C 819.944 1151.53 829.088 1180.67 824.964 1186.92 C 821.763 1187.31 821.806 1187.55 818.886 1186.37 C 817.191 1183.87 817.961 1147.37 817.965 1141.37 z" fill="rgb(245,244,243)" transform="translate(0,0)"></path>
<path d="M 1260.16 1140.54 C 1263.25 1140.78 1263.7 1140.6 1266.52 1141.98 C 1267.58 1147.64 1267.08 1179.65 1266.66 1186.18 L 1264.66 1187.8 C 1261.47 1187.07 1262.18 1186.72 1259.63 1183.16 C 1238.76 1192.87 1230.92 1186.52 1230.92 1163.24 C 1230.89 1158.43 1229.84 1145.76 1232.15 1142.78 C 1245.75 1141.21 1232.1 1169.45 1240.48 1176.21 C 1255.18 1188.06 1262.77 1171.53 1260.26 1157.51 C 1259.85 1155.23 1260.19 1143.81 1260.16 1140.54 z" fill="rgb(245,244,243)" transform="translate(0,0)"></path>
<path d="M 1479.35 1141.02 C 1491.54 1140.55 1496.01 1145.99 1497.98 1158.45 C 1498.88 1164.19 1499.67 1182.6 1496.51 1186.98 L 1493.22 1187.14 C 1484.59 1182.06 1501.78 1151.05 1479.91 1148.62 L 1479.5 1148.8 C 1459.88 1157.57 1477.38 1183.79 1466.76 1186.98 L 1464.85 1185.63 C 1460.99 1176.87 1463.02 1158.29 1463.03 1148.26 C 1463.04 1144.49 1463.43 1144.32 1465.52 1142.67 C 1468.83 1143.12 1467.84 1143.04 1470.8 1145.78 C 1473.81 1144.43 1476.52 1142.71 1479.35 1141.02 z" fill="rgb(245,244,243)" transform="translate(0,0)"></path>
<path d="M 1515.98 1141.05 C 1523.57 1140.68 1533.59 1141.21 1532.95 1151.45 L 1531.29 1152.58 C 1524.08 1152.46 1520.27 1145.25 1513.04 1151.18 C 1514.9 1158.53 1536.03 1164.56 1536.77 1175.89 C 1537.29 1183.93 1526.47 1188.49 1520.56 1189.76 C 1514.94 1188.77 1506.02 1183.66 1505.76 1177.7 C 1513.31 1173.76 1522.09 1189.59 1529.4 1176.9 C 1527.75 1167.3 1487.4 1158.19 1515.98 1141.05 z" fill="rgb(245,244,243)" transform="translate(0,0)"></path>
<path d="M 1411.3 1118.04 C 1413.88 1118.27 1412.95 1117.99 1415.17 1119.44 C 1415.55 1122.22 1415.6 1120.84 1414.41 1123.57 C 1407.89 1127.19 1403.44 1129.91 1404.07 1137.69 C 1406.72 1141.45 1406.94 1140.35 1412.23 1142.26 C 1416 1151.69 1408.15 1148.39 1405.34 1150.74 C 1403.89 1157.23 1404.66 1174.58 1404.75 1182.25 L 1404.57 1185.5 C 1402.67 1187.45 1402.81 1187.31 1400.12 1187.82 L 1398.28 1186.38 C 1396.74 1181.24 1394.59 1129.59 1399.49 1123.11 C 1401.84 1120 1407.51 1118.91 1411.3 1118.04 z" fill="rgb(245,244,243)" transform="translate(0,0)"></path>
<path d="M 1115.03 1140.98 L 1119.55 1141.13 C 1124.1 1144.83 1130.06 1166.14 1132.3 1172.65 C 1134.87 1165.99 1141.95 1145.69 1146.44 1141.58 C 1150.17 1141.35 1149.02 1140.71 1151.44 1142.21 C 1151.36 1146.34 1148.76 1151.39 1147.08 1155.36 C 1144.32 1161.72 1137.38 1184.64 1133.58 1187.19 C 1125.56 1183.81 1118.38 1152.22 1114.19 1143.47 C 1114.47 1142.64 1114.75 1141.81 1115.03 1140.98 z" fill="rgb(245,244,243)" transform="translate(0,0)"></path>
<path d="M 916.844 1120.67 C 919.387 1120.67 920.517 1120.81 923.053 1121.13 C 926.758 1125.5 922.359 1171.78 924.533 1179.96 C 925.513 1183.64 927.567 1179.04 930.407 1185.98 C 926.034 1187.87 921.427 1187.85 917.568 1185.03 C 915.932 1177.37 916.801 1131.07 916.844 1120.67 z" fill="rgb(245,244,243)" transform="translate(0,0)"></path>
<path d="M 288.853 847.48 C 294.812 853.052 287.521 870.574 283.087 875.79 C 277.226 877.962 260.051 877.045 255.396 872.342 L 255.597 869.895 C 263.47 864.919 270.932 858.495 276.278 855.164 C 276.089 858.731 275.862 859.439 277.163 862.861 C 280.053 865.471 278.45 864.912 281.941 865.076 C 286.99 861.001 286.246 853.607 288.853 847.48 z" fill="rgb(245,244,243)" transform="translate(0,0)"></path>
<path d="M 699.555 1140.54 C 703.617 1142.03 703.15 1142.01 704.55 1144.72 C 702.077 1150.31 691.795 1151.92 690.131 1156.96 C 687.43 1165.13 693.598 1180.13 687.558 1187.16 L 682.508 1187.54 C 682.506 1177.68 681.862 1151.89 683.997 1143.31 C 686.562 1141.88 685.516 1142.35 688.778 1142.27 L 690.877 1144.42 C 694.645 1144.55 695.872 1142.87 699.555 1140.54 z" fill="rgb(245,244,243)" transform="translate(0,0)"></path>
<path d="M 711.173 1142.59 C 715.131 1142.84 715.432 1142.23 718.29 1144.08 C 719.538 1155.14 718.529 1174.73 719.029 1187.44 C 715.349 1187.13 713.947 1187.67 711.442 1185.84 C 710.312 1175.97 711.08 1153.41 711.173 1142.59 z" fill="rgb(245,244,243)" transform="translate(0,0)"></path>
<path d="M 800.698 1140.39 C 803.857 1140.89 803.912 1140.64 806.333 1142.61 C 809.295 1149.24 807.835 1177.89 807.776 1187.54 C 803.926 1187.27 803.28 1187.94 801.004 1185.92 C 799.886 1174.81 800.63 1152.34 800.698 1140.39 z" fill="rgb(245,244,243)" transform="translate(0,0)"></path>
<path d="M 1161.63 1142.31 C 1166.02 1142.62 1164.38 1141.78 1167.35 1143.89 C 1168.36 1156.18 1167.7 1174.75 1167.6 1187.54 C 1164 1187.02 1163.15 1187.59 1161.2 1185.53 C 1160.64 1178.77 1160.43 1148.55 1161.63 1142.31 z" fill="rgb(245,244,243)" transform="translate(0,0)"></path>
<path d="M 333.818 966.992 C 335.829 968.735 327.292 1003.28 326.36 1003.96 C 324.793 993.525 323.125 983.108 321.357 972.707 C 326.503 970.856 329.084 969.489 333.818 966.992 z" fill="rgb(245,244,243)" transform="translate(0,0)"></path>
<path d="M 1159.7 1121.45 C 1164.22 1121.58 1165.15 1121.45 1167.75 1124.89 C 1167.9 1128.1 1167.06 1128.82 1165.31 1131.53 C 1161.61 1133.4 1162.54 1133.69 1159.59 1132.82 C 1158.16 1129.72 1159.26 1125.05 1159.7 1121.45 z" fill="rgb(245,244,243)" transform="translate(0,0)"></path>
<path d="M 801.976 1123.81 C 803.621 1122.97 805.589 1123.08 807.126 1124.11 C 808.663 1125.13 809.529 1126.9 809.393 1128.74 C 809.258 1130.58 808.14 1132.2 806.47 1132.99 C 803.943 1134.18 800.931 1133.12 799.704 1130.61 C 798.476 1128.1 799.488 1125.07 801.976 1123.81 z" fill="rgb(245,244,243)" transform="translate(0,0)"></path>
<path d="M 712.511 1124.65 C 714.511 1123.28 717.225 1123.66 718.768 1125.53 C 720.312 1127.39 720.176 1130.13 718.454 1131.84 C 717.194 1133.08 715.337 1133.51 713.656 1132.94 C 711.976 1132.38 710.762 1130.91 710.519 1129.15 C 710.277 1127.39 711.048 1125.65 712.511 1124.65 z" fill="rgb(245,244,243)" transform="translate(0,0)"></path>
<path d="M 1112.34 1119.73 C 1120.16 1119.9 1122.23 1121.11 1125.54 1128.37 C 1118.41 1127.94 1116.78 1124.74 1112.34 1119.73 z" fill="rgb(245,244,243)" transform="translate(0,0)"></path>
<path d="M 493.778 619.621 C 551.04 620.701 612.1 619.674 669.598 619.676 L 1005.62 619.736 L 2023.59 619.8 C 2024.33 660.419 2023.77 702.997 2023.68 743.723 L 2023.39 950.871 C 2023.4 1109.92 2024.82 1270.72 2023.14 1429.58 L 205.148 1431.18 C 200.909 1426.6 216.98 1415.55 187.199 1397.32 C 208.335 1398.25 231.788 1397.87 253.087 1397.88 L 386.626 1397.37 L 783.452 1397.52 L 1992.45 1398.02 C 1993.17 1369.2 1992.41 1336.78 1992.35 1307.7 L 1992.03 1131.23 L 1992.45 649.96 C 1901.77 648.484 1808.34 649.487 1717.53 649.472 L 1185.75 649.889 L 737.093 650.057 C 658.58 650.083 575.976 648.916 497.717 650.544 C 499.132 644.467 500.443 638.403 502.246 632.432 C 499.778 628.163 496.581 623.727 493.778 619.621 z" fill="rgb(10,10,10)" transform="translate(0,0)"></path>
<path d="M 22.3699 620.02 L 363.88 619.819 C 340.956 630.234 329.944 636.572 309.715 651.3 L 52.5452 651.565 L 52.6836 1251.25 L 52.9327 1398.6 C 62.2327 1398.73 113.21 1400 119.729 1398.39 L 116.612 1394.94 L 118.076 1394.6 C 131.976 1397.77 163.914 1420.6 174.076 1431.08 L 21.5541 1430.88 L 21.917 866.818 C 21.8967 785.683 20.5147 700.666 22.3699 620.02 z" fill="rgb(10,10,10)" transform="translate(0,0)"></path>
<path d="M 251.024 666.496 C 263.903 666.398 276.466 666.359 289.334 665.691 C 284.98 668.658 279.916 672.072 275.718 675.265 C 273.106 677.253 275.143 680.607 275.639 685.273 C 270.999 686.356 228.393 685.857 221.821 685.848 C 177.773 685.645 133.723 685.708 89.6758 686.037 L 89.7383 1139.11 L 89.2913 1288.95 L 88.99 1337.51 C 88.9675 1344.63 88.8487 1352.1 89.1027 1359.22 C 89.2048 1362.09 89.8365 1361.66 92.4881 1363.9 L 93.0816 1381.67 L 68.3229 1381.6 L 69.124 666.92 L 251.024 666.496 z" fill="rgb(10,10,10)" transform="translate(0,0)"></path>
<path d="M 249.753 771.162 C 250.766 771.063 251.781 770.981 252.798 770.917 C 264.877 770.198 274.127 777.961 282.756 785.419 C 293.546 784.096 329.496 774.501 336.092 780.244 L 335.578 781.935 C 328.661 787.934 307.292 793.212 297.64 796.323 C 276.375 803.176 257.684 811.053 237.391 820.265 C 226.757 825.449 187.997 863.497 180.031 855.192 C 180.873 847.262 214.159 819.833 222.084 813.198 C 224.784 788.99 224.889 779.017 249.753 771.162 z" fill="rgb(10,10,10)" transform="translate(0,0)"></path>
<path d="M 445.753 621.039 C 452.107 620.913 460.627 619.205 465.553 621.882 C 466.351 624.918 465.468 624.95 463.642 628.668 L 463.162 630.062 L 461.603 630.587 C 456.418 628.546 450.524 624.209 445.753 621.039 z" fill="rgb(10,10,10)" transform="translate(0,0)"></path>
<metadata><recraft-signature>{"signed_by": "recraft", "signature_b64": "zMK9zaV3YBwvZU6MoIRMUy29rO/vjCdC+S15UYGUBr/sRfXw+sO5Qn89hRezZRNgsvPMSVTg4okQFnmdsIP9Cw==", "signing_algo": "Ed25519", "generation_timestamp": 1764903664, "identifier": "34278966-97b6-4d9f-adbe-60b77d01d590"}</recraft-signature></metadata></svg>