<svg xmlns="http://www.w3.org/2000/svg" height="1024" preserveAspectRatio="none" style="display: block;" version="1.1" viewBox="0 0 2048 2048" width="1024">
<path d="M 0 0 L 2048 0 L 2048 2048 L 0 2048 L 0 0 z" fill="rgb(255,255,255)" transform="translate(0,0)"></path>
<path d="M 1022.81 41.8908 C 1025.67 41.8767 1300.38 198.088 1329.9 214.865 L 1707.77 429.445 L 1859.02 515.045 C 1878.49 526.103 1915.65 545.682 1932.78 557.531 L 1932.84 1490.32 C 1862.89 1532.81 1789.24 1572.46 1718.1 1613.19 L 1192.96 1912.02 C 1136.92 1943.39 1081.1 1975.13 1025.49 2007.24 C 1021.31 2007.92 1002.14 1995.73 997.636 1993.15 C 981.914 1984.07 966.12 1975.11 950.255 1966.27 C 883.893 1929.08 817.741 1891.52 751.802 1853.58 L 116.32 1490.69 L 115.975 556.802 C 124.188 550.853 141.39 542.81 150.891 537.255 C 169.5 526.374 188.484 515.667 207.316 505.174 C 266.609 472.153 325.655 438.691 384.45 404.791 L 826.211 153.479 L 954.764 80.5402 C 976.943 67.9032 1000.43 53.7602 1022.81 41.8908 z" fill="rgb(10,10,10)" transform="translate(0,0)"></path>
<path d="M 1023.89 79.9443 C 1034.56 84.029 1056.22 97.4517 1066.73 103.66 C 1083.88 113.785 1101.08 123.376 1118.32 133.309 L 1312.23 243.878 L 1704.98 466.744 L 1846.45 547.078 C 1864.42 557.387 1882.17 566.879 1899.95 577.653 L 1899.97 1471.37 C 1856.76 1497.94 1803.58 1526.74 1759.44 1551.46 L 1638.73 1620.57 L 1025.39 1968.83 C 1020.34 1969.02 972.153 1940.48 964.285 1936.03 L 854.504 1873.89 L 493.96 1668.12 L 299.405 1556.24 L 200.845 1500.23 C 184.26 1490.64 165.725 1480.45 149.848 1470.14 L 149.996 577.298 C 163.37 568.077 185.954 556.053 200.5 547.815 L 290.679 496.933 L 539.62 355.114 L 828.306 191.039 L 944.773 124.302 C 968.937 110.404 999.197 91.918 1023.89 79.9443 z" fill="rgb(255,255,255)" transform="translate(0,0)"></path>
<path d="M 1022.37 101.814 C 1027.34 101 1134.97 164.725 1148.83 172.534 L 1668.53 468.287 L 1817.7 552.826 C 1836.52 563.557 1862.07 576.614 1879.67 588.073 L 1879.98 1459.9 C 1808.31 1502.38 1736.2 1544.11 1663.66 1585.09 L 1256.89 1816.95 C 1207.45 1845.2 1157.86 1873.18 1108.11 1900.88 C 1084.1 1914.35 1046.61 1934.02 1024.76 1949.1 C 1018.72 1946.27 1006.48 1938.38 1000.44 1934.73 C 988.902 1927.62 977.119 1920.91 965.114 1914.62 C 875.942 1866.81 782.243 1811.91 694.34 1761.17 L 167.14 1460.42 C 165.513 1357.51 166.887 1249.56 166.989 1146.34 L 167.971 588.399 C 190.666 574.541 217.732 560.023 241.132 546.776 L 405.958 453.528 L 1022.37 101.814 z" fill="rgb(10,10,10)" transform="translate(0,0)"></path>
<path d="M 1023.26 114.071 C 1035.8 119.893 1062.52 136.676 1075.78 144.386 C 1111.21 165.028 1146.79 185.414 1182.52 205.54 L 1633.35 461.705 L 1775.24 542.708 C 1803.2 558.82 1840.07 581.633 1868.62 595.164 L 1868.62 1453.04 L 1306.2 1774.58 L 1114.91 1883.13 C 1085.57 1899.62 1053.98 1918.69 1024.33 1933.63 C 1018.38 1934.37 397.759 1577.6 337.937 1543.45 L 230.614 1482.73 C 213.786 1473.19 195.119 1463.19 178.758 1453.11 C 178.242 1416.7 178.938 1378.41 178.968 1341.84 L 178.984 1114.44 L 179.308 595.819 C 203.185 581.444 231.589 566.473 256.181 552.683 L 379.786 482.498 L 855.246 210.614 C 911.409 178.14 967.374 147.585 1023.26 114.071 z" fill="rgb(255,255,255)" transform="translate(0,0)"></path>
<path d="M 1023.83 142.882 C 1033.58 147.729 1045.77 155.706 1055.41 161.292 L 1109.02 192.087 L 1263.52 279.478 L 1671.19 511.134 L 1786.88 577.667 C 1804.56 587.916 1826.97 602.234 1844.84 611.063 L 1844.24 1008.77 C 1840.64 1011.09 1837.59 1013.52 1834.2 1016.13 C 1754.42 938.819 1675.42 860.7 1597.21 781.789 L 1289.05 475.123 C 1228.85 414.389 1168.09 354.197 1106.81 294.555 C 1080.99 269.256 1051.7 237.329 1024.66 213.995 C 1016.05 217.189 796.055 438.387 770.624 463.624 L 392.493 839.157 C 336.662 894.61 279.995 952.236 222.574 1006.09 C 221.552 1007.05 208.063 1012.45 204.602 1014.47 L 203.355 1015.21 C 202.436 973.553 203.185 928.288 203.165 886.352 L 203.097 611.754 C 224.053 598.746 248.827 585.328 270.486 572.923 L 401.924 497.989 C 512.225 434.358 622.911 371.398 733.978 309.114 C 753.483 298.153 772.518 286.222 791.897 275.074 L 934.692 193.587 C 961.906 177.952 996.487 156.627 1023.83 142.882 z" fill="rgb(10,10,10)" transform="translate(0,0)"></path>
<path d="M 238.634 630.948 L 471.169 630.984 C 480.726 630.984 538.229 629.642 544.327 631.158 L 544.854 632.631 L 541.77 636.389 C 536.088 638.342 484.327 637.484 475.643 637.508 C 406.264 637.855 336.884 637.716 267.508 637.09 C 260.687 637.013 240.939 639.3 237.302 635.065 L 238.634 630.948 z" fill="rgb(255,255,255)" transform="translate(0,0)"></path>
<path d="M 288.845 597.26 C 385.805 596.764 482.768 596.866 579.728 597.567 C 576.007 601.725 575.349 603.203 570.25 604.012 L 276.175 604.01 C 280.538 601.277 284.255 599.519 288.845 597.26 z" fill="rgb(255,255,255)" transform="translate(0,0)"></path>
<path d="M 344.083 564.188 C 375.641 562.717 416.297 563.739 448.626 563.674 C 503.319 563.367 558.013 563.436 612.705 563.881 C 610.334 566.635 608.579 569.532 605.25 570.319 C 515.085 569.533 423.334 571.743 333.313 569.954 L 344.083 564.188 z" fill="rgb(255,255,255)" transform="translate(0,0)"></path>
<path d="M 1434.36 562.076 C 1483.26 559.964 1544.77 561.641 1594.9 561.571 L 1656.54 561.446 C 1670.89 561.425 1695.06 558.781 1706.18 568.631 C 1623.94 565.783 1535.2 569.896 1452.45 568.785 C 1441.72 568.641 1441.54 569.44 1434.36 562.076 z" fill="rgb(255,255,255)" transform="translate(0,0)"></path>
<path d="M 1663.98 637.364 C 1682.89 635.491 1697.54 643.893 1713 638.443 C 1714.03 645.001 1714.09 650.858 1714.31 657.478 C 1694.33 642.514 1665.21 631.008 1642.26 649.968 C 1637.3 654.057 1634.47 661.929 1634.65 668.359 C 1634.87 675.289 1637.93 681.824 1643.12 686.427 C 1654.45 696.669 1671.82 697.309 1686.2 696.328 C 1702.21 693.875 1708.32 687.987 1721.58 679.824 C 1716.79 687.78 1714.47 691.424 1706.91 697.388 C 1702.96 698.066 1699 698.706 1695.03 699.307 C 1673.74 702.504 1645.6 702.663 1627.34 689.41 C 1615.93 680.873 1612.8 666.036 1622.41 654.875 C 1633.03 642.553 1648.64 639.177 1663.98 637.364 z" fill="rgb(255,255,255)" transform="translate(0,0)"></path>
<path d="M 235.831 665.075 C 264.964 665.416 507.053 664.216 510.338 666.206 L 509.399 668.208 C 508.724 668.643 504.772 671.294 503.367 671.291 C 414.956 671.127 326.495 671.479 238.081 671.037 C 237.51 670.687 236.939 670.337 236.369 669.988 L 235.831 665.075 z" fill="rgb(255,255,255)" transform="translate(0,0)"></path>
<path d="M 410.182 529.428 C 488.601 528.473 570.389 528.903 648.873 529.493 C 641.658 535.129 641.304 535.974 632.239 535.836 L 392.142 535.962 C 398.853 532.232 402.609 530.518 410.182 529.428 z" fill="rgb(255,255,255)" transform="translate(0,0)"></path>
<path d="M 1400.32 529.111 C 1429.08 528.443 1460.14 529.016 1489.05 529.005 L 1641.13 529.094 C 1645.16 531.511 1646.13 531.981 1649.45 535.176 C 1593.21 536.127 1534.43 535.256 1478.01 535.28 C 1462.4 535.304 1446.78 535.416 1431.17 535.614 C 1423.21 535.689 1414.67 535.871 1406.7 535.339 C 1404.29 535.178 1401.93 531.259 1400.32 529.111 z" fill="rgb(255,255,255)" transform="translate(0,0)"></path>
<path d="M 235.015 699.997 C 249.241 699.003 474.023 699.295 476.444 700.288 L 475.624 702.404 C 474.329 703.295 472.909 704.343 471.423 704.887 C 466.705 706.614 239.909 706.81 237.128 705.45 C 235.755 704.778 235.41 701.461 235.015 699.997 z" fill="rgb(255,255,255)" transform="translate(0,0)"></path>
<path d="M 1364.52 495.968 C 1407.73 494.575 1458.26 496.082 1502.03 496.054 L 1552.55 495.868 C 1565.56 495.812 1583.83 493.734 1594.3 501.931 C 1571.53 503.189 1539.13 502.274 1515.59 502.337 L 1372.17 502.493 C 1369.73 500.615 1366.89 498.013 1364.52 495.968 z" fill="rgb(255,255,255)" transform="translate(0,0)"></path>
<path d="M 235.859 734.059 L 379.892 734.076 C 388.873 734.076 434.325 733.453 440.065 734.376 L 440.405 735.685 L 437.527 739.56 C 437.386 739.7 437.275 739.877 437.105 739.979 C 433.2 742.301 256.605 740.821 237.709 740.591 C 235.44 738.136 236.19 738.341 235.859 734.059 z" fill="rgb(255,255,255)" transform="translate(0,0)"></path>
<path d="M 463.655 496.039 C 480.991 494.593 516.068 495.905 534.861 495.924 L 681.918 495.992 C 679.741 498.183 677.318 500.177 674.973 502.203 L 453.543 501.971 L 463.655 496.039 z" fill="rgb(255,255,255)" transform="translate(0,0)"></path>
<path d="M 1689.79 756.436 C 1695.04 755.092 1732.66 755.086 1736.2 756.63 C 1733.78 760.199 1727.76 755.186 1721.5 761.319 C 1719.43 769.328 1718.83 799.738 1722.32 807.195 C 1731.18 811.299 1755.95 809.783 1764.74 804.707 C 1766.78 803.525 1776.16 798.989 1777.44 798.52 L 1778.07 800.444 L 1772.34 813.034 C 1744.24 812.81 1710.51 813.079 1682.96 811.812 C 1690.83 810.323 1698.99 810.313 1703.8 804.456 C 1706.15 794.451 1705.95 771.68 1703.49 761.218 C 1702.87 758.599 1692.65 757.239 1689.79 756.436 z" fill="rgb(255,255,255)" transform="translate(0,0)"></path>
<path d="M 1330.3 463.031 L 1524.02 463.034 C 1527.8 465.401 1529.08 466.231 1532.41 469.134 L 1394.34 469.628 C 1376.29 469.678 1356.19 470.008 1338.03 469.652 C 1335.34 469.599 1332.42 465.383 1330.3 463.031 z" fill="rgb(255,255,255)" transform="translate(0,0)"></path>
<path d="M 1296.52 429.843 C 1305.09 429.182 1320.34 429.637 1329.55 429.64 L 1394.01 429.683 C 1416.58 429.707 1442.55 429.187 1465.17 430.525 C 1467.22 430.646 1475.26 435.37 1477.55 436.679 C 1462.64 437.809 1433.85 436.905 1418.09 436.879 L 1304.93 436.862 L 1296.52 429.843 z" fill="rgb(255,255,255)" transform="translate(0,0)"></path>
<path d="M 525.384 462.102 C 547.687 463.542 575.402 462.95 598.021 462.978 L 717.056 463.091 C 712.589 466.832 710.713 469.002 705.25 469.116 L 511.552 469.005 C 516.332 466.203 520.387 464.389 525.384 462.102 z" fill="rgb(255,255,255)" transform="translate(0,0)"></path>
<path d="M 382.853 767.495 C 392.269 767.361 401.686 767.455 411.097 767.774 L 401.761 773.834 C 357.602 775.093 307.765 774.039 263.173 774.07 C 256.286 774.192 240.732 776.129 236.205 771.055 L 236.553 768.975 C 242.287 766.073 364.877 767.572 382.853 767.495 z" fill="rgb(255,255,255)" transform="translate(0,0)"></path>
<path d="M 580.751 429.258 C 635.926 428.676 693.171 430.664 749.246 430.274 C 746.452 432.922 745.146 433.938 742.01 436.2 C 684.905 436.583 627.645 435.674 570.513 436.341 L 580.751 429.258 z" fill="rgb(255,255,255)" transform="translate(0,0)"></path>
<path d="M 1264.32 395.937 L 1352.28 396.156 C 1369.03 396.151 1388.59 395.361 1405.12 397.453 C 1408.39 397.867 1413.62 400.974 1416.65 402.696 C 1403.65 403.765 1381.02 403.025 1367.02 403.027 L 1271.28 403.014 L 1264.32 395.937 z" fill="rgb(255,255,255)" transform="translate(0,0)"></path>
<path d="M 785.092 396.489 C 784.442 397.176 783.783 397.855 783.114 398.524 C 778.51 403.085 777.829 403.102 771.191 403.033 L 628.983 403.006 C 635.54 399.059 638.466 397.028 646.054 396.499 L 785.092 396.489 z" fill="rgb(255,255,255)" transform="translate(0,0)"></path>
<path d="M 235.183 801.138 C 243.738 800.716 373.322 800.5 375.392 801.351 L 374.507 803.128 C 373.62 803.838 370.011 806.733 369.286 806.695 C 352.754 805.828 243.069 809.954 236.317 805.991 L 235.183 801.138 z" fill="rgb(255,255,255)" transform="translate(0,0)"></path>
<path d="M 694.38 362.362 L 818.545 362.12 C 815.582 364.965 813.897 366.305 810.606 368.796 C 769.492 368.777 726.465 369.394 685.501 368.314 L 694.38 362.362 z" fill="rgb(255,255,255)" transform="translate(0,0)"></path>
<path d="M 1228.79 362.886 L 1304.63 362.583 C 1318.2 362.544 1334.14 361.846 1347.56 363.709 C 1350.02 364.051 1355.74 367.526 1358.1 368.926 C 1347.61 369.83 1327.45 369.222 1316.41 369.209 L 1236.58 369.09 C 1233.87 367.352 1231.29 364.99 1228.79 362.886 z" fill="rgb(255,255,255)" transform="translate(0,0)"></path>
<path d="M 235.88 833.192 L 343.505 833.18 L 344.138 833.941 L 340.77 837.181 C 339.433 838.091 337.494 839.63 335.727 839.689 C 309.612 840.56 283.352 839.806 257.206 840.123 C 250.659 840.203 244.138 840.152 237.603 839.76 C 235.443 837.689 236.171 837.192 235.88 833.192 z" fill="rgb(255,255,255)" transform="translate(0,0)"></path>
<path d="M 1195.22 329.366 C 1220.2 327.763 1247.47 329.924 1272.67 328.922 C 1283.25 328.502 1290.6 329.477 1299.19 335.912 C 1267.04 336.756 1232.67 336.126 1200.35 336.075 C 1197.46 333.199 1197 332.931 1195.22 329.366 z" fill="rgb(255,255,255)" transform="translate(0,0)"></path>
<path d="M 752.696 328.988 L 815.526 328.913 C 825.229 328.906 841.531 328.454 850.577 329.355 C 849.764 332.319 848.485 332.752 845.975 335.288 C 812.3 335.095 778.624 335.162 744.951 335.488 C 747.316 333.038 750.01 331.089 752.696 328.988 z" fill="rgb(255,255,255)" transform="translate(0,0)"></path>
<path d="M 1161.85 295.375 C 1176.37 294.546 1192 295.292 1206.64 294.978 C 1218.85 294.716 1233.3 293.619 1243.2 301.707 C 1219.16 302.48 1193.19 302.12 1168.99 302.155 C 1165.32 299.334 1164.68 298.929 1161.85 295.375 z" fill="rgb(255,255,255)" transform="translate(0,0)"></path>
<path d="M 235.984 866.126 C 258.654 866.083 286.803 865.337 309.015 866.406 L 309.511 867.356 L 306.761 871.52 C 302.482 873.842 245.881 873.35 237.418 872.652 C 235.464 870.097 236.138 870.045 235.984 866.126 z" fill="rgb(255,255,255)" transform="translate(0,0)"></path>
<path d="M 812.864 295 L 886.512 294.97 C 883.522 298.001 882.65 299.105 879.095 301.299 C 854.04 301.167 828.983 301.269 803.93 301.605 L 812.864 295 z" fill="rgb(255,255,255)" transform="translate(0,0)"></path>
<path d="M 234.761 900.047 C 240.705 899.77 270.203 899.185 274.628 900.549 L 272.566 903.838 C 266.537 908.079 245.365 906.948 237.565 906.158 C 235.01 904.334 235.722 904.063 234.761 900.047 z" fill="rgb(255,255,255)" transform="translate(0,0)"></path>
<path d="M 1126.78 255.435 C 1135.38 255.065 1143.61 255.206 1152.2 255.316 C 1154.88 256.879 1157.73 258.146 1159.5 260.581 L 1157.25 261.136 C 1149.53 261.27 1127.47 262.825 1122.72 257.682 L 1123.52 256.276 L 1126.78 255.435 z" fill="rgb(255,255,255)" transform="translate(0,0)"></path>
<path d="M 1081.3 216.752 C 1092.36 216.761 1096.92 220.841 1105.85 226.834 L 1090.63 226.904 C 1087.14 223.637 1084.42 220.351 1081.3 216.752 z" fill="rgb(255,255,255)" transform="translate(0,0)"></path>
<path d="M 960.622 218.178 L 962.901 217.999 L 963.216 219.166 C 958.643 226.071 952.404 227.272 944.757 227.183 L 942.25 226.907 L 942.042 225.75 C 946.851 221.355 954.366 219.392 960.622 218.178 z" fill="rgb(255,255,255)" transform="translate(0,0)"></path>
<path d="M 887.767 259.237 C 893.702 258.873 916.676 257.894 920.518 260.162 L 919.714 261.827 C 912.954 262.031 891.556 263.125 886.763 261.258 L 887.767 259.237 z" fill="rgb(255,255,255)" transform="translate(0,0)"></path>
<path d="M 203.134 1036.28 C 207.094 1036.16 211.333 1035.81 215.312 1035.57 C 231.087 1049.72 247.746 1066.78 263.058 1081.69 L 364.784 1181.39 L 702.585 1515.42 C 757.212 1569.85 821.004 1636.89 878.18 1687.36 C 864.146 1701.3 851.005 1716.91 857.914 1738.54 C 863.642 1756.47 883.128 1765.66 898.645 1773.82 C 907.385 1796.93 961.952 1790.37 981.89 1789.31 C 996.842 1788.65 1011.81 1788.6 1026.77 1789.13 C 1063.09 1790.74 1096.09 1804.74 1133.01 1796.19 C 1139.34 1794.72 1145.1 1786.86 1147.12 1786.29 C 1175.08 1778.42 1196.67 1768.19 1196.09 1734.54 C 1195.77 1717.86 1184.9 1707.1 1172.62 1696.07 L 1172.91 1684.01 C 1195.01 1665.59 1222.66 1636.97 1243.67 1616.36 C 1284.46 1576.94 1324.85 1537.11 1364.83 1496.88 L 1660.81 1205.4 C 1700.32 1165.68 1740.17 1126.3 1780.34 1087.25 C 1787.98 1079.77 1825.37 1042.03 1832.88 1036.65 C 1834.33 1037.74 1834.83 1038.16 1836.18 1039.45 L 1837.32 1040.55 C 1840.47 1040.91 1841.09 1040.88 1844.15 1041.92 C 1845.78 1046.96 1844.98 1089.36 1844.94 1097.5 L 1845.07 1437.13 C 1812.36 1458.87 1764.64 1484.85 1729.89 1504.54 C 1670.08 1538.18 1610.48 1572.19 1551.08 1606.55 C 1441.76 1670.31 1331.93 1733.2 1221.61 1795.22 C 1157.43 1831.88 1088.94 1872.26 1023.99 1907.06 C 993.049 1888.42 954.339 1867.67 922.611 1850.06 C 881.684 1827.2 840.888 1804.1 800.224 1780.78 L 203.119 1439.24 L 203.134 1036.28 z" fill="rgb(10,10,10)" transform="translate(0,0)"></path>
<path d="M 1577.45 1428.51 L 1792.17 1428.76 L 1783.61 1435.35 C 1758.13 1436.39 1727.16 1435.61 1701.25 1435.64 L 1486.31 1435.41 C 1488 1433.21 1489.9 1430.99 1491.68 1428.84 L 1577.45 1428.51 z" fill="rgb(255,255,255)" transform="translate(0,0)"></path>
<path d="M 237.53 1397.41 L 527.389 1397.23 C 529.767 1399.28 531.122 1400.69 533.236 1402.93 L 532.661 1404.3 C 504.923 1404.69 241.546 1405.56 237.085 1403.45 C 236.163 1400.55 236.577 1400.43 237.53 1397.41 z" fill="rgb(255,255,255)" transform="translate(0,0)"></path>
<path d="M 254.307 1431.27 C 325.16 1429.75 399.969 1431.07 471.178 1430.87 L 534.267 1430.63 C 543.2 1430.59 553.448 1430.38 562.438 1431.02 C 564.677 1431.18 566.991 1435.05 568.437 1437.06 C 546.783 1437.87 523.067 1437.42 501.24 1437.42 L 378.579 1437.41 L 305.892 1437.73 C 293.387 1437.79 279.94 1438.08 267.455 1437.3 C 263.051 1437.03 258.104 1433.66 254.307 1431.27 z" fill="rgb(255,255,255)" transform="translate(0,0)"></path>
<path d="M 1526.25 1396.2 C 1618.11 1394.21 1711.01 1397.71 1802.98 1395.68 C 1807.53 1395.58 1809.34 1396.15 1810.63 1400.37 L 1809.56 1402.35 L 1807.25 1402.99 C 1781.74 1403 1525.3 1403.87 1521.98 1402.12 C 1522.48 1398.93 1523.42 1399.03 1526.25 1396.2 z" fill="rgb(255,255,255)" transform="translate(0,0)"></path>
<path d="M 1460.8 1461.05 L 1740.48 1460.79 L 1731.67 1467.09 C 1726.61 1469.52 1478.85 1467.93 1452.65 1467.64 C 1454.96 1465.43 1458.2 1463.06 1460.8 1461.05 z" fill="rgb(255,255,255)" transform="translate(0,0)"></path>
<path d="M 311.92 1463.24 C 378.976 1463.57 446.034 1463.52 513.089 1463.09 L 568.767 1462.79 C 576.997 1462.75 586.159 1462.55 594.425 1463.18 C 596.754 1463.35 599.075 1467.34 600.584 1469.45 C 542.435 1471.12 478.168 1469.93 419.685 1469.99 L 357.68 1470.02 C 340.298 1470.01 327.037 1472.69 311.92 1463.24 z" fill="rgb(255,255,255)" transform="translate(0,0)"></path>
<path d="M 236.436 1364 L 416.804 1364.12 L 465.148 1363.96 C 474.238 1363.92 484.155 1363.66 493.199 1364.5 C 496.944 1364.85 498.537 1367.94 500.608 1371.03 C 444.42 1372.58 302.27 1370.43 237.951 1370.64 C 237.482 1370.23 237.014 1369.82 236.545 1369.41 L 236.436 1364 z" fill="rgb(255,255,255)" transform="translate(0,0)"></path>
<path d="M 1426.17 1493.3 C 1510.56 1494.69 1597.95 1493.59 1682.66 1493.65 C 1679.71 1495.6 1675.61 1497.81 1672.47 1499.62 C 1665.26 1501.24 1602.81 1501.04 1592.73 1500.95 C 1535.27 1500.41 1476.9 1501.41 1419.55 1500.24 L 1426.17 1493.3 z" fill="rgb(255,255,255)" transform="translate(0,0)"></path>
<path d="M 1557.59 1364.07 C 1611.35 1362.97 1667.88 1363.81 1721.82 1363.76 L 1779.05 1363.68 C 1785.4 1363.65 1805.86 1362.24 1810.07 1365.33 C 1811.31 1368.58 1811.35 1367.03 1810.11 1370.15 L 1808.08 1370.78 L 1550.74 1370.83 L 1557.59 1364.07 z" fill="rgb(255,255,255)" transform="translate(0,0)"></path>
<path d="M 581.096 1495.5 C 595.624 1495.44 612.616 1494.02 626.899 1495.77 C 630.393 1496.19 632.059 1499.18 634.085 1502.08 C 564.225 1502.69 494.362 1502.89 424.5 1502.65 C 404.09 1502.56 387.793 1506.5 370.83 1495.91 L 581.096 1495.5 z" fill="rgb(255,255,255)" transform="translate(0,0)"></path>
<path d="M 236.38 1330.96 C 295.584 1330.28 355.06 1331.51 414.283 1331.06 C 430.165 1330.93 446.698 1330.85 462.51 1331.61 L 468.517 1338.25 C 396.916 1340.01 324.38 1336.99 252.679 1337.99 C 247.919 1338.06 243.695 1338.9 239.039 1337.69 C 236.237 1335.23 237.126 1335.74 236.38 1330.96 z" fill="rgb(255,255,255)" transform="translate(0,0)"></path>
<path d="M 1392.85 1526.15 L 1626.51 1525.81 C 1623.67 1527.81 1620.62 1529.66 1617.67 1531.53 C 1607.39 1535.3 1414.14 1532.93 1385.63 1532.81 L 1392.85 1526.15 z" fill="rgb(255,255,255)" transform="translate(0,0)"></path>
<path d="M 1590.25 1331.16 C 1633.82 1330.23 1680.77 1331.1 1724.54 1331.1 L 1780.07 1331.09 C 1786.27 1331.08 1805.73 1329.67 1809.88 1332.53 C 1810.34 1335.27 1810.59 1335.22 1809.4 1337.65 L 1806.25 1338.04 L 1583.4 1337.94 L 1590.25 1331.16 z" fill="rgb(255,255,255)" transform="translate(0,0)"></path>
<path d="M 660.285 1527.93 L 667.204 1534.28 C 660.884 1535.8 641.144 1535.02 633.515 1535.01 L 554.084 1534.96 L 479.504 1535.02 C 466.308 1535.08 452.363 1535.35 439.176 1534.81 C 435.745 1534.67 429.404 1530.18 426.24 1528.17 C 502.36 1529.91 584.094 1528.97 660.285 1527.93 z" fill="rgb(255,255,255)" transform="translate(0,0)"></path>
<path d="M 1360 1558.76 C 1428.92 1558.9 1498.55 1557.96 1567.38 1558.85 L 1560.28 1564.19 C 1553.53 1566.98 1375.32 1565.26 1353.49 1565.26 L 1360 1558.76 z" fill="rgb(255,255,255)" transform="translate(0,0)"></path>
<path d="M 236.185 1297.97 C 296.752 1297.76 357.319 1297.97 417.883 1298.62 C 428.433 1298.79 428.835 1298.06 435.61 1305.03 C 426.996 1305.53 416.093 1305.58 407.442 1305.24 C 352.088 1303.05 293.737 1307.48 238.683 1304.58 C 236.338 1302.73 236.94 1301.84 236.185 1297.97 z" fill="rgb(255,255,255)" transform="translate(0,0)"></path>
<path d="M 1646.65 1298.51 L 1754.27 1298.33 C 1771.44 1298.33 1789.35 1298.21 1806.57 1298.66 C 1808.94 1298.72 1810.23 1299.71 1812.02 1301.11 L 1812.1 1302.56 C 1807.03 1306.59 1789.05 1305.56 1782.03 1305.48 L 1617.41 1305.32 C 1619.34 1303.18 1622.38 1300.7 1624.64 1298.74 L 1646.65 1298.51 z" fill="rgb(255,255,255)" transform="translate(0,0)"></path>
<path d="M 483.656 1561.19 L 693.297 1560.93 C 695.011 1562.49 697.5 1565.35 699.155 1567.15 C 688.167 1567.53 676.565 1567.36 665.514 1567.26 C 608.712 1566.76 551.76 1568.24 495.025 1567.18 C 491.819 1567.12 486.388 1563.07 483.656 1561.19 z" fill="rgb(255,255,255)" transform="translate(0,0)"></path>
<path d="M 1326.2 1592.4 C 1345.29 1591.86 1366.82 1592.43 1386.17 1592.37 L 1519.53 1592.37 L 1510.5 1598.37 C 1509.76 1598.65 1328.86 1600 1321.73 1598.25 L 1321.75 1596.73 L 1326.2 1592.4 z" fill="rgb(255,255,255)" transform="translate(0,0)"></path>
<path d="M 537.439 1593.34 C 599.341 1594.3 663.173 1593.4 725.2 1593.26 C 726.682 1594.5 729.56 1598.15 730.954 1599.81 C 727.33 1600.55 706.332 1600.23 701.339 1600.22 L 634.532 1600.04 L 578.872 1600.14 C 569.553 1600.16 559.486 1600.44 550.204 1599.74 C 546.651 1599.48 540.679 1595.37 537.439 1593.34 z" fill="rgb(255,255,255)" transform="translate(0,0)"></path>
<path d="M 1464.79 1624.6 C 1461.89 1626.5 1458.48 1628.44 1455.48 1630.25 C 1447.59 1634.56 1307.92 1631.66 1287.2 1631.53 L 1293.81 1624.89 L 1464.79 1624.6 z" fill="rgb(255,255,255)" transform="translate(0,0)"></path>
<path d="M 237.178 1264.92 C 289.48 1264.43 342.736 1265.01 395.116 1265.07 C 398.864 1267.78 399.199 1268.26 402.193 1271.89 C 361.226 1272.8 283.164 1271.28 239.114 1271.17 C 238.588 1270.77 238.062 1270.37 237.536 1269.98 L 237.178 1264.92 z" fill="rgb(255,255,255)" transform="translate(0,0)"></path>
<path d="M 1658.68 1265.09 C 1674.22 1265.09 1803.55 1263.26 1810.14 1266.26 C 1811.82 1267.02 1811.53 1267.46 1812.1 1269.08 C 1810.79 1271.76 1811.8 1270.88 1809.04 1271.87 L 1651.76 1271.97 L 1658.68 1265.09 z" fill="rgb(255,255,255)" transform="translate(0,0)"></path>
<path d="M 596.055 1626.24 C 609.649 1624.98 636.019 1626.13 650.746 1625.95 C 682.875 1625.57 715.669 1626.21 747.858 1626.08 C 758.027 1626.04 758.676 1626.02 765.232 1632.79 C 713.135 1631.92 660.81 1633.48 608.752 1632.26 C 607.196 1632.23 597.981 1627.26 596.055 1626.24 z" fill="rgb(255,255,255)" transform="translate(0,0)"></path>
<path d="M 1305.21 1657.5 C 1337.6 1657.58 1372.17 1658.24 1404.39 1657.36 C 1385.48 1668.04 1375.39 1665.23 1353.5 1664.95 L 1252.46 1664.75 L 1261.15 1657.56 L 1305.21 1657.5 z" fill="rgb(255,255,255)" transform="translate(0,0)"></path>
<path d="M 235.807 1232.89 C 273.899 1231.48 323.168 1232.81 361.97 1232.84 C 364.58 1234.67 366.679 1236.74 369.024 1238.9 C 360.106 1240.02 328.358 1239.6 318.243 1239.45 C 292.829 1239.08 263.703 1240.32 238.622 1239.06 C 236.274 1237.33 236.782 1236.5 235.807 1232.89 z" fill="rgb(255,255,255)" transform="translate(0,0)"></path>
<path d="M 1690.98 1232.92 L 1774.07 1233.02 C 1780.59 1233.04 1807.02 1231.5 1811.13 1234.48 C 1811.48 1237.56 1811.6 1235.99 1809.64 1239.21 L 1806.25 1239.58 C 1765.55 1240.13 1723.98 1239.5 1683.12 1239.73 L 1690.98 1232.92 z" fill="rgb(255,255,255)" transform="translate(0,0)"></path>
<path d="M 656.419 1658.38 L 742.64 1658.59 C 758.023 1658.56 773.589 1658.39 788.969 1658.76 C 793.251 1658.86 793.698 1660.78 796.633 1664.19 L 713.229 1664.32 C 695.065 1664.34 672.2 1667.12 656.419 1658.38 z" fill="rgb(255,255,255)" transform="translate(0,0)"></path>
<path d="M 236.192 1199.14 C 263.065 1197.84 300.488 1199.02 328.197 1199.02 L 335.514 1205.04 C 330.517 1205.4 323.881 1205.38 318.797 1205.26 C 292.474 1204.63 264.833 1206.69 238.639 1205.17 C 236.3 1203.32 236.96 1202.96 236.192 1199.14 z" fill="rgb(255,255,255)" transform="translate(0,0)"></path>
<path d="M 1726.21 1198.86 C 1753.42 1200.13 1783.11 1197.78 1809.94 1199.29 C 1811.6 1201.33 1810.89 1200.24 1810.71 1204.01 C 1808.81 1205.64 1808.42 1205.08 1805.25 1205.24 L 1717.14 1205.8 C 1719.96 1203.28 1723.14 1201.09 1726.21 1198.86 z" fill="rgb(255,255,255)" transform="translate(0,0)"></path>
<path d="M 1760.25 1165.27 C 1768.85 1165.41 1805.76 1163.23 1810.53 1166.13 L 1810.82 1170.48 L 1809.47 1171.91 L 1804.25 1172.05 L 1750.2 1172.94 L 1760.25 1165.27 z" fill="rgb(255,255,255)" transform="translate(0,0)"></path>
<path d="M 236.697 1165.11 C 253.456 1165.05 272.176 1164.23 288.809 1165.68 C 292.991 1166.04 296.679 1168.21 299.214 1171.65 C 287.951 1172.26 248.738 1172.53 238.384 1171.46 C 236.363 1169.22 237.02 1168.88 236.697 1165.11 z" fill="rgb(255,255,255)" transform="translate(0,0)"></path>
<path d="M 236.849 1129.05 C 242.21 1129.25 247.973 1129.74 253.362 1130.1 C 257.184 1132.98 257.598 1133.29 260.541 1136.99 C 252.267 1136.83 246.094 1138.58 238.601 1136.11 C 236.231 1133.15 237.013 1133.78 236.849 1129.05 z" fill="rgb(255,255,255)" transform="translate(0,0)"></path>
<path d="M 1802.65 1129.02 C 1807.54 1128.54 1808.83 1127.65 1811.45 1131.96 L 1810.82 1134.15 C 1807.5 1136.69 1808.41 1135.88 1803.48 1136.25 C 1800.29 1136.73 1799.08 1136.8 1795.96 1136.9 L 1795.4 1135.97 C 1797.84 1133.68 1800.26 1131.36 1802.65 1129.02 z" fill="rgb(255,255,255)" transform="translate(0,0)"></path>
<path d="M 1023.12 237.665 C 1029.17 240.721 1066.52 278.87 1074.39 286.645 L 1207.88 418.879 L 1583 792.398 L 1756.46 965.778 C 1776.74 986.417 1796.64 1004.51 1816.45 1026.03 C 1754.66 1088.78 1692.08 1150.75 1628.72 1211.93 L 1414.65 1423.88 L 1279.15 1557.65 C 1244.9 1591.75 1210.11 1627.28 1174.79 1660.09 C 1176.17 1644.01 1177.19 1627.9 1177.85 1611.77 C 1210.79 1577.8 1245.74 1544.94 1279.47 1511.58 L 1512.96 1280.51 L 1682 1113.57 C 1708 1087.86 1743.27 1050.2 1769.66 1026.94 C 1739.39 993.752 1696.72 953.109 1664.38 920.949 L 1471.76 729.749 C 1323.7 580.172 1174.43 431.795 1023.97 284.634 L 1000.89 306.896 C 932.782 371.911 864.648 441.371 797.884 507.932 L 526.898 777.637 C 444.819 859.646 360.571 944.884 277.264 1025.45 C 316.678 1065.98 359.95 1106.79 400.162 1146.78 L 741.92 1485.89 L 833.828 1577.19 C 856.143 1599.16 879.529 1621.37 901.367 1643.64 C 900.924 1651.59 899.199 1663.92 897.431 1671.57 C 895.168 1673.19 891.893 1675.06 889.442 1676.56 C 878.666 1663.75 852.773 1639.51 839.591 1626.22 L 711.145 1499.06 L 380.335 1170.7 C 332.511 1123.16 277.829 1072.97 231.858 1024.32 L 1023.12 237.665 z" fill="rgb(10,10,10)" transform="translate(0,0)"></path>
<path d="M 1015.02 463.871 C 997.026 451.138 1003.94 428.239 1022.12 426.192 C 1028.14 425.562 1034.15 427.411 1038.77 431.311 C 1051.5 442.006 1045.91 455.89 1034.88 465.129 C 1034.58 476.051 1034.01 487.852 1034.67 498.707 C 1035.44 511.421 1051.71 513.191 1041.64 527.881 C 1041.63 532.999 1047.94 539.65 1051.3 543.888 C 1103.98 543.949 1127.18 553.607 1166.41 587.847 C 1184.12 603.297 1216.13 616.195 1240.35 615.584 L 1242.22 616.74 C 1267.4 608.434 1252.88 574.892 1235.97 593.6 L 1233.85 599.18 C 1232.9 595.575 1232 591.058 1234.77 588.089 C 1250.88 570.797 1280.32 595.827 1262.71 615.003 C 1255.88 622.438 1249.82 625.704 1240.27 629.289 C 1253.11 659.458 1265.77 689.698 1278.27 720.01 C 1282.55 730.364 1291.94 750.966 1295.01 760.629 C 1285.65 791.101 1251.77 816.57 1219.24 806.031 C 1197.22 798.898 1180.88 784.41 1175.54 761.17 C 1178.15 749.932 1186.3 732.452 1190.68 720.909 C 1201.94 691.284 1216.01 660.567 1226.55 630.898 C 1205.2 628.637 1198.18 626.371 1177.83 617.919 C 1138.71 601.676 1100.67 563.159 1056.13 570.456 C 1052.04 571.127 1039.5 579.541 1033.18 582.033 C 1032.77 633.371 1034.82 684.699 1039.32 735.841 C 1042.1 770.736 1045.94 810.042 1053.57 844.205 C 1070.32 846.043 1096.79 850.546 1109.43 863.122 C 1116.33 869.992 1111.42 879.144 1103.81 883.182 C 1063 904.83 1012.08 905.146 968.117 893.939 C 956.816 891.072 929.84 880.364 932.8 867.791 C 936.684 851.298 984.337 844.12 995.694 843.815 C 1006.11 750.038 1015.02 676.464 1014.43 582.093 C 1007.64 579.616 1001.83 574.999 995.92 573.135 C 962.961 562.735 936.451 580.493 909.589 596.018 C 880.959 612.565 851.096 626.558 818.474 632.013 L 850.891 711.965 C 857.133 727.112 867.185 748.997 871.373 764.026 C 864.496 783.826 852.262 791.413 832.876 803.382 C 804.234 821.064 753.449 793.237 753.167 760 C 753.14 756.834 763.317 732.955 765.662 727.208 L 792.787 661.194 C 796.957 651.23 801.288 640.761 805.694 630.921 C 794.643 627.51 787.884 624.864 781.667 614.378 C 772.745 599.329 784.349 575.593 803.144 582.826 C 811.914 586.201 814.286 591.759 813.887 600.486 L 813.236 601.675 C 811.546 598 809.607 589.692 805.622 588.957 C 787.546 585.624 783.43 606.622 797.524 616.136 C 798.206 615.236 797.67 615.84 799.536 614.79 C 857.872 618.664 884.179 574.033 932.181 553.494 C 953.716 544.28 974.671 543.359 997.612 543.977 C 999.133 535.322 999.977 534.849 1006.65 529.247 L 1007.88 528.194 L 1008.62 527.569 C 1007.16 524.656 1005.25 521.104 1003.96 518.193 C 1007.66 509.929 1008.2 508.288 1016.07 503.392 C 1015.72 490.483 1015.08 476.706 1015.02 463.871 z" fill="rgb(10,10,10)" transform="translate(0,0)"></path>
<path d="M 799.536 614.79 C 804.921 619.89 815.45 618.414 822.043 617.096 C 879.11 605.689 911.096 549.053 971.982 550.587 C 979.413 550.634 988.945 549.554 995.8 552.469 L 996.862 554.254 L 996.863 554.249 C 994.513 555.219 995.732 555.218 993.635 554.827 C 948.864 546.471 915.143 567.298 881.602 593.597 C 865.286 606.391 824.946 624.373 803.745 619.43 C 801.396 618.816 799.319 617.669 797.524 616.136 C 798.206 615.236 797.67 615.84 799.536 614.79 z" fill="rgb(243,242,245)" transform="translate(0,0)"></path>
<path d="M 1242.22 616.74 C 1229.26 624.222 1207.45 615.995 1194.77 610.748 C 1162.03 597.21 1142.24 569.445 1107.99 558.987 C 1097.05 555.699 1085.76 553.725 1074.35 553.105 C 1069.33 552.84 1057.16 554.125 1054.39 551.544 C 1067.56 545.27 1114.66 555.462 1127.6 563.718 C 1152.23 579.432 1209.14 630.016 1240.35 615.584 L 1242.22 616.74 z" fill="rgb(243,242,245)" transform="translate(0,0)"></path>
<path d="M 1231.94 629.204 C 1232.85 629.409 1233.29 629.474 1234.19 629.841 C 1238.49 631.58 1282.26 742.044 1287.29 755.717 C 1271.6 755.071 1255.9 754.533 1240.2 754.105 C 1220.87 753.824 1201.55 754.164 1182.24 755.127 C 1185.47 744.275 1192.51 729.356 1196.76 718.455 C 1208.12 689.311 1222.15 658.78 1231.94 629.204 z" fill="rgb(255,255,255)" transform="translate(0,0)"></path>
<path d="M 810.044 631.25 C 815.528 632.979 819.068 644.399 821.161 649.694 C 835.088 684.923 850.152 719.791 863.99 755.038 L 811.754 754.219 C 794.576 754.201 775.732 754.383 758.673 755.761 C 761.104 750.6 763.45 744.827 765.507 739.484 C 779.503 703.12 796.109 667.587 810.044 631.25 z" fill="rgb(255,255,255)" transform="translate(0,0)"></path>
<path d="M 1026.79 586.483 C 1029.04 590.052 1028.39 607.13 1028.48 612.076 C 1029.85 690.019 1029.15 770.94 1047.12 847.193 C 1048.16 851.608 1053.75 860.672 1052.99 864.242 C 1032.43 849.124 1025.16 700.961 1025.9 670.906 C 1026.37 651.768 1023.22 603.411 1026.79 586.483 z" fill="rgb(255,255,255)" transform="translate(0,0)"></path>
<path d="M 1022.38 540.108 C 1038.46 529.626 1051.81 565.798 1033.23 574.727 C 1024.55 577.324 1013.54 573.829 1012.93 563.362 C 1012.32 552.625 1015.92 547.754 1022.38 540.108 z" fill="rgb(10,10,10)" transform="translate(0,0)"></path>
<path d="M 1022.38 540.108 C 1038.46 529.626 1051.81 565.798 1033.23 574.727 C 1038.58 566.044 1039.77 544.832 1029.78 539.639 C 1026.7 540.105 1026.72 539.851 1024.56 542.003 C 1010.32 556.114 1011.53 571.346 1033.23 574.727 C 1024.55 577.324 1013.54 573.829 1012.93 563.362 C 1012.32 552.625 1015.92 547.754 1022.38 540.108 z" fill="rgb(255,255,255)" transform="translate(0,0)"></path>
<path d="M 1025.49 546.246 C 1035.28 549.921 1031.43 563.952 1028.98 571.752 L 1027.4 571.915 L 1026.17 570.475 C 1024.47 562.238 1024.76 554.589 1025.49 546.246 z" fill="rgb(255,255,255)" transform="translate(0,0)"></path>
<path d="M 1023.83 430.962 C 1038.67 430.761 1045.8 442.835 1032.95 452.79 C 1015.73 454.952 1014.15 440.219 1023.83 430.962 z" fill="rgb(255,255,255)" transform="translate(0,0)"></path>
<path d="M 1220.57 762.814 C 1239.53 763.35 1269.72 764.911 1287.83 763.121 C 1276.96 777.401 1272.82 782.717 1255.17 789.075 C 1265.92 781.427 1270.5 778.729 1279.02 768.519 C 1263.86 768.508 1250.63 768.286 1235.52 766.906 C 1227.36 766.16 1217.11 764.091 1209.96 763.642 C 1212.77 763.23 1217.58 763.035 1220.57 762.814 z" fill="rgb(255,255,255)" transform="translate(0,0)"></path>
<path d="M 789.568 763.106 C 804.506 762.745 822.535 762.645 837.407 763.853 C 844.18 763.586 854.535 762.167 859.787 765.623 C 862.728 774.944 841.005 786.146 833.822 789.568 C 841.758 782.619 848.064 777.415 854.245 768.832 C 838.975 768.083 822.121 767.62 807.115 765.634 C 801.053 765.167 795.55 764.135 789.568 763.106 z" fill="rgb(255,255,255)" transform="translate(0,0)"></path>
<path d="M 789.568 763.106 C 804.506 762.745 822.535 762.645 837.407 763.853 C 829.602 764.755 811.157 763.162 807.115 765.634 C 801.053 765.167 795.55 764.135 789.568 763.106 z" fill="rgb(243,242,245)" transform="translate(0,0)"></path>
<path d="M 1007.21 890.655 C 1032.47 891.81 1059.93 889.736 1083.86 880.507 C 1088.48 878.725 1101.81 869.129 1104.09 869.922 C 1103.93 872.326 1103 874.058 1100.72 875.591 C 1080.97 888.869 1055.53 892.673 1032.29 893.726 C 1023.42 894.128 1016.06 892.95 1008.9 893.139 L 1007.21 890.655 z" fill="rgb(255,255,255)" transform="translate(0,0)"></path>
<path d="M 1008.9 893.139 C 995.016 891.99 950.274 884.786 942.345 871.495 L 943.396 870.382 C 968.598 887.113 977.488 886.383 1007.21 890.655 L 1008.9 893.139 z" fill="rgb(171,171,172)" transform="translate(0,0)"></path>
<path d="M 1004.38 835.472 L 1006.53 836.056 C 1005.58 841.443 1004.27 860.879 1002.93 862.919 L 999.661 861.786 C 997.574 858.217 1003.14 841.298 1004.38 835.472 z" fill="rgb(255,255,255)" transform="translate(0,0)"></path>
<path d="M 1026.21 467.638 L 1027.15 468.408 C 1028.55 472.014 1028.58 498.155 1028.57 503.815 L 1027.03 503.224 C 1025.22 499.699 1026.12 473.55 1026.21 467.638 z" fill="rgb(135,138,141)" transform="translate(0,0)"></path>
<path d="M 1024.08 511.036 C 1034.44 511.82 1039.18 514.079 1040.5 524.393 C 1033.82 519.441 1033.94 516.389 1024.08 511.036 z" fill="rgb(255,255,255)" transform="translate(0,0)"></path>
<path d="M 1209.96 763.642 C 1206.81 763.863 1203 763.543 1199.78 763.371 L 1198.93 761.592 L 1198.22 761.894 C 1204.86 760.602 1213.96 761.406 1220.57 762.814 C 1217.58 763.035 1212.77 763.23 1209.96 763.642 z" fill="rgb(75,75,77)" transform="translate(0,0)"></path>
<path d="M 1004.38 835.472 C 1004.85 831.098 1005.13 824.602 1006.97 820.872 L 1006.44 821.369 C 1008.01 824.647 1007.13 832.294 1006.53 836.056 L 1004.38 835.472 z" fill="rgb(171,171,172)" transform="translate(0,0)"></path>
<path d="M 979.633 1523.42 C 1026.1 1518.35 1126.33 1531.21 1171.05 1543.51 C 1167.5 1592.13 1165.59 1640.84 1161.68 1690.02 C 1137.94 1682.46 1123.6 1679.2 1098.98 1676.07 C 1101.16 1662.86 1108.01 1595.62 1102.7 1587.65 C 1101.69 1586.14 1101.43 1586.44 1099.79 1586.06 C 1096.8 1587.79 1093.55 1592.16 1093.19 1595.6 C 1091.32 1613.87 1090.15 1632.4 1089.07 1650.75 L 1088.15 1674.06 C 1052.15 1668.54 1016.59 1667.86 980.205 1668.15 C 983.144 1646.5 985.411 1624.36 987.645 1602.61 C 988.494 1594.34 987.554 1585.6 980.368 1580.48 L 978.912 1580.78 C 973.691 1591.8 970.169 1653.2 968.949 1668.28 C 946.815 1669.06 931.44 1671.12 909.554 1674.55 C 910.634 1666.8 911.653 1658.83 912.189 1651.03 C 914.963 1610.7 919.345 1569.97 921.213 1529.62 C 941.867 1526.45 958.736 1524.87 979.633 1523.42 z" fill="rgb(10,10,10)" transform="translate(0,0)"></path>
<path d="M 1006.59 1369.49 C 1042.49 1368.45 1073.42 1370.03 1108.93 1377.37 C 1106.5 1400.62 1105.44 1433.98 1104.77 1457.95 C 1104.71 1460.31 1106.66 1462.94 1108.76 1464.39 L 1110.77 1463.81 C 1118.69 1452.95 1121.03 1395.17 1122.41 1378.9 C 1142.07 1383.19 1164.61 1388.37 1183.3 1396.01 C 1177.86 1428.4 1179.09 1464.21 1175.53 1497.06 C 1174.28 1508.54 1173.44 1520.85 1172.89 1532.36 C 1148.17 1526.69 1128.02 1523.22 1102.86 1519.33 C 1041.35 1510.18 984.111 1508.8 922.829 1519.2 C 922.884 1507.28 925.07 1487.14 926.022 1474.75 C 928.633 1442.67 931.013 1410.57 933.162 1378.46 C 948.967 1374.82 976.836 1371.35 993.037 1370.53 C 992.559 1387.23 991.16 1404.09 990.399 1420.79 C 989.954 1430.53 985.39 1452.34 994.519 1459.12 L 996.48 1458.43 C 1005.95 1444.25 1002.7 1388.9 1006.59 1369.49 z" fill="rgb(10,10,10)" transform="translate(0,0)"></path>
<path d="M 966.106 1679.42 C 1012.54 1677.07 1060.4 1680.98 1106.41 1688.69 C 1137.29 1694.1 1192.28 1701.86 1183.75 1746 C 1178.9 1771.13 1154.47 1766.73 1139.3 1776.56 C 1120.99 1766.25 1110.75 1762.87 1090.75 1757.4 C 1036.15 1744.04 959.194 1742.27 907.371 1765.03 C 865.436 1748.3 848.132 1720.01 895.199 1690.56 C 907.113 1683.1 950.641 1680.49 966.106 1679.42 z" fill="rgb(10,10,10)" transform="translate(0,0)"></path>
<path d="M 459.05 935.213 C 469.683 934.996 482.123 934.843 492.575 936.105 C 505.626 949.8 521.836 976.339 535.233 992.469 C 548.123 975.458 564.542 950.844 577.786 935.554 C 587.383 935.219 601.605 933.687 610.081 937.162 C 614.97 942.892 609.591 945.922 604.943 949.465 C 604.029 967.019 604.648 985.774 604.809 1003.44 L 604.925 1073.55 C 608.32 1076.36 613.21 1079.6 613.848 1083.91 C 608.445 1089.71 578.538 1089.06 571.115 1085.7 C 568.729 1082.81 569.273 1084.43 569.451 1080.66 C 571.611 1076.42 572.867 1076.04 576.992 1073.25 C 577.171 1055.52 576.94 1037.42 576.902 1019.65 C 576.894 1007.87 576.822 996.081 576.686 984.295 C 562.819 1001.03 549.419 1022.07 534.591 1040.28 C 521.918 1025.16 504.531 998.892 492.486 982.129 C 492.51 1011.47 491.906 1043.98 493.192 1073.04 C 498.226 1076.77 501.677 1077.89 502.035 1084.48 C 497.495 1089.71 465.436 1089.84 458.419 1086.13 C 454.562 1080 461.713 1076.24 466.244 1073.15 C 466.781 1031.8 466.709 990.435 466.026 949.081 C 458.607 944.426 458.176 943.886 459.05 935.213 z" fill="rgb(10,10,10)" transform="translate(0,0)"></path>
<path d="M 1032.38 959.345 C 1110.95 955.809 1123.72 1075.82 1043.85 1090.05 C 1027.48 1090.58 1014.06 1089.06 1000.34 1078.56 C 970.844 1055.97 968.641 1008.41 990.664 980.032 C 1001.34 966.274 1015.79 961.173 1032.38 959.345 z" fill="rgb(10,10,10)" transform="translate(0,0)"></path>
<path d="M 1029.32 982.178 C 1079.41 977.029 1088.06 1052.84 1044.05 1066.51 C 1036.68 1067.1 1032.38 1067.22 1025.13 1064.47 C 1015.93 1061 1008.52 1053.96 1004.6 1044.95 C 999.503 1033.39 999.149 1015.81 1004.22 1004.28 C 1009.88 991.407 1017.19 986.944 1029.32 982.178 z" fill="rgb(255,255,255)" transform="translate(0,0)"></path>
<path d="M 1418.76 963.325 C 1427.1 963.395 1450.75 961.079 1455.68 967.401 L 1455.35 969.84 C 1453.01 973.562 1451.37 973.842 1447.18 975.847 C 1453.79 995.061 1460.68 1021.39 1468.02 1039.11 C 1470.37 1032.45 1486.74 977.931 1486.21 975.908 C 1485.19 975.361 1484.18 974.801 1483.18 974.23 C 1479.39 972.031 1479.48 972.151 1478.64 969.082 C 1479.55 966.395 1479.3 966.07 1481.54 964.53 C 1486.42 963.365 1512.62 963.218 1517.23 964.917 C 1518.77 967.275 1518.47 967.355 1518.35 970.261 C 1515.98 974.597 1513.47 973.683 1510.47 977.055 C 1514.76 995.572 1523.61 1020.12 1529.94 1038.2 C 1536.27 1018.52 1543.21 996.277 1548.55 976.425 C 1544.23 973.672 1540.4 971.745 1541.98 966.052 C 1548.47 960.727 1571.59 962.356 1578.5 967.037 C 1579.41 970.111 1579.38 968.548 1578.15 971.867 C 1570.02 978.207 1569.43 986.319 1566.48 996.686 C 1560.8 1020.28 1550.94 1050.53 1544.14 1074.82 C 1549.13 1077.8 1552 1078.45 1552.4 1084.43 C 1547.08 1090.6 1512.25 1089.58 1507.31 1086.57 C 1504.6 1079.96 1509.6 1077.87 1514.89 1075.19 C 1511.56 1061.61 1503.8 1035.46 1497.69 1023.45 C 1492.27 1040.91 1487.71 1058.18 1481.55 1075.42 C 1486.62 1077.54 1488.87 1077.89 1490.41 1083.37 L 1489.04 1085.55 C 1480.81 1089.53 1453.39 1088.95 1444.9 1087.03 C 1441.7 1080.66 1447.42 1078.11 1452.2 1074.67 C 1444.82 1046.95 1431.95 1003.32 1422.68 976.115 C 1418.95 973.883 1417.15 973.458 1415.58 969.638 C 1415.91 966.082 1416.42 966.013 1418.76 963.325 z" fill="rgb(10,10,10)" transform="translate(0,0)"></path>
<path d="M 1045.57 1267.37 C 1055.49 1266.01 1070.57 1267.38 1080.34 1269.31 C 1128.02 1278.73 1163.27 1310.77 1189.62 1350.26 C 1153.77 1339.11 1125.4 1334.56 1087.76 1330.69 C 1042.8 1325.41 972.515 1323.63 929.329 1335.53 C 962.664 1297.86 994.471 1273.39 1045.57 1267.37 z" fill="rgb(10,10,10)" transform="translate(0,0)"></path>
<path d="M 737.94 963.121 C 749.754 963.068 762.679 962.434 774.402 963.393 C 783.851 964.165 776.517 973.796 779.614 978.037 C 794.7 998.696 808.25 1020.36 823.029 1041.27 C 823.202 1021.54 823.114 997.086 823.068 976.96 C 823.059 973.385 818.167 974.509 815.54 968.65 C 815.927 966.937 816.022 964.626 817.937 964.165 C 823.716 962.775 848.368 962.372 852.74 964.335 L 853.966 967.887 C 853.035 971.898 852.175 971.319 847.787 974.546 C 843.588 986.2 848.616 1057.73 847.077 1074.74 C 846.718 1078.71 849.94 1081.5 848.531 1088.44 C 841.553 1088.85 832.763 1088.63 825.647 1088.65 C 817.697 1076.38 808.558 1064.43 800.141 1052.41 C 789.839 1037.69 779.909 1022.57 769.049 1008.27 L 769.142 1074.83 C 772.291 1077.68 772.286 1077.64 774.539 1081.22 C 774.854 1085.09 775.194 1083.28 773.353 1086.82 C 766.595 1088.36 739.969 1091.89 738.508 1082.76 C 739.823 1078.84 742.069 1078.03 745.755 1075.55 L 745.79 976.949 C 741.762 974.941 740.469 974.78 737.779 971.103 C 736.745 967.306 736.939 967.068 737.94 963.121 z" fill="rgb(10,10,10)" transform="translate(0,0)"></path>
<path d="M 913.659 960.371 C 930.616 958.593 947.346 964.706 962.108 972.313 C 962.307 979.102 963.445 991.904 960.212 997.621 C 953.57 995.745 945.415 988.888 937.865 986.358 C 916.714 979.269 891.405 985.117 884.761 1008.82 C 872.667 1051.95 909.525 1082.42 949.136 1058.6 L 948.619 1041.14 C 941.798 1040.64 930.223 1042.75 925.994 1039.75 C 923.677 1035.4 923.614 1029.26 926.679 1025.03 C 927.463 1023.95 930.295 1024.14 931.75 1024.02 C 944.985 1023.98 958.219 1024.19 971.445 1024.66 C 971.668 1033.93 970.315 1052.34 972.58 1061.28 C 972.291 1060.13 975.332 1065.9 975.141 1065.55 C 974.831 1067.17 974.282 1068.79 973.151 1070.02 C 951.088 1093.93 906.524 1097.28 881.211 1077.62 C 853.421 1056.03 848.449 1009.53 870.176 982.347 C 881.582 968.074 896.106 962.292 913.659 960.371 z" fill="rgb(10,10,10)" transform="translate(0,0)"></path>
<path d="M 652.196 963.052 C 662.891 963.003 683.998 960.881 692.571 964.501 C 697.359 970.024 693.527 972.861 689.115 976.947 C 701.387 1007.75 710.745 1041.08 721.576 1072.52 L 734.089 1080.44 C 732.702 1082.94 731.639 1085.31 730.427 1087.89 C 723.141 1087.83 702.06 1088.61 696.451 1087.31 C 694.713 1084.86 697.824 1072.91 694.899 1064.21 L 694.548 1062.74 C 691.398 1060.2 659.67 1061.21 653.1 1061.25 C 651.331 1065.28 647.706 1072.1 647.788 1076.02 C 651.35 1081.5 652.499 1081.65 649.416 1087.43 C 641.816 1088.23 622.6 1090.02 617.086 1084.36 L 617.18 1081.83 C 618.81 1078.23 620.797 1077.43 624.21 1075.08 C 627.688 1067.19 630.298 1058.67 632.875 1050.43 C 640.674 1025.5 648.683 1001.09 657.976 976.665 C 657.349 976.04 656.733 975.405 656.127 974.759 C 652.009 970.325 652.002 969.155 652.196 963.052 z" fill="rgb(10,10,10)" transform="translate(0,0)"></path>
<path d="M 673.595 1000.83 C 676.359 1004.21 684.963 1032.4 686.659 1037.95 L 672.75 1038.06 L 660.366 1038.04 C 665.342 1025.33 669.3 1013.8 673.595 1000.83 z" fill="rgb(255,255,255)" transform="translate(0,0)"></path>
<path d="M 1327.45 963.479 C 1335.14 963.464 1359.99 960.193 1360.64 969.634 C 1359.02 973.529 1357.32 974.272 1353.82 976.963 C 1366.05 1007.03 1377.65 1037.53 1390.01 1067.57 C 1392.64 1073.94 1401.06 1078.43 1401.69 1085 C 1398.19 1090.46 1366.45 1088.82 1361.01 1086.18 L 1360.67 1084.32 C 1367.5 1074.44 1364.21 1071.87 1359.66 1061.4 L 1350.84 1061.28 L 1318.5 1061.45 C 1315.68 1065.81 1312.81 1070.72 1310.09 1075.2 C 1313.77 1077.55 1314.67 1077.79 1316.91 1081.35 C 1317.39 1085.13 1317.84 1083.51 1315.77 1086.45 C 1308.31 1090.16 1283.64 1090.77 1278.04 1084.06 L 1278.27 1081.54 C 1279.94 1078.72 1282.3 1078.28 1285.45 1077.02 C 1293.75 1060.64 1300.89 1043.2 1308.14 1026.28 C 1315.09 1010.07 1322.77 992.965 1328.67 976.44 C 1323.96 973.396 1321.84 972.19 1322.05 966.261 C 1324.86 963.354 1323.19 964.363 1327.45 963.479 z" fill="rgb(10,10,10)" transform="translate(0,0)"></path>
<path d="M 1338.44 1010.56 C 1341.55 1013.08 1350.48 1035.95 1352.61 1041.04 L 1340.89 1041.2 L 1325.97 1041.47 C 1328.89 1032.23 1334.46 1019.24 1338.44 1010.56 z" fill="rgb(255,255,255)" transform="translate(0,0)"></path>
<path d="M 996.986 1337.42 C 1028.22 1334.91 1081.59 1340.25 1114.39 1344.75 C 1143.7 1351.23 1187.41 1353.84 1211.43 1371.83 C 1221.09 1379.05 1201.25 1390.79 1195.07 1393.97 C 1181.89 1378.22 1146.24 1373.1 1126.23 1368.95 C 1062.62 1357.49 997.035 1354.31 932.753 1368.33 C 924.833 1370.06 924.558 1371.67 920.72 1378.37 C 918.624 1378 911.117 1372.31 908.803 1370.69 C 899.224 1353.32 913.001 1350.1 927.974 1346.29 C 949.774 1340.75 974.546 1339.03 996.986 1337.42 z" fill="rgb(10,10,10)" transform="translate(0,0)"></path>
<path d="M 1160.98 938.45 C 1168.69 938.346 1176.64 937.738 1184.31 937.783 C 1191.06 937.823 1208.62 935.084 1210.12 943.59 C 1208.5 947.416 1201.5 951.652 1197.66 954.512 C 1196.92 991.093 1197.36 1028.69 1197.52 1065.34 C 1217.43 1065.23 1237.34 1065.39 1257.24 1065.83 C 1259.19 1061.02 1261.49 1052.46 1267.84 1053.89 C 1272.76 1059.99 1271.21 1065.59 1270.83 1073.75 L 1270.45 1087.34 L 1206.48 1087.45 C 1196.03 1087.5 1167.77 1088.38 1159.51 1086.38 C 1157.47 1083.64 1157.97 1085.15 1158.06 1081.67 C 1160.51 1077.11 1165.44 1075.04 1170.05 1072.38 C 1171.27 1060.78 1170.86 1038.69 1170.91 1026.28 C 1171.16 1002.12 1171.11 977.954 1170.74 953.793 C 1166.68 951.276 1163.18 949.674 1160.55 945.79 C 1159.59 942.14 1159.93 941.997 1160.98 938.45 z" fill="rgb(10,10,10)" transform="translate(0,0)"></path>
<path d="M 995.465 1758.48 C 1037.92 1757.9 1098.43 1764.4 1135.74 1785.1 C 1108.38 1791.08 1083.65 1786.91 1056.84 1782.08 C 1035.67 1778.63 1014.98 1778.36 993.628 1778.63 C 967.175 1778.97 938.197 1784.57 912.852 1775.53 C 935.558 1760.77 969.215 1759.31 995.465 1758.48 z" fill="rgb(10,10,10)" transform="translate(0,0)"></path>
<path d="M 811.961 1130.93 C 862.112 1129.33 912.276 1128.15 962.446 1127.38 C 981.357 1126.95 1000.27 1127.04 1019.18 1126.7 C 1027.22 1126.55 1030.81 1115.52 1036.63 1113.07 C 1041.16 1113.9 1047.02 1122.9 1051.46 1126.57 C 1068.67 1127.39 1087.26 1127.04 1104.65 1127.36 L 1213.53 1129.31 C 1232.25 1129.57 1263.17 1129.06 1281.06 1130.85 C 1278.15 1132.23 1251.47 1132.74 1246.12 1132.92 C 1200.23 1134.45 1154.15 1134.38 1108.26 1136.53 C 1093.16 1137.24 1065.98 1136.84 1051.87 1139.96 C 1044.95 1145.68 1042.24 1150.38 1037.47 1157.99 C 1033.12 1151.49 1028.69 1144.32 1023.23 1138.82 C 1007.11 1137.2 983.767 1136.63 967.256 1136.19 C 918.832 1134.89 870.08 1133.85 821.631 1132.85 C 818.793 1131.81 815.004 1131.4 811.961 1130.93 z" fill="rgb(10,10,10)" transform="translate(0,0)"></path>
<path d="M 1032.07 1160.14 C 1059.58 1157.89 1066.7 1190.92 1040.18 1203.53 C 1031.03 1204.33 1022.96 1201.7 1018.52 1193.03 C 1015.58 1187.24 1015.19 1180.48 1017.45 1174.39 C 1020.36 1166.5 1024.94 1163.66 1032.07 1160.14 z" fill="rgb(10,10,10)" transform="translate(0,0)"></path>
<path d="M 1032.37 1168.1 C 1051.01 1165.74 1053.4 1186.2 1039.37 1195.72 C 1021.58 1198 1018.83 1177.9 1032.37 1168.1 z" fill="rgb(255,255,255)" transform="translate(0,0)"></path>
<path d="M 1168.89 1161 C 1179.61 1160.82 1186.85 1159.76 1196.17 1166.18 C 1208.14 1174.42 1206.55 1186.91 1198.2 1197.17 C 1188.1 1204.34 1180.73 1203.5 1168.61 1203.73 L 1168.89 1161 z" fill="rgb(10,10,10)" transform="translate(0,0)"></path>
<path d="M 1177.04 1167.85 C 1192.85 1168.38 1201.15 1176.97 1191.77 1191.92 C 1190.52 1192.55 1189.26 1193.15 1187.98 1193.72 C 1184.68 1195.15 1182.64 1195.74 1179.33 1194.37 C 1175 1189.6 1176.91 1175.09 1177.04 1167.85 z" fill="rgb(255,255,255)" transform="translate(0,0)"></path>
<path d="M 1283.91 1161.02 C 1293.62 1160.81 1301.65 1159.98 1310.17 1165.66 C 1322.45 1173.86 1320.88 1185.83 1312.91 1196.37 C 1303.24 1204.05 1295.95 1203.01 1284 1202.93 L 1283.91 1161.02 z" fill="rgb(10,10,10)" transform="translate(0,0)"></path>
<path d="M 1291.33 1167.93 C 1308.12 1167.78 1315.51 1175.93 1307.05 1191.87 C 1302.85 1194.21 1298.91 1196.52 1294.12 1194.53 C 1289.55 1189.73 1291.27 1175.24 1291.33 1167.93 z" fill="rgb(255,255,255)" transform="translate(0,0)"></path>
<path d="M 956.568 1159.1 C 961.762 1158.44 963.31 1158.31 967.822 1160.52 C 974.278 1168.9 962.865 1179.12 970.585 1185.03 C 973.705 1183.1 977.259 1180.45 980.762 1179.88 L 981.783 1181.26 C 981.673 1186.36 979.818 1188.99 977.512 1193.56 C 980.032 1196.9 982.29 1198.98 982.566 1202.77 L 980.57 1204.3 C 977.971 1203.43 975.373 1201.71 972.975 1200.3 C 964.951 1203.65 949.658 1208.99 946.192 1194.97 C 944.043 1188.89 951.19 1181.35 951.939 1178.7 C 954.395 1170 947.117 1168.07 956.568 1159.1 z" fill="rgb(10,10,10)" transform="translate(0,0)"></path>
<path d="M 957.705 1183.43 C 960.875 1185.1 965.543 1189.37 965.441 1193.2 C 965.388 1195.22 963.883 1195.89 962.4 1197.34 C 957.203 1196.24 955.055 1196.34 953.287 1191.1 C 953.889 1187.06 954.779 1186.61 957.705 1183.43 z" fill="rgb(255,255,255)" transform="translate(0,0)"></path>
<path d="M 767.543 1159.55 C 768.814 1160.47 770.129 1161.41 770.288 1163.13 C 770.926 1170 772.056 1198.64 769.708 1203.18 C 766 1204.07 767.767 1204.13 764.202 1203.18 C 761.908 1199.52 762.972 1184.25 763.002 1178.6 C 759.414 1183.34 755.629 1189.06 752.189 1194 C 748.662 1189.45 747.703 1186.39 743.424 1181.9 L 742.21 1182.29 L 741.971 1186.75 C 742.104 1192.42 742.369 1196.55 741.544 1202.21 C 739.866 1204.4 740.908 1203.66 738.177 1204.16 C 732.302 1199.11 733.663 1169.46 736.593 1162.63 L 738.169 1162.04 C 741.647 1164.92 749.022 1175.96 752.197 1180.3 C 757.031 1173.3 761.883 1165.85 767.543 1159.55 z" fill="rgb(10,10,10)" transform="translate(0,0)"></path>
<path d="M 676.625 1160.79 C 678.42 1160.76 680.215 1160.74 682.01 1160.75 C 699.824 1160.84 711.395 1173.73 693.937 1186.77 C 696.939 1191.07 702.446 1196.74 703.054 1201.24 C 700.972 1203.63 701.365 1202.86 697.162 1203.38 C 692.472 1197.41 689.406 1192.39 684.154 1186.18 C 684.237 1191.5 685.103 1199.3 682.064 1203.39 C 679.097 1204 680.603 1204.03 677.511 1202.47 C 675.071 1197.86 676.464 1168.21 676.625 1160.79 z" fill="rgb(10,10,10)" transform="translate(0,0)"></path>
<path d="M 684.051 1167.59 C 688.592 1168.05 690.902 1168.15 693.85 1171.52 C 694.928 1175.34 694.403 1176.05 693.212 1179.78 C 689.473 1181.09 688.216 1181.62 685.021 1180.38 C 683.152 1177.19 683.917 1171.56 684.051 1167.59 z" fill="rgb(255,255,255)" transform="translate(0,0)"></path>
<path d="M 804.98 1159.34 C 810.352 1161.36 824.375 1179.4 828.956 1184.85 C 828.89 1177.79 826.954 1166.58 831.508 1161.65 C 835.006 1161.17 833.697 1160.65 835.967 1162.19 C 836.876 1168.56 836.931 1197.68 836.107 1204.04 C 830.528 1199.66 817.341 1183.45 812.224 1177.4 C 812.303 1185.1 814.245 1194.84 811.422 1201.3 C 808.322 1203.62 810.056 1202.99 805.94 1202.95 C 803.03 1199.04 804.609 1166.29 804.98 1159.34 z" fill="rgb(10,10,10)" transform="translate(0,0)"></path>
<path d="M 1426.12 1160.29 C 1426.88 1160.37 1428.94 1160.58 1429.53 1160.78 C 1434.17 1162.37 1442.29 1179.78 1444.82 1184.43 C 1444.73 1179.47 1443.68 1165.03 1445.84 1162.03 C 1448.82 1160.44 1447.32 1160.64 1450.46 1161.17 L 1451.49 1162.76 C 1452.22 1170.06 1453.33 1198.73 1450 1204.07 C 1443.1 1202.11 1436.94 1184.85 1433.21 1177.81 C 1432.9 1185.46 1432.94 1193.73 1432.84 1201.44 L 1431.13 1202.91 C 1427.54 1202.98 1429.03 1203.51 1426.35 1201.83 C 1424.93 1193.6 1425.94 1169.52 1426.12 1160.29 z" fill="rgb(10,10,10)" transform="translate(0,0)"></path>
<path d="M 864.578 1159.53 C 868.378 1162.32 880.715 1196.77 881.725 1202.26 C 879.085 1203.76 880.502 1203.33 877.245 1203.33 C 869.977 1199.22 875.94 1194.12 864.893 1193.12 C 861.849 1193.11 861.742 1193.01 858.847 1193.8 C 855.178 1198.69 854.167 1199.87 848.91 1203.05 L 847.5 1202.58 C 846.67 1192.77 859.123 1168.19 864.578 1159.53 z" fill="rgb(10,10,10)" transform="translate(0,0)"></path>
<path d="M 1213.83 1160.7 C 1230.07 1160.7 1215 1184.67 1224.25 1195.3 C 1227.21 1196.81 1228.35 1196.6 1231.62 1196.08 C 1243.6 1194.16 1234.64 1169.31 1239.83 1161.06 C 1244.13 1160.93 1242.4 1160.32 1245.64 1161.99 L 1245.98 1165.75 C 1246.11 1173.34 1248.04 1192.01 1241.87 1198.72 C 1234.69 1206.54 1218.08 1205.61 1214.78 1194.55 C 1212.57 1187.14 1213.66 1169.62 1213.83 1160.7 z" fill="rgb(10,10,10)" transform="translate(0,0)"></path>
<path d="M 1328.41 1160.51 C 1338.4 1160.12 1342.99 1159.13 1352.01 1163.3 L 1352.08 1165.33 C 1346.49 1168.49 1339.07 1166.47 1335.34 1169.3 C 1335.23 1173.67 1334.62 1171.89 1336.32 1175.22 C 1340.51 1177.24 1342.94 1174.87 1348.93 1176.1 C 1350.76 1178.84 1350.28 1177.29 1349.8 1181.06 C 1346.59 1183.12 1343.62 1181.82 1338.06 1182.57 C 1335.3 1184.56 1336.18 1183.7 1335.32 1188.08 C 1335.62 1189.83 1335.95 1191.83 1336.32 1194.07 C 1340.37 1196.28 1347.64 1193.16 1352.29 1197.13 C 1352.84 1200.27 1352.91 1198.66 1351.32 1202.04 C 1347.55 1203.32 1333.2 1202.75 1328.39 1202.71 C 1328.32 1188.64 1328.33 1174.58 1328.41 1160.51 z" fill="rgb(10,10,10)" transform="translate(0,0)"></path>
<path d="M 645.967 1160.23 C 651.987 1159.82 662.818 1160.68 664.714 1167.67 C 663.498 1170.03 663.362 1169.83 661.016 1171.2 C 646.037 1166.97 632.008 1167.09 640.181 1188.77 C 643.93 1198.72 654.088 1195.64 661.545 1191.75 C 662.391 1191.49 663.123 1191.89 664.273 1192.17 L 665.372 1194.42 C 660.673 1207.64 639.882 1206.23 633.198 1192.69 C 630.091 1186.4 629.801 1179.08 632.401 1172.57 C 635.232 1165.4 639.318 1163.11 645.967 1160.23 z" fill="rgb(10,10,10)" transform="translate(0,0)"></path>
<path d="M 1393.03 1160.84 C 1400.13 1160.67 1411.74 1158.54 1415.98 1163.97 L 1415.64 1166.26 C 1409.93 1169.94 1406.48 1165.23 1400.77 1169.08 C 1400.3 1172.29 1400.28 1172.06 1401.65 1175.01 C 1406.6 1178.43 1410.54 1174.07 1414.52 1177.27 C 1414.38 1181.37 1415.13 1179.77 1412.99 1182.52 C 1408.38 1183.25 1405.35 1181.73 1401.38 1183.96 C 1399.34 1187.37 1400.09 1187.54 1400.07 1192.24 L 1400.51 1194.32 C 1404.8 1197.66 1412.89 1193.66 1417.22 1196.34 C 1418.24 1199.18 1418.16 1198.98 1417.31 1201.9 C 1414.15 1203.83 1397.98 1202.98 1392.92 1202.97 L 1393.03 1160.84 z" fill="rgb(10,10,10)" transform="translate(0,0)"></path>
<path d="M 1468.76 1160.95 C 1475.38 1160.36 1478.54 1160.8 1483.95 1165.23 C 1485.06 1167.9 1485.12 1166.59 1484.14 1169.22 C 1480.41 1170.9 1475.15 1169.13 1469.57 1169.91 L 1468.84 1171.29 C 1472.4 1178.04 1507.38 1190.17 1477.89 1203.29 C 1470.2 1203.64 1461.74 1202.69 1461.02 1193.33 C 1463.92 1187.61 1471.73 1197.01 1478.87 1194.67 L 1479.58 1192.88 C 1477.1 1182.83 1470.57 1184.38 1463.48 1177.81 C 1456.91 1171.73 1463.68 1164.5 1468.76 1160.95 z" fill="rgb(10,10,10)" transform="translate(0,0)"></path>
<path d="M 1496.4 1161.48 C 1502.32 1161.26 1518.39 1158.76 1520.23 1164.97 C 1515.41 1172.39 1510.39 1164.73 1504.05 1169.6 C 1502.69 1180.12 1510.82 1174.26 1516.68 1176.43 C 1518.51 1179.47 1517.83 1177.79 1517.76 1182.08 C 1511.74 1187.03 1505.25 1176.81 1503.34 1191.63 C 1503.75 1193.22 1504 1193.63 1504.67 1195.14 C 1509.18 1197.21 1512.96 1195.18 1518.83 1196.75 C 1520.68 1199.66 1520.2 1198.03 1519.72 1201.93 C 1516.15 1203.92 1501.58 1203.05 1496.33 1203 L 1496.4 1161.48 z" fill="rgb(10,10,10)" transform="translate(0,0)"></path>
<path d="M 1093.12 1160 C 1096.69 1160.03 1098.6 1159.55 1100.96 1161.43 C 1099.43 1167.01 1085.24 1197.38 1081.51 1206.51 C 1077.42 1197.99 1073.4 1188.87 1069.44 1180.25 C 1067.15 1175.33 1061.52 1166.49 1063.91 1161.65 C 1067.48 1160.75 1065.8 1160.67 1069.11 1161.56 C 1072.62 1166.49 1078.07 1180.07 1081.26 1186.64 C 1085.42 1177.85 1089.37 1168.97 1093.12 1160 z" fill="rgb(10,10,10)" transform="translate(0,0)"></path>
<path d="M 1361.7 1160.77 C 1367.94 1160.78 1376.18 1160.55 1382.2 1161.28 L 1383.21 1163.1 C 1381.65 1170.72 1373.27 1166.12 1368.04 1171.01 L 1368.12 1172.93 C 1372.42 1180.17 1376.61 1173.09 1381.62 1177.65 C 1381.96 1180.49 1382.28 1180.69 1381.23 1183.26 L 1379.11 1183.53 C 1375.29 1183.51 1373.4 1183.23 1369.76 1184.54 C 1367.23 1191.8 1372.57 1197.82 1367.3 1203.7 L 1365.02 1203.73 C 1359.39 1199.71 1361.74 1169.39 1361.7 1160.77 z" fill="rgb(10,10,10)" transform="translate(0,0)"></path>
<path d="M 891.004 1159.64 C 894.006 1159.86 894.69 1159.72 897.488 1160.9 C 898.53 1167.59 898.044 1188 898.005 1195.91 C 904.659 1196.06 910.248 1194.45 916.201 1196.5 C 918.618 1199.26 917.831 1198.53 917.961 1203.25 L 890.94 1203.22 L 891.004 1159.64 z" fill="rgb(10,10,10)" transform="translate(0,0)"></path>
<path d="M 1126.74 1157.12 C 1129.73 1157.2 1132.25 1156.8 1134.43 1158.59 C 1132.49 1165.54 1118.22 1195.3 1114.72 1202.96 C 1112.24 1203.31 1111.17 1203.34 1108.67 1203.48 C 1107.83 1198.5 1123.41 1165.67 1126.74 1157.12 z" fill="rgb(10,10,10)" transform="translate(0,0)"></path>
<path d="M 784.241 1160.13 C 787.568 1160.19 787.692 1160.08 790.999 1161.12 C 792.951 1165.01 791.786 1197.03 791.673 1203.68 C 789.3 1203.73 788.007 1203.62 785.635 1203.4 C 782.751 1199.8 784.148 1167.28 784.241 1160.13 z" fill="rgb(10,10,10)" transform="translate(0,0)"></path>
<path d="M 714.108 1160.78 C 718.482 1161.13 719.09 1160.38 721.586 1162.68 C 722.672 1172.18 722.022 1193.46 721.688 1203.62 C 718.68 1203.75 717.201 1204.15 714.676 1202.56 C 713.35 1197.07 714.048 1167.82 714.108 1160.78 z" fill="rgb(10,10,10)" transform="translate(0,0)"></path>
<path d="M 782.683 1131.73 C 790.208 1130.99 804.541 1130.25 811.961 1130.93 C 815.004 1131.4 818.793 1131.81 821.631 1132.85 C 809.203 1133.26 796.9 1132.56 784.276 1133.32 L 782.683 1131.73 z" fill="rgb(75,75,77)" transform="translate(0,0)"></path>
<path d="M 784.276 1133.32 C 781.022 1133.91 772.135 1135.02 769.801 1132.92 C 773.633 1131.22 778.33 1131.72 782.683 1131.73 L 784.276 1133.32 z" fill="rgb(171,171,172)" transform="translate(0,0)"></path>
<path d="M 1233.85 599.18 L 1235.97 593.6 C 1236.04 598.77 1236.47 602.974 1234.95 607.889 C 1233.64 604.07 1233.83 603.326 1233.85 599.18 z" fill="rgb(135,138,141)" transform="translate(0,0)"></path>
<metadata><recraft-signature>{"signed_by": "recraft", "signature_b64": "+WKZrbmfsNMqzMFME+ixEWLo6n1ZB7VNGtxEIUrdL64yG52bjQmgSW128ZekE/h80bfPZ/wqLWJuh+YNYzaPDA==", "signing_algo": "Ed25519", "generation_timestamp": 1764903617, "identifier": "352b38b5-7935-4501-bf57-45a72964a953"}</recraft-signature></metadata></svg>