<svg xmlns="http://www.w3.org/2000/svg" height="1024" preserveAspectRatio="none" style="display: block;" version="1.1" viewBox="0 0 2048 2048" width="1024">
<defs>
	<linearGradient gradientUnits="userSpaceOnUse" id="Gradient1" x1="838.706" x2="1343.99" y1="549.666" y2="1596.5">
		<stop class="stop0" offset="0" stop-color="rgb(49,49,49)" stop-opacity="1"></stop>
		<stop class="stop1" offset="1" stop-color="rgb(75,74,75)" stop-opacity="1"></stop>
	</linearGradient>
</defs>
<path d="M 0 0 L 2048 0 L 2048 2048 L 0 2048 L 0 0 z" fill="rgb(51,51,51)" transform="translate(0,0)"></path>
<path d="M 286.463 638.225 C 274.995 634.953 218.893 631.289 229.897 610.423 C 237.818 603.871 252.07 598.582 260.799 591.64 C 291.283 567.368 316.133 538.462 356.122 529.985 C 378.273 525.289 406.922 532.738 413.543 557.872 C 416.57 569.361 406.061 583.336 399.58 592.787 C 402.578 598.431 405.961 603.864 409.264 609.339 C 423.556 612.516 433.436 623.188 446.363 606.965 L 445.319 604.834 L 443.987 606.467 L 441.368 606.697 C 438.883 604.499 439.676 605.874 439.301 602.228 C 441.971 594.885 444.37 593.72 451.158 590.162 C 467.926 581.372 464.944 593.043 472.127 599.825 C 486.351 613.253 506.021 625.001 500.328 648.817 C 503.664 653.71 512.994 668.136 516.43 672.078 C 522.271 670.718 545.677 671.168 552.842 671.166 L 622.962 671.163 L 912.449 670.881 L 1656.25 671.038 C 1773.54 671.071 1893.01 669.586 2010.11 670.973 C 2010.15 680.606 2010.84 717.917 2009.64 725.356 C 2010.58 734.151 2011.1 786.387 2009.84 794.143 C 2009 812.729 2009.64 835.65 2009.68 854.498 L 2009.83 963.5 L 2010.07 1259.47 C 2006.7 1260.94 1997.93 1260.68 1993.91 1260.78 C 1998.77 1260.94 2003.64 1261.01 2008.51 1261 L 2008.51 1277 C 2005 1277.02 1993.51 1276.89 1990.71 1277.41 C 1994.99 1277.46 2006.14 1277.31 2009.8 1278.17 C 2009.81 1297.1 2010.08 1316.56 2009.8 1335.44 C 1922.1 1337.62 1828.19 1336.14 1740.14 1336.17 L 1215.5 1335.94 L 673.896 1335.91 C 581.648 1335.87 482.778 1337.69 391.07 1335.45 C 395.465 1347.36 393.657 1350.75 384.164 1358.91 C 376.034 1360.94 368.441 1360.78 360.135 1360.88 C 359.836 1377.39 352.663 1402.63 345.738 1418.39 C 339.547 1432.49 323.984 1469.87 308.742 1476.98 C 302.211 1480.03 292.885 1474.41 287.531 1474.32 C 279.589 1474.19 263.129 1479.13 256.04 1473.64 C 227.352 1451.41 210.095 1393.38 200.755 1361.98 C 199.834 1361.44 198.918 1360.9 198.006 1360.34 C 190.506 1355.8 180.883 1349.37 179.093 1340.19 C 175.571 1322.12 219.598 1217.24 229.757 1195.77 C 233.616 1187.62 238.021 1179.95 242.899 1172.37 C 235.163 1171.43 229.296 1171.09 223.123 1165.74 C 216.491 1159.98 215.617 1152.22 221.859 1145.64 C 229.727 1137.33 241.416 1138.54 251.899 1138.5 C 234.892 1123.56 219.215 1107.35 201.642 1092.89 C 199.307 1107.45 194.429 1121 191.45 1135.04 C 179.492 1191.39 154.644 1242.67 137.451 1297.39 C 131.257 1317.1 133.035 1334.86 128.594 1354.46 C 127.414 1359.66 120.207 1366.49 116.443 1370.37 C 129.078 1381.95 142.242 1382.34 154.445 1393.05 C 160.653 1398.49 162.727 1418.99 155.972 1425.06 C 144.857 1427.94 43.9782 1428.36 27.5891 1421.8 C 25.3382 1420.9 23.3494 1417.06 22.8721 1414.52 C 20.8466 1403.78 24.8639 1389.18 30.3668 1379.95 C 27.3398 1373.91 23.0065 1365.18 23.9739 1358.5 C 27.626 1333.28 38.4715 1301.11 45.8618 1276.48 L 81.9638 1155.42 C 85.242 1144.42 91.8233 1128.47 93.7606 1118.16 C 95.0957 1111.06 89.957 1089.08 88.6286 1080.04 C 84.1196 1049.38 78.3441 1012.77 77.608 981.961 C 77.3771 972.296 93.3126 939.922 97.3198 930.325 C 97.9755 928.451 103.123 917.966 102.801 916.479 C 99.3349 900.909 111.182 887.56 118.026 874.543 C 120.205 870.399 126.115 869.075 130.317 869.008 L 130.431 867.434 C 129.433 866.345 127.992 865.044 127.602 863.568 C 124.601 852.229 176.994 740.389 187.074 725.958 C 191.863 719.102 199.23 713.678 205.997 708.925 C 219.17 699.671 233.716 689.568 248.792 683.859 C 257.948 680.392 268.452 678.841 277.113 674.357 C 280.65 672.526 282.78 670.424 285.083 667.198 C 285.299 666.895 285.506 666.586 285.718 666.281 C 286.805 655.879 286.657 648.585 286.463 638.225 z" fill="rgb(255,255,255)" transform="translate(0,0)"></path>
<path d="M 286.463 638.225 C 274.995 634.953 218.893 631.289 229.897 610.423 C 237.818 603.871 252.07 598.582 260.799 591.64 C 291.283 567.368 316.133 538.462 356.122 529.985 C 378.273 525.289 406.922 532.738 413.543 557.872 C 416.57 569.361 406.061 583.336 399.58 592.787 C 402.578 598.431 405.961 603.864 409.264 609.339 C 423.556 612.516 433.436 623.188 446.363 606.965 L 445.319 604.834 L 443.987 606.467 L 441.368 606.697 C 438.883 604.499 439.676 605.874 439.301 602.228 C 441.971 594.885 444.37 593.72 451.158 590.162 C 467.926 581.372 464.944 593.043 472.127 599.825 C 486.351 613.253 506.021 625.001 500.328 648.817 C 503.664 653.71 512.994 668.136 516.43 672.078 C 524.57 683.09 531.055 692.86 538.24 704.543 C 541.356 709.609 547.836 720.767 551.196 725.126 C 552.668 728.606 559.238 742.63 561.342 745.986 C 562.48 750.166 563.641 756.76 559.982 760.228 C 542.554 776.743 537.208 755.972 527.977 744.552 C 504.71 744.362 476.179 743.83 453.155 745.24 C 450.49 748.433 441.105 759.393 439.644 762.132 C 427.464 784.955 429.185 788.804 402.701 794.947 C 382.072 799.164 338.301 800.216 316.46 799.93 C 316.335 815.366 314.819 849.383 304.083 860.926 C 301.513 863.689 299.07 864.387 295.633 865.644 C 276.521 894.262 268.237 922.742 252.341 952.855 C 250.475 956.391 243.928 956.505 240.385 956.809 C 238.474 960.959 230.022 977.739 232.121 980.43 C 241.44 992.375 255.965 1001.1 267.847 1013.55 C 290.429 1037.22 323.275 1088.65 334.231 1119.08 C 329.357 1127.62 327.107 1131.15 319.403 1137.91 C 334.605 1137.92 368.317 1131.34 368.804 1151.4 C 369.436 1177.43 331.018 1169.83 313.956 1170.21 C 330.2 1187.3 348.841 1250.81 361.726 1273.95 C 363.765 1277.61 377.451 1307.11 378.466 1310.85 C 382.14 1319.79 385.23 1327.64 391.07 1335.45 C 395.465 1347.36 393.657 1350.75 384.164 1358.91 C 376.034 1360.94 368.441 1360.78 360.135 1360.88 C 359.836 1377.39 352.663 1402.63 345.738 1418.39 C 339.547 1432.49 323.984 1469.87 308.742 1476.98 C 302.211 1480.03 292.885 1474.41 287.531 1474.32 C 279.589 1474.19 263.129 1479.13 256.04 1473.64 C 227.352 1451.41 210.095 1393.38 200.755 1361.98 C 199.834 1361.44 198.918 1360.9 198.006 1360.34 C 190.506 1355.8 180.883 1349.37 179.093 1340.19 C 175.571 1322.12 219.598 1217.24 229.757 1195.77 C 233.616 1187.62 238.021 1179.95 242.899 1172.37 C 235.163 1171.43 229.296 1171.09 223.123 1165.74 C 216.491 1159.98 215.617 1152.22 221.859 1145.64 C 229.727 1137.33 241.416 1138.54 251.899 1138.5 C 234.892 1123.56 219.215 1107.35 201.642 1092.89 C 199.307 1107.45 194.429 1121 191.45 1135.04 C 179.492 1191.39 154.644 1242.67 137.451 1297.39 C 131.257 1317.1 133.035 1334.86 128.594 1354.46 C 127.414 1359.66 120.207 1366.49 116.443 1370.37 C 129.078 1381.95 142.242 1382.34 154.445 1393.05 C 160.653 1398.49 162.727 1418.99 155.972 1425.06 C 144.857 1427.94 43.9782 1428.36 27.5891 1421.8 C 25.3382 1420.9 23.3494 1417.06 22.8721 1414.52 C 20.8466 1403.78 24.8639 1389.18 30.3668 1379.95 C 27.3398 1373.91 23.0065 1365.18 23.9739 1358.5 C 27.626 1333.28 38.4715 1301.11 45.8618 1276.48 L 81.9638 1155.42 C 85.242 1144.42 91.8233 1128.47 93.7606 1118.16 C 95.0957 1111.06 89.957 1089.08 88.6286 1080.04 C 84.1196 1049.38 78.3441 1012.77 77.608 981.961 C 77.3771 972.296 93.3126 939.922 97.3198 930.325 C 97.9755 928.451 103.123 917.966 102.801 916.479 C 99.3349 900.909 111.182 887.56 118.026 874.543 C 120.205 870.399 126.115 869.075 130.317 869.008 L 130.431 867.434 C 129.433 866.345 127.992 865.044 127.602 863.568 C 124.601 852.229 176.994 740.389 187.074 725.958 C 191.863 719.102 199.23 713.678 205.997 708.925 C 219.17 699.671 233.716 689.568 248.792 683.859 C 257.948 680.392 268.452 678.841 277.113 674.357 C 280.65 672.526 282.78 670.424 285.083 667.198 C 285.299 666.895 285.506 666.586 285.718 666.281 C 286.805 655.879 286.657 648.585 286.463 638.225 z" fill="rgb(3,3,3)" transform="translate(0,0)"></path>
<path d="M 516.832 724.866 C 520.614 731.231 524.78 737.924 527.977 744.552 C 504.71 744.362 476.179 743.83 453.155 745.24 C 457.31 738.359 462.122 730.271 467.94 724.745 C 482.873 725.495 501.803 725.301 516.832 724.866 z" fill="rgb(51,51,51)" transform="translate(0,0)"></path>
<path d="M 467.94 724.745 C 481.933 709.301 484.812 703.283 489.208 682.678 C 498.914 692.935 509.467 712.331 516.832 724.866 C 501.803 725.301 482.873 725.495 467.94 724.745 z" fill="rgb(255,255,255)" transform="translate(0,0)"></path>
<path d="M 460.315 593.945 C 466.599 602.954 470.371 605.873 478.749 612.988 C 472.153 615.673 467.135 617.735 460.839 621.02 C 453.56 616.897 450.6 614.189 446.363 606.965 L 445.319 604.834 C 450.672 599.383 453.451 597.378 460.315 593.945 z" fill="rgb(255,255,255)" transform="translate(0,0)"></path>
<path d="M 109.043 919.488 C 125.759 924.884 107.821 931.456 113.534 944.76 C 120.508 951.283 143.909 957.095 153.287 962.068 C 163.367 967.413 181.263 966.362 193.431 967.224 C 193.527 963.677 193.138 961.066 195.09 958.224 C 197.803 956.79 197.909 956.743 200.973 957.183 C 204.426 957.675 207.884 958.135 211.346 958.561 C 209.345 965.085 201.847 974.451 202.022 974.73 C 211.352 989.654 234.717 1011.63 245.956 1024.83 C 259.045 1040.13 270.92 1056.42 281.472 1073.57 C 285.472 1080.08 290.983 1088.83 291.574 1096.68 C 292.274 1103.68 283.543 1102.39 279.268 1107.81 C 273.724 1114.85 277.383 1120.85 275.864 1127.93 C 272.737 1132.35 265.343 1135.14 260.229 1137.44 C 235.081 1113.57 208.715 1090.78 182.387 1068.27 C 163.524 1052.14 142.113 1034.45 130.3 1012.45 C 126.735 1005.81 120.637 982.841 116.11 979.743 L 114.953 980.443 C 113.441 983.798 115.843 991.818 116.829 995.49 C 125.967 1029.54 151.059 1050.07 176.208 1072.74 C 173.297 1084.93 172.545 1100.17 169.796 1112.25 C 160.684 1152.3 145.965 1191.77 133.898 1231.12 C 124.544 1260.3 117.292 1290.18 106.822 1319 C 101.324 1334.14 91.084 1343.7 75.9676 1349.01 C 69.2485 1351.37 55.3122 1352.56 49.899 1356.23 L 50.2181 1358.08 C 60.6974 1365.4 88.8249 1350.55 98.1789 1343.51 C 114.797 1327.56 118.887 1302.05 125.965 1280.74 C 138.817 1242.05 145.895 1198.78 160.922 1161.11 C 173.935 1128.49 176.76 1110.75 179.486 1076.63 C 185.944 1080.93 189.707 1083.62 195.645 1088.57 C 192.437 1108.6 181.089 1155.34 174.214 1175.16 C 159.393 1215.28 143.995 1254.96 131.706 1295.95 C 125.778 1306.2 127.068 1341.72 122.755 1348.86 C 101.104 1384.68 47.5055 1409.24 29.0686 1359.39 C 34.9899 1331.53 44.5859 1302.33 52.9816 1274.95 C 63.9312 1239.52 74.6311 1204.02 85.0807 1168.44 C 90.0784 1151.58 96.5469 1134.79 101.192 1118.06 C 102.871 1112.02 97.1111 1092.12 96.1888 1083.83 C 92.67 1052.2 81.7247 1006.36 86.3046 975.571 C 87.8441 965.222 104.288 929.544 109.043 919.488 z" fill="rgb(255,255,255)" transform="translate(0,0)"></path>
<path d="M 245.273 691.037 C 267.23 688.983 278.444 716.289 286.899 732.98 C 262.733 733.841 276.913 729.299 267.524 727.139 L 265.603 728.355 L 265.447 730.143 C 266.347 732.3 267.137 733.952 268.81 735.628 C 271.165 737.987 274.78 740.204 278.174 740.425 C 287.43 741.026 298.786 738.487 307.988 737.251 C 326.709 734.736 345.459 732.928 364.204 730.673 C 374.981 729.376 387.247 726.677 398.058 727.222 C 405.827 727.614 412.975 732.21 417.976 737.935 C 424.275 745.147 429.179 755.796 428.394 765.548 C 427.905 771.611 425.438 777.657 420.619 781.538 C 402.503 796.132 304.509 793.873 280.84 788.509 C 268.868 785.795 250.716 774.367 240.221 773.925 C 238.063 773.834 238.849 773.574 237.389 774.919 C 244.099 787.428 284.451 795.514 297.377 797.225 C 297.293 803.47 296.645 822.109 300.191 826.395 L 301.49 825.919 C 303.953 820.635 302.46 805.773 305.081 797.788 L 307.31 797.69 C 312.512 807.335 307.334 834.372 304.475 845.419 C 303.008 851.087 300.193 854.839 296.407 859.179 C 288.718 851.503 247.344 807.919 240.997 808.197 L 239.999 809.972 C 241.872 814.839 274.789 848.149 280.662 854.289 C 283.206 856.817 285.813 859.7 288.29 862.33 C 284.225 871.436 274.553 885.344 268.855 893.978 C 248.155 885.534 223.796 869.728 207.54 854.077 C 201.137 847.912 192.135 832.023 184.967 830.612 L 184.319 831.719 C 184.551 832.772 184.912 834.441 185.431 835.392 C 202.3 866.263 236.216 889.684 267.608 901.669 C 262.581 914.728 252.154 937.274 245.889 949.828 C 232.867 950.897 226.583 951.524 213.822 949.65 L 207.845 941.666 C 199.145 939.756 175.741 934.191 167.497 937.634 C 167.211 937.765 166.925 937.897 166.639 938.028 C 150.969 934.855 118.213 916.97 108.01 908.252 C 113.528 897.579 117.786 884.165 126.261 875.617 C 129.939 871.908 136.008 877.103 140.835 872.397 C 140.538 869.285 135.92 864.402 133.7 861.495 C 135.366 855.113 141.292 838.823 144.22 832.161 C 158.427 799.828 174.514 757.183 193.914 728.429 C 199.394 720.307 235.709 695.204 245.273 691.037 z" fill="rgb(255,255,255)" transform="translate(0,0)"></path>
<path d="M 158.617 885.937 C 173.095 889.564 195.166 904.472 211.545 908.663 C 225.561 912.248 240.798 917.191 254.503 921.504 C 255.757 921.898 255.413 923.934 255.468 925.116 C 253.534 925.639 251.534 925.874 249.532 925.814 C 232.494 925.464 173.51 903.075 159.344 890.075 C 157.905 888.755 158.487 888.419 158.617 885.937 z" fill="rgb(3,3,3)" transform="translate(0,0)"></path>
<path d="M 244.747 705.625 L 248.168 706.741 L 248.99 708.542 C 246.838 713.283 235.621 720.357 232.274 724.868 C 227.003 731.971 223.254 741.518 218.841 749.561 C 216.165 749.372 217.349 749.832 215.406 747.728 C 213.831 734.764 233.767 712.014 244.747 705.625 z" fill="rgb(3,3,3)" transform="translate(0,0)"></path>
<path d="M 242.285 1292.86 L 244.458 1293.19 C 247.537 1295.26 249.778 1299.29 251.918 1302.48 C 264.147 1300.38 272.038 1303.01 284 1302.76 C 292.281 1302.59 302.063 1297.49 310.409 1295.6 C 331.261 1290.89 348.456 1310.92 352.168 1329.72 C 360.021 1372.15 337.406 1427.28 315.273 1461.97 C 305.344 1475.43 300.79 1471.33 286.126 1466.12 C 279.544 1467.84 265.432 1472.35 259.761 1468.67 C 244.358 1458.68 228.71 1424.72 222.395 1408.72 C 212.281 1383.09 199.526 1344.69 210.17 1317.96 C 215.475 1304.64 229.808 1297.58 242.285 1292.86 z" fill="rgb(255,255,255)" transform="translate(0,0)"></path>
<path d="M 259.632 1306.17 C 262.862 1305.95 265.4 1305.36 268.196 1306.79 C 264.49 1311.75 246.707 1313.98 240.693 1330.89 C 228.402 1365.44 248.817 1414.78 261.926 1445.68 L 260.636 1447.89 L 259.079 1448.2 C 253.763 1443.83 245.739 1423.15 243.522 1416.09 C 233.359 1383.69 214.649 1320.8 259.632 1306.17 z" fill="rgb(3,3,3)" transform="translate(0,0)"></path>
<path d="M 364.708 535.34 C 375.063 534.473 387.107 535.998 395.384 542.48 C 413.551 556.708 406.076 570.485 395.265 584.636 C 390.194 577.307 382.139 560.294 371.772 560.344 C 370.259 562.701 370.8 561.369 371.353 565.049 C 373.324 568.474 375.084 568.763 378.832 570.48 L 380.228 571.106 C 383.292 576.668 399.961 604.376 399.337 608.199 C 396.256 608.811 394.558 609.176 391.496 610.161 C 390.058 612.909 390.159 611.542 390.998 614.378 C 396.714 615.525 410.654 615.792 417.885 616.687 C 399.432 624.644 357.535 617.257 333.447 622.121 C 320.027 624.832 292.8 634.592 282.807 631.725 C 283.834 628.622 313.105 615.045 318.579 612.076 C 325.794 607.76 367.66 582.059 368.417 576.299 C 358.006 574.83 285.341 633.342 261.057 626.674 C 253.91 624.712 243.427 625.65 236.326 617.675 C 236.107 616.813 235.212 614.739 236.084 614.31 C 283.595 590.955 309.442 542.981 364.708 535.34 z" fill="rgb(255,255,255)" transform="translate(0,0)"></path>
<path d="M 281.579 1149.99 C 289.263 1153.38 309.554 1174.71 313.675 1182.12 C 330.194 1211.81 342.245 1245.33 355.327 1276.78 C 361.434 1291.47 384.513 1332.34 386.573 1344.84 C 382.138 1355.63 368.727 1353.63 359.042 1353.31 L 359 1335.66 L 369.8 1340.03 C 362.807 1323.2 355.232 1306.2 347.983 1289.43 C 331.793 1251.96 316.113 1206.75 295.733 1171.62 C 293.626 1168.79 291.105 1165.98 288.79 1163.28 C 280.743 1162.02 270.303 1160.39 263.851 1166.79 C 258.169 1172.41 258.817 1182.03 255.43 1188.88 C 251.732 1196.35 246.421 1202.98 242.596 1210.38 C 227.162 1246.39 208.552 1284.57 200.787 1323.1 C 198.82 1332.87 199.186 1344.68 199.467 1354.21 C 192.496 1348.58 183.593 1341.38 185.732 1331.32 C 188.028 1320.52 192.044 1310.03 195.647 1299.59 C 201.437 1282.33 207.6 1265.19 214.131 1248.19 C 223.821 1223.48 233.109 1199.32 247.19 1176.67 C 256.874 1161.09 265.42 1157.04 281.579 1149.99 z" fill="rgb(255,255,255)" transform="translate(0,0)"></path>
<path d="M 329.21 630.274 C 341.751 634.093 357.34 638.376 368.965 645.206 C 370.474 646.093 373.367 651.543 375.451 653.751 L 376.825 653.076 C 376.902 650.228 373.833 645.002 372.428 642.317 C 375.239 640.817 375.061 640.965 378.276 641.172 L 379.146 642.592 C 378.425 645.535 378.186 646.239 377.995 649.335 C 381.985 651.231 382.427 651.532 386.702 652.248 L 387.593 651.181 C 383.212 643.678 385.458 633.62 395.558 637.325 C 396.744 642.171 398.411 651.667 397.971 656.501 C 396.058 660.603 392.121 662.905 388.39 665.774 C 388.391 671.4 389.288 676.374 390.087 681.929 C 387.236 682.014 374.999 681.864 372.606 681.566 L 371.642 681.437 L 370.532 683.141 C 372.028 686.499 374.42 687.729 377.793 688.98 L 380.767 690.068 C 383.138 690.918 382.796 691.49 384.514 694.235 C 383.361 710.22 376.343 712.271 362.017 708.749 C 343.568 704.213 332.295 694.188 319.343 681.041 C 314.947 676.578 309.84 672.743 306.646 667.08 C 307.582 662.504 308.974 666.663 312.651 661.946 C 311.371 657.978 310.112 657.891 306.557 654.569 C 305.876 648.662 303.41 640.609 308.926 637.935 C 320.247 638.636 316.97 646.75 323.743 650.974 L 324.899 649.724 C 325.325 642.881 318.773 641.241 314.344 634.748 L 315.095 633.31 C 320.02 632.092 324.254 631.217 329.21 630.274 z" fill="rgb(255,255,255)" transform="translate(0,0)"></path>
<path d="M 34.7995 1385.81 C 56.8528 1405.1 77.0257 1403.49 99.7956 1386.65 C 119.525 1400.23 129.56 1402.78 153.288 1401.87 L 153.543 1413.51 C 153.543 1416.2 153.457 1416.27 152.76 1418.89 C 145.106 1422.77 46.8458 1420.18 32.8342 1416.18 C 24.4504 1413.79 31.612 1392.37 34.7995 1385.81 z" fill="rgb(255,255,255)" transform="translate(0,0)"></path>
<path d="M 213.306 968.566 C 217.461 968.807 223.093 969.877 227.322 970.549 L 225.501 984.501 C 233.763 989.533 242.006 997.679 249.263 1004.23 C 286.782 1038.12 304.038 1074.69 328.04 1118.15 C 322.245 1128.41 318.794 1131.96 309.054 1137.8 C 304.863 1139.11 297.456 1140.56 294.464 1136.68 C 296.151 1131.67 303.852 1128.29 305.46 1122.3 C 304.83 1116.93 297.911 1109.59 294.234 1105.55 C 296.497 1088.16 293.917 1085.35 286.112 1070.21 C 267.249 1033.63 237.452 1009.81 211.383 979.528 L 210.516 978.508 C 208.516 979.845 209.366 979.609 207.042 979.734 C 207.083 977.937 211.982 970.722 213.306 968.566 z" fill="rgb(255,255,255)" transform="translate(0,0)"></path>
<path d="M 429.905 679.56 C 443.647 684.049 459.007 702.24 465.268 714.402 C 460.336 721.217 439.879 754.995 434.081 755.765 C 427.787 736.145 417.718 721.341 395.951 718.945 C 402.052 710.97 422.72 687.667 429.905 679.56 z" fill="rgb(255,255,255)" transform="translate(0,0)"></path>
<path d="M 275.981 1167.98 C 278.493 1168.02 278.374 1167.88 280.459 1169.23 C 281.625 1175.18 282.1 1198.03 282.233 1204.97 C 282.822 1235.68 283.253 1265.56 284.396 1296.29 C 279.092 1296.16 274.276 1295.51 269.03 1294.89 C 266.836 1294.77 262.645 1293.74 260.307 1293.24 C 261.248 1271.96 262.794 1249.71 263.589 1228.4 C 263.991 1217.6 263.585 1180.4 265.767 1173.06 C 268.665 1170.13 272.02 1169.4 275.981 1167.98 z" fill="rgb(255,255,255)" transform="translate(0,0)"></path>
<path d="M 289.09 1182.52 C 294.347 1193.41 313.354 1220.29 313.141 1230.86 L 314.154 1231.52 C 318.273 1234.35 331.396 1264.57 327.37 1271.74 C 322.047 1272.84 318.344 1269.36 314.281 1266.17 C 310.493 1263.2 305.22 1265.26 302.084 1262.53 L 300.284 1261.39 C 299.295 1265.71 297.085 1275.59 292.771 1277.52 L 291.311 1276.35 C 286.48 1264.49 288.585 1199.76 289.09 1182.52 z" fill="rgb(255,255,255)" transform="translate(0,0)"></path>
<path d="M 314.154 1231.52 C 318.273 1234.35 331.396 1264.57 327.37 1271.74 C 322.047 1272.84 318.344 1269.36 314.281 1266.17 C 310.493 1263.2 305.22 1265.26 302.084 1262.53 C 304.821 1251.02 309.19 1242.16 314.154 1231.52 z" fill="rgb(255,255,255)" transform="translate(0,0)"></path>
<path d="M 313.141 1230.86 L 314.154 1231.52 C 309.19 1242.16 304.821 1251.02 302.084 1262.53 L 300.284 1261.39 C 301.779 1255.1 308.62 1235.06 313.141 1230.86 z" fill="rgb(51,51,51)" transform="translate(0,0)"></path>
<path d="M 256.561 1196.68 C 258.501 1204.58 255.991 1278.56 254.378 1289.01 C 246.157 1279.3 223.4 1294.23 215.418 1299.44 L 214.397 1300.03 L 213.472 1299.67 C 214.018 1288.07 249.245 1212.7 256.561 1196.68 z" fill="rgb(51,51,51)" transform="translate(0,0)"></path>
<path d="M 446.51 657.154 C 466.827 659.596 474.047 667.253 481.492 685.686 C 479.853 693.813 477.187 704.484 470.927 710.265 C 461.103 695.957 448.764 683.55 434.51 673.647 C 439.735 667.612 442.14 663.928 446.51 657.154 z" fill="rgb(255,255,255)" transform="translate(0,0)"></path>
<path d="M 300.433 1144.5 L 301.737 1144.42 C 314.709 1143.74 353.526 1140.67 362.326 1148.77 C 364.937 1155.43 359.866 1160.55 354.637 1164.44 C 347.113 1165.95 317.531 1164.92 308.62 1164.62 L 295.056 1152.33 L 297.766 1145.47 L 300.433 1144.5 z" fill="rgb(255,255,255)" transform="translate(0,0)"></path>
<path d="M 482.197 618.946 L 484.023 619.102 C 490.022 623.799 493.275 636.392 494.834 643.732 C 490.349 648.063 483.392 651.954 479.55 656.817 C 478.921 657.612 480.153 659.961 477.826 663.082 C 476.368 662.554 476.594 662.831 475.544 661.446 C 466.979 650.149 456.989 648.164 443.766 653.658 L 444.126 647.995 C 451.682 636.822 462.172 646.97 470.357 642.535 L 470.068 640.804 C 465.821 636.178 454.74 636.947 447.466 635.844 L 446.618 634.619 C 449.983 631.707 476.674 620.887 482.197 618.946 z" fill="rgb(255,255,255)" transform="translate(0,0)"></path>
<path d="M 509.26 682.038 C 516.672 687.98 549.572 741.569 556.388 752.775 C 554.412 754.737 551.756 756.877 549.591 758.722 C 542.134 755.535 507.266 696.226 503.285 686.281 C 504.754 683.273 505.305 683.885 509.26 682.038 z" fill="rgb(255,255,255)" transform="translate(0,0)"></path>
<path d="M 400.735 629.818 C 409.37 626.078 419.257 623.754 428.405 621.404 C 421.298 639.094 414.929 654.135 409.974 672.627 C 407.359 674.574 404.758 676.542 402.172 678.528 L 401.586 678.999 C 399.354 669.241 402.156 662.979 402.141 653.007 C 402.129 645.13 401.438 637.648 400.735 629.818 z" fill="rgb(51,51,51)" transform="translate(0,0)"></path>
<path d="M 286.693 691.158 C 294.149 690.522 311.509 703.715 319.633 706.922 C 325.1 709.081 326.247 709.533 332.082 710.904 C 330.628 717.85 329.401 721.12 326.971 727.756 L 324.947 730.005 C 319.623 731.816 317.455 731.753 312.352 729.511 C 309.18 724.471 286.75 691.468 286.693 691.158 z" fill="rgb(255,255,255)" transform="translate(0,0)"></path>
<path d="M 444.08 616.932 C 447.913 616.555 451.151 617.569 453.379 620.719 C 444.155 637.105 434.645 613.347 437.184 659.592 C 432.979 665.614 426.472 673.127 421.71 678.953 L 417.483 685.042 C 420.121 658.829 427.195 647.309 431.71 623.014 C 435.178 620.987 440.345 618.713 444.08 616.932 z" fill="rgb(255,255,255)" transform="translate(0,0)"></path>
<path d="M 292.476 663.472 C 305.011 674.252 324.041 691.38 334.626 703.902 L 333.873 704.507 L 327.583 703.524 C 315.635 699.922 293.853 685.891 282.802 678.97 C 287.652 673.903 289.736 669.673 292.476 663.472 z" fill="rgb(255,255,255)" transform="translate(0,0)"></path>
<path d="M 337.921 705.947 C 354.185 714.343 368.71 720.033 386.158 711.852 L 388.38 714.248 C 389.091 717.694 389.357 716.166 388.037 719.036 C 377.858 725.486 349.313 727.465 336.603 729.078 C 338.272 720.281 338.235 714.76 337.921 705.947 z" fill="rgb(51,51,51)" transform="translate(0,0)"></path>
<path d="M 233.675 1145.18 C 244.098 1144.59 255.082 1145.04 265.561 1145.27 C 260.973 1150.89 256.112 1155.84 251.106 1161.08 C 237.482 1173.41 210.27 1158.31 233.675 1145.18 z" fill="rgb(255,255,255)" transform="translate(0,0)"></path>
<path d="M 261.379 685.17 C 271.324 687.633 275.541 690.231 283.112 697.252 C 289.246 702.941 305.129 722.875 305.355 731.069 C 301.269 731.649 296.669 732.026 292.524 732.463 C 287.849 719.916 280.409 708.983 272.897 698.009 C 268.411 691.456 261.964 689.84 261.379 685.17 z" fill="rgb(255,255,255)" transform="translate(0,0)"></path>
<path d="M 121.523 925.98 C 134.905 932.384 143.727 936.273 157.523 941.053 C 156.043 945.254 155.076 947.544 153.108 951.54 C 148.967 954.809 124.538 944.799 120.437 941.411 C 118.57 936.178 120.123 931.229 121.523 925.98 z" fill="rgb(51,51,51)" transform="translate(0,0)"></path>
<path d="M 304.678 1268.53 C 311.473 1269.38 334.043 1282.05 330.579 1289.81 C 323.982 1285.7 325.457 1286.9 316.752 1287.49 C 309.333 1287.97 294.602 1293.47 289.751 1290.01 L 289.817 1287.79 C 293.758 1280.43 299.251 1279.12 303.935 1269.99 L 304.678 1268.53 z" fill="rgb(51,51,51)" transform="translate(0,0)"></path>
<path d="M 173.368 941.149 C 183.047 941.487 201.958 944.522 209.221 951.053 L 209.159 952.425 C 204.336 954.364 197.258 952.168 192.237 950.988 C 191.247 950.982 189.043 951.198 187.988 951.278 L 186.839 952.88 C 187.506 956.025 188.254 957.657 186.91 960.519 C 180.959 964.213 173.489 962.386 166.367 961.656 C 168.3 952.617 172.21 949.829 173.368 941.149 z" fill="rgb(255,255,255)" transform="translate(0,0)"></path>
<path d="M 402.172 678.528 C 405.353 679.988 406.635 679.458 409.922 678.931 C 412.196 681.114 412.616 686.602 413.24 690.003 C 405.622 698.743 397.308 706.851 388.38 714.248 L 386.158 711.852 C 388.186 704.593 397.444 688.976 401.586 678.999 L 402.172 678.528 z" fill="rgb(255,255,255)" transform="translate(0,0)"></path>
<path d="M 111.385 1375.91 C 112.695 1378.19 114.376 1382.12 117.271 1382.74 C 125.029 1384.4 141.024 1390.46 146.28 1395.82 C 128.821 1396.95 118.315 1392.97 104.355 1383.17 L 111.385 1375.91 z" fill="rgb(255,255,255)" transform="translate(0,0)"></path>
<path d="M 492.474 653.623 C 496.452 656.456 504.339 671.088 506.058 675.996 C 504.891 678.742 503.339 679.092 500.476 681.166 C 495.08 677.941 489.182 666.494 487.758 660.086 C 488.952 655.923 488.809 657.057 492.474 653.623 z" fill="rgb(255,255,255)" transform="translate(0,0)"></path>
<path d="M 298.872 637.655 L 300.527 638.657 C 300.747 646.705 302.834 655.564 302.644 662.624 L 301.556 663.564 L 300.186 662.466 C 298.135 659.815 295.633 656.977 293.454 654.382 L 293.256 646.943 C 293.039 639.796 293.081 640.298 298.872 637.655 z" fill="rgb(255,255,255)" transform="translate(0,0)"></path>
<path d="M 288.182 1110.73 C 293.453 1110.85 296.75 1111.5 299.051 1116.51 C 298.412 1120.2 299.002 1118.85 295.308 1121.73 C 290.145 1120.57 285.153 1119.99 281.51 1116.09 L 281.589 1114.22 C 283.589 1111.63 284.999 1111.61 288.182 1110.73 z" fill="rgb(255,255,255)" transform="translate(0,0)"></path>
<path d="M 276.229 1140.32 C 288.237 1138.56 281.519 1142.55 292.527 1144.7 C 290.303 1145.51 290.184 1145.69 287.794 1145.68 L 280.205 1145.56 C 275.514 1147.4 270.793 1149.57 266.17 1151.61 C 269.933 1146.55 271.285 1144.49 276.229 1140.32 z" fill="rgb(51,51,51)" transform="translate(0,0)"></path>
<path d="M 354.621 627.065 C 360.82 626.954 387.718 626.414 392.43 627.519 C 383.82 630.912 359.569 628.7 348.43 629.11 L 354.621 627.065 z" fill="rgb(118,117,121)" transform="translate(0,0)"></path>
<path d="M 163.378 943.698 C 164.662 949.752 164.424 958.383 158.165 961.23 L 156.905 957.97 C 157.894 952.004 159.57 948.435 163.378 943.698 z" fill="rgb(255,255,255)" transform="translate(0,0)"></path>
<path d="M 331.999 1277.74 C 333.98 1279.12 343.356 1299.13 345.628 1303.44 C 339.188 1299.72 333.566 1284.87 331.999 1277.74 z" fill="rgb(118,117,121)" transform="translate(0,0)"></path>
<path d="M 348.43 629.11 C 345.395 629.047 344.534 629.361 341.809 628.287 C 347.126 626.747 349.165 626.971 354.621 627.065 L 348.43 629.11 z" fill="rgb(51,51,51)" transform="translate(0,0)"></path>
<path d="M 401.312 1278.92 L 1519.98 1278.86 L 1853.53 1278.86 L 1954.92 1278.82 C 1969.51 1278.81 1996.44 1279.55 2009.8 1278.17 C 2009.81 1297.1 2010.08 1316.56 2009.8 1335.44 C 1922.1 1337.62 1828.19 1336.14 1740.14 1336.17 L 1215.5 1335.94 L 673.896 1335.91 C 581.648 1335.87 482.778 1337.69 391.07 1335.45 C 385.23 1327.64 382.14 1319.79 378.466 1310.85 C 382.505 1309.61 396.236 1310.02 401.304 1310.05 L 401.312 1278.92 z" fill="rgb(255,255,255)" transform="translate(0,0)"></path>
<path d="M 516.43 672.078 C 522.271 670.718 545.677 671.168 552.842 671.166 L 622.962 671.163 L 912.449 670.881 L 1656.25 671.038 C 1773.54 671.071 1893.01 669.586 2010.11 670.973 C 2010.15 680.606 2010.84 717.917 2009.64 725.356 L 1069.53 725.919 L 731.733 725.787 C 672.291 725.727 610.407 726.528 551.196 725.126 C 547.836 720.767 541.356 709.609 538.24 704.543 C 531.055 692.86 524.57 683.09 516.43 672.078 z" fill="rgb(255,255,255)" transform="translate(0,0)"></path>
<path d="M 316.46 799.93 C 338.301 800.216 382.072 799.164 402.701 794.947 C 401.153 859.419 401.769 927.291 401.979 991.98 L 402.441 1259.77 L 1583.58 1259.34 L 1889.06 1259.27 L 1971.41 1259.03 C 1978.85 1259 2004.3 1258.49 2010.07 1259.47 C 2006.7 1260.94 1997.93 1260.68 1993.91 1260.78 C 1998.77 1260.94 2003.64 1261.01 2008.51 1261 L 2008.51 1277 C 2005 1277.02 1993.51 1276.89 1990.71 1277.41 C 1994.99 1277.46 2006.14 1277.31 2009.8 1278.17 C 1996.44 1279.55 1969.51 1278.81 1954.92 1278.82 L 1853.53 1278.86 L 1519.98 1278.86 L 401.312 1278.92 L 401.304 1310.05 C 396.236 1310.02 382.505 1309.61 378.466 1310.85 C 377.451 1307.11 363.765 1277.61 361.726 1273.95 C 348.841 1250.81 330.2 1187.3 313.956 1170.21 C 331.018 1169.83 369.436 1177.43 368.804 1151.4 C 368.317 1131.34 334.605 1137.92 319.403 1137.91 C 327.107 1131.15 329.357 1127.62 334.231 1119.08 C 323.275 1088.65 290.429 1037.22 267.847 1013.55 C 255.965 1001.1 241.44 992.375 232.121 980.43 C 230.022 977.739 238.474 960.959 240.385 956.809 C 243.928 956.505 250.475 956.391 252.341 952.855 C 268.237 922.742 276.521 894.262 295.633 865.644 C 299.07 864.387 301.513 863.689 304.083 860.926 C 314.819 849.383 316.335 815.366 316.46 799.93 z" fill="url(#Gradient1)" transform="translate(0,0)"></path>
<path d="M 551.196 725.126 C 610.407 726.528 672.291 725.727 731.733 725.787 L 1069.53 725.919 L 2009.64 725.356 C 2010.58 734.151 2011.1 786.387 2009.84 794.143 C 2008.69 782.638 2009.34 758.018 2009.33 745.561 L 953.555 745.06 L 667.789 745.184 L 599.939 745.088 C 591.35 745.062 568.941 744.593 561.342 745.986 C 559.238 742.63 552.668 728.606 551.196 725.126 z" fill="rgb(51,51,51)" transform="translate(0,0)"></path>
<path d="M 1059.34 865.064 C 1100.28 861.992 1136.02 892.557 1139.34 933.481 C 1142.66 974.406 1112.31 1010.33 1071.41 1013.89 C 1030.15 1017.49 993.853 986.825 990.506 945.55 C 987.16 904.276 1018.04 868.162 1059.34 865.064 z" fill="rgb(3,3,3)" transform="translate(0,0)"></path>
<path d="M 1061.16 886.33 C 1120.53 881.214 1139.86 982.029 1068.42 992.447 C 1056.31 993.531 1044.25 990.015 1034.62 982.6 C 1005.64 960.241 1009.56 909.267 1041.99 891.677 C 1048.37 888.218 1054.14 887.226 1061.16 886.33 z" fill="rgb(255,255,255)" transform="translate(0,0)"></path>
<path d="M 1421.35 864.441 L 1445.67 864.339 C 1454.49 895.93 1462.62 925.684 1473.31 956.681 C 1480.17 938.554 1487.9 912.072 1493.91 893.27 C 1492.43 885.212 1488.4 873.154 1485.98 864.799 L 1505.49 864.696 C 1514.19 895.796 1522.27 926.291 1534.89 956.141 C 1545.79 924.842 1553.93 896.663 1563.1 864.791 L 1587.06 864.915 C 1584.13 876.965 1580.94 886.437 1577.04 898.232 L 1544.88 994.619 C 1543.85 997.829 1541.75 1005.43 1541.16 1008.79 C 1542.03 1014.37 1531.74 1013.44 1531.24 1012.41 C 1519.32 987.71 1515.23 955.904 1504 930.711 C 1497.88 942.432 1479.4 1008.96 1476.1 1012.33 C 1473.32 1012.5 1470.42 1013.04 1467.96 1011.98 C 1465.94 1008.06 1451.4 959.342 1449.02 951.884 C 1443.78 935.302 1438.36 918.779 1432.75 902.318 C 1429.34 892.249 1422.72 874.148 1421.35 864.441 z" fill="rgb(3,3,3)" transform="translate(0,0)"></path>
<path d="M 424.855 861.953 C 432.559 864.172 448.657 884.154 454.576 890.715 L 492.29 932.01 C 503.667 920.198 514.825 908.177 525.759 895.954 C 530.534 890.597 554.13 862.058 559.113 862.948 C 560.665 869.593 560.006 899.895 559.995 909.028 L 559.7 1012.81 L 537.895 1012.65 L 537.78 956.75 C 537.806 942.969 537.689 929.187 537.43 915.408 C 523.12 932.724 507.667 948.551 492.103 964.708 C 476.825 949.343 462.695 932.225 446.98 916.384 C 446.536 948.591 446.408 980.802 446.595 1013.01 L 423.954 1012.94 L 424.135 909.865 C 424.153 900.166 423.59 869.786 424.855 861.953 z" fill="rgb(3,3,3)" transform="translate(0,0)"></path>
<path d="M 1358.7 863.452 L 1362.98 864.296 C 1366.66 867.23 1423.18 996.491 1431.3 1013.71 L 1405.04 1013.75 C 1401.93 1004.85 1397.92 995.444 1394.37 986.643 L 1361.5 986.795 L 1326.08 986.768 C 1321.8 995.958 1317.91 1004.47 1314.07 1013.89 L 1287.88 1013.91 C 1312.55 965.279 1335.55 913.186 1358.7 863.452 z" fill="rgb(3,3,3)" transform="translate(0,0)"></path>
<path d="M 1360.12 910.562 C 1364.78 915.996 1381.5 957.8 1384.99 966.051 L 1361.61 966.127 L 1336.21 966.086 C 1343.89 947.452 1351.86 928.941 1360.12 910.562 z" fill="rgb(255,255,255)" transform="translate(0,0)"></path>
<path d="M 913.708 863.278 C 937.947 861.74 956.01 870.624 973.525 886.803 C 968.196 892.596 962.823 898.349 957.408 904.061 C 929.078 873.247 882.808 883.233 872.939 924.482 C 861.226 973.438 907.869 1013.1 954.056 982.645 L 954.016 951.075 C 944.25 951.248 931.95 951.797 922.411 951.052 C 920.803 949.033 921.451 944.947 921.462 941.75 L 921.208 930.018 L 975.992 930.015 L 975.906 992.766 C 927.364 1034.19 861.433 1016.2 849.287 953.462 C 840.6 908.592 869.885 870.489 913.708 863.278 z" fill="rgb(3,3,3)" transform="translate(0,0)"></path>
<path d="M 721.788 862.983 C 728.132 864.285 747.161 889.458 752.634 895.816 C 770.781 916.609 789.045 937.3 807.424 957.888 L 807.79 863.635 L 830.335 863.729 C 830.981 914.028 830.827 964.335 829.875 1014.63 L 828.556 1014.75 C 826.331 1013.69 750.768 928.138 744.015 920.059 L 744.097 1012.95 L 720.878 1012.94 C 722.917 964.672 720.774 911.915 721.788 862.983 z" fill="rgb(3,3,3)" transform="translate(0,0)"></path>
<path d="M 638.861 861.491 C 641.504 863.044 641.954 863.387 643.257 866.346 C 664.558 914.702 683.185 965.253 705.971 1012.87 L 681.523 1012.91 C 677.792 1002.77 674.598 994.244 670.143 984.356 C 661.76 985.131 650.406 984.921 641.776 985.001 L 608.612 985.046 L 596.131 1013.04 L 573.776 1013.06 C 581.72 991.728 591.205 969.938 600.219 948.988 C 612.607 920.202 624.762 889.368 638.861 861.491 z" fill="rgb(3,3,3)" transform="translate(0,0)"></path>
<path d="M 638.234 913.63 C 643.06 918.494 657.172 954.389 660.776 963.145 L 638.029 963.171 L 616.953 963.704 C 623.815 946.915 630.909 930.222 638.234 913.63 z" fill="rgb(255,255,255)" transform="translate(0,0)"></path>
<path d="M 1914.78 861.415 C 1938.68 861.737 1955.06 869.251 1972.71 884.576 L 1956.16 901.734 C 1946.22 894.764 1938.09 888.892 1925.96 886.084 C 1912.64 882.991 1898.63 885.543 1887.25 893.135 C 1874.84 901.455 1866.33 914.464 1863.7 929.175 C 1858.49 958.558 1880.38 986.668 1909.62 990.642 C 1924.98 992.728 1937.7 985.704 1949.42 976.825 L 1955.54 971.358 C 1960.82 978.176 1965.82 983.765 1971.55 990.152 C 1967.21 993.983 1962.65 998.142 1957.87 1001.38 C 1929.51 1020.56 1893.05 1018.59 1866.94 996.862 C 1850.93 983.452 1840.91 964.221 1839.09 943.412 C 1837.46 923.405 1843.89 903.574 1856.94 888.327 C 1872.93 869.64 1891.02 863.344 1914.78 861.415 z" fill="rgb(3,3,3)" transform="translate(0,0)"></path>
<path d="M 983.176 1056.55 C 1005.57 1052.58 1026.93 1067.53 1030.87 1089.93 C 1034.81 1112.33 1019.83 1133.68 997.428 1137.59 C 975.063 1141.5 953.761 1126.55 949.829 1104.19 C 945.897 1081.83 960.82 1060.51 983.176 1056.55 z" fill="rgb(3,3,3)" transform="translate(0,0)"></path>
<path d="M 982.766 1065.08 C 1000.5 1060.99 1018.2 1072.07 1022.26 1089.81 C 1026.33 1107.56 1015.22 1125.23 997.473 1129.27 C 979.758 1133.31 962.125 1122.23 958.068 1104.52 C 954.011 1086.81 965.063 1069.16 982.766 1065.08 z" fill="rgb(255,255,255)" transform="translate(0,0)"></path>
<path d="M 1648.98 864.677 C 1656.92 864.842 1665.25 864.701 1673.23 864.691 L 1673.15 989.985 L 1732.26 989.744 L 1732.28 1013.28 C 1704.76 1013.76 1675.99 1013.47 1648.42 1013.29 C 1647.48 965.163 1649.01 913.29 1648.98 864.677 z" fill="rgb(3,3,3)" transform="translate(0,0)"></path>
<path d="M 1749.82 864.849 L 1772.86 864.796 L 1772.94 989.894 L 1831.95 989.881 L 1831.97 1013.04 L 1749.7 1013.04 C 1750.34 963.796 1749.46 914.209 1749.82 864.849 z" fill="rgb(3,3,3)" transform="translate(0,0)"></path>
<path d="M 1202.61 864.845 L 1225.62 864.896 C 1226.15 906.3 1225.29 950.174 1224.98 991.659 C 1244.62 991.364 1264.25 991.225 1283.89 991.242 L 1283.6 1012.66 C 1281.47 1014.73 1211.36 1013.69 1202.75 1013.65 L 1202.61 864.845 z" fill="rgb(3,3,3)" transform="translate(0,0)"></path>
<path d="M 1112.19 1055.38 C 1141.39 1054.86 1167.2 1060.41 1169.2 1097.82 C 1169.82 1109.25 1164.57 1117.99 1156.67 1125.97 C 1141.92 1138.49 1130.67 1137.22 1112.64 1137.05 C 1111.09 1115.02 1111.98 1078.29 1112.19 1055.38 z" fill="rgb(3,3,3)" transform="translate(0,0)"></path>
<path d="M 1119.55 1063.86 C 1139.28 1063.88 1157.48 1069.43 1160.76 1092.62 C 1162.16 1102.59 1158.48 1111.01 1152.29 1118.75 C 1141.56 1128.77 1133.38 1128.35 1119.71 1128.3 C 1119.43 1106.98 1119.59 1085.21 1119.55 1063.86 z" fill="rgb(255,255,255)" transform="translate(0,0)"></path>
<path d="M 1282.64 1054 C 1299 1053.73 1312.81 1054.17 1325.88 1066.33 C 1334.35 1074.11 1339.18 1085.09 1339.19 1096.6 C 1339.17 1108.49 1334.68 1116.72 1326.7 1124.9 C 1309.68 1137.33 1303.42 1137.31 1282.83 1137.12 L 1282.64 1054 z" fill="rgb(3,3,3)" transform="translate(0,0)"></path>
<path d="M 1291.21 1062.22 C 1310.87 1064.36 1328.4 1069.93 1331.39 1093.87 C 1332.6 1103.56 1327.03 1111.98 1320.74 1118.97 C 1310.35 1126.83 1303.6 1127.16 1291.04 1128.32 L 1291.21 1062.22 z" fill="rgb(255,255,255)" transform="translate(0,0)"></path>
<path d="M 877.421 1054.85 C 900.671 1054.36 897.377 1078.32 882.943 1090.8 C 888.124 1099.06 893.83 1106.98 900.027 1114.5 C 901.041 1108.55 900.769 1100.76 906.799 1098.19 C 912.377 1104.58 907.684 1115.49 903.826 1121.63 C 907.195 1125.77 911.543 1130.15 913.022 1135.08 C 912.317 1138.18 913.11 1136.82 909.955 1138.9 L 907.935 1138.41 C 905.012 1135.46 901.434 1130.99 898.671 1127.74 C 891.691 1134.06 885.525 1139.18 875.221 1138.54 C 869.215 1138.17 863.631 1135.33 859.79 1130.7 C 855.722 1125.76 853.809 1119.39 854.483 1113.03 C 855.631 1101.69 863.009 1095.36 871.071 1088.79 C 863.071 1072.79 860.919 1064.37 877.421 1054.85 z" fill="rgb(3,3,3)" transform="translate(0,0)"></path>
<path d="M 876.007 1095.91 C 879.665 1099.32 892.375 1117.61 892.858 1122.24 C 890.064 1126.91 885.649 1128.2 880.668 1130 C 856.533 1132.14 859.12 1106.99 876.007 1095.91 z" fill="rgb(255,255,255)" transform="translate(0,0)"></path>
<path d="M 877.46 1063.11 C 883.151 1063.72 884.91 1063.29 887.231 1068.91 C 886.903 1075.44 884.567 1077.73 880.044 1082.44 C 874.791 1083.01 868.974 1069.82 877.46 1063.11 z" fill="rgb(255,255,255)" transform="translate(0,0)"></path>
<path d="M 767.066 1084.24 C 787.582 1081.92 780.135 1087.59 791.614 1091.46 C 791.561 1088.75 791.162 1086.82 792.614 1084.63 C 796.487 1084.41 795.251 1083.79 798.038 1085.25 C 799.643 1091.34 798.466 1125.86 798.668 1134.24 C 798.724 1136.56 797.386 1136.97 795.832 1137.97 L 794.491 1137.53 C 792.069 1135.07 792.041 1134.13 791.127 1130.92 L 789.938 1130.95 C 776.083 1142.47 758.641 1140.22 750.659 1123.41 C 747.307 1116.38 746.943 1108.29 749.65 1100.98 C 752.972 1091.93 758.789 1088.01 767.066 1084.24 z" fill="rgb(3,3,3)" transform="translate(0,0)"></path>
<path d="M 768.971 1092.05 C 778.4 1090.94 786.086 1093.5 789.977 1102.88 C 792.199 1108.34 792.027 1114.48 789.503 1119.81 C 786.41 1126.33 782.844 1128.02 776.456 1130.07 C 752.179 1127.7 747.213 1103.3 768.971 1092.05 z" fill="rgb(255,255,255)" transform="translate(0,0)"></path>
<path d="M 602.393 1082.98 C 603.158 1083.11 603.921 1083.26 604.681 1083.43 C 612.848 1085.21 615.28 1088.42 619.55 1095.22 C 637.84 1072.14 655.439 1086.58 656.5 1111.12 C 656.75 1116.92 657.323 1131.14 655.533 1135.79 C 652.696 1137.87 654.281 1137.34 650.523 1137.12 C 644.186 1130.94 657.05 1093.2 636.496 1092.46 C 621.902 1091.93 623.686 1115.55 623.788 1125.25 C 623.855 1130.18 624.603 1137.1 618.097 1137.97 C 612.175 1132 622.268 1089.3 602.869 1092.02 C 582.504 1094.87 593.838 1130.03 588.751 1137.29 C 585.047 1138.46 586.833 1138.45 583.203 1137.53 C 581.197 1131.73 581.614 1092.27 582.152 1084.8 L 584.176 1083.41 L 585.631 1083.76 C 587.768 1085.97 587.81 1087.06 588.624 1090.01 L 588.898 1091.04 C 594.066 1090.5 593.37 1086.56 602.393 1082.98 z" fill="rgb(3,3,3)" transform="translate(0,0)"></path>
<path d="M 464.884 1057.1 C 474.726 1056.22 493.475 1058.53 499.939 1066.82 C 500.388 1070.76 499.948 1069.35 497.747 1073.53 C 497.807 1073.42 496.086 1075.37 495.855 1075.23 C 486.374 1069.25 482.981 1065.39 471.208 1065.79 C 441.422 1066.81 430.443 1104.36 452.349 1122.87 C 460.536 1129.79 471.476 1129.77 481.807 1128.38 C 486.202 1126.56 494.028 1122.2 498.201 1121.87 C 499.813 1121.75 500.168 1123 501.469 1124.62 C 500.04 1141.22 445.98 1149.15 433.669 1111.18 C 430.044 1100.28 431.011 1088.37 436.346 1078.19 C 443.106 1065.48 451.9 1060.83 464.884 1057.1 z" fill="rgb(3,3,3)" transform="translate(0,0)"></path>
<path d="M 1596.9 1083.22 C 1609.16 1083.55 1625.97 1098.88 1619.99 1109.53 C 1614.57 1113.63 1591.05 1111.88 1582.18 1111.83 C 1584.78 1129.91 1595.47 1134.25 1611.06 1125.11 C 1614.16 1126 1614.53 1125.71 1616.46 1128.13 L 1616.17 1130.17 C 1603.46 1145.2 1579.14 1139.46 1574.96 1119.86 C 1571.03 1101.42 1577.67 1087.14 1596.9 1083.22 z" fill="rgb(3,3,3)" transform="translate(0,0)"></path>
<path d="M 1595.19 1090.94 C 1601.78 1090.94 1614.02 1095.41 1611.58 1103.41 C 1607.89 1105.67 1607.38 1104.84 1602.25 1104.91 L 1581.88 1104.88 C 1584.79 1096.49 1587.21 1094.64 1595.19 1090.94 z" fill="rgb(255,255,255)" transform="translate(0,0)"></path>
<path d="M 1366.42 1084.2 C 1370.99 1084.05 1374.19 1084.07 1378.49 1085.87 C 1386.68 1089.29 1394.68 1102.54 1390.56 1110.97 C 1381.04 1117.14 1359.74 1107.11 1355.18 1116.17 C 1356.2 1128.28 1368.92 1133.8 1379.36 1126.99 C 1382.6 1124.49 1383.11 1124.01 1386.25 1126.14 L 1386.55 1128.59 C 1381.61 1139.4 1370.93 1140.64 1360.88 1136.24 C 1346.69 1130.03 1342.06 1110.83 1348.65 1097.61 C 1352.72 1089.44 1358.11 1086.75 1366.42 1084.2 z" fill="rgb(3,3,3)" transform="translate(0,0)"></path>
<path d="M 1365.25 1092.06 C 1372.71 1091.64 1382.75 1095.08 1382.22 1103.84 C 1379.68 1106.23 1379.89 1105.41 1375.25 1105.59 C 1369.56 1105.75 1358.01 1107.42 1354.85 1102.15 C 1356.11 1097.3 1361.15 1094.49 1365.25 1092.06 z" fill="rgb(255,255,255)" transform="translate(0,0)"></path>
<path d="M 1447.98 1084.19 C 1463.27 1082.29 1477.77 1091.21 1475.9 1107.7 C 1468.37 1119.21 1442.49 1104.8 1438.5 1116.53 C 1441.69 1130.17 1452.96 1133.89 1464.65 1127 C 1466.27 1125.53 1466 1125.91 1468.12 1124.98 L 1470.56 1125.95 C 1475.94 1136.69 1443.96 1147.57 1433.57 1125.88 C 1429.72 1117.71 1429.3 1108.35 1432.4 1099.88 C 1435.73 1090.9 1439.7 1087.88 1447.98 1084.19 z" fill="rgb(3,3,3)" transform="translate(0,0)"></path>
<path d="M 1451.18 1091.04 C 1457.78 1090.98 1470.1 1095.39 1467.63 1103.48 C 1463.87 1105.64 1463.69 1104.85 1458.65 1104.91 C 1452.23 1105.15 1440.09 1107.21 1438.71 1099.39 C 1441.5 1095.76 1446.97 1092.72 1451.18 1091.04 z" fill="rgb(255,255,255)" transform="translate(0,0)"></path>
<path d="M 695.21 1083.48 C 698.322 1084.09 698.686 1084.21 701.626 1085.42 L 702.701 1090.72 C 707.043 1090.43 710.265 1086.06 713.434 1085.12 C 741.664 1076.76 739.95 1119.93 736.444 1136.29 C 736.108 1137.86 734.887 1137.81 733.658 1138.27 L 731.16 1136.97 C 728.732 1133.46 729.88 1112.43 729.934 1106.33 C 726.585 1085.96 711.99 1089.16 703.15 1104.24 C 702.872 1113.29 703.273 1122.38 703.256 1131.44 C 703.248 1135.44 702.783 1135.43 700.516 1137.64 C 697.103 1138.22 698.525 1138.62 695.996 1136.9 C 694.157 1126.65 695.104 1095.59 695.21 1083.48 z" fill="rgb(3,3,3)" transform="translate(0,0)"></path>
<path d="M 1420.64 1049.12 C 1425.85 1049.23 1430.09 1050.03 1433.7 1054.2 C 1433.75 1057.31 1434.14 1055.82 1431.87 1058.63 C 1426.34 1060.55 1420.85 1053.68 1416.05 1058.51 C 1410.28 1064.31 1411.94 1078.87 1412.2 1085.93 C 1416.96 1085.92 1423.9 1084.62 1425 1090.11 C 1421.28 1094.7 1417.48 1094.01 1412 1094.14 L 1412.03 1123.62 C 1412.17 1127.8 1412.91 1133.48 1411.07 1136.96 C 1407.97 1138.75 1409.7 1138.2 1405.5 1137.8 C 1401.29 1130.16 1407.62 1104.79 1402.39 1095.65 C 1401.16 1093.49 1398.32 1093.28 1396.02 1092.95 C 1394.79 1090.29 1395.08 1090.25 1395.42 1087.25 C 1397.81 1085.23 1398.12 1085.97 1402.15 1085.9 C 1410.79 1075.61 1393.98 1057.74 1420.64 1049.12 z" fill="rgb(3,3,3)" transform="translate(0,0)"></path>
<path d="M 1508.61 1083.2 C 1531.15 1085.43 1526.72 1104.17 1527.24 1121.63 C 1527.4 1126.69 1526.48 1132.28 1525.38 1137.2 C 1522.9 1137.81 1524.18 1137.7 1521.48 1136.85 C 1513.58 1126.88 1530.82 1090.77 1505.59 1092.16 L 1504.34 1092.24 C 1500.64 1093.93 1497.95 1095.74 1494.52 1097.9 C 1493.9 1109.3 1494.62 1120.59 1494.44 1132 C 1494.4 1134.57 1493.08 1136.37 1491.12 1137.94 C 1488.56 1137.71 1489.67 1138.15 1487.87 1136.32 C 1486.56 1130.25 1487.38 1091.22 1488.17 1084.5 L 1490.35 1083.39 C 1493.41 1083.86 1492.12 1083.39 1494.89 1086.17 L 1496.31 1087.63 C 1501.38 1085.28 1503.07 1084.38 1508.61 1083.2 z" fill="rgb(3,3,3)" transform="translate(0,0)"></path>
<path d="M 1183 1083.17 C 1192.98 1087.7 1178.04 1133.01 1198.66 1130.12 C 1219.56 1127.19 1205.31 1093.73 1211.32 1084.33 C 1214.23 1083.97 1214.24 1083.74 1216.93 1084.7 C 1218.76 1087.31 1218.09 1092.02 1218 1095.5 C 1218.25 1111.4 1221.38 1142.57 1194.87 1137.55 C 1189.63 1136.6 1185.01 1133.5 1182.15 1129 C 1176.66 1120.27 1179.35 1098.26 1178.95 1087.29 C 1178.87 1085.06 1181.19 1084.25 1183 1083.17 z" fill="rgb(3,3,3)" transform="translate(0,0)"></path>
<path d="M 1069.83 1052.36 C 1072.54 1053.16 1072.61 1052.99 1074.76 1054.75 C 1075.11 1059.97 1044.53 1149.99 1041.22 1156.65 C 1038.48 1155.9 1038.65 1155.99 1036.43 1154.23 C 1035.08 1146.66 1064.58 1065.91 1069.83 1052.36 z" fill="rgb(3,3,3)" transform="translate(0,0)"></path>
<path d="M 1547.01 1084.08 C 1554.41 1083.23 1562.56 1084.64 1563.87 1093.55 L 1562.64 1095.12 C 1557.08 1095.74 1551.79 1089.17 1546.38 1094.3 C 1546.23 1101.31 1561.51 1110.02 1565.08 1117.69 C 1570.57 1129.51 1562.42 1136.05 1551.96 1138.51 C 1544.85 1137.88 1533.57 1134.44 1536.83 1124.92 L 1538.92 1124.29 C 1543.59 1126.18 1551.14 1132.57 1554.96 1128.69 C 1569.61 1113.83 1514.5 1101.25 1547.01 1084.08 z" fill="rgb(3,3,3)" transform="translate(0,0)"></path>
<path d="M 1100.64 1047.43 C 1103.33 1048.76 1103.28 1048.82 1105.52 1050.87 C 1106.46 1055.29 1082.12 1130.34 1079.14 1139.43 C 1075.15 1137.24 1075.45 1138.21 1073.86 1134.87 C 1075.07 1124.81 1096.17 1057.98 1100.64 1047.43 z" fill="rgb(3,3,3)" transform="translate(0,0)"></path>
<path d="M 813.08 1049.39 L 818.426 1050.31 C 818.891 1050.79 819.355 1051.27 819.819 1051.75 C 820.822 1072.05 820.349 1120.04 820.339 1138.28 C 817.294 1138.1 816.345 1138.28 813.546 1137.06 C 811.684 1132.38 813.034 1060.02 813.08 1049.39 z" fill="rgb(3,3,3)" transform="translate(0,0)"></path>
<path d="M 536.545 1082.86 C 541.634 1083.33 545.535 1084.31 545.992 1090.2 L 544.799 1091.41 C 540.281 1093.05 537.492 1092.57 532.693 1092.39 C 527.982 1095.36 525.889 1099.52 523.03 1104.21 C 522.606 1114.5 524.234 1126.47 522.175 1136.48 C 521.831 1138.16 520.33 1138.34 518.177 1139.49 C 513.696 1136.54 514.158 1126.5 514.624 1121.65 C 515.427 1113.28 512.17 1089.1 517.465 1083.75 L 519.617 1084.05 C 521.867 1086.45 521.823 1087.19 522.578 1090.35 L 522.802 1091.33 C 525.964 1090.94 531.175 1085.16 536.545 1082.86 z" fill="rgb(3,3,3)" transform="translate(0,0)"></path>
<path d="M 1232.99 1083.79 C 1235.69 1083.86 1236.93 1084.03 1239.56 1084.4 C 1242.11 1087.39 1240.76 1130.06 1240.69 1137.28 C 1237.2 1137.06 1235.11 1137.46 1233.15 1135.47 C 1231.98 1125.14 1232.46 1094.39 1232.99 1083.79 z" fill="rgb(3,3,3)" transform="translate(0,0)"></path>
<path d="M 671.997 1084.56 C 675.09 1084.74 675.202 1084.6 678.04 1085.69 C 681.049 1090.23 679.506 1128.42 679.287 1136.81 C 676.619 1137.93 676.337 1137.7 673.376 1137.76 L 672.135 1136.52 C 670.957 1123.87 671.89 1098.17 671.997 1084.56 z" fill="rgb(3,3,3)" transform="translate(0,0)"></path>
<path d="M 556.906 1084.48 C 560.928 1084.79 561.095 1084.13 563.74 1086.15 C 565.132 1097 564.158 1125.93 564.02 1137.95 C 561.641 1138 561.059 1137.82 558.692 1137.37 C 555.46 1132.94 556.857 1093.04 556.906 1084.48 z" fill="rgb(3,3,3)" transform="translate(0,0)"></path>
<path d="M 557.081 1064.65 C 559.558 1062.67 563.177 1063.08 565.136 1065.58 C 567.095 1068.08 566.641 1071.69 564.126 1073.63 C 561.645 1075.54 558.09 1075.09 556.158 1072.63 C 554.226 1070.16 554.637 1066.61 557.081 1064.65 z" fill="rgb(3,3,3)" transform="translate(0,0)"></path>
<path d="M 673.734 1064.54 C 676.178 1063.29 679.171 1064.24 680.455 1066.66 C 681.738 1069.09 680.837 1072.1 678.431 1073.41 C 676.842 1074.29 674.908 1074.23 673.368 1073.28 C 671.829 1072.32 670.924 1070.61 671 1068.8 C 671.075 1066.99 672.12 1065.36 673.734 1064.54 z" fill="rgb(3,3,3)" transform="translate(0,0)"></path>
<path d="M 1233.31 1071.56 C 1234.46 1070.47 1236.14 1070.11 1237.64 1070.65 C 1239.14 1071.18 1240.21 1072.52 1240.41 1074.1 C 1240.61 1075.68 1239.9 1077.24 1238.58 1078.13 C 1236.76 1079.36 1234.3 1078.99 1232.92 1077.27 C 1231.54 1075.56 1231.71 1073.08 1233.31 1071.56 z" fill="rgb(3,3,3)" transform="translate(0,0)"></path>
<metadata><recraft-signature>{"signed_by": "recraft", "signature_b64": "cvMDQ6/PftDW8fW0NzKMnIGzeFHObYkyJx5cXU8+s5Y3CXVATh2deZpo3OcOZo4wfU5ZPo9Y8ISuHOyKaOMXCA==", "signing_algo": "Ed25519", "generation_timestamp": 1764903654, "identifier": "3fc5339d-4d5e-4fa8-b1fa-1f356068b7a9"}</recraft-signature></metadata></svg>