<svg xmlns="http://www.w3.org/2000/svg" height="1024" preserveAspectRatio="none" style="display: block;" version="1.1" viewBox="0 0 2048 2048" width="1024">
<defs>
	<linearGradient gradientUnits="userSpaceOnUse" id="Gradient1" x1="1390.62" x2="1382.41" y1="1872.83" y2="1850.3">
		<stop class="stop0" offset="0" stop-color="rgb(6,6,6)" stop-opacity="1"></stop>
		<stop class="stop1" offset="1" stop-color="rgb(37,31,34)" stop-opacity="1"></stop>
	</linearGradient>
</defs>
<path d="M 0 0 L 2048 0 L 2048 2048 L 0 2048 L 0 0 z" fill="rgb(53,37,43)" transform="translate(0,0)"></path>
<path d="M 119.014 767.431 L 1308.92 767.702 L 1737.79 767.852 C 1798.98 768.017 1860.38 767.91 1921.58 768.077 C 1927.25 768.093 1933.72 768.19 1937.77 772.059 C 1939.17 783.025 1938.13 821.774 1938.12 835.191 L 1938.17 968.609 L 1938.38 1428.48 L 1938.59 1806.06 L 1938.42 1895.23 C 1938.41 1907.03 1938.69 1921.1 1937.93 1933.01 C 1937.76 1935.66 1934.31 1938.01 1932.14 1939.71 C 1919.49 1940.87 1902.49 1940.5 1889.46 1940.5 L 1819.86 1940.37 L 1605.31 1940.38 L 942.1 1940.33 L 378.949 1940.15 L 210.107 1940.5 L 154.551 1940.89 C 143.769 1940.96 133.122 1941.26 122.353 1940.66 C 109.367 1939.93 111.29 1929.84 111.201 1919.85 L 111.122 1309.35 L 110.996 951.357 C 110.997 933.366 109.938 776.022 112.104 771.129 C 115.071 768.383 115.03 768.584 119.014 767.431 z" fill="rgb(255,255,255)" transform="translate(0,0)"></path>
<path d="M 249.765 786.5 L 1919.19 786.838 C 1920.32 799.201 1919.78 817.425 1919.75 830.417 L 1919.44 907.066 L 1919.3 1135.76 L 1919.6 1924.63 C 1884.21 1926.02 1836.35 1924.73 1800.13 1924.72 L 130.31 1924.8 L 130.755 1728.51 L 129.627 1110.14 L 129.847 892.499 L 129.651 827.668 C 129.582 815.363 128.931 800.03 130.031 788.078 C 136.887 785.985 166.858 786.595 175.383 786.579 L 249.765 786.5 z" fill="rgb(53,37,43)" transform="translate(0,0)"></path>
<path d="M 150.596 1351.04 C 193.007 1349.96 241.09 1351.4 284.14 1351.56 L 518.703 1351.64 L 1322.35 1351.73 L 1715.17 1351.73 L 1836.47 1351.61 C 1855.01 1351.63 1886.43 1350.78 1903.56 1353.15 C 1907.07 1363.6 1905.03 1479.76 1905.01 1500.87 L 1904.98 1743.16 L 1905.05 1853.12 C 1905.08 1865.59 1905.94 1897.95 1904.48 1908.22 C 1902.15 1911 1903.61 1909.84 1899.25 1910.86 L 1120.95 1910.36 L 420.268 1910.93 C 396.462 1910.94 153.37 1912.78 145.943 1909.46 C 143.366 1904.01 145.179 1501.06 144.815 1461.82 C 144.649 1443.96 144.049 1379.21 145.046 1356.63 C 145.145 1354.39 148.513 1352.41 150.596 1351.04 z" fill="rgb(255,255,255)" transform="translate(0,0)"></path>
<path d="M 184.484 1370.05 C 279.439 1370.83 374.396 1371.12 469.354 1370.93 L 1005.68 1370.92 L 1564.8 1371.06 C 1663.95 1371.05 1764.64 1371.94 1863.69 1370.72 C 1856.72 1378.29 1845.82 1387.2 1837.72 1394.2 L 1791.93 1433.34 C 1736.16 1480.79 1679.97 1527.72 1623.35 1574.14 L 1389.64 1768.65 C 1340.93 1809.61 1290.77 1853.11 1241.49 1893.1 C 1232.88 1893.63 1187 1895.03 1181.34 1892.83 L 1181.59 1891.2 C 1181.68 1890.62 1181.81 1889.5 1181.95 1888.94 C 1182.12 1888.22 1182.41 1887.53 1182.58 1886.81 C 1183.56 1882.62 1170.9 1839.94 1167.99 1834.96 C 1163.92 1832.88 1149.83 1837.82 1143.59 1838.36 C 1143.44 1837.17 1143.27 1835.99 1143.11 1834.81 C 1140.4 1815.75 1121.88 1825.71 1108.16 1829.14 C 1108.84 1818.38 1110.25 1801.73 1106.76 1791.87 C 1098.66 1768.97 1080.79 1746.34 1068.72 1725.19 C 1051.62 1695.26 1042.04 1669.84 1032.26 1637.14 C 1051.26 1622.15 1042.63 1610.62 1021.47 1608.75 C 1020.16 1600.42 1020.07 1593.92 1021.74 1585.99 C 1041.48 1492.22 1096.66 1537.45 1162.03 1520.25 C 1171.98 1517.64 1179.87 1512.04 1188.05 1506.35 C 1184.66 1554.85 1175.6 1614.19 1169.14 1663.25 L 1157.93 1665.67 C 1159.77 1669.48 1161.52 1672.91 1164.08 1676.28 C 1207.15 1733.15 1284.78 1714.93 1294.93 1643.12 L 1294.73 1627.79 L 1283.94 1630.7 C 1277.06 1617.44 1261.25 1596.71 1252.1 1583.53 C 1233.18 1555.83 1213.94 1528.33 1194.4 1501.06 C 1209.98 1483.35 1215.97 1455.17 1189.35 1443.61 C 1185.65 1442 1178.67 1441.6 1174.47 1441.17 C 1180.74 1445.55 1196.28 1451.63 1195.32 1461.18 C 1190.42 1510.06 1134.31 1492.45 1102.05 1488.63 C 1061.7 1483.86 1034.55 1488.67 1007.46 1520.08 C 1000.93 1513.3 994.377 1507.48 987.406 1501.2 C 1000.59 1487.99 999.09 1480.37 981.052 1474.69 C 976.495 1464.9 963.465 1429.61 952.716 1427.9 C 942.694 1432.3 948.076 1473.2 950.148 1482.46 C 935.013 1496.12 938.463 1502.82 955.769 1508.59 C 953.73 1515.34 952.761 1523.26 951.691 1530.3 C 904.7 1523.13 881.043 1548.1 849.98 1579.12 C 839.653 1589.36 828.717 1599.26 814.464 1603.59 C 805.347 1606.36 786.383 1606.94 784.925 1593.63 C 784.014 1585.3 790.525 1579.08 795.631 1573.21 C 794.58 1573.68 793.536 1574.18 792.501 1574.68 C 760.511 1590.42 777.295 1621.98 805.335 1628.82 C 803.559 1651.19 799.706 1675.14 796.729 1697.54 C 792.754 1727.45 789.278 1758 784.353 1787.7 L 772.775 1791.17 C 784.471 1819.96 826.213 1840.6 856.768 1836.45 C 877.571 1833.62 896.334 1822.47 908.769 1805.55 C 915.543 1796.45 936.008 1756.56 924.421 1748.52 C 918.182 1749.8 913.311 1751.22 907.219 1753.02 C 879.79 1714.15 841.44 1664.53 811.569 1627.45 C 857.839 1625.56 881.243 1582.66 923.136 1570.33 C 950.838 1562.18 987.583 1592.78 993.831 1618.89 C 988.043 1621.03 980.471 1624.1 979.285 1630.75 C 977.036 1643.37 990.62 1646.78 998.847 1648.67 C 1011.26 1679.11 1016.96 1728.76 1016.74 1761.75 C 1016.62 1781.3 1014.16 1804.57 1019.07 1823.63 C 1021.22 1831.94 1029.44 1840.82 1034.13 1849.11 L 1034.73 1850.18 C 1016.98 1856.47 1008.73 1858.95 992.909 1868.88 C 995.894 1876.84 998.575 1884.92 1000.95 1893.09 C 939.712 1893.65 878.473 1893.58 817.239 1892.88 C 806.283 1885.99 794.721 1876.33 784.445 1868.22 C 766.92 1854.38 749.519 1840.38 732.246 1826.22 L 566.642 1688.75 L 334.684 1496.91 C 286.243 1456.92 230.147 1412.91 184.484 1370.05 z" fill="rgb(53,37,43)" transform="translate(0,0)"></path>
<path d="M 234.463 1446.5 C 249.147 1455.23 274.744 1478.21 289.09 1490.07 L 399.577 1581.84 C 524.517 1686.95 650.6 1790.69 777.804 1893.05 L 726.678 1892.9 C 724.431 1883.31 722.338 1875.52 718.084 1866.6 C 704.173 1837.45 664.788 1823.28 634.412 1829.9 C 626.094 1831.71 617.992 1835.71 610.497 1839.58 C 613.906 1817.8 614.069 1804.95 602.285 1785.57 C 560.234 1730.53 504.243 1792.53 534.191 1801.51 C 545.656 1800.72 550.669 1780.51 565.228 1782.5 C 574.025 1783.7 579.392 1786.33 584.943 1793.35 C 590.832 1800.94 593.24 1810.67 591.572 1820.13 C 589.959 1829.72 584.113 1837.95 575.982 1843.2 C 555.546 1856.38 532.179 1846.73 511.201 1840.6 C 500.737 1837.54 492.031 1835.31 481.417 1832.91 C 506.611 1799.09 518.211 1767.41 519.188 1725.06 C 519.552 1709.24 504.562 1706.56 492.53 1700.36 C 458.87 1683.03 426.969 1674.56 388.968 1677.23 C 389.259 1665.8 389.074 1653.13 387.713 1641.88 C 384.73 1617.2 370.912 1573.28 357.026 1552.83 C 332.728 1547.9 310.034 1553.77 286.673 1560.84 C 287.026 1558.32 287.344 1555.79 287.626 1553.25 C 292.936 1504.5 233.127 1472.51 194.36 1500.2 C 189.014 1504.01 183.86 1508.56 178.818 1512.79 C 198.595 1482.22 227.775 1488.21 234.463 1446.5 z" fill="rgb(53,37,43)" transform="translate(0,0)"></path>
<path d="M 1814.84 1446.93 C 1818.32 1451.41 1819.85 1464.41 1822.84 1468.37 C 1838.75 1489.37 1857.67 1490.22 1871.73 1514.42 C 1866.65 1510.37 1861.47 1504.81 1856.36 1500.42 C 1831.56 1479.1 1796.84 1484.35 1776.99 1509.46 C 1764.01 1525.87 1760.08 1541.22 1762.23 1561.98 C 1750.86 1558.21 1707.31 1545.51 1699.35 1556.86 C 1675.92 1590.29 1664.43 1635.23 1663.09 1675.44 C 1624.97 1674.42 1563.45 1689.68 1535.25 1714.72 C 1529.48 1747.51 1543.94 1801.09 1562.33 1828.83 C 1558.41 1833.52 1553.78 1837.56 1548.6 1840.82 C 1527.12 1854.25 1505.54 1846.46 1483.26 1841.45 C 1476.33 1843.62 1473.03 1845.48 1466.6 1848.85 C 1431.8 1821.16 1472.73 1767.28 1505.96 1787.35 C 1507.7 1788.4 1512.56 1799.35 1516.75 1802.93 C 1523.63 1805.43 1527.49 1799.53 1529.18 1793.71 C 1533.31 1779.48 1516.72 1767.86 1504.57 1765.57 C 1488.84 1762.61 1475.63 1766.88 1462.59 1775.24 C 1442.57 1789.44 1434.01 1808.4 1435.92 1832.84 C 1416.46 1826.51 1389.3 1827.38 1370.72 1835.8 C 1342.55 1848.56 1328.24 1865.28 1317.04 1893.09 C 1305.45 1893.64 1291.87 1893.48 1280.13 1893.62 C 1301.82 1871.88 1327.68 1852.02 1351.33 1832 L 1501.71 1706.65 L 1692.13 1547.96 C 1731.57 1515.03 1774.31 1478.26 1814.84 1446.93 z" fill="rgb(53,37,43)" transform="translate(0,0)"></path>
<path d="M 1646.9 1721.38 C 1654.28 1720.23 1664.8 1720.77 1672.22 1721.11 C 1688.91 1772.79 1742.89 1814.69 1795.89 1822.61 C 1777.76 1836.45 1751.73 1845.81 1729.24 1848.75 C 1720.99 1850.03 1712.33 1850.5 1704 1849.99 C 1640.68 1846.13 1586.05 1810.49 1579.71 1743.67 C 1596.79 1730.63 1625.99 1723.99 1646.9 1721.38 z" fill="rgb(53,37,43)" transform="translate(0,0)"></path>
<path d="M 325.857 1602.38 C 326.382 1602.37 327.511 1602.78 328.088 1602.95 C 340.374 1623.72 340.518 1661.66 338.579 1685.27 C 273.788 1716.4 271.199 1745.53 245.044 1806.56 C 244.176 1808.59 241.28 1809.25 239.268 1809.53 C 235.572 1808 234.264 1805.36 231.803 1801.98 C 199.51 1758.34 201.799 1694.28 234.912 1651.83 C 255.753 1625.12 292.491 1606.24 325.857 1602.38 z" fill="rgb(53,37,43)" transform="translate(0,0)"></path>
<path d="M 1729.36 1597.7 C 1744.71 1598.69 1774.99 1614.94 1787.79 1623.61 C 1836.59 1656.64 1853.36 1728.45 1827.85 1780.78 C 1824.21 1788.23 1819.83 1794.69 1814.91 1801.6 C 1812.38 1805.05 1809.6 1807.63 1806.59 1810.65 C 1804.05 1805.62 1801.13 1796.73 1799.16 1791 C 1783 1743.99 1755.18 1703.8 1709 1682.15 C 1707.68 1652.65 1714.75 1623.37 1729.36 1597.7 z" fill="rgb(53,37,43)" transform="translate(0,0)"></path>
<path d="M 382.038 1721.46 C 416.579 1721.41 437.988 1727.06 469.804 1740.9 C 452.512 1809.87 410.003 1847.02 337.751 1849.3 C 307.041 1849.13 276.757 1842.87 251.974 1823.71 C 256.011 1821.92 260.631 1820.4 264.821 1819.05 C 299.301 1807.9 334.636 1790.02 357.294 1760.87 C 366.032 1749.63 371.784 1734.43 379.393 1722.37 C 380.275 1722.07 381.156 1721.76 382.038 1721.46 z" fill="rgb(53,37,43)" transform="translate(0,0)"></path>
<path d="M 810.473 1639.58 C 817.528 1644 891.578 1742.18 900.779 1755.91 C 887.746 1759.39 876.032 1763.11 863.185 1767.29 C 841.307 1773.53 812.186 1782.65 790.423 1786.77 C 796.193 1765.28 799.759 1728.18 802.462 1705.83 C 804.957 1685.2 809.106 1659.64 810.473 1639.58 z" fill="rgb(53,37,43)" transform="translate(0,0)"></path>
<path d="M 1814.51 1508.25 C 1828.93 1507.28 1850.73 1513.04 1854.33 1531.11 C 1856.73 1543.16 1830.77 1552.34 1828.27 1557.15 C 1813.61 1585.32 1860.82 1568.07 1869.11 1561.82 C 1875.81 1556.78 1884.39 1546.6 1889.58 1544.78 C 1892.62 1550.06 1892.13 1639.13 1892.24 1652.96 L 1893.02 1677.58 C 1869.32 1622.34 1836.93 1592.55 1784.06 1567.05 C 1771.31 1541.69 1789.06 1515.54 1814.51 1508.25 z" fill="rgb(53,37,43)" transform="translate(0,0)"></path>
<path d="M 221.348 1509.16 C 238.457 1508.08 260.909 1516.92 265.889 1535.38 C 274.509 1567.33 247.071 1574.03 227.141 1589.2 C 202.76 1607.75 178.828 1633.48 168.408 1663.06 C 166.46 1668.49 164.288 1676.57 161.777 1681.55 L 161.349 1679.25 C 161.841 1640.05 161.999 1600.85 161.822 1561.65 C 167.269 1557.56 168.792 1556.43 172.617 1550.81 C 182.791 1564.9 197.516 1572.49 214.503 1574.92 C 216.565 1575.68 223.375 1573.2 223.945 1571.25 C 229.243 1553.11 185.878 1545.03 198.074 1522.93 C 202.576 1514.77 212.536 1510.97 221.348 1509.16 z" fill="rgb(53,37,43)" transform="translate(0,0)"></path>
<path d="M 1194.83 1514.81 C 1202.82 1523.63 1210.27 1534.39 1216.92 1544.31 C 1236.57 1573.63 1257.64 1602.38 1276.46 1632.21 C 1265.49 1636.07 1251.86 1639.76 1240.56 1643.05 C 1221.51 1648.06 1193.52 1658.03 1175.96 1661.43 C 1177.32 1637.74 1184.34 1600.52 1187.22 1575.71 C 1188.76 1562.49 1192.53 1525.86 1194.83 1514.81 z" fill="rgb(53,37,43)" transform="translate(0,0)"></path>
<path d="M 333.54 1571.4 C 335.334 1571.14 341.122 1571.07 343.232 1570.99 C 346.118 1575.66 348.342 1579.76 350.551 1584.78 C 389.317 1672.76 357.982 1759.41 270.096 1798.63 C 283.788 1751.4 307.153 1717.77 355.165 1701.32 C 366.338 1665.55 362.19 1631.9 350.221 1597.26 C 346.939 1589.35 344.814 1584.53 340.686 1577.08 C 338.65 1577.01 336.613 1576.98 334.576 1577 C 297.47 1577.27 252.027 1601.1 226.956 1627.67 C 191.383 1665.37 188.489 1691.21 188.808 1739.44 C 179.806 1699.83 188.223 1665.83 214.219 1634.28 C 244.166 1598.43 287.04 1575.84 333.54 1571.4 z" fill="rgb(13,9,10)" transform="translate(0,0)"></path>
<path d="M 350.617 1709.06 C 351.645 1712.41 348.926 1717.75 347.566 1721.12 C 337.307 1746.53 299.244 1782.54 274.565 1792.64 C 274.312 1790.32 274.839 1788.33 275.938 1786.27 C 295.141 1750.26 311.936 1723.74 350.617 1709.06 z" fill="rgb(255,255,255)" transform="translate(0,0)"></path>
<path d="M 1891.24 1732.68 C 1892.32 1736.89 1891.76 1773.68 1891.73 1780.44 C 1891.56 1813.2 1891.6 1845.97 1891.87 1878.73 C 1885.32 1871.44 1873.49 1860.53 1866.15 1853.21 C 1857.43 1844.39 1848.29 1835.85 1839.49 1826.93 C 1843.24 1819.99 1854.25 1806.69 1859.24 1799.18 C 1874.18 1776.7 1882.78 1757.78 1891.24 1732.68 z" fill="rgb(53,37,43)" transform="translate(0,0)"></path>
<path d="M 1890.78 1390.94 C 1892.72 1393.43 1891.77 1493.68 1891.81 1504.62 C 1883.22 1490.92 1879.66 1485.96 1867.47 1475.65 C 1846.42 1462.12 1840.41 1458.86 1838.02 1432.01 C 1854.56 1420.62 1875.24 1403.74 1890.78 1390.94 z" fill="rgb(53,37,43)" transform="translate(0,0)"></path>
<path d="M 1572.53 1843.62 C 1580.13 1848.05 1593.22 1863.56 1602.87 1870.09 C 1618.93 1880.96 1634.07 1884.32 1650.06 1893.21 C 1617.77 1892.72 1584.84 1893.01 1552.5 1893 C 1523.19 1892.89 1500.3 1898.56 1475.25 1880.33 C 1519.45 1886.98 1543.85 1877.81 1572.53 1843.62 z" fill="rgb(53,37,43)" transform="translate(0,0)"></path>
<path d="M 160.903 1391.58 C 172.031 1398.66 201.055 1422.72 212.047 1432.36 C 213.829 1433.92 214.204 1441.88 213.217 1445.06 C 208.664 1459.74 199.728 1466.17 187.641 1473.32 C 174.341 1481.37 168.837 1487.27 161.048 1500.57 C 161.241 1464.24 161.193 1427.91 160.903 1391.58 z" fill="rgb(53,37,43)" transform="translate(0,0)"></path>
<path d="M 160.369 1720.86 C 162.523 1723.38 165.447 1739.82 166.734 1744.37 C 175.505 1775.37 190.538 1801.47 210.655 1826.61 C 203.633 1835.11 193.705 1844.13 185.626 1851.89 L 161.291 1875.31 C 162.67 1827.42 162.209 1768.69 160.369 1720.86 z" fill="rgb(53,37,43)" transform="translate(0,0)"></path>
<path d="M 1710.78 1569.14 C 1720.28 1569.3 1731.61 1571.97 1740.7 1574.63 C 1825.46 1599.5 1883.75 1664.67 1857.14 1755.68 C 1857.2 1751.61 1857.85 1746.16 1858.41 1742.02 C 1871.44 1645.57 1803.86 1591.65 1714.44 1573.6 C 1714.06 1574.28 1713.68 1574.96 1713.32 1575.65 C 1690.33 1618.84 1680.69 1663.07 1695.17 1710.52 C 1707.78 1747.92 1741.76 1778.68 1777.37 1793.92 C 1767.11 1771.33 1751.6 1749.28 1735.23 1730.65 C 1729.37 1723.99 1711.12 1714.78 1710.45 1706.09 C 1714.25 1706.69 1720.66 1712.66 1723.98 1715.21 C 1752.28 1737.03 1769.57 1767.12 1783.2 1799.54 C 1771.97 1796.32 1764.88 1792.98 1754.72 1787.1 C 1671.28 1738.81 1664.13 1648.02 1710.78 1569.14 z" fill="rgb(13,9,10)" transform="translate(0,0)"></path>
<path d="M 1823.01 1841.97 C 1831.28 1851.77 1867.4 1885.33 1877.09 1892.95 C 1850.73 1893.02 1824.37 1893.26 1798.02 1893.67 C 1779.05 1894.01 1760.08 1894 1741.11 1893.65 C 1778.07 1882.73 1794.97 1867.19 1823.01 1841.97 z" fill="rgb(53,37,43)" transform="translate(0,0)"></path>
<path d="M 478.055 1854.17 C 498.554 1853.7 503.219 1871.64 520.921 1878.78 C 542.915 1887.65 553.92 1875.16 571.842 1868.09 C 570.423 1869.58 568.98 1871.04 567.512 1872.48 C 548.213 1891.35 534.311 1893.11 509.07 1892.93 L 405.654 1892.93 C 413.689 1889.46 422.41 1885.6 429.879 1881.1 C 446.652 1871 458.378 1858.11 478.055 1854.17 z" fill="rgb(53,37,43)" transform="translate(0,0)"></path>
<path d="M 226.076 1844.69 C 228.909 1846.05 239.201 1856.14 243.451 1858.94 C 267.985 1875.15 285.878 1886.04 314.485 1893.54 C 297.775 1893.78 280.289 1893.46 263.518 1893.4 C 233.611 1893.04 203.701 1893.05 173.795 1893.44 C 188.404 1880.52 213.639 1854.13 226.076 1844.69 z" fill="rgb(53,37,43)" transform="translate(0,0)"></path>
<path d="M 393.601 1694.37 C 426.838 1692.64 474.737 1705.76 499.429 1727.88 C 487.337 1822.75 416.513 1888.17 316.913 1869.81 C 308.753 1868.31 294.196 1863.6 287.634 1858.74 L 288.382 1858.12 C 298.851 1861.86 308.478 1864.75 319.493 1866.65 C 358.703 1873.58 399.054 1864.54 431.564 1841.55 C 471.068 1813.18 486.339 1775.98 494.136 1729.71 C 474.962 1715.13 433.958 1700.41 409.523 1699.41 C 403.574 1699.16 386.518 1700.61 382.299 1698.78 L 382.823 1697.26 C 387.394 1695.11 388.476 1695.15 393.601 1694.37 z" fill="rgb(13,9,10)" transform="translate(0,0)"></path>
<path d="M 1637.79 1693.4 C 1642.93 1692.76 1663.43 1690.77 1666 1696.13 C 1665.62 1696.65 1665.23 1697.18 1664.85 1697.7 C 1652.66 1699.67 1635.9 1698.12 1624.08 1700.67 C 1598.02 1706.29 1578.54 1712.46 1556.74 1726.98 C 1556.85 1736.28 1558.55 1745.5 1560.13 1754.63 C 1575.14 1841.3 1659.21 1883.35 1742.38 1866.53 C 1749.89 1864.65 1754.86 1863.52 1762.48 1862.44 C 1747.4 1869.23 1731.25 1873.33 1714.75 1874.55 C 1675.22 1877.12 1628.63 1862.46 1599.09 1835.86 C 1566.22 1806.26 1553.58 1767.1 1550.98 1724.08 C 1576.42 1706.25 1607.15 1696.79 1637.79 1693.4 z" fill="rgb(13,9,10)" transform="translate(0,0)"></path>
<path d="M 633.255 1869.39 C 655.355 1868.33 669.398 1880.75 686.205 1893.15 C 667.432 1892.91 648.303 1893.12 629.501 1893.13 C 611.472 1893.17 593.444 1893.34 575.417 1893.64 C 592.551 1881.85 612.293 1871.22 633.255 1869.39 z" fill="rgb(53,37,43)" transform="translate(0,0)"></path>
<path d="M 1403.91 1869.21 C 1432.57 1866.67 1443.26 1873.68 1462.18 1893.67 C 1452.37 1893.46 1442.33 1893.53 1432.5 1893.49 L 1373.14 1893.63 C 1380.76 1877.79 1387.88 1873.88 1403.91 1869.21 z" fill="rgb(53,37,43)" transform="translate(0,0)"></path>
<path d="M 1400.08 1845.32 C 1417.89 1843.55 1433.13 1847.92 1448.8 1855.91 C 1433.37 1854.15 1420.14 1848.99 1404.01 1850.13 C 1386.31 1851.38 1376.41 1855.63 1362.42 1866.14 C 1349 1877.24 1345.35 1886.28 1333.89 1897.88 C 1342.61 1869.14 1371.19 1849.46 1400.08 1845.32 z" fill="url(#Gradient1)" transform="translate(0,0)"></path>
<path d="M 644.963 1846.39 C 668.15 1846.13 693.526 1857.96 701.445 1881.06 L 700.881 1881.65 L 697.803 1877.23 C 689.766 1864.09 667.212 1852.34 652.061 1850.69 C 647.779 1850.22 637.542 1850.11 635.167 1848.53 C 637.444 1846.82 641.888 1846.74 644.963 1846.39 z" fill="rgb(13,9,10)" transform="translate(0,0)"></path>
<path d="M 1796.15 805.5 C 1811.55 805.378 1891.64 803.047 1901.19 806.237 C 1903.59 817.014 1902.71 850.864 1902.67 863.761 L 1902.38 969 L 1902.36 1191.87 C 1902.48 1233.86 1902.74 1275.92 1902.72 1317.91 C 1902.72 1322.79 1902.31 1328.02 1901.01 1332.73 C 1890.85 1334.95 1867.18 1334.36 1855.83 1334.38 L 1778.47 1334.44 L 1476.49 1334.47 L 259.5 1334.63 L 195.726 1334.84 C 184.814 1334.87 159.067 1335.81 149.664 1333.1 C 144.024 1327.25 145.893 1289.08 145.899 1279.27 L 145.956 1182.45 C 146.016 1062.96 145.816 943.381 146.387 823.89 C 146.412 818.773 146.522 811.57 149.172 807.265 C 159.682 805.192 183.686 805.852 195.246 805.845 L 272.767 805.825 L 572.876 805.7 L 1796.15 805.5 z" fill="rgb(255,255,255)" transform="translate(0,0)"></path>
<path d="M 169.529 826.276 C 220.455 825.42 274.904 826.752 326.167 826.792 L 677.081 826.901 L 1880.98 825.544 C 1882.45 843.786 1881.29 876.654 1881.26 895.918 L 1881.14 1034.57 L 1881.27 1217.41 C 1881.27 1247.14 1881.28 1277.18 1881.11 1306.93 C 1881.09 1309.89 1879.91 1311.08 1878.13 1313.26 C 1861.8 1314.42 1832.91 1313.38 1815.87 1313.31 L 1697.9 1313.04 L 1310.1 1312.96 L 167.872 1313.9 L 167.803 999.616 L 167.316 890.971 C 167.222 872.079 167.048 852.936 167.29 834.033 C 167.347 829.567 167.358 829.385 169.529 826.276 z" fill="rgb(53,37,43)" transform="translate(0,0)"></path>
<path d="M 368.373 841.5 L 1864.93 841.979 L 1864.91 1297.81 L 1676.37 1298.48 L 183.449 1298.69 C 182.342 1276.39 183.118 1246 183.061 1223 L 182.887 1074.97 L 183.034 935.284 C 183.073 905.378 182.597 871.691 184.2 842.077 C 202.062 840.818 229.921 841.628 248.511 841.608 L 368.373 841.5 z" fill="rgb(255,255,255)" transform="translate(0,0)"></path>
<path d="M 988.846 946.724 C 1034.87 941.934 1076.08 975.341 1080.91 1021.36 C 1085.74 1067.39 1052.37 1108.62 1006.35 1113.49 C 960.274 1118.37 918.976 1084.95 914.139 1038.87 C 909.302 992.788 942.76 951.52 988.846 946.724 z" fill="rgb(53,37,43)" transform="translate(0,0)"></path>
<path d="M 987.347 967.724 C 1022.16 961.965 1055 985.638 1060.54 1020.48 C 1066.09 1055.32 1042.21 1088.02 1007.33 1093.35 C 972.76 1098.63 940.41 1075.01 934.915 1040.47 C 929.42 1005.93 952.842 973.432 987.347 967.724 z" fill="rgb(255,255,255)" transform="translate(0,0)"></path>
<path d="M 1456.56 945.008 L 1479.76 944.907 C 1481.91 951.408 1484.4 957.958 1487.24 964.19 C 1501.63 995.808 1515.4 1027.9 1531.8 1058.52 C 1544.92 1029.5 1563.65 976.772 1578.31 946.274 C 1578.68 945.513 1582.35 945.87 1583.75 945.888 L 1600.97 945.884 C 1576.3 1003.03 1555.68 1059.22 1532.61 1116.74 C 1521.48 1090.66 1511.79 1066.85 1499.99 1040.8 C 1491.02 1057.11 1475.04 1098.89 1468.1 1117 C 1460.77 1097 1451.85 1078.82 1443.59 1059.38 C 1427.42 1021.32 1409.37 983.217 1393.43 945.162 L 1416.19 944.918 C 1420.16 956.199 1427.39 971.574 1432.39 983.028 C 1444.08 1009.7 1455.97 1036.28 1468.06 1062.77 C 1475.18 1046.99 1480.7 1033.01 1488.8 1017.57 C 1479.58 999.533 1464.17 963.74 1456.56 945.008 z" fill="rgb(53,37,43)" transform="translate(0,0)"></path>
<path d="M 314.03 943.482 C 317.9 946.008 330.317 960.414 334.189 964.484 C 350.059 981.161 365.712 999.948 382.496 1015.64 C 402.095 997.132 432.274 963.171 449.884 943.091 C 449.89 999.646 448.439 1055.88 449.501 1112.6 L 428.859 1112.59 L 428.767 1039.75 C 428.767 1025.58 428.604 1011.41 428.276 997.247 C 412.622 1013.27 397.084 1029.8 381.603 1046.03 C 373.111 1034.36 345.814 1007.1 334.384 995.24 L 334.323 1112.42 L 313.495 1112.99 C 315.025 1057.57 313.776 999.223 314.03 943.482 z" fill="rgb(53,37,43)" transform="translate(0,0)"></path>
<path d="M 626.322 942.411 C 630.645 944.13 658.121 979.178 663.034 985.232 C 684.387 1011.54 706.126 1037.53 728.246 1063.19 L 727.856 945.726 L 748.131 945.743 C 747.868 998.399 746.244 1064.3 748.783 1116.1 C 748.725 1116.72 748.313 1117.24 748.041 1117.8 C 740.494 1113.47 659.132 1013.12 647.24 999.26 C 646.837 1036.86 647.853 1074.52 647.219 1112.28 C 640.742 1112.67 632.885 1112.58 626.291 1112.66 C 628.171 1058.69 626.289 997.091 626.322 942.411 z" fill="rgb(53,37,43)" transform="translate(0,0)"></path>
<path d="M 1343.9 943.546 L 1348.59 944.124 C 1351.54 946.244 1415.15 1097.7 1421.32 1112.89 C 1414.24 1113.1 1407.17 1113.19 1400.09 1113.17 C 1394.34 1102.81 1384.65 1078.29 1379.14 1066.04 L 1348.7 1066.25 L 1313.03 1066.25 C 1308.22 1078.83 1298.04 1100.81 1292.19 1112.8 L 1270.79 1112.95 C 1290.72 1071.71 1306.37 1026.6 1326.29 985.079 C 1332.46 972.208 1338.89 956.831 1343.9 943.546 z" fill="rgb(53,37,43)" transform="translate(0,0)"></path>
<path d="M 1346.41 991.87 C 1350.52 996.799 1367.93 1039.62 1371.51 1048.19 L 1347.86 1048.28 L 1322.02 1048.11 C 1329.73 1028.97 1337.07 1010.28 1346.41 991.87 z" fill="rgb(255,255,255)" transform="translate(0,0)"></path>
<path d="M 540.031 941.574 C 541.979 943.686 552.044 968.312 553.814 972.454 C 565.589 999.8 577.151 1027.24 588.499 1054.76 C 596.296 1073.4 604.74 1094.75 614.044 1112.38 L 590.14 1112.94 C 583.587 1096.96 576.809 1081.08 569.806 1065.29 L 539.96 1065.61 L 509.93 1065.09 C 502.543 1080.91 495.421 1096.84 488.568 1112.89 C 481.329 1112.57 473.09 1112.7 465.764 1112.65 C 470.273 1103.41 474.51 1093.96 478.374 1084.44 C 497.767 1036.6 521.907 989.851 540.031 941.574 z" fill="rgb(53,37,43)" transform="translate(0,0)"></path>
<path d="M 539.441 994.687 C 543.064 998.395 557.965 1038.35 560.927 1046 L 540.5 1046.12 L 517.731 1046.09 C 525.288 1029.09 532.526 1011.95 539.441 994.687 z" fill="rgb(255,255,255)" transform="translate(0,0)"></path>
<path d="M 847.301 945.283 C 863.569 943.367 881.328 947.377 895.724 955.045 C 895.124 963.19 895.122 973.28 894.894 981.579 C 877.095 968.677 861.724 961.331 838.947 967.679 C 822.457 972.304 808.446 983.225 799.934 998.087 C 791.585 1012.99 789.958 1031.67 794.74 1047.99 C 799.715 1065.04 811.353 1079.37 827.024 1087.74 C 844.912 1097.24 861.518 1095.33 879.949 1089.79 C 880.149 1076.87 880.234 1064.37 879.466 1051.46 C 870.732 1051.84 861.715 1051.77 852.952 1051.81 L 852.952 1034.26 C 855.084 1032.16 893.491 1032.78 899.064 1032.74 C 898.876 1054.19 900.682 1078.79 899.852 1100.12 C 899.68 1104.55 877.172 1111.4 872.113 1112.25 C 757.851 1131.6 729.582 964.45 847.301 945.283 z" fill="rgb(53,37,43)" transform="translate(0,0)"></path>
<path d="M 1168.25 945.249 L 1189.61 945.224 C 1189.17 994.824 1188.99 1044.43 1189.06 1094.03 L 1264.4 1094 C 1263.23 1098.84 1262.3 1106.51 1261.53 1111.68 L 1261.2 1112.1 C 1258.65 1113.41 1179.02 1112.7 1169.03 1112.69 L 1168.25 945.249 z" fill="rgb(53,37,43)" transform="translate(0,0)"></path>
<path d="M 1024.12 1159.05 C 1028.06 1158.87 1031.12 1158.85 1034.92 1160.2 C 1041.56 1162.52 1046.87 1167.59 1049.47 1174.12 C 1052.05 1180.42 1051.97 1187.5 1049.25 1193.74 C 1045.74 1201.59 1040.4 1205.01 1032.71 1207.91 C 1002.06 1210.53 996.624 1171.58 1024.12 1159.05 z" fill="rgb(13,9,10)" transform="translate(0,0)"></path>
<path d="M 1025.11 1166.01 C 1046.95 1165.84 1052.84 1189.79 1032.67 1200.7 C 1009.47 1202.7 1005.41 1176.5 1025.11 1166.01 z" fill="rgb(255,255,255)" transform="translate(0,0)"></path>
<path d="M 1188.74 1159.82 C 1197.82 1159.74 1205.24 1159.63 1212.76 1165.31 C 1226.07 1175.36 1224.67 1189.68 1215.65 1201.78 C 1206.59 1208.78 1199.48 1207.84 1188.33 1207.92 C 1188.27 1191.89 1188.41 1175.85 1188.74 1159.82 z" fill="rgb(13,9,10)" transform="translate(0,0)"></path>
<path d="M 1194.77 1167.1 C 1213.38 1166.88 1221.58 1181.29 1211.25 1196.85 C 1206.51 1200.05 1202.07 1202.07 1196.71 1199.69 C 1192.17 1193.17 1194.4 1176.14 1194.77 1167.1 z" fill="rgb(255,255,255)" transform="translate(0,0)"></path>
<path d="M 959.851 1159.96 C 979.198 1159.56 973.131 1174 965.01 1183.94 C 967.795 1188.14 968.935 1190.92 973.484 1192.32 L 977.639 1190.08 L 979.388 1191.04 L 979.953 1193.13 C 977.19 1200.64 977.284 1199.23 981.562 1205.81 L 980.994 1207.99 L 977.99 1209.56 L 973.391 1204.86 C 955.842 1216.95 940.391 1200.08 957.945 1181.53 C 952.604 1172.38 951.712 1167.4 959.851 1159.96 z" fill="rgb(13,9,10)" transform="translate(0,0)"></path>
<path d="M 960.086 1187.58 C 963.218 1189.74 967.71 1195.3 968.024 1199.29 C 968.164 1201.07 966.474 1202.24 965.257 1203.67 C 954.993 1201 953.811 1196.06 960.086 1187.58 z" fill="rgb(255,255,255)" transform="translate(0,0)"></path>
<path d="M 962.26 1164.42 C 965.946 1166.14 964.569 1164.9 966.761 1168.02 C 967.101 1171.91 965.879 1173.43 964.113 1176.93 C 962.909 1176.96 963.733 1177.01 961.722 1176.29 C 958.983 1171.83 960.036 1168.73 962.26 1164.42 z" fill="rgb(255,255,255)" transform="translate(0,0)"></path>
<path d="M 891.203 1177.11 C 895.838 1177.49 896.873 1178.22 901.103 1180.11 L 902.485 1180.73 C 904.191 1178.7 904.065 1178.74 906.335 1177.4 L 908.91 1178.17 C 909.92 1183.07 911.255 1205.03 908.564 1208.41 C 905.655 1208.66 907.099 1208.7 903.894 1206.73 L 902.874 1207.43 C 877.205 1214.12 868.603 1185.84 891.203 1177.11 z" fill="rgb(13,9,10)" transform="translate(0,0)"></path>
<path d="M 893.242 1183.25 C 898.528 1182.81 903.213 1186.64 903.829 1191.9 C 904.445 1197.17 900.77 1201.98 895.524 1202.77 C 891.976 1203.3 888.421 1201.85 886.247 1199 C 884.074 1196.15 883.629 1192.33 885.085 1189.06 C 886.541 1185.78 889.668 1183.55 893.242 1183.25 z" fill="rgb(255,255,255)" transform="translate(0,0)"></path>
<path d="M 717.58 1160.17 C 723.131 1160.1 734.599 1161.71 735.046 1168.57 C 733.345 1171.18 733.559 1171.24 730.865 1172.67 C 713.033 1155.36 696.485 1181.04 706.747 1196.04 C 711.676 1203.25 721.452 1204.63 728.255 1199.08 L 728.31 1198.07 L 729.432 1197.12 C 732.711 1198.05 735.342 1199.44 735.346 1203.09 C 733.215 1206 731.971 1206.24 728.678 1207.5 C 715.951 1212.36 701.674 1206.6 697.426 1192.4 C 695.421 1185.62 696.292 1178.32 699.834 1172.2 C 704.298 1164.59 709.409 1162.11 717.58 1160.17 z" fill="rgb(13,9,10)" transform="translate(0,0)"></path>
<path d="M 799.988 1176.99 C 801.509 1177.32 804.885 1178 805.866 1179.02 C 810.996 1184.37 811.239 1203.42 806.889 1208.18 L 804.981 1207.58 C 801.611 1200.04 808.033 1189.74 800.029 1185.03 C 790.4 1185.77 797.912 1203.09 792.809 1208.9 C 787.899 1205.38 788.996 1199.1 789.239 1193.75 C 789.204 1190.09 789.303 1190.22 787.923 1186.58 C 784.747 1184.34 786.444 1184.87 782.716 1184.73 C 777.049 1190.43 780.346 1198.98 777.568 1208.05 L 776.121 1208.68 C 772.73 1206.01 772.478 1181.6 776.078 1177.72 L 778.451 1178.07 L 779.638 1180.68 C 785.909 1179.61 782.787 1177.24 788.964 1178.02 C 790.603 1179.55 791.261 1180.21 793.056 1181.54 C 796.128 1178.92 796.344 1178.86 799.988 1176.99 z" fill="rgb(13,9,10)" transform="translate(0,0)"></path>
<path d="M 1143.36 1159.69 L 1144.32 1161.16 C 1143.76 1174.64 1148.76 1207.99 1129.56 1208.56 C 1125.82 1208.68 1122.21 1207.24 1119.58 1204.57 C 1113.08 1197.88 1114.86 1179.84 1114.96 1170.34 C 1114.77 1166.59 1114.4 1164.9 1115.68 1161.33 L 1117.8 1160.37 C 1122.87 1168.41 1114.6 1209.01 1133.49 1200.77 C 1141.98 1191.76 1135.97 1173.29 1139.13 1161.86 C 1139.55 1160.32 1140.97 1160.47 1143.36 1159.69 z" fill="rgb(13,9,10)" transform="translate(0,0)"></path>
<path d="M 1287.05 1178.12 C 1296.46 1178.34 1300.3 1180.85 1303.52 1190.67 C 1304.27 1192.96 1303.62 1193.24 1302.45 1195 C 1295.68 1197.61 1285.22 1192.88 1282.03 1198.01 L 1283.08 1200.04 C 1288.92 1204.44 1293.03 1202.27 1298.44 1198.76 L 1300.6 1200.5 C 1300.44 1213.84 1266.76 1207.56 1274.79 1190.98 C 1278.94 1182.42 1278.11 1182.28 1287.05 1178.12 z" fill="rgb(13,9,10)" transform="translate(0,0)"></path>
<path d="M 1288.26 1183.57 C 1291.92 1184.12 1294.14 1185.28 1296.08 1188.49 L 1295.47 1189.69 L 1292.25 1190.13 C 1287.75 1190.12 1286.03 1190.79 1282.59 1188.83 C 1283.98 1185.65 1284.81 1185.94 1288.26 1183.57 z" fill="rgb(255,255,255)" transform="translate(0,0)"></path>
<path d="M 1235.9 1178.08 C 1245.22 1177.5 1254.1 1182.59 1253.36 1192.58 C 1248.74 1197.8 1241.55 1194.43 1233.18 1196.13 L 1232.42 1197.71 C 1234.08 1200.75 1233.98 1200.52 1236.99 1202.3 C 1240.81 1202.98 1242.6 1201.79 1246.23 1200.31 C 1248.29 1199.96 1247.24 1199.99 1249.43 1200.86 L 1249.64 1202.9 C 1237.08 1222.36 1209.48 1192.23 1235.9 1178.08 z" fill="rgb(13,9,10)" transform="translate(0,0)"></path>
<path d="M 1236.58 1182.88 C 1240.16 1183.52 1245.81 1184.95 1245.65 1189.37 L 1243.25 1190.17 C 1239.99 1190.21 1235.57 1190.71 1232.99 1189.14 C 1233.34 1185.72 1233.92 1186.12 1236.58 1182.88 z" fill="rgb(255,255,255)" transform="translate(0,0)"></path>
<path d="M 1363.98 1178.09 C 1378.59 1176.89 1380.04 1182.5 1383.79 1195.17 C 1376.88 1195.22 1367.13 1193.78 1362 1197.99 L 1362.53 1199.75 C 1368.09 1203.1 1369.21 1203.48 1375.35 1201.37 L 1376 1200.26 L 1377.94 1200.09 L 1379.04 1201.52 C 1378.48 1205.67 1379.22 1203.85 1376.74 1207.21 C 1360.17 1215.94 1345.37 1192.64 1363.98 1178.09 z" fill="rgb(13,9,10)" transform="translate(0,0)"></path>
<path d="M 1365.22 1183.78 C 1369.65 1183.46 1373.83 1183.78 1375.18 1188.52 L 1373.88 1189.94 C 1370.2 1190.05 1366.23 1190.48 1362.83 1189.32 L 1362.53 1187.61 L 1365.22 1183.78 z" fill="rgb(255,255,255)" transform="translate(0,0)"></path>
<path d="M 1718.99 930.198 C 1724.65 929.794 1730.91 929.305 1734.71 933.976 C 1734.61 937.736 1735.34 936.318 1733.43 938.836 C 1730.77 937.769 1724.91 935.292 1722.29 935.742 C 1708.37 938.137 1704.21 957.822 1715.92 965.867 C 1720.05 968.708 1723.79 968.532 1728.35 967.823 C 1730.53 966.959 1731 966.843 1733.24 966.24 L 1734.81 967.444 L 1734.69 969.552 C 1722.87 985.015 1694.47 963.235 1704.76 943.943 C 1709.55 934.957 1708.96 934.512 1718.99 930.198 z" fill="rgb(13,9,10)" transform="translate(0,0)"></path>
<path d="M 860.06 1176.84 C 875.222 1177.5 875.838 1195.75 872.346 1206.68 C 870.097 1208.14 871.296 1207.95 868.801 1207.72 C 865.859 1203.71 868.857 1193.65 865.56 1185.85 C 862.667 1183.2 863.336 1184.02 858.774 1183.21 C 850.689 1193.73 857.7 1207.62 849.874 1208.95 C 847.394 1206.02 847.572 1183.45 849.186 1180.14 C 857.391 1178.59 852.604 1181.83 860.06 1176.84 z" fill="rgb(13,9,10)" transform="translate(0,0)"></path>
<path d="M 1265.89 1161.82 C 1270.05 1161.93 1270.62 1161.64 1273.62 1163.74 C 1272.96 1168.15 1265.66 1168.49 1264.88 1176.97 C 1267.37 1181.11 1268.53 1176.8 1273.13 1180.74 L 1273.22 1183.44 C 1269.52 1190.28 1264.01 1178.2 1264.77 1203.25 L 1264.67 1206 C 1262.73 1208.45 1263.92 1207.67 1261.1 1208.61 C 1260.89 1208.4 1260.67 1208.19 1260.45 1207.97 C 1256.31 1194.08 1254.81 1170.74 1265.89 1161.82 z" fill="rgb(13,9,10)" transform="translate(0,0)"></path>
<path d="M 1673.21 929.635 C 1675.13 929.983 1675.6 930.129 1677.45 930.683 C 1680 935.877 1678.64 960.051 1678.55 967.593 C 1683.79 967.769 1693.11 966.335 1697.3 968.885 C 1698.46 969.588 1698.33 971.494 1698.65 973.36 C 1689.9 973.437 1681.14 973.422 1672.38 973.315 C 1672.49 963.046 1671.98 938.324 1673.21 929.635 z" fill="rgb(13,9,10)" transform="translate(0,0)"></path>
<path d="M 1311.74 1177.55 C 1313.3 1178.94 1313.31 1178.94 1315.12 1180.2 C 1319.77 1178.56 1321.09 1177.09 1325.17 1179.92 C 1327.79 1185.49 1331.07 1203.2 1326.56 1208 L 1324.47 1207.65 C 1322.43 1204.91 1322.99 1194.52 1322.89 1190.18 C 1321.37 1186.48 1320.52 1185.38 1316.68 1184.94 C 1311.59 1189.75 1314.61 1197.86 1313.36 1206.91 L 1311.37 1207.87 L 1309.89 1206.89 C 1306.45 1199.54 1307.81 1191.41 1308.17 1183.42 C 1308.35 1179.5 1309.31 1179.39 1311.74 1177.55 z" fill="rgb(13,9,10)" transform="translate(0,0)"></path>
<path d="M 1642.04 930.486 C 1644.35 930.69 1644.46 930.772 1646.67 931.527 C 1649.19 936.931 1647.94 960.302 1647.91 967.967 C 1652.7 967.816 1660.59 967.146 1664.96 968.531 C 1666.71 969.087 1666.46 969.864 1667.52 972.133 C 1661.84 973.677 1648.6 973.205 1642.02 973.182 L 1642.04 930.486 z" fill="rgb(13,9,10)" transform="translate(0,0)"></path>
<path d="M 1341.15 1177 C 1345.57 1178.27 1346.72 1178.68 1349.28 1182.29 C 1347.59 1185.35 1345.37 1182.45 1340.52 1185.53 C 1340.79 1190.75 1366.77 1204 1340.1 1209.19 C 1338.5 1208.6 1336.64 1207.75 1335.05 1207.07 C 1333.1 1204.64 1332.94 1204.81 1332.5 1201.8 C 1335.45 1200.47 1338.11 1202.44 1343.58 1201.79 L 1344.91 1200.05 C 1342.6 1193.4 1331.52 1193.02 1333.65 1182.37 C 1336.37 1178.83 1336.88 1178.84 1341.15 1177 z" fill="rgb(13,9,10)" transform="translate(0,0)"></path>
<path d="M 918.128 1154.51 C 920.617 1154.61 920.978 1154.71 923.417 1155.31 C 924.983 1159.65 923.89 1201 923.808 1208.67 C 920.958 1208.56 920.78 1208.82 918.4 1207.4 C 917.243 1199.7 918.061 1164.69 918.128 1154.51 z" fill="rgb(13,9,10)" transform="translate(0,0)"></path>
<path d="M 1104.93 1160.08 C 1107.87 1160.56 1108 1160.57 1110.73 1161.71 C 1111.3 1164.27 1097.97 1201.76 1096.3 1208.11 C 1093.4 1208.14 1093.32 1208.34 1090.7 1207.28 C 1090 1202.15 1102.43 1168.53 1104.93 1160.08 z" fill="rgb(13,9,10)" transform="translate(0,0)"></path>
<path d="M 818.336 1153.28 C 821.168 1153.69 821.808 1153.4 823.806 1155.26 C 824.708 1162.42 823.547 1198.42 823.62 1208.54 C 820.886 1208.43 820.753 1208.69 818.503 1207.27 C 817.2 1195.93 818.219 1165.64 818.336 1153.28 z" fill="rgb(13,9,10)" transform="translate(0,0)"></path>
<path d="M 1091.31 1153.64 C 1092.34 1154.62 1092.92 1154.92 1092.47 1156.4 C 1087.3 1173.56 1081.83 1190.76 1076.24 1207.8 C 1075.47 1208.37 1074.69 1208.94 1073.92 1209.51 C 1073 1208.7 1071.18 1207.65 1071.5 1206.42 C 1074.67 1194.29 1083.06 1161.82 1091.31 1153.64 z" fill="rgb(13,9,10)" transform="translate(0,0)"></path>
<path d="M 1153.6 1158.56 C 1156.99 1159 1157.22 1158.46 1159.5 1160.28 C 1160.71 1171.5 1159.88 1196.07 1159.8 1208.3 L 1154.97 1207.72 C 1152.98 1204.58 1153.69 1165.45 1153.6 1158.56 z" fill="rgb(13,9,10)" transform="translate(0,0)"></path>
<path d="M 1057.38 1159.25 C 1060.21 1159.41 1060.23 1159.2 1062.63 1160.58 C 1064.27 1173.63 1062.6 1195.07 1063.78 1210.06 L 1063.93 1211.88 C 1061.67 1211.31 1061.88 1211.34 1059.77 1210.4 C 1055.64 1203.73 1057.26 1169.17 1057.38 1159.25 z" fill="rgb(13,9,10)" transform="translate(0,0)"></path>
<path d="M 741.452 1177.27 C 746.296 1178.25 744.266 1177.14 747.693 1180.86 L 753.491 1178.23 L 754.406 1178.73 C 751.32 1188.5 746.807 1187.28 747.094 1198.34 C 747.375 1202.52 748.269 1205.08 746.546 1208.31 L 743.712 1208.61 L 742.328 1207.35 C 740.568 1199.61 741.287 1185.44 741.452 1177.27 z" fill="rgb(13,9,10)" transform="translate(0,0)"></path>
<path d="M 760.456 1177.28 C 764.232 1177.97 762.797 1177.1 765.266 1179.3 C 767.161 1187.6 766.148 1200.38 765.795 1209.3 C 763.141 1208.85 763.175 1209.03 761.058 1207.45 C 758.892 1199.85 760.065 1185.64 760.456 1177.28 z" fill="rgb(13,9,10)" transform="translate(0,0)"></path>
<path d="M 833.344 1177.27 C 834.793 1177.57 837.269 1177.71 837.651 1178.62 C 840.138 1184.55 838.944 1202.41 838.798 1209.09 L 834.564 1208.1 C 831.325 1202.91 833.089 1184.07 833.344 1177.27 z" fill="rgb(13,9,10)" transform="translate(0,0)"></path>
<path d="M 762.681 1162.33 C 764.672 1161.59 766.902 1162.44 767.894 1164.32 C 768.887 1166.2 768.335 1168.52 766.603 1169.75 C 765.262 1170.7 763.492 1170.79 762.063 1169.98 C 760.634 1169.16 759.805 1167.6 759.938 1165.96 C 760.07 1164.32 761.14 1162.9 762.681 1162.33 z" fill="rgb(13,9,10)" transform="translate(0,0)"></path>
<path d="M 949.163 197.487 C 1021.74 196.826 1139.15 203.993 1208.23 228.405 C 1207.26 230.545 1203.02 241.235 1200.52 241.253 C 1187.13 241.351 1171.03 236.86 1157.95 234.151 C 1074.3 217.466 988.818 211.842 903.702 217.421 C 795.264 223.35 688.491 246.717 587.489 286.622 C 564.403 295.773 541.481 305.331 518.733 315.292 C 482.36 331.08 475.953 334.417 435.731 337.498 C 406.474 339.739 373.037 342.297 344.117 346.002 C 350.191 372.467 324.209 389.829 316.348 412.728 C 311.362 427.25 323.875 445.058 330.593 458.109 C 320.558 463.133 313.992 465.762 305.833 473.447 C 306.202 480.62 308.975 494.194 305.59 500.011 C 290.224 526.418 295.581 549.7 309.318 577.054 C 315.906 580.452 332.637 589.598 339.632 587.09 C 342.871 576.415 320.42 568.053 312.442 563.726 C 302.312 530.927 312.97 511.53 317.602 478.653 C 321.779 475.97 326.524 474.002 330.979 471.283 C 354.167 457.135 322.455 439.027 325.053 420.215 C 327.145 405.068 342.223 389.646 349.079 375.761 C 353.54 366.727 354.206 364.009 356.554 354.288 C 367.314 352.33 383.313 351.671 394.635 350.841 C 412.62 349.487 430.598 348.032 448.567 346.477 C 456.672 345.791 473.835 344.748 480.883 342.688 C 498.515 337.534 517.617 326.967 534.886 319.548 C 567.69 305.457 600.958 292.473 634.634 280.617 C 816.078 218.314 1011.51 208.979 1198.07 253.705 C 1194.1 259.821 1193.28 267.253 1192.21 274.36 C 1172.05 268.636 1165.76 276.638 1146.5 282.881 C 1117.04 292.124 1087.68 301.674 1058.41 311.529 C 1053.92 313.033 1041.22 316.437 1038.94 319.512 L 1039.91 323.208 L 1043.75 333.903 C 1055.75 328.69 1184.58 284.428 1190.76 284.56 C 1192.84 286.389 1192.81 286.193 1193.51 288.849 C 1190.7 293.094 1169.73 298.659 1163.48 300.728 C 1148.35 305.873 1133.17 310.903 1117.96 315.818 C 1099.46 321.883 1062.39 335.175 1045.29 338.803 C 1049.64 351.607 1054.41 363.681 1058.63 376.711 C 1074.19 377.046 1091.89 378.941 1107.59 380.138 C 1130.43 381.655 1153.25 383.362 1176.05 385.257 C 1158.96 445.228 1142.34 505.332 1126.18 565.562 L 1113.71 610.541 C 1111.99 616.857 1108.04 634.761 1105.09 639.747 C 1100.35 647.759 1093.3 654.201 1088.07 664.101 C 1055.75 664.31 770.822 665.699 764.941 662.727 C 758.299 654.857 761.876 641.044 762.345 631.285 C 762.995 617.739 763.077 606.149 760.414 592.767 C 752.438 552.716 728.757 517.526 694.658 495.054 C 663.316 474.154 624.91 466.673 588.014 474.283 C 529.259 486.057 482.152 535.646 470.279 593.958 C 468.358 603.396 470.479 641.928 458.301 640.497 C 415.306 635.447 328.832 613.476 294.456 589.421 C 290.798 582.774 285.59 565.966 284.13 558.39 C 278.806 530.764 275.677 516.087 290.476 492.001 C 283.661 467.87 285.455 465.015 304.001 448.64 C 302.609 445.058 301.299 441.444 300.073 437.801 C 287.989 400.71 308.905 390.804 324.777 359.351 L 325.266 358.358 C 325.157 349.523 323.52 337.263 322.566 328.233 C 345.9 327.204 375.955 323.13 399.717 321.041 C 413.853 319.799 460.37 316.549 470.588 313.282 C 489.961 307.087 523.781 292.337 544.42 283.788 C 587.489 265.947 623.889 252.709 668.122 239.287 C 762.872 210.535 850.684 200.533 949.163 197.487 z" fill="rgb(255,255,255)" transform="translate(0,0)"></path>
<path d="M 939.972 288.222 C 943.178 293.812 953.986 358.243 956.49 370.101 L 793.721 356.895 C 784.051 355.544 771.439 354.775 761.499 353.906 C 764.051 349.486 765.799 347.771 769.148 344.008 C 793.998 336.953 820.467 327.617 845.205 319.459 C 876.856 309.235 908.445 298.823 939.972 288.222 z" fill="rgb(53,37,43)" transform="translate(0,0)"></path>
<path d="M 1010.25 246.779 C 1044.37 247.78 1145.11 257.481 1172.75 268.422 C 1161.33 269.541 1149.89 273.563 1138.96 277.073 C 1104.54 289.032 1069.41 299.548 1035.35 311.427 C 1027.23 289.783 1018.86 268.232 1010.25 246.779 z" fill="rgb(53,37,43)" transform="translate(0,0)"></path>
<path d="M 921.234 247.409 C 923.823 247.047 929.507 246.945 932.348 246.804 L 935.525 260.108 C 913.752 265.344 886.687 275.552 865.156 282.52 C 843.711 289.46 821.823 295.843 800.574 302.96 L 789.43 306.861 C 792.963 297.844 812.637 266.729 818.938 258.422 C 850.788 252.54 889.062 249.835 921.234 247.409 z" fill="rgb(53,37,43)" transform="translate(0,0)"></path>
<path d="M 758.399 274.097 L 760.221 274.331 C 758.862 278.939 751.503 290.447 748.744 295.351 C 740.432 310.127 732.572 328.241 722.758 341.876 C 704.6 337.796 692.917 333.715 676.373 325.294 C 667.665 319.755 660.389 315.023 654.113 306.787 C 688.41 294.457 723.202 283.551 758.399 274.097 z" fill="rgb(53,37,43)" transform="translate(0,0)"></path>
<path d="M 389.815 387.434 C 403.829 387.057 418.563 388.03 432.595 388.905 C 437.628 389.218 443.309 389.74 445.598 394.659 C 443.193 405.86 405.837 419.259 394.763 423.17 C 368.187 431.268 320.856 441.925 354.75 397.194 C 362.747 386.639 377.734 388.01 389.815 387.434 z" fill="rgb(53,37,43)" transform="translate(0,0)"></path>
<path d="M 935.28 266.118 L 936.166 266.373 C 937.991 270.115 938.872 277.154 939.635 281.507 C 884.894 298.604 830.416 316.529 776.218 335.275 C 774.829 335.672 775.684 335.558 773.633 335.174 C 773.664 330.31 782.339 318.837 785.334 314.47 C 794.778 310.876 814.986 305.529 825.496 302.334 C 847.348 295.497 869.137 288.456 890.858 281.214 C 904.73 276.664 921.958 271.485 935.28 266.118 z" fill="rgb(53,37,43)" transform="translate(0,0)"></path>
<path d="M 1063.02 433.326 C 1074.13 432.44 1102.27 433.206 1110.93 440.574 L 1111.06 442.602 C 1108.41 445.21 1104.13 445.538 1100.32 446.33 C 1090.96 447.73 1054.55 447.028 1049.68 438.279 L 1050.72 436.426 C 1054.79 434.021 1058.3 433.978 1063.02 433.326 z" fill="rgb(53,37,43)" transform="translate(0,0)"></path>
<path d="M 744.558 411.212 C 754.665 410.441 783.176 410.246 789.664 418.688 L 789.244 420.468 C 786.089 423.043 783.148 423.239 779.055 424.134 C 768.659 424.97 739.608 424.948 732.767 416.793 L 733.074 414.849 C 736.452 412.091 740.125 411.994 744.558 411.212 z" fill="rgb(53,37,43)" transform="translate(0,0)"></path>
<path d="M 1283.08 259.547 C 1311.1 261.158 1397.99 311.046 1423.14 327.338 C 1435.02 335.039 1454.3 348.921 1465.92 357.562 C 1495.93 359.149 1523.37 356.347 1556.92 359.844 C 1623.44 366.776 1698.78 385.695 1755.23 423.271 C 1765.85 430.341 1773.24 455.434 1774.1 468.093 C 1812.65 519.259 1813.3 519.497 1785.03 577.58 C 1791.03 591.462 1796.51 608.235 1783.79 620.491 C 1770.56 633.244 1742.58 652.607 1724.57 656.76 C 1715.55 658.839 1689.09 649.082 1682.22 642.461 C 1674.75 635.321 1677.71 619.542 1677.32 608.27 C 1675.99 572.121 1660.3 537.995 1633.72 513.45 C 1604.36 486.216 1569.26 472.173 1529.04 474.015 C 1464.61 477.384 1410.17 522.969 1395.55 585.807 C 1392.34 599.627 1392.08 616.077 1392.39 629.938 C 1392.95 648.959 1390.48 664.212 1367.85 664.357 C 1349.95 664.473 1331.73 664.41 1313.77 664.43 L 1169.95 664.398 L 1164.66 656.099 C 1178.27 612.844 1190.36 567.242 1202.6 523.522 C 1214.77 480.046 1228.37 435.923 1239.83 392.339 C 1280.92 394.704 1323.49 396.651 1364.33 400.355 C 1359.75 396.654 1344.06 382.665 1340.4 380.846 C 1337.32 384.948 1337.45 387.966 1332.72 389.535 C 1313.98 395.748 1284.13 394.902 1266.62 386.711 C 1250.04 373.062 1256.61 353.192 1273.8 343.563 C 1266.68 338.669 1264.84 337.386 1258.59 331.315 C 1260.19 323.65 1261.96 316.021 1263.89 308.434 C 1266.28 307.139 1269.43 305.718 1271.93 304.512 C 1280.65 309.504 1291.45 314.372 1299.72 319.464 C 1340.27 344.431 1377.14 366.28 1419.99 387.223 L 1439.3 385.686 C 1410.32 367.051 1381.84 347.434 1351.5 330.917 C 1336.02 322.525 1320.32 314.547 1304.41 306.992 C 1298.57 304.176 1282.85 297.43 1278.51 293.968 C 1278.78 292.079 1279.46 288.892 1281.91 289.007 C 1292.84 289.739 1304.57 297.306 1314.55 302.069 C 1362.45 324.924 1413.51 353.592 1454.73 387.01 C 1536.48 384.057 1615.27 389.555 1691.23 422.137 C 1724.52 436.416 1742.82 438.919 1747.33 478.649 C 1754.75 486.712 1771.62 511.764 1777.65 521.643 C 1770.5 545.483 1765.02 553.69 1754.87 574.961 C 1756.08 582.411 1760.77 595.283 1763.23 603.04 C 1753 610.604 1736.25 617.626 1724.93 624.103 C 1715.37 629.57 1710 624.197 1704.28 630.491 C 1703.78 633.955 1703.43 632.395 1705.35 635.328 C 1708.27 637.153 1717.61 638.609 1719.88 637.522 C 1733.25 631.151 1764.66 618.141 1772.05 606.4 C 1775.68 600.633 1767.83 582.964 1765.62 575.809 C 1772.92 563.484 1785.78 539.373 1786.72 525.318 C 1787.7 510.597 1762.99 485.186 1757.06 472.643 C 1752.78 463.601 1753.72 447.806 1743.36 437.946 C 1732.44 427.555 1716.86 422.094 1703.4 415.95 C 1622.55 379.049 1545.61 375.3 1458.43 375.177 C 1444.05 366.662 1425.47 352.248 1410.38 342.502 C 1370.56 316.334 1328.15 294.322 1283.83 276.812 C 1284.29 271.782 1283.1 265.282 1283.08 259.547 z" fill="rgb(255,255,255)" transform="translate(0,0)"></path>
<path d="M 1616.24 434.046 C 1640.56 435.488 1663.12 436.473 1687.09 441.782 C 1709.45 446.735 1730.69 452.827 1728.84 481.008 C 1705.59 469.987 1679.09 462.462 1655.56 451.553 C 1642.84 445.657 1628.3 441.14 1616.24 434.046 z" fill="rgb(53,37,43)" transform="translate(0,0)"></path>
<path d="M 616.595 496.884 C 681.732 495.858 735.383 547.803 736.46 612.939 C 737.538 678.076 685.636 731.767 620.5 732.897 C 555.291 734.027 501.527 682.054 500.448 616.844 C 499.369 551.635 551.384 497.912 616.595 496.884 z" fill="rgb(255,255,255)" transform="translate(0,0)"></path>
<path d="M 1522.17 498.454 C 1586.79 490.929 1645.23 537.353 1652.51 602.006 C 1659.8 666.658 1613.16 724.923 1548.48 731.97 C 1484.14 738.979 1426.24 692.636 1419 628.32 C 1411.75 564.005 1457.88 505.939 1522.17 498.454 z" fill="rgb(255,255,255)" transform="translate(0,0)"></path>
<path d="M 1184.45 70.1183 C 1204.64 70.5869 1205.18 86.6582 1206.67 102.816 C 1214.04 85.7746 1213.68 79.2715 1233.82 86.0096 C 1234.57 88.8338 1235.31 91.2594 1236.2 94.0402 C 1240.56 96.3033 1246.93 94.499 1251.34 95.9897 C 1274.37 103.774 1299.55 108.182 1321.99 117.162 C 1332.51 121.375 1330.11 110.058 1339.86 111.793 C 1355.92 114.647 1353.34 125.095 1351.42 137.102 C 1415.06 77.3593 1401.32 215.316 1351.7 249.357 C 1331.23 258.933 1325.13 241.081 1320.96 224.679 C 1318.82 229.398 1316.96 233.383 1312.97 236.82 C 1310.08 239.313 1306.88 241.258 1302.87 240.545 C 1297.42 239.577 1293.86 235.08 1290.72 230.933 C 1288.32 227.751 1231.58 212.851 1223.93 211.124 C 1217.69 209.717 1212.91 205.246 1207.41 203.92 C 1203.95 203.084 1198.83 211.002 1193.37 210.925 C 1189.99 210.877 1186.67 208.704 1184.38 206.339 C 1178.14 199.893 1178.8 190.614 1178.93 182.339 C 1173.52 188.584 1169.13 194.295 1161.21 197.74 C 1152.59 201.49 1143.15 196.043 1140.65 187.234 C 1131.04 153.356 1148.15 83.1728 1184.45 70.1183 z" fill="rgb(255,255,255)" transform="translate(0,0)"></path>
<path d="M 1221.72 219.357 C 1235.62 222.912 1250.87 228.372 1264.86 232.322 C 1268.16 233.252 1276.46 235.73 1277.94 239.222 C 1280.8 245.966 1270.7 260.177 1270.99 264.291 C 1273.25 276.648 1273.72 275.209 1269.93 286.579 C 1265.63 299.486 1257.77 294.212 1254.61 302.786 C 1250.29 314.49 1246.89 327.547 1243.46 339.579 L 1223.29 411.19 L 1192.41 518.103 C 1179.77 563.051 1166.55 612.437 1152.24 656.673 C 1161.79 673.384 1162.14 684.968 1148.27 699.453 C 1141.26 704.317 1134.2 707.049 1125.47 705.991 C 1117.43 705.058 1110.11 700.953 1105.12 694.59 C 1092.48 678.454 1099.53 658.98 1115.35 648.207 C 1124.26 613.739 1134.65 578.994 1144.15 544.588 L 1178.89 415.845 C 1189.74 376.33 1202.66 330.741 1211.6 290.681 L 1201.61 282.504 C 1202.05 279.479 1203.51 268.141 1204.52 265.722 C 1211.36 249.327 1217.46 236.916 1221.72 219.357 z" fill="rgb(255,255,255)" transform="translate(0,0)"></path>
<path d="M 1248.77 70.4288 C 1257.64 71.06 1313.58 86.1362 1318.79 91.7825 C 1320.12 96.84 1318.31 100.134 1316.13 104.751 C 1296.5 100.227 1264.72 89.938 1244.82 83.8189 C 1245.94 78.97 1247.23 75.1305 1248.77 70.4288 z" fill="rgb(255,255,255)" transform="translate(0,0)"></path>
<metadata><recraft-signature>{"signed_by": "recraft", "signature_b64": "sqDYkcNvfHi3zzO0pFsV1b1CGoKRBVQF3qRs2QWl01m09+Wq3U7gzhhs/50/8VuuIj4a7aHdTIxdk0zPiup8DA==", "signing_algo": "Ed25519", "generation_timestamp": 1764903603, "identifier": "7b3ee35f-518c-4dd4-a9c7-650ba2457689"}</recraft-signature></metadata></svg>