<svg xmlns="http://www.w3.org/2000/svg" height="1024" preserveAspectRatio="none" style="display: block;" version="1.1" viewBox="0 0 2048 2048" width="1024">
<defs>
	<linearGradient gradientUnits="userSpaceOnUse" id="Gradient1" x1="1831.53" x2="1843.75" y1="1873.63" y2="1869.98">
		<stop class="stop0" offset="0" stop-color="rgb(95,82,71)" stop-opacity="1"></stop>
		<stop class="stop1" offset="1" stop-color="rgb(135,113,98)" stop-opacity="1"></stop>
	</linearGradient>
</defs>
<path d="M 0 0 L 2048 0 L 2048 2048 L 0 2048 L 0 0 z" fill="rgb(255,255,255)" transform="translate(0,0)"></path>
<path d="M 1046.12 194.413 C 1072.89 154.098 1115.86 112.607 1152.86 81.0109 C 1161.6 73.5525 1177 61.1784 1187.1 58.793 C 1204.6 54.6627 1253.37 91.3365 1235.99 111.017 C 1228.32 119.696 1212.05 128.04 1202.58 135.413 C 1177.48 153.934 1118.94 205.274 1118.79 236.398 C 1118.7 253.116 1152.93 301.479 1163.68 317.813 C 1250.28 295.54 1351.57 298.891 1437.13 323.19 C 1693.56 396.015 1839.11 640.531 1900.48 884.96 C 1936.13 1026.94 1938.2 1169.69 1967.47 1312.57 C 1972.67 1338.22 1978.09 1363.83 1983.73 1389.39 C 1985.17 1395.69 1996.44 1437.02 1995.64 1439.7 C 1992.45 1443.1 1994.31 1442.16 1990.15 1443.1 C 1984.3 1441.45 1975.98 1431.89 1970.46 1427.42 C 1885.66 1358.8 1768.15 1340.92 1666.82 1303.44 C 1455.27 1225.18 1256.04 1095.45 1144.19 893.901 C 1063.09 749.947 1052.76 616.802 1096.92 458.124 C 1106.15 424.971 1125.16 372.221 1142.04 342.129 C 1125.98 317.025 1108.11 293.202 1093.34 267.211 C 1090.72 262.601 1087.65 257.794 1084.54 253.503 C 1075.99 266.191 1065.92 287.069 1059.5 301.446 C 1008.98 414.47 993.363 544.785 998.154 667.725 C 998.886 686.501 1001.09 717.897 1004.54 735.955 C 1004.77 737.146 1005.02 738.332 1005.31 739.511 C 1009.15 741.025 1015.04 742.94 1016.89 746.6 C 1020.93 754.625 1010.76 777.924 1007.36 785.312 C 997.04 807.775 985.127 831.654 972.19 852.634 C 1093.41 918.88 1172.49 1020.26 1193.71 1157.56 C 1195.72 1170.57 1197.01 1184.11 1200.24 1196.83 C 1204.02 1206.19 1211.72 1216 1217.14 1224.48 C 1251.27 1277.86 1293.18 1326.75 1346.23 1362.09 C 1349.86 1364.51 1363.84 1374.69 1366.88 1375.47 C 1378.06 1367.66 1408.78 1376.08 1402.18 1398.36 C 1399.71 1398.5 1400.81 1398.78 1398.84 1397.7 C 1398.5 1392.35 1399.03 1386.39 1394.57 1382.79 L 1393.04 1382.98 C 1360.23 1370.09 1378.53 1392.74 1363.47 1405.98 C 1356.04 1412.52 1347.22 1406.83 1340.88 1402.3 C 1285.04 1365.51 1234.48 1321.01 1201.02 1262.37 C 1198.69 1301.51 1194.65 1341.26 1185.42 1379.46 C 1124.92 1630.01 868.634 1899.06 612.297 1946.34 C 575.341 1952.91 537.732 1955.04 500.27 1952.69 C 268.96 1938.83 164.173 1751.3 182.61 1537.98 C 200.438 1331.71 312.91 1104.66 445.396 948.806 C 390.876 961.414 341.32 969.257 284.938 970.357 C 222.392 971.578 154.004 964.946 93.7859 984.261 C 84.1158 987.363 59.8799 1005.51 53.6187 1004.2 C 52.4831 1003.24 50.996 1002.66 51.372 1001.05 C 58.7049 969.781 77.9386 938.992 89.6055 909.062 C 144.144 769.153 199.134 634.179 305.707 523.897 C 401.445 424.829 529.851 334.617 673.434 333.106 C 739.44 332.442 821.287 347.293 874.819 387.852 C 882.609 382.653 890.424 377.242 898.293 372.183 C 936.816 347.42 967.479 312.757 998.517 279.612 C 1013.02 264.127 1015.55 253.15 1023.04 234.005 C 1004.33 239.362 987.499 245.513 968.287 249.286 C 957.269 260.526 947.915 270.288 935.047 279.735 C 893.902 309.943 840.629 323.638 790.12 324.384 C 753.447 324.925 722.686 316.981 687.773 308.73 C 661.942 302.691 636.254 296.054 610.729 288.825 C 523.286 263.114 448.595 236.578 355.223 235.019 C 341.81 234.821 328.395 235.022 314.995 235.621 C 308.931 235.939 284.21 238.724 280.219 235.615 C 278.391 230.995 281.205 223.271 283.252 218.883 C 305.567 171.045 353.834 136.819 401.775 118.709 C 474.938 91.3142 556.005 94.2226 627.017 126.79 C 653.419 138.803 670.98 150.862 695.274 165.502 C 754.306 201.078 810.6 225.673 880.384 229.503 C 911.696 231.222 935.362 231.579 965.668 220.601 C 988.961 212.163 1022.33 200.187 1046.12 194.413 z" fill="rgb(134,113,101)" transform="translate(0,0)"></path>
<path d="M 757.502 810.416 C 842.678 806.004 936.377 837.577 1007.14 883.479 C 1097.14 941.912 1159.95 1033.99 1181.52 1139.1 C 1214.17 1293.03 1171.34 1453.27 1086.49 1583.32 C 981.082 1744.89 810.627 1895.02 617.851 1935.76 C 598.051 1939.69 578.001 1942.23 557.848 1943.37 C 343.723 1957.25 201.125 1827.3 190.629 1614.2 C 182.288 1444.88 242.983 1292.65 322.047 1146.76 C 421.091 964.011 537.338 824.209 757.502 810.416 z" fill="rgb(255,255,255)" transform="translate(0,0)"></path>
<path d="M 792.577 855.411 C 810.913 853.889 854.886 856.343 874.117 861.149 C 875.26 861.435 875.113 862.485 875.35 863.975 L 874.04 865.584 C 868.192 866.335 858.479 864.892 851.913 864.68 C 841.001 864.433 830.084 864.709 819.199 865.507 C 699.564 874.555 604.434 938.386 529.575 1028.34 C 425.381 1153.55 318.258 1331.98 282.847 1490.54 C 268.488 1554.1 263.956 1619.48 269.409 1684.41 C 270.037 1694.23 278.348 1744.81 276.935 1747.53 L 275.101 1747.71 C 265.951 1737.94 254.504 1652.21 253.113 1633.29 C 249.727 1585.39 252.22 1537.26 260.536 1489.97 C 289.208 1332.69 392.465 1133.71 495.353 1010 C 572.507 917.229 671.169 864.124 792.577 855.411 z" fill="rgb(134,113,101)" transform="translate(0,0)"></path>
<path d="M 792.278 860.535 L 795.741 862.666 C 775.524 864.63 753.871 870.748 734.418 876.542 C 609.594 913.72 520.723 1019.68 450.14 1123.67 C 374.779 1234.7 307.57 1359.01 277.099 1490.58 C 265.42 1541.76 262.079 1592.41 262.176 1644.48 C 262.027 1648.46 262.373 1652.52 260.356 1655.82 C 259.45 1645.91 258.618 1635.99 257.86 1626.07 C 254.779 1576.21 258.389 1526.17 268.596 1477.28 C 300.955 1321.24 403.287 1127.92 505.931 1006.05 C 577.956 920.539 679.89 868.339 792.278 860.535 z" fill="rgb(255,255,255)" transform="translate(0,0)"></path>
<path d="M 262.176 1644.48 C 262.989 1652.13 264.435 1670.8 263.248 1678.02 C 262.256 1670.81 261.029 1663.01 260.356 1655.82 C 262.373 1652.52 262.027 1648.46 262.176 1644.48 z" fill="rgb(198,190,188)" transform="translate(0,0)"></path>
<path d="M 792.278 860.535 C 797.617 859.471 805.105 860.239 810.654 860.651 C 806.585 861.213 799.63 862.376 795.741 862.666 L 792.278 860.535 z" fill="rgb(198,190,188)" transform="translate(0,0)"></path>
<path d="M 1094.82 1006.79 C 1098.24 1010.28 1100.86 1015.63 1103.31 1019.87 C 1125.87 1058.91 1136.24 1112.73 1141.3 1157.45 C 1158.84 1312.23 1106.93 1468.54 1010.6 1589.38 C 918.192 1705.29 766.606 1819.93 625.658 1867.51 C 587.689 1880.32 548.988 1888.08 509.24 1892.59 C 505.111 1893.13 500.401 1894.23 496.577 1892.23 L 496.113 1890.33 C 501.814 1885.98 527.618 1884.43 536.741 1882.04 C 571.678 1872.89 605.34 1859.86 638.204 1844.99 C 819.732 1762.88 1014.66 1577.63 1085.5 1389.05 C 1121.01 1294.5 1143.13 1174.58 1119.36 1074.86 C 1113.75 1051.3 1104.78 1028.81 1094.82 1006.79 z" fill="rgb(134,113,101)" transform="translate(0,0)"></path>
<path d="M 1134.11 1175.25 C 1133.8 1162.57 1133.48 1149.27 1135.13 1136.69 C 1135.75 1142.84 1136.46 1149.02 1136.71 1155.19 C 1150.28 1328.5 1099.72 1477.83 986.459 1609.8 C 892.245 1719.58 735.754 1831.97 595.075 1870.96 L 594.176 1869.38 C 704.258 1829.26 804.181 1757.37 889.256 1677.88 C 1034.74 1541.95 1127.66 1377.2 1134.11 1175.25 z" fill="rgb(255,255,255)" transform="translate(0,0)"></path>
<path d="M 1134.11 1175.25 C 1133.8 1162.57 1133.48 1149.27 1135.13 1136.69 C 1135.75 1142.84 1136.46 1149.02 1136.71 1155.19 C 1134.56 1159.15 1134.93 1169.23 1134.11 1175.25 z" fill="rgb(198,190,188)" transform="translate(0,0)"></path>
<path d="M 594.176 1869.38 L 595.075 1870.96 C 588.172 1873.74 580.551 1874.88 573.239 1876.11 C 579.991 1873.67 587.285 1871.53 594.176 1869.38 z" fill="rgb(198,190,188)" transform="translate(0,0)"></path>
<path d="M 1009.8 937.329 C 1012.72 938.64 1013.6 939.175 1015.01 942.337 C 1050.11 1021.45 1038.07 1107.1 1012.87 1186.35 C 985.427 1272.69 942.977 1342.7 890.258 1415.25 C 874.181 1437.37 859.657 1459.83 842.96 1481.47 C 754.784 1597.22 656.661 1694.6 533.027 1772.67 C 492.76 1798.1 458.677 1816.19 416.718 1838.07 C 411.712 1840.73 409.073 1843.12 404.156 1842.04 C 405.403 1835.22 446.436 1813.75 454.242 1808.84 C 534.291 1758.44 609.253 1701.99 676.274 1635.05 C 808.197 1503.3 984.12 1253.08 1011.49 1066.96 C 1015.74 1038.06 1017.83 1007.1 1014.76 978.018 C 1013.93 970.187 1006.59 945.795 1007.98 940.533 C 1008.29 939.345 1009.2 938.397 1009.8 937.329 z" fill="rgb(134,113,101)" transform="translate(0,0)"></path>
<path d="M 517.486 1773.61 C 584.551 1727.59 646.604 1674.66 702.625 1615.7 C 825.108 1487.4 979.782 1260.5 1013.91 1085.17 C 1019.39 1056.87 1021.8 1028.06 1021.1 999.234 C 1020.8 988.411 1019.45 977.533 1019.11 966.869 C 1026.56 995.753 1032.51 1026.91 1031.36 1057.08 C 1027.83 1149.46 990.756 1246.18 943.844 1324.99 C 925.092 1356.5 904.252 1384.93 883.929 1414.7 C 785.2 1559.3 669.234 1682.54 518.992 1775.11 C 514.418 1778.2 510.477 1780.69 505.741 1783.51 L 504.061 1782.71 L 504.33 1784.16 L 503.131 1783.65 L 503.641 1784.4 L 502.825 1784.04 C 506.818 1780.03 512.626 1776.72 517.486 1773.61 z" fill="rgb(255,255,255)" transform="translate(0,0)"></path>
<path d="M 724.996 833.912 C 683.081 840.893 645.497 848.568 606.646 867.386 C 478.008 929.695 392.231 1061.74 327.312 1184.27 C 301.442 1233.8 278.103 1285.85 258.828 1338.29 C 211.931 1465.88 188.42 1629.15 247.597 1756.96 C 256.266 1775.84 267.054 1793.68 279.753 1810.13 C 284.994 1816.9 297.975 1829.84 300.852 1835.9 L 300.122 1837.01 C 296.882 1836.23 294.377 1834.78 292.036 1832.36 C 234.788 1773.24 211.665 1685.63 208.254 1606.09 C 205.577 1550.53 210.529 1494.86 222.97 1440.64 C 257.34 1285.13 360.707 1084.17 467.778 966.195 C 533.381 893.912 624.847 835.043 725 830.992 L 724.996 833.912 z" fill="rgb(134,113,101)" transform="translate(0,0)"></path>
<path d="M 1167.59 1152.43 C 1197.78 1305.77 1151.29 1456.16 1065.61 1583.94 C 959.128 1738.79 798.769 1879.4 610.401 1918.13 C 556.944 1929.12 496.654 1928.82 443.816 1915.84 C 437.887 1914.38 425.58 1913.68 423.489 1908.12 L 424.817 1906.28 C 432.608 1906.95 445.566 1911.41 454.311 1913.22 C 476.451 1917.65 498.929 1920.19 521.5 1920.8 C 654.798 1924.31 792.955 1852.95 891.958 1768.61 C 1035.9 1646 1154.2 1475.24 1170.55 1282.36 C 1173.97 1242.05 1172.86 1194.98 1165.53 1155.3 L 1167.59 1152.43 z" fill="rgb(134,113,101)" transform="translate(0,0)"></path>
<path d="M 1165.53 1155.3 L 1162.83 1139.76 L 1163.39 1138.19 L 1162.67 1138.03 L 1162.86 1138.91 L 1163.85 1139.23 L 1167.59 1152.43 L 1165.53 1155.3 z" fill="rgb(151,133,126)" transform="translate(0,0)"></path>
<path d="M 725 830.992 C 730.372 831.052 735.938 831.045 741.289 831.216 C 735.87 832.187 730.439 833.086 724.996 833.912 L 725 830.992 z" fill="rgb(117,95,82)" transform="translate(0,0)"></path>
<path d="M 1050.4 201.233 C 1082.06 158.387 1118.84 119.568 1159.92 85.6391 C 1165.97 80.6786 1182.04 67.4067 1189.3 66.8753 C 1201.21 66.0034 1228.51 87.5059 1231.81 99.717 C 1232.46 102.099 1231.16 104.359 1229.44 105.774 C 1216.53 116.039 1201.88 125.29 1188.64 135.128 C 1163.84 153.549 1113.85 201.935 1110.55 232.655 C 1108.4 252.637 1147.54 308.581 1160.34 326.783 C 1190.77 321.506 1211.02 316.492 1242.82 313.754 C 1371.71 302.657 1496.13 336.82 1601.55 412.713 C 1782.11 543.702 1873.21 766.537 1911.78 979.637 C 1920.64 1028.61 1924.44 1080.54 1930.71 1129.91 C 1942.31 1221.32 1954.55 1316.83 1978.9 1405.83 C 1928.6 1345.43 1938.01 1224.89 1889.37 1178.76 L 1892.4 1178.63 C 1894.99 1180.66 1897.97 1183.16 1900.7 1184.89 C 1904.56 1188.37 1908.05 1192.23 1913.03 1193.44 L 1915.25 1192.63 C 1919.67 1180.84 1901.62 1090.79 1898.16 1073.73 C 1886.74 1017.54 1834.72 971.254 1782.04 952.757 C 1744.25 939.489 1701.79 932.702 1661.89 927.404 C 1650.71 925.858 1632.35 923.07 1621.45 922.7 C 1616.4 915.888 1611.27 909.122 1606.58 902.051 C 1639.6 910.243 1671.55 917.215 1704.8 926.232 C 1741.86 936.343 1778.4 948.264 1814.29 961.952 C 1833.08 969.039 1851.47 976.381 1869.01 986.259 C 1874.3 989.235 1885.8 998.032 1890.18 998.123 C 1895.17 992.594 1884.6 949.915 1882.44 941.173 C 1869.7 889.69 1858.71 830.388 1815.63 794.806 C 1791.07 774.274 1742.05 748.967 1711.42 741.995 C 1646.7 727.263 1539.72 719.159 1474.42 724.512 C 1472.93 724.635 1471.44 724.774 1469.94 724.93 C 1481.88 738.876 1494.22 758.591 1505.56 773.684 C 1541.17 821.087 1574.03 871.042 1608.91 918.916 C 1649.44 973.801 1689.37 1029.13 1728.7 1084.88 C 1749.04 1113.19 1766.99 1142.62 1790.39 1168.53 C 1794.98 1173.61 1799.62 1179.9 1803.91 1185.31 L 1912.36 1322.67 L 1910.5 1323.63 C 1876.41 1281.33 1841.92 1239.28 1807.65 1197.13 C 1797.47 1184.93 1785.94 1173.93 1775.9 1161.61 C 1761.79 1144.3 1749.3 1125.77 1735.37 1108.32 L 1561.35 889.976 C 1525.29 843.955 1480.12 793.039 1447.06 745.555 C 1427.8 817.093 1413.03 911.756 1410.81 985.595 C 1411.41 1001.31 1409.98 1018.98 1410.76 1034.23 C 1411.57 1049.86 1414.33 1067.71 1415.59 1083.66 C 1425.67 1132.04 1447.6 1160.78 1489.4 1187.58 C 1513.39 1202.96 1565.85 1231.96 1592.03 1238.17 C 1590.21 1195.37 1583.67 1149.24 1581.21 1106.04 C 1577.8 1046.25 1576.92 985.555 1578.98 925.717 C 1584.14 932.816 1589.6 940.663 1594.95 947.539 C 1581.2 1030.84 1570.58 1159.1 1616.5 1235.1 C 1636.03 1267.43 1709.8 1289.35 1746.68 1295.13 C 1748.94 1295.48 1751.2 1295.79 1753.47 1296.04 C 1754.87 1250.24 1754.53 1220.51 1749.02 1173.87 L 1750.72 1173.15 C 1755.72 1215.02 1759.82 1278.52 1795.58 1306.5 C 1827.03 1331.11 1886.55 1326.45 1917.82 1348.02 C 1931.44 1357.42 1972.41 1409.26 1979.97 1424.22 C 1947.41 1397.64 1918 1377.49 1877.82 1363.25 C 1775.76 1327.09 1670.68 1300.24 1571.95 1255.04 C 1400.7 1175.22 1242.1 1054.22 1150.24 886.102 C 1048.39 704.797 1065.26 523.884 1151.87 339.607 C 1130.37 317.779 1112.05 277.823 1093.65 252.383 C 1092.17 250.335 1088.58 245.244 1085.89 245.276 C 1082.69 245.187 1079.02 247.428 1077.12 249.844 C 1067.81 261.682 1058.29 282.951 1052.06 296.619 C 999.554 411.824 982.696 555.394 989.987 680.885 C 990.959 699.901 992.825 718.861 995.578 737.702 C 979.419 734.784 970.731 734.274 954.264 734.163 C 939.468 613.626 950.439 471.85 985.738 355.577 C 992.666 332.106 1000.82 309.016 1010.17 286.4 C 1016.55 271.274 1023.72 254.384 1030.36 239.504 C 1042.01 213.374 986.089 237.004 974.511 240.135 C 977.77 234.858 981.408 229.227 984.322 223.815 C 997.577 218.257 1011.08 213.309 1024.79 208.988 C 1031.67 206.852 1044.43 203.784 1050.4 201.233 z" fill="rgb(255,255,255)" transform="translate(0,0)"></path>
<path d="M 1292.68 552.925 L 1376.91 660.678 C 1394.23 682.553 1411.14 702.728 1427.64 725.319 C 1423.65 738.854 1421.06 763.354 1418.98 777.557 C 1409.98 839.051 1407.78 896.434 1408.15 958.346 C 1409.38 966.519 1406.35 980.683 1410.81 985.595 C 1411.41 1001.31 1409.98 1018.98 1410.76 1034.23 C 1411.57 1049.86 1414.33 1067.71 1415.59 1083.66 C 1413.59 1086.85 1413.76 1087.76 1413.45 1091.45 C 1415 1101.86 1416.84 1129.95 1417.07 1140.33 C 1367.7 1110.32 1271.35 1036.09 1252.79 982.062 C 1213.15 866.598 1237.38 722.742 1273.74 609.153 C 1279.6 590.822 1285.48 570.392 1292.68 552.925 z" fill="rgb(134,113,101)" transform="translate(0,0)"></path>
<path d="M 1408.15 958.346 C 1409.38 966.519 1406.35 980.683 1410.81 985.595 C 1411.41 1001.31 1409.98 1018.98 1410.76 1034.23 C 1411.57 1049.86 1414.33 1067.71 1415.59 1083.66 C 1413.59 1086.85 1413.76 1087.76 1413.45 1091.45 C 1409.9 1054.76 1406.1 994.092 1408.15 958.346 z" fill="rgb(198,190,188)" transform="translate(0,0)"></path>
<path d="M 1294.9 568.541 C 1304.35 578.439 1320.49 601.759 1329.9 613.334 C 1359.92 650.26 1388.47 688.79 1419.25 725.144 C 1412.08 778.623 1403.68 827.788 1400.97 882.382 C 1398.6 930.197 1399.02 977.407 1400.99 1025.24 C 1402.15 1053.59 1403.83 1101.01 1409.72 1128.13 C 1402.34 1123.25 1394.94 1118.06 1387.62 1113.05 C 1343.37 1080.99 1286.18 1037.81 1261.88 987.768 C 1252.12 967.681 1247.07 938.373 1244.48 915.827 C 1231.34 801.588 1256 676.098 1294.9 568.541 z" fill="rgb(255,255,255)" transform="translate(0,0)"></path>
<path d="M 1437.66 511.429 C 1526.57 505.536 1655.66 519.889 1724.09 581.489 C 1772.4 624.033 1798.56 685.773 1822.52 744.06 C 1825.08 750.295 1839.02 777.954 1832.49 781.953 C 1829.32 781.247 1822.23 776.468 1818.66 774.589 C 1798.01 763.712 1777 757.222 1754.75 750.394 C 1746.01 747.873 1737.25 745.413 1728.5 742.888 C 1638.92 717.006 1547.46 706.234 1454.87 698.441 C 1412.21 648.455 1373.14 594.075 1332.44 542.391 C 1330.03 539.334 1322.07 529.807 1323.14 526.244 C 1338.16 518.674 1418.94 512.486 1437.66 511.429 z" fill="rgb(134,113,101)" transform="translate(0,0)"></path>
<path d="M 1431.23 519.431 C 1443.11 518.575 1460.09 518.9 1472.18 518.863 C 1534.74 518.669 1608.87 525.782 1666.68 551.119 C 1758.07 591.177 1791.25 682.587 1824.91 767.722 C 1800.76 753.24 1780.84 747.753 1754.25 739.643 C 1650.26 708.977 1564.78 700.086 1458.05 690.794 C 1446.56 677.889 1436.38 662.947 1425.33 649.63 C 1393.17 610.849 1363.75 569.424 1332.56 530.148 C 1365.09 523.556 1398.15 521.013 1431.23 519.431 z" fill="rgb(255,255,255)" transform="translate(0,0)"></path>
<path d="M 1157.9 353.534 C 1159.47 354.277 1160.77 355.104 1161.73 356.638 C 1172.41 373.725 1183.09 390.562 1194.35 407.268 C 1213.84 435.658 1232.65 464.51 1250.76 493.8 C 1257.46 504.604 1268.59 521.583 1273.66 532.822 C 1271.64 546.406 1265.29 569.704 1262 584.254 C 1255.64 611.993 1250.33 639.963 1246.08 668.104 C 1237.32 726.459 1231.74 785.248 1229.36 844.209 C 1227.98 886.006 1228.95 929.125 1228.85 971.106 L 1223.18 963.026 C 1210.93 944.705 1197.09 927.227 1184.59 908.166 C 1152.8 860.087 1129.08 807.144 1114.34 751.424 C 1085.82 641.16 1099.63 524.116 1134.7 417.203 C 1138.82 404.664 1151.6 364.228 1157.9 353.534 z" fill="rgb(134,113,101)" transform="translate(0,0)"></path>
<path d="M 1158.97 365.544 C 1162.94 369.282 1181.29 400.637 1185.38 406.941 L 1236.66 484.686 C 1244.89 497.26 1261.25 522.028 1267.02 535.241 C 1240.45 630.191 1221.9 757.835 1220.1 857.612 C 1219.85 877.523 1219.96 897.437 1220.43 917.344 C 1220.55 922.91 1222.47 944.063 1219.76 947.296 L 1217.18 945.013 C 1192.25 912.668 1164.5 865.629 1147.74 828.428 C 1077.85 673.342 1100.98 519.86 1158.97 365.544 z" fill="rgb(255,255,255)" transform="translate(0,0)"></path>
<path d="M 1254.11 327.431 C 1413.32 319.895 1560.07 383.713 1668.9 498.636 C 1673.94 503.965 1690.54 517.789 1692.65 523.51 L 1691.74 524.174 C 1681.47 523.227 1671.86 519.918 1661.75 517.745 C 1649.77 515.17 1637.86 513.26 1625.76 511.384 C 1529.21 499.545 1428.64 498.881 1331.42 503.069 C 1322.22 503.466 1313.15 503.92 1303.93 503.605 C 1271.05 462.201 1236.65 421.841 1204.85 379.44 C 1194.55 365.7 1181.29 351.06 1171.86 337.331 C 1194.61 331.35 1230.76 328.72 1254.11 327.431 z" fill="rgb(134,113,101)" transform="translate(0,0)"></path>
<path d="M 1247.97 333.423 C 1258.59 332.345 1277.84 332.717 1288.81 333.033 C 1445.86 337.548 1566.58 398.437 1673.82 511.755 C 1653.91 506.881 1633.68 503.421 1613.29 501.401 C 1603.61 499.452 1566.73 497.737 1556.16 497.057 C 1515.86 494.242 1475.48 492.991 1435.09 493.308 C 1391.85 493.805 1349.53 496.315 1306.59 497.31 C 1283.12 469.283 1260.08 439.216 1237.35 410.504 C 1219.6 388.084 1201.66 362.771 1182.54 341.63 C 1200.91 336.761 1229.02 334.825 1247.97 333.423 z" fill="rgb(255,255,255)" transform="translate(0,0)"></path>
<path d="M 239.949 837.028 C 299.889 792.946 360.338 749.56 421.283 706.877 L 712.606 507.395 C 761.83 473.249 813.394 440.306 862.563 405.919 C 883.23 391.466 908.929 376.047 927.743 360.607 C 952.3 340.454 976.508 314.816 999.154 292.29 C 994.822 304.054 989.978 316.601 986.053 328.432 L 985.1 329.199 C 963.369 346.964 949.492 363.354 924.486 381.96 C 881.948 413.399 839.076 444.383 795.877 474.907 C 770.518 492.691 731.172 518.767 708.09 538.028 C 702.755 610.373 688.046 690.767 669.685 760.614 C 665.567 776.28 659.735 798.121 654.042 813.09 L 653.794 811.026 L 653.043 814.67 C 651.937 816.389 659.344 790.64 659.511 790.02 C 678.429 719.592 690.131 648.488 689.386 575.368 C 689.269 563.868 689.778 556.92 694.148 546.154 C 664.677 565.898 635.035 585.387 605.225 604.617 C 589.43 614.832 562.79 630.234 550.021 641.993 L 533.093 724.543 C 522.511 777.264 512.975 829.783 494.991 880.528 C 492.652 887.129 488.227 895.176 487.578 901.796 L 488.431 902.315 C 515.587 886.144 544.187 685.212 556.467 645.027 C 566.378 636.641 590.354 622.337 601.956 614.741 C 629.141 596.685 656.486 578.871 683.988 561.302 C 683.317 593.592 681.9 632.106 677.956 663.767 C 671.455 715.965 657.291 771.072 643.46 822.052 C 628.938 826.428 614.049 831.391 600.21 837.513 C 558.278 856.064 488.25 899.806 459.91 935.442 C 446.845 938.449 434.271 942.324 421.066 945.269 C 390.649 951.878 359.833 956.501 328.816 959.106 C 253.716 965.166 135.821 951.723 73.0146 983.553 C 79.8783 976.251 102.453 951.523 109.32 947.034 L 108.815 950.761 C 111.882 952.556 130.083 951.167 135.549 951.014 C 189.756 949.501 209.903 947.249 231.653 894.782 C 238.618 877.671 244.135 860.046 251.965 843.284 C 254.052 838.818 256.518 834.212 257.477 829.409 C 251.115 832.175 246.833 834.645 241.26 838.904 C 230.292 847.055 219.273 855.136 208.203 863.148 L 206.954 862.072 C 217.977 853.998 229.063 845.339 239.949 837.028 z" fill="rgb(255,255,255)" transform="translate(0,0)"></path>
<path d="M 261.102 827.333 C 278.986 814.56 297.946 800.452 316.444 788.731 C 384.522 745.595 451.328 700.623 519.695 657.931 C 524.035 655.221 528.743 652.459 533.275 650.116 C 532.83 666.567 530.255 691.922 527.634 709.097 C 518.631 768.099 516.614 853.861 474.41 899.439 C 450.593 925.16 387.488 935.43 353.093 937.206 C 355.782 908.894 362.141 889.965 368.855 862.649 C 379.504 819.319 390.594 780.366 406.775 738.673 C 405.119 739.663 400.455 742.424 399.608 743.967 C 368.016 801.541 380.773 895.133 320.503 934.089 C 299.261 947.82 251.321 946.461 225.001 944.994 C 225.269 927.592 228.98 912.21 233.521 895.451 L 231.653 894.782 C 238.618 877.671 244.135 860.046 251.965 843.284 C 254.052 838.818 256.518 834.212 257.477 829.409 L 261.102 827.333 z" fill="rgb(117,95,82)" transform="translate(0,0)"></path>
<path d="M 257.477 829.409 L 261.102 827.333 C 253.071 845.453 244.95 863.203 238.501 881.965 C 237.057 886.167 235.291 891.471 233.521 895.451 L 231.653 894.782 C 238.618 877.671 244.135 860.046 251.965 843.284 C 254.052 838.818 256.518 834.212 257.477 829.409 z" fill="rgb(198,190,188)" transform="translate(0,0)"></path>
<path d="M 525.936 662.184 C 528.125 664.938 518.772 734.267 517.294 742.399 C 508.966 788.19 505.819 847.086 478.621 886.114 C 455.346 919.513 398.494 926.439 361.129 931.142 L 359.84 929.527 C 359.322 915.641 370.872 879.037 375.247 863.545 C 386.941 822.142 397.617 773.144 415.897 734.119 C 428.733 724.58 445.002 714.469 458.483 705.658 C 480.816 690.933 503.301 676.441 525.936 662.184 z" fill="rgb(255,255,255)" transform="translate(0,0)"></path>
<path d="M 387.868 750.974 C 387.907 754.304 378.401 786.34 376.849 791.612 C 364.548 833.406 363.185 885.724 331.592 918.275 C 307.006 943.606 263.964 940.594 231.122 940.184 C 229.494 923.983 255.363 845.21 267.346 833.664 C 291.573 810.32 359.873 768.99 387.868 750.974 z" fill="rgb(255,255,255)" transform="translate(0,0)"></path>
<path d="M 1450.15 763.687 C 1458.44 770.883 1483.15 805.588 1491.34 816.138 C 1517.44 849.733 1545.12 882.087 1571.29 915.416 C 1571.19 935.253 1570.16 955.462 1569.94 975.408 C 1569.45 1013.82 1570.27 1052.24 1572.38 1090.6 C 1573.99 1117.7 1576.23 1144.76 1579.09 1171.75 C 1581.15 1190.87 1584.15 1212.11 1585.35 1231.11 L 1562.69 1220.96 C 1517.13 1198.68 1463.04 1172.73 1437.13 1127.11 C 1397.81 1057.87 1429.01 838.832 1450.15 763.687 z" fill="rgb(255,255,255)" transform="translate(0,0)"></path>
<path d="M 1485.71 730.952 C 1539.84 730.47 1593.94 733.371 1647.71 739.636 C 1668.17 742.178 1695.97 745.764 1715.57 751.746 C 1753.91 763.449 1809.28 787.722 1832.12 821.45 C 1862.8 866.748 1875.28 934.483 1885.88 987.663 C 1883.16 986.577 1866.44 975.897 1862.5 973.557 C 1847.64 964.722 1837.81 960.908 1822.39 954.639 C 1776.46 935.971 1732.11 923.055 1683.96 911.42 C 1656.16 904.703 1626.77 899.412 1599.35 892.262 C 1591.78 879.111 1578.73 862.641 1569.84 849.492 C 1543.49 810.482 1510.83 770.127 1485.71 730.952 z" fill="rgb(255,255,255)" transform="translate(0,0)"></path>
<path d="M 478.837 109.41 C 497.797 107.326 522.461 109.001 541.055 111.608 C 577.463 116.598 612.67 128.119 644.985 145.616 C 685.424 167.037 720.997 194.568 764.994 211.692 C 826.62 235.677 911.638 251.681 974.477 226.323 C 944.991 263.728 917.84 287.075 871.627 301.662 C 822.07 317.304 776.813 318.827 726.263 308.291 C 665.201 295.871 607.215 252.933 572.531 201.916 C 552.314 169.716 538.78 134.517 493.804 134.462 C 420.974 134.373 346.679 169.546 293.704 217.289 C 328.425 151.419 408.096 117.234 478.837 109.41 z" fill="rgb(255,255,255)" transform="translate(0,0)"></path>
<path d="M 864.344 433.881 L 865.514 434.399 C 868.393 443.737 867.848 470.12 867.107 480.968 C 861.786 558.897 839.344 637.562 798.783 704.66 C 775.972 742.396 742.935 782.975 705.057 806.121 C 701.095 808.414 671.104 813.585 663.291 815.489 L 661.54 815.603 L 660.607 814.465 C 661.071 809.789 673.287 774.147 675.287 766.185 C 681.27 742.35 687.406 718.388 692.272 694.235 C 698.424 664.059 703.373 633.651 707.107 603.082 C 709.172 585.721 711.27 556.649 714.692 540.422 L 864.344 433.881 z" fill="rgb(255,255,255)" transform="translate(0,0)"></path>
<path d="M 978.619 345.859 C 979.002 349.009 976.116 358.031 975.078 361.566 C 962.996 402.707 954.689 444.342 948.572 486.818 C 936.705 569.291 935.635 652.958 945.389 735.707 C 942.63 736.422 932.381 738.879 931.878 742.738 C 930.429 753.862 931.735 765.943 932.102 777.183 C 932.633 795.759 930.7 814.324 926.352 832.393 C 880.904 813.213 835.933 804.832 787.11 801.204 C 775.942 800.959 764.397 801.158 753.2 801.204 C 779.627 776.523 801.151 753.95 821.229 723.607 C 878.346 637.287 902.74 521.855 883.005 420.473 C 923.021 394.973 944.769 378.296 978.619 345.859 z" fill="rgb(255,255,255)" transform="translate(0,0)"></path>
<path d="M 1627.69 930.038 C 1650.09 932.137 1672.65 936.466 1694.55 939.672 C 1767.07 950.293 1856.29 977.411 1885.4 1052.38 C 1893.63 1073.56 1911.69 1162.98 1908.66 1185.02 L 1907.39 1185.54 C 1903.49 1182.96 1904.89 1180.64 1899.99 1177.28 C 1900.63 1180.28 1901.62 1182.4 1900.7 1184.89 C 1897.97 1183.16 1894.99 1180.66 1892.4 1178.63 L 1889.37 1178.76 C 1886.46 1176.9 1885.3 1175.82 1882.78 1173.58 L 1883.15 1172.6 L 1886.05 1172.98 C 1882.02 1167.27 1845.18 1151.01 1836.76 1150.37 C 1831.42 1150.67 1790.53 1139.21 1780.84 1137.18 C 1782.08 1139.4 1783.01 1140.43 1783.34 1142.82 L 1790.84 1154.81 C 1786.91 1154.4 1786.71 1155.11 1784.76 1152.9 C 1779.92 1148.62 1778.98 1147.77 1775.2 1142.23 L 1771.48 1137.05 L 1769.17 1137.39 C 1769.36 1137.04 1769.62 1136.72 1769.75 1136.35 C 1771.04 1132.45 1753.71 1110.12 1750.95 1104.23 L 1752.24 1103.8 C 1742.83 1087.92 1730.85 1073.95 1720.21 1058.92 C 1708.93 1042.97 1697.89 1026.84 1686.45 1010.99 C 1667.21 984.318 1646.18 957.151 1627.69 930.038 z" fill="rgb(255,255,255)" transform="translate(0,0)"></path>
<path d="M 1771.48 1137.05 L 1769.17 1137.39 C 1769.36 1137.04 1769.62 1136.72 1769.75 1136.35 C 1771.04 1132.45 1753.71 1110.12 1750.95 1104.23 L 1752.24 1103.8 C 1756.93 1110.31 1760.12 1115.35 1764.25 1122.26 C 1811.22 1130.07 1862.55 1147.15 1899.99 1177.28 C 1900.63 1180.28 1901.62 1182.4 1900.7 1184.89 C 1897.97 1183.16 1894.99 1180.66 1892.4 1178.63 L 1889.37 1178.76 C 1886.46 1176.9 1885.3 1175.82 1882.78 1173.58 L 1883.15 1172.6 L 1886.05 1172.98 C 1882.02 1167.27 1845.18 1151.01 1836.76 1150.37 C 1831.42 1150.67 1790.53 1139.21 1780.84 1137.18 C 1782.08 1139.4 1783.01 1140.43 1783.34 1142.82 L 1790.84 1154.81 C 1786.91 1154.4 1786.71 1155.11 1784.76 1152.9 C 1779.92 1148.62 1778.98 1147.77 1775.2 1142.23 L 1771.48 1137.05 z" fill="rgb(117,95,82)" transform="translate(0,0)"></path>
<path d="M 1771.48 1137.05 L 1771.14 1135.94 C 1772.99 1133.4 1772.52 1134.16 1775.34 1132.28 L 1776.35 1133.66 C 1777.71 1136.12 1778.18 1135.93 1780.84 1137.18 C 1782.08 1139.4 1783.01 1140.43 1783.34 1142.82 L 1790.84 1154.81 C 1786.91 1154.4 1786.71 1155.11 1784.76 1152.9 C 1779.92 1148.62 1778.98 1147.77 1775.2 1142.23 L 1771.48 1137.05 z" fill="rgb(151,133,126)" transform="translate(0,0)"></path>
<path d="M 1775.2 1142.23 C 1780.03 1143.34 1784.63 1147.8 1784.76 1152.9 C 1779.92 1148.62 1778.98 1147.77 1775.2 1142.23 z" fill="rgb(198,190,188)" transform="translate(0,0)"></path>
<path d="M 1776.35 1133.66 C 1785.5 1133.62 1826.95 1146.54 1836.76 1150.37 C 1831.42 1150.67 1790.53 1139.21 1780.84 1137.18 C 1778.18 1135.93 1777.71 1136.12 1776.35 1133.66 z" fill="rgb(198,190,188)" transform="translate(0,0)"></path>
<path d="M 1889.37 1178.76 C 1886.46 1176.9 1885.3 1175.82 1882.78 1173.58 L 1883.15 1172.6 L 1886.05 1172.98 C 1888.79 1175.92 1889.16 1176.26 1892.4 1178.63 L 1889.37 1178.76 z" fill="rgb(198,190,188)" transform="translate(0,0)"></path>
<path d="M 1600.18 955.436 C 1600.56 955.716 1600.96 955.968 1601.31 956.277 C 1608.24 962.325 1614.37 972.373 1620.13 979.627 C 1632.28 994.817 1644.53 1009.93 1656.89 1024.95 C 1672.78 1044.28 1688.96 1063.36 1704.69 1082.83 C 1712.59 1092.6 1721.78 1102.58 1727.79 1113.64 C 1743.75 1142.98 1748.6 1246.91 1748.51 1282.7 C 1748.51 1285.66 1748.75 1287.2 1746.59 1289.33 L 1742.15 1288.74 C 1704.42 1278.68 1649.95 1267.66 1625.06 1235.17 C 1579.17 1175.27 1590.36 1027.25 1600.18 955.436 z" fill="rgb(255,255,255)" transform="translate(0,0)"></path>
<path d="M 487.104 440.373 C 553.919 434.497 654.895 469.008 713.981 498.943 C 705.83 505.503 690.572 514.526 681.109 521.24 C 653.598 540.761 625.426 559.659 597.009 577.849 C 591.03 576.356 582.103 573.091 576.022 571.057 C 530.701 555.199 480.853 543.781 433.46 536.014 C 403.044 531.028 372.45 529.935 341.704 528.428 C 381.564 491.435 431.161 447.15 487.104 440.373 z" fill="rgb(255,255,255)" transform="translate(0,0)"></path>
<path d="M 373.267 547.423 C 422.211 542.592 527.568 573.187 572.114 594.924 C 534.442 623.059 490.183 651.383 450.955 677.624 L 442.751 674.557 C 397.606 661.345 349.022 652.198 301.843 652.049 C 281.562 651.986 261.555 654.21 241.338 655.199 C 264.724 616.921 294.293 568.924 338.498 553.187 C 349.486 549.275 361.723 548.272 373.267 547.423 z" fill="rgb(255,255,255)" transform="translate(0,0)"></path>
<path d="M 678.703 360.454 C 734.201 357.835 810.356 373.7 858.77 400.928 C 819.223 426.616 778.922 454.673 739.672 481.174 C 720.497 473.051 701.937 465.329 682.262 458.489 C 617.661 435.367 546.808 423.591 478.368 420.905 C 542.603 382.389 604.139 363.35 678.703 360.454 z" fill="rgb(255,255,255)" transform="translate(0,0)"></path>
<path d="M 67.9948 978.838 C 98.0797 917.781 121.84 848.302 148.782 785.946 C 199.832 667.792 268.647 561.887 366.732 477.482 C 464.651 393.219 576.393 332.839 709.005 342.29 C 757.386 345.738 806.18 357.122 848.936 380.212 C 854.994 383.483 865.485 388.494 869.75 393.37 L 868.233 395.431 C 861.313 396.774 849.978 389.305 843.056 386.215 C 830.243 380.576 817.084 375.756 803.66 371.784 C 770.401 362.088 736.073 356.535 701.453 355.251 C 630.928 352.435 559.839 369.074 498.285 403.036 C 489.812 407.711 470.953 417.009 464.286 423.18 L 464.402 424.782 C 470.273 427.787 495.697 427.85 503.563 428.356 C 520.97 429.632 538.318 431.615 555.564 434.298 C 627.711 445.372 668.249 458.933 734.622 484.953 C 730.104 488.172 724.344 491.708 719.6 494.776 C 654.552 463.185 582.781 435.66 508.855 432.712 C 443.425 430.103 384.618 480.852 339.289 522.888 C 337.27 524.76 331.885 529.719 331.874 532.197 C 334.298 533.494 337.318 534.147 340.075 534.225 C 395.822 535.803 452.162 544.339 506.28 557.6 C 534.002 564.393 563.908 572.357 590.521 582.44 C 586.583 585.276 581.514 588.337 577.362 591.002 C 571.543 588.304 565.704 585.647 559.848 583.029 C 502.873 557.682 394.583 526.598 333.705 549.109 C 294.613 563.563 250.362 622.583 233.365 661.015 C 241.615 661.185 251.518 660.374 259.877 659.903 C 263.589 659.934 272.614 659.326 274.66 661.305 L 274.719 661.696 C 214.09 671.271 196.572 711.801 176.297 765.89 C 173.891 772.308 169.47 779.978 170.59 786.838 C 174.595 790.047 178.277 789.184 183.593 788.844 L 187.509 789.713 C 181.736 791.521 176.804 793.521 171.718 796.834 C 165.099 801.173 159.496 806.889 155.292 813.593 C 142.915 832.959 129.849 872.111 119.942 894.376 C 114.778 905.984 102.107 935.727 99.6585 946.867 C 88.0553 957.052 78.4819 967.561 67.9948 978.838 z" fill="rgb(255,255,255)" transform="translate(0,0)"></path>
<path d="M 482.333 143.43 C 542.595 137.683 547.689 190.568 580.959 228.146 C 608.01 258.699 623.663 271.182 658.402 292.381 C 652.537 291.149 646.745 289.653 640.965 288.076 C 597.771 276.29 555.207 262.253 512.221 249.764 C 425.781 228.164 383.736 224.621 296.2 227.176 C 339.658 180.626 419.391 149.035 482.333 143.43 z" fill="rgb(255,255,255)" transform="translate(0,0)"></path>
<path d="M 289.656 666.442 C 328.303 664.235 394.257 677.583 429.589 692.581 C 407.953 707.054 386.544 721.862 365.368 737.001 C 346.776 750.394 327.076 765.449 307.904 777.617 C 302.376 777.526 295.817 777.06 290.282 776.619 C 251.155 773.502 214.338 778.574 175.738 784.464 C 181.083 760.765 203.565 711.061 220.045 693.586 C 240.27 672.141 261.859 667.964 289.656 666.442 z" fill="rgb(255,255,255)" transform="translate(0,0)"></path>
<path d="M 1752.83 1143.82 C 1792.29 1194.03 1835.72 1242.05 1875.26 1292.37 C 1887.56 1308.02 1902.21 1322.89 1914.16 1338.65 C 1881.92 1325.48 1846.12 1323.3 1814.52 1309.63 C 1765.44 1288.39 1765.61 1215.05 1757.33 1170.41 C 1755.75 1161.88 1754.49 1153.41 1751.32 1145.34 L 1752.83 1143.82 z" fill="rgb(255,255,255)" transform="translate(0,0)"></path>
<path d="M 1783.34 1142.82 C 1816.03 1151.82 1851.44 1159.6 1879.55 1179.22 C 1914.63 1203.71 1917.57 1249.48 1927.27 1287.46 C 1933.48 1311.78 1940.02 1336.36 1948.36 1360.08 C 1905.49 1299.15 1857.33 1241.61 1812.42 1182.13 C 1810.43 1179.49 1792.37 1155.94 1790.84 1154.81 L 1783.34 1142.82 z" fill="rgb(255,255,255)" transform="translate(0,0)"></path>
<path d="M 220.603 791.415 C 236.987 789.15 270.336 791.942 287.127 793.963 C 241.512 829.134 192.746 862.985 147.93 899.231 C 135.559 908.986 122.965 919.956 110.912 930.201 C 123.836 900.959 146.783 832.366 164.283 811.098 C 178.297 794.066 200.279 793.266 220.603 791.415 z" fill="rgb(255,255,255)" transform="translate(0,0)"></path>
<path d="M 949.303 741.307 C 960.735 740.263 1003.91 741.457 1010.54 750.177 C 1011.36 764.295 983.719 815.068 976.09 829.105 L 965.371 849.448 C 954.458 844.183 944.622 839.564 933.45 834.851 C 940.331 810.173 940.779 785.477 939.274 760.176 C 939.082 756.949 938.177 748.559 939.395 745.92 C 942.636 742.973 944.991 742.669 949.303 741.307 z" fill="rgb(255,255,255)" transform="translate(0,0)"></path>
<path d="M 955.847 751.176 C 964.943 750.768 992.344 750.714 997.109 759.577 L 996.012 760.796 L 992.785 760.878 C 985.42 759.11 953.24 756.476 950.916 754.547 L 951.766 752.57 L 955.847 751.176 z" fill="rgb(117,95,82)" transform="translate(0,0)"></path>
<path d="M 1200.35 1213.59 C 1206.14 1217.51 1228.75 1253.93 1235.17 1262.42 C 1271.46 1310.44 1314.95 1353.12 1367.17 1383.65 C 1365.99 1389.1 1364.6 1393.87 1362.36 1398.99 C 1360.42 1401.33 1359.22 1403.25 1356.15 1403.57 C 1337.47 1395.29 1296.79 1362.61 1280.4 1348.26 C 1259.09 1329.58 1209.66 1277.38 1202.6 1251.47 C 1199.51 1240.12 1201.13 1225.43 1200.35 1213.59 z" fill="rgb(255,255,255)" transform="translate(0,0)"></path>
<path d="M 874.319 426.372 L 875.979 427.668 C 878.103 433.11 879.373 441.809 879.887 447.626 C 890.094 563.14 854.623 685.451 773.096 769.794 C 760.028 783.314 743.613 802.775 724.24 804.722 C 721.118 804.816 722.108 805.387 720.154 804.037 C 724.166 798.469 732.426 793.807 737.662 788.971 C 815.655 716.922 857.519 612.252 870.409 508.417 C 873.535 483.24 873.125 458.019 871.4 432.766 C 871.189 429.67 872.627 428.666 874.319 426.372 z" fill="rgb(255,255,255)" transform="translate(0,0)"></path>
<path d="M 243.63 844.92 C 244.105 850.019 221.585 901.382 217.891 910.731 C 202.747 949.054 153.429 944.561 118.531 945.639 L 118.371 944.534 C 123.931 933.245 227.14 856.246 243.63 844.92 z" fill="rgb(255,255,255)" transform="translate(0,0)"></path>
<path d="M 336.688 660.612 C 367.257 663.501 416.86 671.702 446.074 681.586 L 437.228 687.988 C 406.629 677.182 367.073 664.98 334.357 662.688 L 336.688 660.612 z" fill="rgb(255,255,255)" transform="translate(0,0)"></path>
<path d="M 208.203 863.148 C 184.378 880.796 160.901 899.682 137.27 917.592 C 131.508 921.959 114.932 936.544 109.979 939.123 C 111.774 932.82 195.824 869.448 206.954 862.072 L 208.203 863.148 z" fill="rgb(198,190,188)" transform="translate(0,0)"></path>
<path d="M 241.109 783.205 C 249.863 782.639 296.227 780.178 301.217 783.554 C 297.988 791.161 271.088 786.066 263.037 785.913 C 259.62 785.175 246.596 784.814 242.009 784.491 L 241.109 783.205 z" fill="rgb(255,255,255)" transform="translate(0,0)"></path>
<path d="M 259.877 659.903 C 270.31 658.206 328.575 657.502 336.688 660.612 L 334.357 662.688 C 311.954 660.945 297.181 660.326 274.719 661.696 L 274.66 661.305 C 272.614 659.326 263.589 659.934 259.877 659.903 z" fill="rgb(198,190,188)" transform="translate(0,0)"></path>
<path d="M 1742.54 1130.95 C 1745.66 1134.48 1749.81 1140.01 1752.83 1143.82 L 1751.32 1145.34 L 1750.07 1145.01 L 1748.71 1150.98 C 1748.27 1153.56 1748.64 1153.85 1747.32 1155.64 L 1750.72 1173.15 L 1749.02 1173.87 C 1746.75 1165.09 1742.16 1139.71 1742.54 1130.95 z" fill="rgb(198,190,188)" transform="translate(0,0)"></path>
<path d="M 1747.32 1155.64 C 1746.46 1151.04 1744.88 1144.62 1746.5 1140.36 C 1748.28 1144.26 1748.23 1146.64 1748.71 1150.98 C 1748.27 1153.56 1748.64 1153.85 1747.32 1155.64 z" fill="rgb(117,95,82)" transform="translate(0,0)"></path>
<path d="M 183.593 788.844 C 191.743 786.273 231.63 782.779 241.109 783.205 L 242.009 784.491 C 246.596 784.814 259.62 785.175 263.037 785.913 C 242.391 786.638 222.044 784.871 201.559 787.885 C 197.129 788.536 191.923 789.381 187.509 789.713 L 183.593 788.844 z" fill="rgb(151,133,126)" transform="translate(0,0)"></path>
<path d="M 1912.36 1322.67 C 1917.54 1328.56 1921.11 1334.18 1925.47 1340.7 C 1919.86 1335.2 1914.89 1330.23 1910.5 1323.63 L 1912.36 1322.67 z" fill="rgb(198,190,188)" transform="translate(0,0)"></path>
<path d="M 1393.04 1382.98 L 1394.57 1382.79 C 1399.03 1386.39 1398.5 1392.35 1398.84 1397.7 C 1400.81 1398.78 1399.71 1398.5 1402.18 1398.36 C 1415.23 1397.45 1428.56 1393.12 1441.56 1391.38 C 1485.08 1385.56 1533.82 1380.53 1574.93 1399.25 C 1589 1405.7 1595.3 1411.95 1606.88 1418.64 C 1603.5 1418.99 1599.21 1419.29 1595.95 1419.93 C 1566.61 1421.32 1493.12 1449.62 1467.1 1464.34 L 1543.11 1542.31 C 1561.6 1513.71 1586.83 1476.73 1603.33 1447.36 L 1604.27 1449.26 C 1588.17 1487.66 1571.71 1511.8 1550.4 1547.21 C 1567.76 1563.11 1584.17 1578.21 1600.51 1595.13 L 1601.01 1593.96 C 1620.36 1548.47 1633.35 1496.13 1627.49 1446.43 C 1626.89 1441.38 1625.96 1437.06 1624.07 1432.33 C 1638.55 1439.47 1648.17 1446.01 1654.62 1462.25 C 1657.57 1469.71 1656.7 1475.44 1660.88 1482.54 C 1665.34 1483.91 1667.29 1480.74 1675.43 1484.31 C 1705.27 1497.42 1727.41 1527.89 1748.39 1551.89 C 1749.34 1552.98 1746.64 1556.14 1745.96 1556.91 C 1731.84 1562.56 1717.26 1566.66 1704.46 1574.8 C 1702.6 1575.99 1695.84 1581.02 1694.39 1580.41 C 1694.67 1577.56 1694.91 1574.95 1695.37 1572.11 C 1715.63 1559.76 1719.46 1560.4 1740.48 1552.49 C 1729.12 1540.07 1681.82 1482.51 1663.69 1492.17 C 1665.08 1513.94 1667.97 1524.75 1667.98 1549.19 C 1675.22 1556.96 1683 1565.67 1690.57 1573 L 1685.23 1574.89 C 1684.23 1578.89 1692.37 1582.69 1695.88 1586.52 C 1719.68 1613.39 1743.31 1641.52 1760.54 1673.15 C 1774.03 1697.91 1790.42 1721.79 1801.66 1747.7 L 1799.17 1748.22 C 1780.58 1753.99 1762.6 1758.98 1744.68 1766.73 C 1737.35 1769.9 1713.66 1786.13 1709.41 1786.21 C 1706.36 1780.02 1656.89 1722.63 1648.7 1712.77 C 1646.39 1709.24 1645.67 1708.05 1642.8 1705.04 C 1670.75 1676.09 1704.19 1661.55 1743.56 1655.71 C 1727.38 1633.59 1704.53 1601.58 1684.4 1583.14 C 1678.62 1582.08 1670.73 1580.85 1665.23 1579.31 C 1664.62 1588.71 1663.28 1598.55 1662.61 1607.71 C 1659.01 1656.7 1636.49 1636.87 1613 1614.71 C 1611.51 1617.42 1609.88 1620.23 1608.54 1623 C 1615.29 1629.45 1644.11 1655.8 1648.1 1662.3 C 1649.88 1665.15 1650.86 1668.42 1650.92 1671.78 C 1651.13 1683.34 1634.48 1708.44 1628.51 1720.09 C 1634.68 1715.21 1636.5 1712.62 1644.31 1712.48 C 1660.88 1734.94 1692.83 1765.31 1706.67 1788.04 C 1697.22 1795.24 1683.7 1802.57 1673.44 1809.87 C 1657.21 1821.43 1646.36 1831.41 1631.98 1844.83 C 1622.93 1839.17 1569.6 1801.71 1570.24 1793.44 C 1576.63 1793.62 1623.56 1830.86 1631.48 1836.9 C 1656.36 1811.52 1668.47 1803.45 1698.79 1786.47 C 1679.45 1764.19 1660.4 1740.74 1640.8 1718.88 C 1633.7 1724.91 1626.54 1724.61 1624.97 1726.19 C 1613.14 1738.11 1590.34 1786.59 1572.01 1785.97 C 1560.46 1785.59 1534.41 1751.03 1524.98 1740.29 L 1515.67 1749.96 C 1567.36 1812.13 1572.41 1805.27 1510.09 1857.01 C 1528.99 1871.49 1562.24 1898.34 1584.22 1905.54 C 1587.98 1900.53 1593.36 1889.79 1596.6 1883.94 C 1604.29 1870.06 1609.71 1862.11 1620.25 1850.56 C 1609.35 1843.33 1598.61 1835.87 1588.04 1828.18 C 1582.58 1824.18 1561.12 1811.66 1567.05 1804.72 C 1569.56 1804.95 1622.3 1844.39 1628.56 1849.68 C 1619.54 1861.13 1611.62 1873.77 1603.72 1885.78 C 1600.11 1891.27 1591.07 1910.98 1584.21 1909.62 C 1560.81 1904.98 1522.8 1875.84 1506.33 1859.72 C 1492.75 1868.69 1452.43 1900.57 1439.02 1899.31 C 1434.46 1898.88 1430.58 1896.33 1427.38 1893.2 C 1419.95 1885.92 1414.84 1875.68 1409.04 1867.08 C 1403.2 1858.42 1396.86 1850.44 1390.14 1842.46 C 1438.04 1805.09 1486.58 1774.7 1526.82 1727.53 C 1590.11 1653.35 1641.55 1565.03 1636.68 1464.45 L 1635.54 1464.97 L 1634.98 1471.46 C 1635.47 1604.85 1535.16 1732.5 1430.48 1806.03 C 1421.46 1812.36 1400.58 1829.66 1391.14 1832.41 C 1388.35 1830.79 1335.15 1749.5 1333 1744.53 C 1337.02 1741 1341.72 1737.44 1346.12 1734.37 C 1379.04 1711.38 1407.5 1685 1437.08 1657.91 C 1459.92 1684.87 1482.22 1708.59 1504.6 1736.68 L 1515.73 1725.3 L 1448.66 1649.7 C 1454.43 1642.42 1469.64 1629.29 1476.21 1622.76 C 1487.14 1611.9 1535.95 1561.51 1538.85 1549.16 C 1537.4 1546.27 1537.26 1546.52 1534.37 1544.88 L 1530.97 1545.97 C 1529.91 1545.13 1530.32 1545.61 1529.61 1544.31 C 1519.74 1526.19 1469.89 1481.4 1452.83 1462.83 C 1485.91 1440.01 1542.97 1423.54 1582.15 1414.38 C 1534.35 1410.93 1485.09 1432.99 1440.87 1447.76 C 1426.1 1436.27 1409.97 1426.81 1393.46 1418.13 C 1385.65 1414.02 1379.21 1410.95 1372.98 1404.48 C 1382 1401.78 1392.31 1402.24 1396.42 1397.21 C 1397.84 1390.19 1396.39 1389.05 1393.04 1382.98 z" fill="rgb(117,95,82)" transform="translate(0,0)"></path>
<path d="M 1634.98 1471.46 C 1634.3 1465.58 1632.93 1456.66 1634.25 1451.19 C 1635.85 1455.35 1636.12 1459.98 1636.68 1464.45 L 1635.54 1464.97 L 1634.98 1471.46 z" fill="rgb(198,190,188)" transform="translate(0,0)"></path>
<path d="M 1435.16 1671.56 C 1442.11 1674.42 1487.95 1730 1496.92 1740.64 C 1466.69 1767.61 1436.04 1792.72 1402.68 1815.77 L 1393.12 1822.82 C 1380.21 1796.03 1361.13 1771.2 1344.17 1746.81 C 1376.75 1725.17 1406.79 1698.37 1435.16 1671.56 z" fill="rgb(255,255,255)" transform="translate(0,0)"></path>
<path d="M 1509.75 1758.66 C 1515.66 1761.78 1540.79 1793.13 1544.84 1799.96 C 1546.33 1802.47 1548.69 1806.85 1547.7 1809.82 C 1541.87 1827.39 1461.6 1881.88 1442.55 1891.03 C 1440.4 1891.38 1438.74 1891.24 1436.59 1890.93 C 1428.95 1886.04 1410.96 1854.36 1403.44 1844.31 C 1439.54 1817.3 1477.46 1790.23 1509.75 1758.66 z" fill="rgb(255,255,255)" transform="translate(0,0)"></path>
<path d="M 1534.76 1571.52 C 1539.98 1574.61 1545.46 1581.56 1549.85 1585.95 C 1561.87 1597.98 1573.73 1610.86 1586.85 1621.7 C 1580.33 1633.09 1573.49 1644.3 1566.34 1655.32 C 1561.87 1662.11 1524.06 1715.83 1519.64 1717.81 L 1518.22 1715.9 C 1501.65 1692.02 1480.56 1670.6 1460.46 1649.72 C 1487.55 1627.12 1513.85 1599.9 1534.76 1571.52 z" fill="rgb(255,255,255)" transform="translate(0,0)"></path>
<path d="M 1746.2 1664.32 C 1751.89 1668.84 1788.28 1732.71 1795.71 1745.3 C 1757.92 1751.86 1745.9 1758.24 1713.25 1778.11 L 1707.79 1771.59 C 1689.52 1750.16 1671.27 1728.65 1651.41 1708.66 C 1659.45 1703.86 1667.01 1698.13 1674.94 1693.12 C 1697.32 1678.96 1720.31 1669.75 1746.2 1664.32 z" fill="rgb(255,255,255)" transform="translate(0,0)"></path>
<path d="M 1604.72 1631.6 C 1616.96 1641.94 1635.53 1658.41 1644.24 1671.64 C 1631.42 1704.06 1608.76 1735.94 1588.57 1764.13 C 1584.47 1769.86 1579.84 1777.57 1572.46 1778.79 C 1560.84 1771.89 1542.4 1746.65 1531.4 1735.36 C 1560.04 1704.65 1583.8 1667.86 1604.72 1631.6 z" fill="rgb(255,255,255)" transform="translate(0,0)"></path>
<path d="M 1487.13 1393.42 C 1515.33 1391.14 1552.94 1393.12 1577.59 1408 C 1540.24 1407.8 1509.53 1413.39 1474.67 1426.33 L 1443.38 1437.61 C 1427.24 1426.61 1410.99 1416.1 1392.87 1408.59 C 1423.17 1400.23 1455.79 1395.67 1487.13 1393.42 z" fill="rgb(255,255,255)" transform="translate(0,0)"></path>
<path d="M 1641.64 1453.45 C 1643.12 1454.89 1644.13 1456.17 1645.21 1457.95 C 1669.48 1497.88 1660.59 1586.56 1648.85 1631.32 L 1642 1626.22 C 1632.9 1619.93 1625.02 1611.73 1617.2 1603.95 C 1638.69 1558.02 1646.48 1503.64 1641.64 1453.45 z" fill="rgb(255,255,255)" transform="translate(0,0)"></path>
<path d="M 1544.61 1555.72 C 1558.96 1571.48 1580.12 1588.34 1596.04 1604.04 L 1590.53 1614.46 C 1573.59 1597.15 1556.29 1580.18 1539.13 1563.09 L 1544.61 1555.72 z" fill="rgb(255,255,255)" transform="translate(0,0)"></path>
<path d="M 1667.74 1561.49 C 1672.45 1565.54 1678.01 1569.57 1681.58 1574.67 C 1677.2 1573.84 1671.26 1573.52 1667.91 1570.45 C 1666.34 1567.46 1667.21 1564.66 1667.74 1561.49 z" fill="rgb(255,255,255)" transform="translate(0,0)"></path>
<path d="M 1712.38 1666.81 C 1713.44 1666.74 1714.39 1666.98 1715.43 1667.17 C 1712.1 1670.19 1705.42 1671.66 1701.16 1673.21 C 1699.63 1673.6 1700.43 1673.59 1698.75 1673.14 C 1702.78 1670.2 1707.77 1668.64 1712.38 1666.81 z" fill="rgb(151,133,126)" transform="translate(0,0)"></path>
<path d="M 1805.72 1751 C 1820.66 1747.13 1839.22 1743.36 1854.22 1748.76 C 1866.37 1762.11 1871.65 1784.83 1872.14 1802.54 C 1872.4 1812.14 1868.24 1817.25 1859.28 1819.37 C 1853.03 1820.29 1842.8 1820.66 1841.25 1828.34 C 1842.29 1832.99 1846.48 1833.13 1850.41 1832.77 C 1856.59 1832.75 1865.09 1831.62 1869.96 1836.19 C 1877.07 1842.86 1875.23 1860.68 1874.71 1869.61 C 1873.12 1896.84 1869.67 1949.83 1849.3 1968.69 C 1838.26 1978.9 1823.39 1978.79 1809.31 1977.91 C 1791.1 1976.79 1712.73 1966.35 1702.67 1954.51 C 1700.53 1952 1699.78 1949.02 1700.13 1945.81 C 1701.3 1935.04 1713.99 1919.27 1720.06 1910.14 C 1721.42 1909.56 1721.54 1909.34 1722.96 1909.18 L 1724.37 1907.87 L 1722.1 1905.98 L 1720.16 1904.68 C 1702.88 1893.53 1685.69 1882.24 1668.6 1870.81 C 1659.74 1864.92 1645.39 1855.97 1637.72 1849.4 C 1652.06 1828.04 1689.68 1804.64 1711.77 1790.38 L 1716.55 1796.1 C 1716.84 1793.74 1715.9 1792.84 1714.61 1790.74 L 1714.09 1789.91 L 1714.5 1788.27 C 1752.99 1763.79 1760.14 1759.97 1804 1750.77 L 1805.72 1751 z" fill="rgb(117,95,82)" transform="translate(0,0)"></path>
<path d="M 1804 1750.77 L 1805.72 1751 L 1806.66 1752.86 C 1815.02 1761.53 1835.41 1818.28 1839.01 1831.93 L 1842.84 1833.44 L 1843.47 1835.22 C 1842.56 1836.52 1841.64 1837.86 1840.71 1839.13 C 1842.62 1867.45 1850.44 1939.06 1845.02 1963.04 C 1844.87 1964.03 1844.52 1965.61 1844.01 1966.45 C 1843.36 1967.53 1841.97 1968.83 1840.68 1969.03 C 1827.3 1971.16 1748.19 1914.53 1730.35 1904.93 C 1743.76 1889.42 1756.86 1878.78 1773.1 1866.46 C 1785.86 1885.26 1798.55 1910.23 1811.47 1930.57 C 1805.16 1912.84 1787.91 1883.56 1779.58 1862.66 C 1798.67 1855.07 1812.39 1849.99 1832.07 1844.15 L 1833.79 1843.39 L 1832.12 1841.42 L 1832.24 1839.89 L 1834.45 1839.41 C 1835.41 1841.32 1837.36 1846.01 1837.87 1848.1 L 1838.82 1845.04 C 1838.12 1842.37 1837.02 1836.01 1833.97 1835.78 C 1814.83 1834.29 1789.53 1846.83 1774.03 1855.84 C 1765.1 1845.38 1756.24 1834.88 1747.44 1824.32 C 1738.68 1813.46 1729.27 1801.9 1719.86 1791.61 C 1718.93 1792.22 1719.63 1791.84 1717.58 1792.26 L 1714.5 1788.27 C 1752.99 1763.79 1760.14 1759.97 1804 1750.77 z" fill="rgb(255,255,255)" transform="translate(0,0)"></path>
<path d="M 1804 1750.77 L 1805.72 1751 L 1806.66 1752.86 C 1810.28 1767.41 1835.94 1819.85 1835.69 1830.95 C 1826.55 1824.45 1808.66 1771.55 1800.18 1755.61 C 1767.59 1764.35 1748.63 1774.62 1719.86 1791.61 C 1718.93 1792.22 1719.63 1791.84 1717.58 1792.26 L 1714.5 1788.27 C 1752.99 1763.79 1760.14 1759.97 1804 1750.77 z" fill="rgb(117,95,82)" transform="translate(0,0)"></path>
<path d="M 1832.24 1839.89 L 1834.45 1839.41 C 1835.41 1841.32 1837.36 1846.01 1837.87 1848.1 C 1840.42 1853.84 1841.47 1893.94 1842.52 1902.53 L 1840.26 1904.7 C 1839.16 1896.62 1834.45 1846.92 1832.07 1844.15 L 1833.79 1843.39 L 1832.12 1841.42 L 1832.24 1839.89 z" fill="url(#Gradient1)" transform="translate(0,0)"></path>
<path d="M 1842.52 1902.53 C 1842.86 1906.95 1845.34 1934.73 1843.96 1937.07 L 1843.22 1936.51 C 1843.31 1929.74 1841.05 1912.48 1840.26 1904.7 L 1842.52 1902.53 z" fill="rgb(117,95,82)" transform="translate(0,0)"></path>
<path d="M 1716.55 1796.1 C 1716.84 1793.74 1715.9 1792.84 1714.61 1790.74 L 1714.09 1789.91 L 1714.5 1788.27 L 1717.58 1792.26 C 1719.63 1791.84 1718.93 1792.22 1719.86 1791.61 C 1729.27 1801.9 1738.68 1813.46 1747.44 1824.32 L 1745.4 1828.47 C 1741.65 1827.21 1719.18 1800.69 1716.55 1796.1 z" fill="rgb(151,133,126)" transform="translate(0,0)"></path>
<path d="M 1720.16 1904.68 C 1726.98 1897.59 1734.02 1889.85 1741.62 1883.69 L 1742.08 1883.97 C 1735.38 1892.1 1728.71 1898.31 1722.1 1905.98 L 1720.16 1904.68 z" fill="rgb(151,133,126)" transform="translate(0,0)"></path>
<path d="M 1832.12 1841.42 C 1825.84 1842.41 1820.26 1843.87 1813.91 1843.82 C 1820.86 1841.01 1824.77 1840.28 1832.24 1839.89 L 1832.12 1841.42 z" fill="rgb(151,133,126)" transform="translate(0,0)"></path>
<path d="M 1724.37 1907.87 C 1727.57 1909.8 1732.88 1912.48 1734.85 1915.35 C 1730.47 1914.29 1726.85 1911.59 1722.96 1909.18 L 1724.37 1907.87 z" fill="rgb(198,190,188)" transform="translate(0,0)"></path>
<path d="M 1708.41 1799.87 C 1712.95 1801.22 1760.07 1852.47 1767.11 1859.47 C 1750.11 1869.75 1734.15 1882.94 1721.34 1898.12 L 1712.37 1892.13 C 1690.07 1877.48 1668.52 1861.5 1645.71 1847.66 C 1665.69 1830.27 1686.59 1814.84 1708.41 1799.87 z" fill="rgb(255,255,255)" transform="translate(0,0)"></path>
<path d="M 1724.7 1915.86 C 1758.91 1937.44 1796.37 1953.99 1831.62 1973.7 C 1825.23 1973.98 1819.01 1973.95 1812.61 1973.58 C 1786.42 1971.73 1734.55 1963.61 1710.81 1952.98 C 1708.08 1951.76 1705.94 1950.67 1704.78 1947.83 C 1711.31 1937.1 1717.95 1926.44 1724.7 1915.86 z" fill="rgb(255,255,255)" transform="translate(0,0)"></path>
<path d="M 1833.92 1752.46 C 1839.68 1752.52 1845.48 1752.9 1851.23 1753.13 C 1852.8 1755.39 1854.21 1757.66 1855.48 1760.11 C 1861.63 1771.94 1869.74 1796.04 1865.66 1809.01 C 1861.81 1814.23 1852.23 1814.6 1846.23 1815.67 L 1843.49 1816.19 C 1842.93 1815.94 1842.28 1815.81 1841.79 1815.42 C 1840.95 1814.77 1816.91 1759.27 1814.61 1754.42 C 1820.98 1753.21 1827.45 1752.9 1833.92 1752.46 z" fill="rgb(255,255,255)" transform="translate(0,0)"></path>
<path d="M 1850.55 1839.45 C 1854.53 1839.21 1859.95 1838.38 1863.76 1839.42 C 1866.03 1840.04 1866.62 1840.9 1867.65 1843 C 1873.32 1854.59 1866.34 1906.01 1863.69 1919.46 C 1861.75 1929.31 1859.09 1938.81 1855.79 1948.29 C 1853.9 1952.55 1851.74 1956.71 1849.68 1960.89 C 1851.93 1931.49 1850.85 1902.53 1849.23 1873.13 C 1848.86 1866.4 1845.8 1845.25 1847.43 1840.39 L 1850.55 1839.45 z" fill="rgb(255,255,255)" transform="translate(0,0)"></path>
<path d="M 1810.93 1844.2 L 1811.49 1844.73 C 1809.86 1846.97 1805.52 1847.82 1802.84 1848.76 L 1802.35 1848.28 C 1804.19 1846.06 1808.18 1845.22 1810.93 1844.2 z" fill="rgb(151,133,126)" transform="translate(0,0)"></path>
<path d="M 1324.25 1548.75 C 1337.05 1550.89 1419.47 1636.72 1431.21 1651.11 C 1408.65 1674.93 1366.18 1705.98 1338.48 1725.71 C 1333.97 1729.32 1330.01 1730.52 1324.39 1731.72 C 1299.25 1697.18 1267.2 1666.99 1237.96 1635.93 C 1243.52 1629.37 1249.9 1623.3 1255.73 1616.96 C 1277.74 1593.01 1299.95 1570.43 1324.25 1548.75 z" fill="rgb(117,95,82)" transform="translate(0,0)"></path>
<path d="M 1323.98 1560.58 C 1336.98 1562.8 1407.08 1637.99 1419.32 1650.58 C 1393.11 1673.08 1365.81 1693.96 1338.59 1715.19 L 1329.49 1722.56 C 1305.06 1691.79 1277.13 1663.7 1249.3 1636.03 C 1260.66 1625.14 1271.03 1612.85 1281.94 1601.47 C 1295.6 1587.48 1309.62 1573.85 1323.98 1560.58 z" fill="rgb(255,255,255)" transform="translate(0,0)"></path>
<path d="M 1438.01 1470.88 C 1458.89 1485.75 1505.36 1543.99 1524.44 1549.74 C 1524.86 1549.87 1525.29 1549.99 1525.71 1550.11 L 1526.43 1551.52 C 1520.74 1561.25 1510.76 1570.23 1503.02 1578.42 C 1483.08 1599.54 1462.24 1619.77 1442.61 1641.18 L 1434.87 1632.7 C 1414.98 1610.41 1394 1589.12 1372.02 1568.89 C 1360.62 1558.44 1347.69 1548.89 1337.22 1537.57 C 1360.6 1514.65 1408.94 1487.44 1438.01 1470.88 z" fill="rgb(117,95,82)" transform="translate(0,0)"></path>
<path d="M 1436.09 1482.76 C 1443.43 1485.87 1500.79 1544.07 1512.52 1554.37 C 1491.63 1580.37 1465.69 1603.88 1442.32 1627.75 L 1434.72 1618.89 C 1409.11 1590.07 1379.73 1562.18 1349.87 1537.84 C 1378.5 1518.61 1405.92 1499.68 1436.09 1482.76 z" fill="rgb(255,255,255)" transform="translate(0,0)"></path>
<path d="M 1317.56 1754.23 C 1335.86 1770.93 1372.24 1817.14 1380.46 1840 C 1306.25 1883.04 1234.34 1910.95 1149.18 1920.29 C 1130.75 1921.47 1121.96 1922.74 1103.58 1920.03 C 1098.62 1918.17 1093.95 1914.91 1090.12 1911.28 C 1129.24 1924.29 1206.91 1904.2 1246.48 1892.42 C 1238.25 1875.41 1222.33 1851.31 1211.46 1835.92 C 1191.24 1848 1170.85 1859.8 1150.31 1871.34 L 1148.4 1869.95 L 1146.63 1869 C 1156.75 1862.67 1166.18 1855.88 1175.92 1848.99 L 1178.05 1850.12 C 1211.66 1828.74 1244.73 1806.53 1277.23 1783.5 C 1290.59 1774.1 1304.44 1763.22 1317.56 1754.23 z" fill="rgb(117,95,82)" transform="translate(0,0)"></path>
<path d="M 1175.92 1848.99 L 1178.05 1850.12 C 1169.92 1856.11 1157.23 1864.89 1148.4 1869.95 L 1146.63 1869 C 1156.75 1862.67 1166.18 1855.88 1175.92 1848.99 z" fill="rgb(198,190,188)" transform="translate(0,0)"></path>
<path d="M 1315.52 1766.68 L 1316.99 1766.81 C 1337.51 1783.19 1355.01 1814.43 1369.99 1836.34 C 1336.36 1854.74 1303.41 1870.84 1267.71 1884.88 C 1263.37 1886.87 1258.69 1888.43 1254.24 1890.18 C 1243.68 1870.01 1230.68 1849.54 1217.07 1831.31 C 1248.83 1816.53 1287.3 1787.73 1315.52 1766.68 z" fill="rgb(255,255,255)" transform="translate(0,0)"></path>
<path d="M 1176.41 1921.03 C 1260.76 1908.56 1310.48 1883.05 1384.78 1845.73 C 1391.19 1856.28 1413.97 1904.49 1407.33 1916.24 C 1398.34 1932.15 1359.22 1939.25 1341.61 1943.98 C 1328.89 1947.41 1303.9 1953.85 1291.99 1948.96 C 1285.82 1946.43 1271.52 1912.2 1263.82 1909.01 C 1259.85 1909.91 1261.43 1908.94 1258.84 1911.91 C 1256.6 1922.39 1267.08 1943.13 1257.06 1952.75 C 1249.92 1959.6 1229.18 1960.14 1219.16 1960.43 C 1179.06 1961.61 1132.19 1960.74 1099.98 1933.61 C 1095.16 1929.46 1088.75 1921.71 1088.53 1915.24 C 1119.19 1946.39 1150.52 1951.53 1193.6 1952.35 C 1204.91 1952.56 1242.61 1952 1250.8 1947.44 C 1255.67 1941.5 1251.29 1921.23 1249.33 1914.11 C 1206.35 1925.3 1180.63 1929.95 1135.31 1927.56 C 1128.36 1927.17 1121.78 1925.81 1114.87 1924.93 L 1114.88 1923.88 C 1125.91 1924.63 1148.11 1923.58 1159.36 1922.14 C 1165.06 1921.93 1170.74 1921.56 1176.41 1921.03 z" fill="rgb(117,95,82)" transform="translate(0,0)"></path>
<path d="M 1159.36 1922.14 C 1165.06 1921.93 1170.74 1921.56 1176.41 1921.03 C 1169.42 1926.9 1136.18 1921.88 1135.31 1927.56 C 1128.36 1927.17 1121.78 1925.81 1114.87 1924.93 L 1114.88 1923.88 C 1125.91 1924.63 1148.11 1923.58 1159.36 1922.14 z" fill="rgb(134,113,101)" transform="translate(0,0)"></path>
<path d="M 1380.29 1858.2 C 1386.74 1863.61 1399.06 1902.2 1401.8 1912.13 C 1382.54 1928.63 1323.52 1940.69 1297.3 1943.35 C 1288.82 1931.55 1281.45 1918.53 1274.19 1905.95 C 1286.7 1900.04 1300.37 1895.81 1313.2 1890.49 C 1336.14 1880.98 1358.54 1870.2 1380.29 1858.2 z" fill="rgb(255,255,255)" transform="translate(0,0)"></path>
<path d="M 1237.69 1492.23 C 1258.65 1492.63 1299.86 1524.29 1316.28 1538.51 C 1304.13 1550.37 1291.04 1561.29 1278.85 1573.14 C 1264.41 1587.19 1251.2 1602.26 1238.2 1617.64 C 1235.45 1621.07 1232.28 1624.19 1229.24 1627.38 C 1220.98 1620.86 1167.65 1573.49 1167.42 1565.77 C 1167.27 1560.96 1171.46 1555.26 1174.21 1551.61 C 1186.91 1534.74 1212.17 1504.81 1229.81 1494.47 C 1232.22 1493.06 1234.97 1492.63 1237.69 1492.23 z" fill="rgb(117,95,82)" transform="translate(0,0)"></path>
<path d="M 1236.17 1499.89 C 1254.94 1499.84 1287.4 1527.89 1302.21 1539.15 C 1277.85 1560.79 1254.5 1583.51 1233.78 1608.69 L 1228.5 1615.47 C 1210.88 1598.11 1192.85 1581.16 1174.44 1564.64 C 1188.56 1545.23 1216.43 1512.43 1236.17 1499.89 z" fill="rgb(255,255,255)" transform="translate(0,0)"></path>
<path d="M 1358.77 1411.18 C 1372.14 1414.27 1414.49 1449.91 1425.93 1459.2 C 1411.1 1471.58 1393.66 1481.85 1377.95 1493.21 C 1362.56 1504.35 1347.26 1518.18 1330.93 1527.7 C 1328.71 1528.99 1327.68 1529.21 1325.28 1528.45 C 1313.54 1515.25 1259.76 1478.74 1256.81 1468.11 C 1256.29 1466.24 1256.19 1465.44 1257.1 1463.76 C 1264.28 1450.6 1341.82 1415.96 1358.77 1411.18 z" fill="rgb(117,95,82)" transform="translate(0,0)"></path>
<path d="M 1357.17 1419.06 C 1376.35 1429.2 1395.22 1445.86 1411.85 1459.82 C 1387.09 1475.51 1363.89 1491.95 1340.54 1509.65 C 1337.1 1512.26 1332.82 1516.46 1328.74 1517.71 L 1325.03 1515.23 C 1304.81 1498.37 1284.53 1481.87 1263.7 1465.77 C 1293.72 1448.02 1324.95 1432.41 1357.17 1419.06 z" fill="rgb(255,255,255)" transform="translate(0,0)"></path>
<path d="M 1153.16 1595.87 C 1153.94 1595.83 1154.71 1595.78 1155.49 1595.77 C 1171.18 1595.63 1206.03 1629.92 1217.49 1641.48 C 1211.43 1652.2 1201.52 1662.07 1194.28 1672.27 C 1180 1692.71 1166.74 1713.85 1154.54 1735.6 L 1150.03 1742.64 C 1139.43 1735.2 1106.31 1711.88 1099.99 1702.4 C 1098.2 1699.73 1098.45 1696.53 1099.02 1693.52 C 1103.03 1672.08 1136.39 1607.16 1153.16 1595.87 z" fill="rgb(117,95,82)" transform="translate(0,0)"></path>
<path d="M 1155.78 1603.08 C 1171.6 1608.31 1193.39 1630.75 1205.97 1642.37 C 1185.74 1663.66 1164.91 1699.11 1151.4 1725.37 C 1150.24 1727.76 1149.12 1729.51 1147.43 1731.57 C 1141.03 1729.06 1112.7 1704.2 1106.25 1698.1 C 1113.65 1676.01 1138.71 1617.15 1155.78 1603.08 z" fill="rgb(255,255,255)" transform="translate(0,0)"></path>
<path d="M 1753.96 1559.88 C 1758.73 1559.43 1760.42 1560.12 1763.97 1563.44 C 1776.58 1575.26 1843.44 1641.58 1804.2 1651.36 C 1791.64 1653.27 1766.2 1660.28 1756.04 1659.49 C 1744.97 1643.78 1735.09 1629.66 1722.98 1614.69 C 1714.6 1604.32 1704.94 1594.34 1696.99 1584.18 C 1702.25 1575.1 1742.67 1562.96 1753.96 1559.88 z" fill="rgb(117,95,82)" transform="translate(0,0)"></path>
<path d="M 1758.11 1566.43 C 1759.11 1568.07 1758.65 1567.6 1759.9 1568.74 C 1774.31 1581.91 1803.51 1613.64 1809.75 1631.51 C 1811.02 1635.15 1811.18 1637.94 1809.46 1641.51 C 1803.72 1647.41 1769.44 1651.97 1760.19 1653.93 C 1756.74 1652.84 1752.68 1643.89 1750.53 1640.53 C 1737.59 1620.22 1722.66 1602.15 1706.22 1584.59 C 1722.68 1576.6 1740.2 1570.17 1758.11 1566.43 z" fill="rgb(255,255,255)" transform="translate(0,0)"></path>
<path d="M 1630.71 1853.66 C 1633.9 1855.96 1635.64 1854.48 1638.58 1856.48 C 1664.38 1874 1691 1890.34 1717.3 1907.13 C 1710.46 1918.15 1695.29 1944.47 1685.25 1950.7 C 1665.19 1953.26 1624.54 1934.19 1607.42 1922.59 C 1603.6 1920 1599.33 1916.92 1598.58 1912.05 C 1596.66 1899.56 1622.77 1863.2 1630.71 1853.66 z" fill="rgb(117,95,82)" transform="translate(0,0)"></path>
<path d="M 1632.8 1861.67 C 1642.5 1866.36 1651.48 1872.86 1660.53 1878.69 C 1676.29 1889.01 1692.18 1899.11 1708.21 1908.98 C 1701.49 1917.45 1690.84 1937.95 1685.68 1943 C 1684.01 1944.63 1682.76 1945.06 1680.59 1945.76 C 1660.01 1943.53 1619.43 1925.23 1602.22 1912.71 C 1611.48 1895.23 1621.2 1877.73 1632.8 1861.67 z" fill="rgb(255,255,255)" transform="translate(0,0)"></path>
<path d="M 1807.28 1653.79 C 1815.26 1654.29 1821.48 1653.94 1827.25 1660.9 C 1840.43 1676.83 1853.99 1704.95 1854.46 1725.93 C 1854.54 1729.17 1852.58 1734.86 1850.12 1736.33 C 1836.98 1744.15 1819.64 1741.16 1804.26 1747.85 C 1799.8 1735.52 1760.03 1670.53 1761.37 1666.12 C 1769.07 1658.57 1796.29 1654.69 1807.28 1653.79 z" fill="rgb(117,95,82)" transform="translate(0,0)"></path>
<path d="M 1804.52 1660.38 C 1808.21 1660.02 1814.12 1659.14 1817.59 1660.67 C 1828.12 1665.33 1841.45 1696.64 1845.16 1707.49 C 1847.25 1713.6 1851.06 1724.25 1847.59 1730.21 C 1844.11 1736.19 1818.23 1737.89 1811.14 1739.36 L 1809.16 1739.17 C 1802.27 1731.37 1797.6 1719.59 1792.37 1710.4 C 1784.12 1696.08 1775.65 1681.9 1766.96 1667.85 C 1779.37 1664.62 1791.75 1661.76 1804.52 1660.38 z" fill="rgb(255,255,255)" transform="translate(0,0)"></path>
<path d="M 1226.57 1650.8 C 1249.36 1670.45 1296.1 1717.49 1312.7 1742.93 C 1303.16 1752.39 1281.06 1769.22 1269.73 1778.16 C 1239.7 1801.83 1207.36 1827.17 1175.92 1848.99 C 1166.18 1855.88 1156.75 1862.67 1146.63 1869 L 1144.8 1867.12 C 1164.99 1851.59 1187.82 1833.21 1208.38 1818.69 C 1192.63 1801.12 1176.42 1783.09 1155.29 1771.79 C 1141.6 1788.36 1096.34 1867.57 1088.46 1888.22 C 1087 1867.03 1133.35 1786.21 1149.41 1768.47 C 1161.78 1754.79 1205.99 1805.67 1213.29 1814.34 C 1239.14 1792.03 1273.96 1762.95 1300.88 1742.41 C 1278.17 1713.79 1253.18 1687.06 1226.13 1662.49 C 1207.4 1691.06 1187.93 1719.13 1169.67 1748.02 C 1167.2 1751.93 1164.47 1757.21 1159.7 1756.63 L 1158.42 1754.9 C 1158.57 1748.52 1165.9 1740 1169.39 1734.17 C 1183.54 1710.43 1207.09 1670 1226.57 1650.8 z" fill="rgb(117,95,82)" transform="translate(0,0)"></path>
<path d="M 1078.82 1897.66 C 1077.6 1897.17 1077.37 1897.18 1076.35 1896.35 C 1068.19 1889.74 1065.47 1877.04 1064.6 1867.03 C 1062.32 1841.12 1075.12 1756.31 1092.88 1736.46 C 1095.05 1734.03 1097.55 1732.26 1100.97 1732.39 C 1108.44 1732.65 1130.03 1748.16 1134.99 1754.18 C 1137.04 1756.66 1138.58 1759.57 1137.96 1762.86 C 1136.44 1770.89 1127.96 1784.05 1123.98 1791.96 C 1111.26 1817.24 1086.65 1867.03 1084.82 1894.28 C 1084.8 1894.64 1084.79 1894.99 1084.77 1895.35 L 1083.3 1897.94 C 1072.37 1880.86 1121.09 1779.31 1132.24 1758.91 C 1124.83 1753.85 1108.63 1741.35 1100.89 1740.83 C 1091.21 1745.86 1082.23 1791.72 1079.52 1803.27 C 1071.66 1836.81 1065.97 1864.59 1078.82 1897.66 z" fill="rgb(117,95,82)" transform="translate(0,0)"></path>
<path d="M 1144.8 1867.12 L 1146.63 1869 L 1148.4 1869.95 L 1150.31 1871.34 C 1139.79 1877.63 1122.76 1888.35 1112.2 1893.31 C 1122.95 1884.43 1133.82 1875.7 1144.8 1867.12 z" fill="rgb(134,113,101)" transform="translate(0,0)"></path>
<path d="M 1603.33 1447.36 C 1604.55 1444.47 1605.52 1440.85 1607.96 1439.31 C 1608.53 1442.42 1605.98 1446.66 1604.27 1449.26 L 1603.33 1447.36 z" fill="rgb(198,190,188)" transform="translate(0,0)"></path>
<metadata><recraft-signature>{"signed_by": "recraft", "signature_b64": "ygk5uxvtL7yLDAfWcmOfF32De4IkNvuDNDrbTK72p/4VJ5ir402OugOUVCsM1uIYNhbyJ/Ol0cYtrYxqB2E/Aw==", "signing_algo": "Ed25519", "generation_timestamp": 1764903554, "identifier": "ff743395-1e49-44bd-97e2-de4a56649f4d"}</recraft-signature></metadata></svg>