<svg xmlns="http://www.w3.org/2000/svg" height="1024" preserveAspectRatio="none" style="display: block;" version="1.1" viewBox="0 0 2048 2048" width="1024">
<defs>
	<linearGradient gradientUnits="userSpaceOnUse" id="Gradient1" x1="534.265" x2="611.173" y1="724.001" y2="663.286">
		<stop class="stop0" offset="0" stop-color="rgb(134,81,21)" stop-opacity="1"></stop>
		<stop class="stop1" offset="1" stop-color="rgb(170,109,22)" stop-opacity="1"></stop>
	</linearGradient>
</defs>
<path d="M 0 0 L 2048 0 L 2048 53.9229 L 2048 122.04 L 2048 382.179 L 2048 669.079 L 2048 952.107 L 2048 1491.35 L 2048 2048 L 908.817 2048 L 891.211 2048 L 646.808 2048 L 508.619 2048 L 409.5 2048 L 0 2048 L 0 0 z" fill="rgb(212,168,75)" transform="translate(0,0)"></path>
<path d="M 0 0 L 2048 0 L 2048 53.9229 C 1999.72 88.8252 1949.4 120.814 1897.31 149.719 C 1807.13 199.657 1710.89 242.311 1620.48 289.994 C 1389 412.086 1169.99 564.24 1005.4 770.133 C 989.475 790.052 970.843 809.113 955.027 829.294 C 938.5 849.868 923.352 871.648 905.771 891.472 C 863.226 904.078 834.415 945.188 848.661 989.267 C 846.791 992.044 845.359 993.125 841.886 993.884 C 841.89 1004.54 842.819 1033.06 841.675 1041.4 C 838.904 1040.91 839.32 1040.54 836.882 1038.26 C 828.092 1048.66 813.116 1072.13 805.856 1084 C 793.642 1083.97 734.551 1083.29 726.473 1084.77 L 489.98 1086.15 C 495.176 1086.42 507.9 1086.84 512.541 1087.89 L 802.229 1089.97 C 794.838 1102.11 776.459 1136.02 767.814 1143.52 C 767.655 1160.41 766.89 1167.81 771.432 1184.02 C 765.168 1177.65 759.617 1171.54 753.677 1164.9 C 750.08 1175.84 735.518 1194.68 728.899 1205.22 L 683.951 1278.33 C 667.387 1305.34 652.642 1334.23 638.661 1362.7 C 530.551 1579.27 453.41 1809.96 409.5 2048 L 0 2048 L 0 0 z" fill="rgb(250,248,236)" transform="translate(0,0)"></path>
<path d="M 729.015 889.423 C 756.222 916.858 790.657 951.064 815.748 979.481 C 816.328 951.557 815.897 922.094 815.942 894.046 L 841.982 894.093 C 842.122 927.478 841.327 960.472 841.886 993.884 C 841.89 1004.54 842.819 1033.06 841.675 1041.4 C 838.904 1040.91 839.32 1040.54 836.882 1038.26 C 810.295 1010.03 781.614 982.476 756.443 953.039 C 756.119 982.829 756.704 1013.52 756.933 1043.37 L 729.156 1043.65 L 729.015 889.423 z" fill="rgb(149,93,32)" transform="translate(0,0)"></path>
<path d="M 762.911 1148 C 762.739 1140.52 761.847 1130.48 765.152 1123.79 L 766.176 1124.45 C 768.368 1131.01 767.876 1136.61 767.814 1143.52 C 767.655 1160.41 766.89 1167.81 771.432 1184.02 C 765.168 1177.65 759.617 1171.54 753.677 1164.9 C 744.94 1155.46 736.46 1145.78 728.246 1135.87 C 728.149 1143.12 730.094 1177.13 726.963 1181.32 C 725.813 1182.86 726.184 1182.37 724.037 1182.61 C 722.865 1180.4 723.424 1129.24 723.415 1122.57 C 732.058 1133.03 740.881 1143.34 749.881 1153.49 C 753.808 1152.16 759.004 1149.71 762.911 1148 z" fill="rgb(15,7,2)" transform="translate(0,0)"></path>
<path d="M 749.881 1153.49 C 753.808 1152.16 759.004 1149.71 762.911 1148 L 763.024 1168.89 L 749.881 1153.49 z" fill="rgb(240,207,147)" transform="translate(0,0)"></path>
<path d="M 512.541 1087.89 C 505.361 1088.41 464.39 1088.21 459.488 1087.06 C 466.431 1085.5 482.751 1085.51 489.98 1086.15 C 495.176 1086.42 507.9 1086.84 512.541 1087.89 z" fill="rgb(195,173,140)" transform="translate(0,0)"></path>
<path d="M 191.949 557.583 C 197.333 529.833 221.191 515.337 247.236 508.619 C 258.986 505.588 272.35 507.762 282.431 514.513 C 294.479 522.583 295.162 535.608 300.906 547.605 C 302.26 550.222 311.996 560.983 311.888 563.227 C 311.051 580.607 309.101 590.134 312.216 607.915 C 302.194 617.299 292.922 621.647 279.657 624.201 C 281.777 628.348 283.603 632.819 285.455 637.108 C 309.377 635.439 333.208 634.751 357.1 633.2 C 370.586 632.325 383.505 630.22 397.21 629.479 C 406.698 618.641 473.187 575.659 489.428 565.517 C 487.266 556.522 485.095 548.876 489.892 540.05 C 492.365 535.407 496.653 531.997 501.734 530.634 C 516.175 526.859 524.017 538.719 526.968 550.946 C 524.782 560.079 521.114 566.538 511.859 569.598 L 507.824 569.741 C 507.336 580.514 506.588 595.565 508.831 606.008 C 511.069 616.429 520.057 614.197 511.312 627.11 C 515.906 630.286 536.31 627.751 541.502 630.829 C 567.808 646.421 579.327 669.61 614.866 651.18 L 616.685 650.247 C 609.59 664.839 604.487 669.715 587.779 670.304 C 591.511 683.861 627.475 787.563 627.381 788.969 C 631.695 794.5 634.466 794.359 641.87 797.347 C 641.153 799.116 640.365 800.855 639.508 802.561 C 631.968 817.328 618.445 829.266 602.579 834.327 C 585.916 839.721 567.79 838.25 552.214 830.239 C 542.438 825.142 527.184 812.853 524.125 801.895 C 520.962 790.563 532.34 797.515 538.988 786.445 C 538.907 781.901 546.939 762.697 548.791 756.852 C 556.821 731.51 573.043 696.003 577.933 670.638 C 560.831 666.201 555.983 660.627 543.003 649.462 C 537.013 646.693 535.628 646.305 529.291 644.796 C 526.238 644.779 521.059 644.229 519.143 646.218 C 513.619 651.95 510.631 660.096 502.628 662.131 C 494.211 661.342 489.281 651.422 485.72 644.622 C 473.177 647.073 469.75 648.192 459.363 656.699 C 450.447 663.748 446.024 666.249 434.502 668.934 C 442.911 702.118 464.45 757.657 476.832 790.896 C 481.385 791.685 486.002 791.957 489.683 794.489 C 492.59 801.343 487.82 806.031 483.648 811.3 C 464.338 835.686 432.461 843.364 403.991 831.333 C 394.8 827.449 370.831 806.599 373.927 796.021 C 376.785 793.66 378.683 793.32 382.173 792.166 C 382.671 791.303 383.485 790.009 383.852 789.138 C 391.325 763.158 404.363 734.111 412.616 707.838 C 417.182 693.303 421.667 684.682 423.918 668.768 C 416.5 665.665 412.965 662.177 406.599 657.356 C 385.944 665.084 345.78 677.53 324.461 679.816 C 335.631 689.725 341.63 693.098 345.585 707.912 C 341.482 724.918 335.044 730.461 328.769 745.2 C 319.762 766.353 312.362 791.428 307.227 813.834 C 313.843 833.958 317.961 853.369 322.057 874.177 C 332.868 929.099 351.785 983.195 373.224 1034.75 L 366.122 1040.82 C 374.246 1081.02 409.992 1214.99 430.829 1246.47 C 436.968 1255.74 446.662 1261.1 454.259 1268.88 C 466.813 1268.63 515.871 1269.41 513.937 1288.93 C 497.004 1317.67 402.29 1301.43 371.516 1299.42 C 351.748 1298.26 331.927 1298.38 312.175 1299.77 C 247.795 1303.83 191.399 1334.84 126.695 1336.73 C 99.9647 1337.51 71.6419 1336.59 47.0366 1324.56 C 33.3246 1317.86 18.0387 1301.16 28.3093 1285.42 C 40.2267 1267.68 70.2548 1254.88 90.1401 1250.41 C 92.5438 1246.59 94.6669 1240.31 93.4666 1236.02 C 84.9761 1205.61 91.9574 1209.63 116.5 1199.04 C 140.057 1167.45 132.583 1106.37 173.958 1076.6 C 168.066 1070.04 158.361 1058.81 151.836 1053.58 L 150.268 1052.33 C 140.878 1044.79 126.535 1043.91 122.379 1038.8 C 129.448 1029.26 138.385 1020.2 146.131 1011.27 C 176.564 976.189 188.279 958.539 189.136 910.965 C 189.914 890.928 188.732 873.607 195.068 854.41 C 202.389 832.227 229.189 807.943 237.579 789.339 C 246.218 770.181 226.081 738.727 217.314 721.269 C 208.517 751.319 197.363 777.057 184.214 805.364 C 179.796 814.876 180.353 824.565 174.318 835.053 C 163.039 854.656 145.93 871.336 136.34 891.597 C 137.833 897.707 138.565 902.36 139.514 908.557 C 133.004 909.357 131.445 910.305 125.693 913.563 L 130.928 916.011 L 131.64 916.52 L 133.054 916.34 L 133.358 916.729 L 133.572 916.143 L 131.614 913.169 L 133.943 913.064 C 138.382 915.541 138.947 915.66 142.162 919.42 C 144.427 927.89 135.925 930.39 135.13 934.717 C 133.579 943.152 144.835 958.454 148.045 969.515 C 140.361 973.926 130.953 978.283 122.911 982.244 C 114.769 974.794 93.7838 934.515 85.6696 938.998 C 82.9623 945.01 87.1536 952.272 81.8256 956.162 C 70.5977 955.624 53.5891 936.506 74.3768 930.929 C 78.1449 929.918 84.3975 927.402 88.3366 926.079 C 78.4647 910.75 67.3864 897.355 58.5179 881.11 C 32.9398 834.259 18.3773 799.716 32.1841 747.471 C 36.3444 757.303 40.4875 771.622 44.5175 782.362 C 51.5877 801.204 59.8256 817.255 68.1522 835.261 C 79.6739 860.177 95.3888 879.915 104.846 905.53 C 108.46 895.357 107.978 893.337 119.719 893.943 C 131.495 875.931 133.808 855.928 140.348 835.702 C 142.354 823.288 163.739 804.849 165.014 794.472 C 170.134 752.803 178.969 705.992 196.452 667.473 C 205.646 647.217 231.87 657.6 245.826 621.01 C 236.472 614.65 227.56 608.428 219.276 600.645 C 214.95 596.581 205.562 581.855 200.614 582.524 C 194.818 590.739 202.953 606.253 204.083 615.598 C 209.191 657.825 182.669 685.093 152.834 709.848 C 172.744 676.919 162.064 654.677 156.24 619.528 C 151.466 590.709 164.039 568.096 191.949 557.583 z" fill="rgb(15,7,2)" transform="translate(0,0)"></path>
<path d="M 212.091 1102.67 C 259.419 1114.37 288.247 1091.98 326.324 1071.04 C 326.855 1070.75 330.556 1073.67 331.539 1074.42 C 331.261 1078.57 329.707 1080.82 328.98 1084.91 C 322.952 1118.82 335.42 1134.9 352.458 1160.9 C 370.451 1188.36 408.164 1235.15 408.755 1267.67 C 409.353 1273.45 409.946 1277.71 415.08 1281.3 C 428.285 1290.53 450.831 1288.92 465.72 1286.54 C 461.276 1277.71 458.097 1275.59 454.259 1268.88 C 466.813 1268.63 515.871 1269.41 513.937 1288.93 C 497.004 1317.67 402.29 1301.43 371.516 1299.42 C 351.748 1298.26 331.927 1298.38 312.175 1299.77 C 247.795 1303.83 191.399 1334.84 126.695 1336.73 C 99.9647 1337.51 71.6419 1336.59 47.0366 1324.56 C 33.3246 1317.86 18.0387 1301.16 28.3093 1285.42 C 40.2267 1267.68 70.2548 1254.88 90.1401 1250.41 C 88.3724 1274.31 100.72 1282.05 121.538 1288.07 C 119.882 1273.93 118.982 1263.44 119.939 1249.27 C 121.829 1224.75 160.634 1175.23 175.262 1154.66 C 187.134 1137.95 200.227 1119.64 212.091 1102.67 z" fill="rgb(250,248,236)" transform="translate(0,0)"></path>
<path d="M 119.939 1249.27 C 174.674 1242.51 219.847 1240.14 274.903 1248.21 C 307.055 1252.91 338.014 1259.61 370.022 1264.65 C 383.498 1266.77 395.382 1266.73 408.755 1267.67 C 409.353 1273.45 409.946 1277.71 415.08 1281.3 C 428.285 1290.53 450.831 1288.92 465.72 1286.54 C 461.276 1277.71 458.097 1275.59 454.259 1268.88 C 466.813 1268.63 515.871 1269.41 513.937 1288.93 C 497.004 1317.67 402.29 1301.43 371.516 1299.42 C 351.748 1298.26 331.927 1298.38 312.175 1299.77 C 247.795 1303.83 191.399 1334.84 126.695 1336.73 C 99.9647 1337.51 71.6419 1336.59 47.0366 1324.56 C 33.3246 1317.86 18.0387 1301.16 28.3093 1285.42 C 40.2267 1267.68 70.2548 1254.88 90.1401 1250.41 C 88.3724 1274.31 100.72 1282.05 121.538 1288.07 C 119.882 1273.93 118.982 1263.44 119.939 1249.27 z" fill="rgb(149,93,32)" transform="translate(0,0)"></path>
<path d="M 543.003 649.462 L 544.959 648.63 C 560.784 658.88 557.035 663.088 580.06 668.949 C 579.322 675.658 578.047 683.738 579.247 690.315 C 581.891 700.966 580.929 773.276 581.112 789.118 C 572.007 788.801 545.741 791.361 540.235 790.115 L 538.988 786.445 C 538.907 781.901 546.939 762.697 548.791 756.852 C 556.821 731.51 573.043 696.003 577.933 670.638 C 560.831 666.201 555.983 660.627 543.003 649.462 z" fill="rgb(250,248,236)" transform="translate(0,0)"></path>
<path d="M 543.003 649.462 L 544.959 648.63 C 560.784 658.88 557.035 663.088 580.06 668.949 C 579.322 675.658 578.047 683.738 579.247 690.315 C 573.182 700.702 566.641 719.986 562.325 731.74 C 555.308 751.327 547.943 770.789 540.235 790.115 L 538.988 786.445 C 538.907 781.901 546.939 762.697 548.791 756.852 C 556.821 731.51 573.043 696.003 577.933 670.638 C 560.831 666.201 555.983 660.627 543.003 649.462 z" fill="rgb(85,48,11)" transform="translate(0,0)"></path>
<path d="M 423.918 668.768 L 424.949 668.664 C 424.737 673.093 423.875 683.646 424.087 687.44 C 426.232 696.535 424.402 706.626 425.944 714.349 C 425.834 738.698 425.354 764.775 425.911 789.039 C 421.172 789.388 389.144 792.119 387.276 791.215 L 383.852 789.138 C 391.325 763.158 404.363 734.111 412.616 707.838 C 417.182 693.303 421.667 684.682 423.918 668.768 z" fill="rgb(250,248,236)" transform="translate(0,0)"></path>
<path d="M 423.918 668.768 L 424.949 668.664 C 424.737 673.093 423.875 683.646 424.087 687.44 C 414.791 717.413 402.929 746.521 392.278 776.022 C 390.557 780.786 388.446 786.359 387.276 791.215 L 383.852 789.138 C 391.325 763.158 404.363 734.111 412.616 707.838 C 417.182 693.303 421.667 684.682 423.918 668.768 z" fill="rgb(43,21,6)" transform="translate(0,0)"></path>
<path d="M 434.942 688.729 C 447.288 721.914 459.973 758.169 473.231 790.818 C 464.722 789.777 437.016 789.491 432.615 788.276 C 435.187 767.235 430.104 703.745 434.942 688.729 z" fill="rgb(250,248,236)" transform="translate(0,0)"></path>
<path d="M 514.326 632.264 C 558.616 621.858 557.398 667.776 602.413 658.286 C 605.776 657.56 609.129 656.787 612.47 655.966 C 604.019 664.746 601.837 666.389 589.302 668.47 C 586.106 673.004 589.524 684.348 589.732 691.849 C 586.531 697.58 588.227 776.741 588.14 789.037 L 581.112 789.118 C 580.929 773.276 581.891 700.966 579.247 690.315 C 578.047 683.738 579.322 675.658 580.06 668.949 C 557.035 663.088 560.784 658.88 544.959 648.63 L 543.003 649.462 C 537.013 646.693 535.628 646.305 529.291 644.796 C 517.106 644.415 517.291 643.69 514.326 632.264 z" fill="url(#Gradient1)" transform="translate(0,0)"></path>
<path d="M 588.14 789.037 C 588.227 776.741 586.531 697.58 589.732 691.849 C 600.853 725.64 612.806 759.151 625.581 792.352 C 614.561 790.8 599.176 789.306 588.14 789.037 z" fill="rgb(250,248,236)" transform="translate(0,0)"></path>
<path d="M 416.125 654.822 C 431.28 673.447 458.785 638.532 471.393 632.555 C 478.837 629.026 491.307 631.081 499.735 628.29 C 505.373 626.422 509.939 629.09 514.326 632.264 C 517.291 643.69 517.106 644.415 529.291 644.796 C 526.238 644.779 521.059 644.229 519.143 646.218 C 513.619 651.95 510.631 660.096 502.628 662.131 C 494.211 661.342 489.281 651.422 485.72 644.622 C 473.177 647.073 469.75 648.192 459.363 656.699 C 456.844 655.401 456.165 657.09 452.333 659.647 C 442.742 666.049 435.177 666.441 424.209 666.576 C 419.755 664.183 411.156 660.94 412.231 655.488 L 416.021 653.069 L 416.125 654.822 z" fill="rgb(149,93,32)" transform="translate(0,0)"></path>
<path d="M 416.021 653.069 C 427.847 645.213 441.083 636.507 451.363 626.759 C 465.784 613.085 477.609 599.798 493.258 587.279 C 493.577 602.124 494.035 603.457 487.828 616.965 C 490.558 621.599 491.745 623.733 495.258 627.884 C 489.577 627.891 482.253 627.588 476.82 628.899 C 451.159 635.09 444.829 665.873 416.125 654.822 L 416.021 653.069 z" fill="rgb(250,248,236)" transform="translate(0,0)"></path>
<path d="M 494.993 537.206 C 501.584 537.921 500.922 541.322 508.344 541.511 C 513.418 541.641 518.058 543.769 519.308 549.157 C 517.827 555.806 514.19 560.3 507.124 561.124 L 504.679 561.717 L 505.161 563.759 L 504.227 563.911 L 503.567 562.509 L 502.513 562.698 L 500.254 561.049 C 499.514 562.882 499.711 561.89 500.353 564.189 C 501.475 564.802 504.979 566.796 505.139 568.039 C 506.406 579.171 504.182 590.172 505.515 601.41 C 506.395 608.825 514.407 617.164 510.519 623.74 C 507.013 625.253 498.414 628.801 495.132 625.446 C 488.881 619.055 495.823 606.346 495.693 598.679 C 495.586 592.388 495.351 586.355 495.115 580.185 C 493.628 577.471 492.118 574.77 490.585 572.082 C 491.257 563.139 488.93 558.063 496.968 552.677 L 491.084 552.2 C 486.478 547.184 491.701 541.819 494.993 537.206 z" fill="rgb(165,111,39)" transform="translate(0,0)"></path>
<path d="M 424.949 668.664 C 429.301 667.238 427.324 667.087 431.089 668.268 C 434.693 673.187 436.055 682.85 434.942 688.729 C 430.104 703.745 435.187 767.235 432.615 788.276 L 429.435 789.013 C 424.828 786.818 430.061 721.542 425.944 714.349 C 424.402 706.626 426.232 696.535 424.087 687.44 C 423.875 683.646 424.737 673.093 424.949 668.664 z" fill="rgb(149,93,32)" transform="translate(0,0)"></path>
<path d="M 494.993 537.206 C 517.131 521.87 536.134 552.877 514.266 565.794 C 513.478 566.256 512.685 566.709 511.887 567.151 C 511.707 569.202 511.59 568.395 511.859 569.598 L 507.824 569.741 C 507.618 566.65 507.971 565.79 508.468 562.732 L 507.124 561.124 C 514.19 560.3 517.827 555.806 519.308 549.157 C 518.058 543.769 513.418 541.641 508.344 541.511 C 500.922 541.322 501.584 537.921 494.993 537.206 z" fill="rgb(149,93,32)" transform="translate(0,0)"></path>
<path d="M 108.702 908.94 C 108.697 904.258 108.264 902.336 110.3 898.32 C 117 893.235 128.145 902.277 134.022 906.734 C 128.923 908.972 122.344 914.076 117.074 913.356 C 115.122 913.089 112.305 910.405 110.461 909.434 L 108.702 908.94 z" fill="rgb(149,93,32)" transform="translate(0,0)"></path>
<path d="M 108.702 908.94 L 110.461 909.434 C 114.177 916.508 118.867 917.293 125.693 913.563 L 130.928 916.011 C 123.799 915.399 122.337 917.149 116.056 920.66 C 113.708 917.767 108.919 912.358 108.702 908.94 z" fill="rgb(149,93,32)" transform="translate(0,0)"></path>
<path d="M 257.73 510.475 C 288.595 511.986 287.742 524.161 298.733 548.832 C 300.609 552.555 310.11 562.417 309.657 566.517 C 307.833 583.033 306.524 590.491 309.502 607.393 C 291.321 620.418 285.383 620.297 263.728 620.051 C 268.506 621.852 272.824 622.9 277.738 624.199 L 283.192 640.725 C 292.845 639.932 302.489 639.036 312.122 638.037 C 313.171 646.202 313.324 659.074 313.615 667.614 C 310.006 661.752 309.332 658.368 304.394 652.616 C 312.37 689.379 360.073 689.244 333.922 729.731 C 319.656 751.817 310.852 787.76 304.822 813.876 C 315.161 842.804 318.324 874.39 325.972 904.108 C 337.314 948.178 352.761 991.396 370.001 1033.44 C 348.321 1054.12 312.393 1077.61 285.599 1090.63 C 249.961 1107.96 210.636 1110.04 181.295 1080.22 C 171.729 1070.5 162.22 1058.37 151.536 1050.15 C 144.311 1044.6 133.491 1041.2 124.681 1038.06 C 145.404 1016.74 171.631 989.03 183.974 961.316 C 185.98 956.812 187.422 948.763 188.383 943.755 C 193.054 917.188 189.827 866.271 201.466 847.221 C 239.855 784.391 260.888 794.358 218.729 718.033 C 219.843 709.61 222.305 692.122 221.808 684.426 L 220.779 684.451 C 218.306 689.899 217.314 713.466 214.354 723.672 C 205.96 752.615 193.558 777.404 181.201 804.726 C 178.341 811.05 177.152 824.558 173.565 831.105 C 168.142 841.004 160.487 850.477 153.976 859.612 C 147.031 869.357 137.691 880.105 133.99 891.402 L 137.359 905.995 C 132.612 902.658 128.189 900.225 123.166 897.391 C 124.76 887.795 130.871 878.799 133.657 869.37 C 137.609 855.994 139.865 845.656 144.912 832.323 C 147.293 822.217 165.105 807.065 166.683 798.418 C 172.113 763.462 176.843 730.5 188.248 697.056 C 201.071 659.457 200.681 664.031 234.051 644.462 C 236.429 643.067 242.973 634.53 243.851 631.605 C 245.338 626.651 248.248 624.696 250.613 620.651 L 249.759 619.354 C 232.928 612.783 215.439 593.371 204.198 579.566 C 213.415 583.712 228.854 591.448 238.842 590.747 C 238.358 589.359 237.086 588.674 235.573 588.345 C 159.593 571.829 205.758 514.126 257.73 510.475 z" fill="rgb(149,93,32)" transform="translate(0,0)"></path>
<path d="M 309.544 900.738 C 310.547 907.212 308.783 918.217 307.975 924.902 C 302.596 969.421 289.33 1012.81 271.36 1053.8 C 266.647 1064.55 260.499 1077.64 252.897 1086.61 C 252.783 1085.77 252.669 1084.93 252.555 1084.09 C 259.742 1072.42 268.345 1056.46 273.239 1043.98 C 285.391 1013 295.918 982.747 302.073 950.051 C 305.102 933.96 306.043 917.511 309.303 901.589 C 309.383 901.305 309.463 901.022 309.544 900.738 z" fill="rgb(43,21,6)" transform="translate(0,0)"></path>
<path d="M 314.526 876.782 C 316.518 880.139 313.711 889.132 312.206 892.466 C 302.781 913.343 281.914 931.856 261.222 940.974 L 260.613 940.404 L 260.876 939.159 C 288.68 923.552 306.64 908.373 314.526 876.782 z" fill="rgb(43,21,6)" transform="translate(0,0)"></path>
<path d="M 334.939 1072.05 C 331.463 1071.08 330.475 1071.45 328.354 1069.23 C 339.332 1059.99 352.073 1051.98 363.375 1042.66 C 377.444 1106.11 400.867 1186.5 428.232 1246.88 C 432.038 1255.27 453.754 1271.58 462.519 1284.6 C 449.254 1286.68 428.026 1287.23 417.218 1279.4 C 410.069 1274.22 409.569 1247.56 403.598 1236.53 C 389.251 1210.02 372.485 1185.78 355.564 1160.94 C 334.725 1132.05 322.72 1109.9 334.918 1073.17 L 334.939 1072.05 z" fill="rgb(149,93,32)" transform="translate(0,0)"></path>
<path d="M 334.939 1072.05 C 340.476 1071.87 349.436 1071.65 354.654 1073.4 C 349.035 1073.97 340.162 1075.05 334.918 1073.17 L 334.939 1072.05 z" fill="rgb(85,48,11)" transform="translate(0,0)"></path>
<path d="M 175.076 1078.56 C 176.436 1079.15 184.597 1086.36 186.666 1087.99 C 195.25 1094.77 199.875 1097.25 209.687 1101.77 C 184.199 1143.98 136.208 1193.82 118.67 1241.58 C 115.717 1249.62 116.989 1270.04 117.568 1278.76 L 117.797 1282.12 L 116.499 1283.53 C 111.301 1283.75 104.159 1278.47 100.494 1275.23 C 86.9317 1263.24 96.6923 1250.3 96.5093 1235.57 C 96.4605 1231.66 92.0774 1221.53 92.3445 1217.77 C 93.3072 1204.26 116.292 1208.24 122.352 1195.78 C 143.542 1152.24 135.44 1113 175.076 1078.56 z" fill="rgb(149,93,32)" transform="translate(0,0)"></path>
<path d="M 550.961 792.428 C 573.913 791.004 617.476 791.162 639.502 798.139 C 631.762 813.129 623.154 821.603 608.417 829.391 C 571.219 844.474 544.946 829.563 524.262 798.318 L 525.65 797.638 C 535.634 792.67 539.847 793.085 550.961 792.428 z" fill="rgb(149,93,32)" transform="translate(0,0)"></path>
<path d="M 427.758 791.344 C 448.292 791.864 469.741 791.965 489.901 795.67 C 487.427 800.504 484.604 805.152 481.457 809.578 C 469.77 825.668 456.784 831.077 437.875 833.898 C 404.504 834.602 390.289 825.329 374.616 796.505 C 390.76 793.948 411.168 792.708 427.758 791.344 z" fill="rgb(149,93,32)" transform="translate(0,0)"></path>
<path d="M 175.942 569.735 C 181.13 574.55 178.635 583.888 194.974 589.311 C 196.316 599.917 201.096 610.975 201.311 621.861 C 201.89 651.116 192.193 667.295 173.527 687.913 C 170.298 691.236 166.623 694.567 163.229 697.76 C 168.624 673.167 167.791 659.787 161.918 634.93 C 155.937 609.62 155.352 588.718 175.942 569.735 z" fill="rgb(149,93,32)" transform="translate(0,0)"></path>
<path d="M 32.8862 756.651 C 43.4669 791.276 57.0016 820.612 74.0658 852.626 C 84.223 871.682 93.9515 884.503 101.504 905.033 L 90.1957 914.779 C 87.7818 915.461 87.9545 915.407 86.2448 917.262 C 81.22 910.487 76.3415 903.605 71.6127 896.621 C 50.8953 866.101 30.9794 825.615 29.3687 788.02 C 28.9424 778.07 31.0197 766.358 32.8862 756.651 z" fill="rgb(149,93,32)" transform="translate(0,0)"></path>
<path d="M 418.824 615.837 C 425.34 616.603 428.652 634.573 429.903 640.16 C 409.704 657.075 389.441 661.249 364.516 667.807 L 360.702 668.377 C 359.481 662.123 372.108 655.401 362.363 635.934 C 368.195 635.091 397.15 632.98 399.965 630.212 C 405.702 624.57 410.382 620.788 418.824 615.837 z" fill="rgb(149,93,32)" transform="translate(0,0)"></path>
<path d="M 353.748 636.44 C 355.198 636.251 356.955 636.353 358.462 636.363 C 367.936 642.981 361.606 661.361 355.453 668.036 C 349.772 674.199 333.531 675.591 325.235 676.872 C 320.073 676.612 318.828 674.196 316.129 670.321 L 314.361 638.107 C 327.135 638.056 340.994 637.216 353.748 636.44 z" fill="rgb(149,93,32)" transform="translate(0,0)"></path>
<path d="M 486.911 570.145 C 489.608 574.388 491.94 578.706 494.38 583.097 C 488.826 587.591 481.578 593.817 476.506 598.282 C 470.177 603.853 438.523 637.472 431.993 637.608 C 429.517 626.432 428.236 623.28 422.247 613.531 C 443.629 598.813 465.185 584.35 486.911 570.145 z" fill="rgb(165,111,39)" transform="translate(0,0)"></path>
<path d="M 113.791 924.897 L 116.013 924.641 C 129.346 930.179 139.5 955.468 144.768 967.981 C 139.277 971.389 130.569 975.083 124.439 977.879 L 122.982 977.783 C 116.757 973.243 101.252 946.705 94.5085 937.741 C 102.89 931.446 104.457 929.801 113.791 924.897 z" fill="rgb(149,93,32)" transform="translate(0,0)"></path>
<path d="M 90.1957 914.779 C 94.919 914.441 100.987 908.724 105.164 905.466 C 106.943 909.896 112.959 920.524 112.405 922.729 C 103.895 930.119 92.7571 933.324 83.7156 938.888 C 81.5571 940.216 82.1932 950.262 79.0409 952.927 C 73.1863 951.225 65.7851 944.462 67.7539 937.827 C 74.339 931.6 85.6079 933.692 89.8379 925.27 C 89.9218 921.94 88.1528 920.127 86.2448 917.262 C 87.9545 915.407 87.7818 915.461 90.1957 914.779 z" fill="rgb(149,93,32)" transform="translate(0,0)"></path>
<path d="M 190.125 560.751 L 192.047 561.112 C 194.738 563.09 198.372 571.288 200.878 575.304 C 198.692 580.498 198.052 585.383 192.264 586.255 C 189.114 583.945 183.064 578.521 181.158 575.084 C 176.533 566.744 184.673 563.558 190.125 560.751 z" fill="rgb(149,93,32)" transform="translate(0,0)"></path>
<path d="M 121.956 919.117 C 127.943 918.442 132.12 917.548 134.83 923.846 C 134.907 928.609 133.204 930.956 131.048 935.246 C 128.118 932.967 121.92 925.385 120.433 921.604 L 121.956 919.117 z" fill="rgb(250,248,236)" transform="translate(0,0)"></path>
<path d="M 457.609 889.648 C 464.177 894.382 477.998 910.314 483.889 916.841 C 496.805 931.309 509.872 945.642 523.087 959.837 C 544.678 937.35 566 912.941 586.862 889.635 C 587.591 940.407 586.918 992.115 587.105 1042.95 L 559.977 1042.79 L 560.034 1011.07 C 560.103 993.195 560.381 975.32 560.868 957.45 C 547.869 970.279 536.908 984.375 522.59 998.097 C 510.692 987.285 495.095 968.517 484.109 955.926 L 484.155 1042.99 L 457.07 1042.97 L 457.169 941.547 C 457.163 926.657 456.452 904.042 457.609 889.648 z" fill="rgb(149,93,32)" transform="translate(0,0)"></path>
<path d="M 656.512 889.493 C 661.753 893.608 721.827 1027.47 728.096 1043.57 L 699.32 1043.64 C 695.611 1034.41 692.451 1026.26 689.244 1016.79 L 660.827 1016.7 L 624.895 1016.75 L 614.828 1042.99 L 586.932 1042.93 C 596.525 1017.49 609.479 990.429 620.827 965.444 C 631.703 941.496 643.86 912.344 656.512 889.493 z" fill="rgb(149,93,32)" transform="translate(0,0)"></path>
<path d="M 656.454 940.744 C 660.327 945 675.893 983.714 679.118 991.424 C 672.194 991.707 664.808 991.704 657.841 991.822 C 649.101 991.885 643.035 991.773 634.361 991.025 L 656.454 940.744 z" fill="rgb(250,248,236)" transform="translate(0,0)"></path>
<path d="M 541.012 1123.97 C 548.203 1124.08 556.188 1123.62 562.339 1127.52 C 579.196 1138.2 571.476 1154.96 553.582 1157.3 C 556.816 1162.17 569.738 1177.48 569.739 1181.65 L 567.86 1182.26 L 564.481 1180.47 C 558.397 1171.82 551.86 1162 545.013 1154.06 C 545.032 1160.13 545.06 1176.01 544.157 1181.67 L 542.6 1182.19 C 538.73 1171.89 540.736 1137.05 541.012 1123.97 z" fill="rgb(15,7,2)" transform="translate(0,0)"></path>
<path d="M 545.03 1128.02 C 559.858 1128.5 571.846 1133.54 562.679 1150.12 C 555.861 1153.79 552.717 1152.97 545.005 1152.53 L 545.03 1128.02 z" fill="rgb(254,248,214)" transform="translate(0,0)"></path>
<path d="M 494.521 1124.19 C 501.021 1123.43 521.361 1124.33 522.402 1132.53 L 520.529 1133.67 C 514.614 1133.47 509.375 1128.39 505.526 1128.23 C 468.808 1126.78 464.409 1172.06 502.621 1178.97 C 509.623 1177.96 518.158 1172.7 522.216 1173.09 L 522.474 1174.51 C 513.65 1185.03 500.419 1185.71 488.6 1180.03 C 480.931 1176.33 475.118 1169.65 472.521 1161.54 C 470.13 1154.06 470.812 1145.93 474.416 1138.95 C 479.093 1130.1 485.492 1126.94 494.521 1124.19 z" fill="rgb(15,7,2)" transform="translate(0,0)"></path>
<path d="M 626.53 1138.8 C 624.625 1150.3 623.517 1162.5 622.557 1174.12 C 622.172 1178.78 622.429 1180.53 619.152 1183.29 L 617.564 1182.88 L 616.93 1181.67 C 616.874 1176.66 622.457 1124.76 623.335 1123.53 C 625.574 1125.13 626.371 1128.53 627.429 1131.31 L 626.272 1132.61 C 627.824 1137.08 628.044 1135.11 626.53 1138.8 z" fill="rgb(15,7,2)" transform="translate(0,0)"></path>
<path d="M 592.096 1123.15 L 595.199 1124.34 C 597.577 1129.63 596.444 1175.6 595.747 1183.64 L 592.483 1182.11 C 590.234 1177.73 591.789 1130.69 592.096 1123.15 z" fill="rgb(15,7,2)" transform="translate(0,0)"></path>
<path d="M 695.966 1123.3 L 698.888 1124.62 C 700.857 1129.48 700.97 1178.21 698.912 1183.5 L 696.637 1182.73 C 694.199 1179.07 695.103 1130.25 695.966 1123.3 z" fill="rgb(15,7,2)" transform="translate(0,0)"></path>
<path d="M 627.429 1131.31 C 633.926 1144.05 639.41 1157.21 645.547 1170.12 C 646.969 1170.63 648.5 1171.07 649.774 1171.78 C 648.998 1174.58 647.889 1180.21 645.309 1181.44 C 638.791 1167.74 632.545 1152.76 626.53 1138.8 C 628.044 1135.11 627.824 1137.08 626.272 1132.61 L 627.429 1131.31 z" fill="rgb(15,7,2)" transform="translate(0,0)"></path>
<path d="M 668.503 1143.21 C 669.337 1149.16 674.324 1177.99 673.211 1181.69 L 671.578 1183.32 C 667.421 1180.9 665.056 1152.88 664.228 1146.45 L 668.503 1143.21 z" fill="rgb(43,21,6)" transform="translate(0,0)"></path>
<path d="M 659.355 1139.66 C 662.195 1140.03 662.112 1139.45 663.504 1140.83 C 658.67 1151.04 654.092 1161.35 649.774 1171.78 C 648.5 1171.07 646.969 1170.63 645.547 1170.12 C 650.429 1160.14 654.862 1149.83 659.355 1139.66 z" fill="rgb(43,21,6)" transform="translate(0,0)"></path>
<path d="M 666.315 1120.85 C 667.006 1128.11 667.593 1136.03 668.503 1143.21 L 664.228 1146.45 L 663.504 1140.83 C 662.112 1139.45 662.195 1140.03 659.355 1139.66 C 661.808 1133.32 664.121 1127.29 666.315 1120.85 z" fill="rgb(15,7,2)" transform="translate(0,0)"></path>
<path d="M 2048 1491.35 L 2048 2048 L 908.817 2048 C 1180.56 1850.84 1477.84 1691.53 1792.5 1574.44 C 1842.26 1555.56 1892.58 1538.17 1943.38 1522.3 C 1976.66 1512.02 2016.17 1502.02 2048 1491.35 z" fill="rgb(240,207,147)" transform="translate(0,0)"></path>
<path d="M 2048 53.9229 L 2048 122.04 C 2033.88 128.335 2011.82 141.511 1997.9 149.312 C 1963.28 168.377 1929.07 188.173 1895.29 208.686 C 1684.73 333.567 1491.59 485.717 1320.89 661.186 C 1258.71 725.132 1199.82 790.15 1145.83 861.376 C 1135 875.665 1125.52 890.523 1115.24 905.141 C 1145.9 926.919 1156.23 967.732 1139.61 1001.47 C 1122.99 1035.21 1084.34 1051.89 1048.38 1040.85 C 1039.88 1051.32 1021.49 1073.31 1014.97 1084.48 C 957.743 1085.51 899.022 1084.55 841.603 1084.72 L 767.184 1084.95 C 755.046 1084.98 738.256 1085.46 726.473 1084.77 C 734.551 1083.29 793.642 1083.97 805.856 1084 C 813.116 1072.13 828.092 1048.66 836.882 1038.26 C 839.32 1040.54 838.904 1040.91 841.675 1041.4 C 842.819 1033.06 841.89 1004.54 841.886 993.884 C 845.359 993.125 846.791 992.044 848.661 989.267 C 834.415 945.188 863.226 904.078 905.771 891.472 C 923.352 871.648 938.5 849.868 955.027 829.294 C 970.843 809.113 989.475 790.052 1005.4 770.133 C 1169.99 564.24 1389 412.086 1620.48 289.994 C 1710.89 242.311 1807.13 199.657 1897.31 149.719 C 1949.4 120.814 1999.72 88.8252 2048 53.9229 z" fill="rgb(240,207,147)" transform="translate(0,0)"></path>
<path d="M 1048.38 1040.85 C 1019.41 1031.96 998.399 1006.81 994.797 976.716 C 991.194 946.619 1005.67 917.228 1031.73 901.743 C 1057.79 886.258 1090.53 887.59 1115.24 905.141 C 1145.9 926.919 1156.23 967.732 1139.61 1001.47 C 1122.99 1035.21 1084.34 1051.89 1048.38 1040.85 z" fill="rgb(149,93,32)" transform="translate(0,0)"></path>
<path d="M 1062.36 1016.93 C 1039.47 1012.99 1022.26 993.895 1020.7 970.722 C 1019.15 947.549 1033.66 926.325 1055.82 919.366 C 1077.98 912.407 1102.02 921.522 1113.99 941.422 C 1124.14 958.282 1123.52 979.509 1112.42 995.751 C 1101.31 1011.99 1081.75 1020.27 1062.36 1016.93 z" fill="rgb(240,207,147)" transform="translate(0,0)"></path>
<path d="M 1113.99 941.422 C 1124.14 958.282 1123.52 979.509 1112.42 995.751 C 1101.31 1011.99 1081.75 1020.27 1062.36 1016.93 C 1073.5 1013.48 1107.28 954.713 1113.99 941.422 z" fill="rgb(212,168,75)" transform="translate(0,0)"></path>
<path d="M 905.771 891.472 C 927.207 887.751 945.522 890.02 963.517 902.839 C 970.451 907.853 976.638 913.826 981.893 920.579 C 975.513 926.85 969.247 933.236 963.099 939.735 C 953.079 927.232 943.744 918.3 926.724 916.3 C 914.021 914.743 901.249 918.596 891.525 926.916 C 880.841 936.058 874.181 949.036 872.983 963.047 C 868.906 1012.82 937.141 1046.26 961.679 985.795 L 917.161 986.311 L 917.229 962.685 C 942.24 962.912 967.253 962.596 992.251 961.739 C 991.585 1032.99 924.055 1073.38 868.172 1020.96 C 859.019 1012.38 853.678 1000.6 848.661 989.267 C 834.415 945.188 863.226 904.078 905.771 891.472 z" fill="rgb(149,93,32)" transform="translate(0,0)"></path>
<path d="M 802.229 1089.97 L 934.714 1090.05 C 956.771 1090.04 983.649 1090.77 1005.37 1089.96 L 1009.94 1091.08 L 1010.55 1092.43 C 1005.43 1100.68 968.749 1145.08 960.955 1152.42 C 958.498 1158.51 956.902 1161.07 953.533 1166.67 C 957.916 1170.76 963.259 1175.09 965.916 1180.35 L 965.953 1182.21 C 960.801 1181.59 954.558 1174.24 950.81 1170.41 C 943.864 1178.08 940.54 1181.99 929.726 1183.51 C 925.14 1194.75 914.237 1211.24 907.445 1222.03 L 870.174 1280.85 C 840.038 1328.45 811.587 1377.09 784.874 1426.68 C 677.332 1626.56 584.986 1834.26 508.619 2048 L 409.5 2048 C 453.41 1809.96 530.551 1579.27 638.661 1362.7 C 652.642 1334.23 667.387 1305.34 683.951 1278.33 L 728.899 1205.22 C 735.518 1194.68 750.08 1175.84 753.677 1164.9 C 759.617 1171.54 765.168 1177.65 771.432 1184.02 C 766.89 1167.81 767.655 1160.41 767.814 1143.52 C 776.459 1136.02 794.838 1102.11 802.229 1089.97 z" fill="rgb(240,207,147)" transform="translate(0,0)"></path>
<path d="M 927.655 1147.51 C 902.73 1108.89 973.501 1122.61 934.999 1148.76 L 949.918 1163.52 C 953.165 1157.54 953.828 1152.11 960.955 1152.42 C 958.498 1158.51 956.902 1161.07 953.533 1166.67 C 957.916 1170.76 963.259 1175.09 965.916 1180.35 L 965.953 1182.21 C 960.801 1181.59 954.558 1174.24 950.81 1170.41 C 943.864 1178.08 940.54 1181.99 929.726 1183.51 C 920.222 1181.66 910.397 1176.58 912.532 1164.8 C 914.178 1155.72 920.447 1152.16 927.655 1147.51 z" fill="rgb(15,7,2)" transform="translate(0,0)"></path>
<path d="M 929.652 1150.75 C 932.735 1151.33 945.066 1164.51 947.972 1167.41 C 943.15 1173.21 940.757 1175.12 934.118 1178.62 C 929.211 1179.2 921.617 1178.76 919.195 1174.14 C 913.282 1162.86 922.24 1155.5 929.652 1150.75 z" fill="rgb(240,207,147)" transform="translate(0,0)"></path>
<path d="M 930.892 1126.82 C 935.622 1126.89 936.65 1127.04 940.078 1129.63 C 943.61 1136.27 940.236 1139.28 935.134 1143.5 C 931.438 1144.87 931.816 1144.34 928.819 1142.29 C 924.97 1135.97 925.702 1131.75 930.892 1126.82 z" fill="rgb(240,207,147)" transform="translate(0,0)"></path>
<path d="M 807.89 1124.72 C 811.237 1127.85 830.085 1177.01 830.173 1182.1 L 828.191 1182.77 C 824.039 1180.67 820.85 1168.24 819.183 1163.25 L 807.683 1163.26 L 797.096 1163.33 C 794.22 1171.49 792.555 1177.29 787.115 1184.14 L 786.403 1183.41 C 787.122 1173.69 803.18 1136.6 807.89 1124.72 z" fill="rgb(15,7,2)" transform="translate(0,0)"></path>
<path d="M 808.112 1136.56 C 810.918 1139.84 815.807 1153.32 817.059 1158 C 815.224 1159.64 813.465 1159.05 810.25 1159.17 C 804.787 1159.42 797.177 1160.43 800.943 1151.78 C 803.131 1146.76 805.804 1141.59 808.112 1136.56 z" fill="rgb(240,207,147)" transform="translate(0,0)"></path>
<path d="M 851.232 1123.79 L 852.279 1124.76 C 854.029 1129.26 853.099 1170.13 853.044 1178.29 C 858.198 1178.08 863.719 1177.47 868.64 1178.65 L 869.66 1180.43 L 868.728 1182.95 L 848.305 1183.04 C 848.297 1169.39 847.848 1140.68 849.102 1126.14 C 849.812 1125.35 850.522 1124.57 851.232 1123.79 z" fill="rgb(15,7,2)" transform="translate(0,0)"></path>
<path d="M 1242.68 1084.08 L 1751.55 1083.83 L 1906.59 1083.92 C 1916.66 1083.91 1978.85 1082.52 1981.98 1085.17 L 1981.72 1087.07 C 1978.13 1089.65 1962.9 1088.27 1957.16 1088.36 C 1945 1088.55 1932.68 1088.52 1920.5 1088.61 L 1733.78 1089.01 L 1675.86 1088.94 C 1668.08 1088.93 1652.3 1088.51 1645.31 1089.18 L 1238.09 1089.93 L 1005.37 1089.96 C 983.649 1090.77 956.771 1090.04 934.714 1090.05 L 802.229 1089.97 L 512.541 1087.89 C 507.9 1086.84 495.176 1086.42 489.98 1086.15 L 726.473 1084.77 C 738.256 1085.46 755.046 1084.98 767.184 1084.95 L 841.603 1084.72 C 899.022 1084.55 957.743 1085.51 1014.97 1084.48 L 1242.68 1084.08 z" fill="rgb(149,93,32)" transform="translate(0,0)"></path>
<path d="M 1561.13 891.867 C 1570.58 892.01 1582.92 892.166 1592.11 891.235 C 1589.52 896.706 1587.23 902.455 1584.8 908.018 C 1568.94 944.344 1552.31 979.84 1538.08 1016.88 C 1534.08 1026.73 1530.03 1036.56 1525.91 1046.36 C 1524.39 1041.99 1522.94 1037.59 1521.54 1033.18 C 1516.45 1017.35 1507.42 995.029 1501.18 979.793 C 1495.58 1000.54 1484.47 1026.28 1476.07 1045.96 L 1409.64 893.734 L 1439.62 893.811 C 1451.2 922.322 1464.14 953.073 1477.94 980.614 C 1482.9 968.73 1487.12 959.117 1492.88 947.614 C 1489.32 937.449 1471.02 899.83 1472.73 893.332 C 1475.8 892.706 1475.77 892.881 1478.92 893.412 C 1485.43 903.969 1495.34 928.787 1502.39 942.248 C 1511.26 928.993 1517.41 914.007 1523.78 899.455 C 1525.17 896.285 1530.44 890.317 1534.27 892.391 C 1536.26 897.912 1516.94 938.657 1513.18 949.192 C 1515.25 955.962 1523.02 970.834 1526.45 977.33 C 1537.65 948.026 1549.13 920.806 1561.13 891.867 z" fill="rgb(149,93,32)" transform="translate(0,0)"></path>
<path d="M 1371.92 890.259 C 1375.67 899.226 1379.55 908.142 1383.54 917.004 C 1397.18 945.431 1410.61 973.97 1423.94 1002.54 C 1430.47 1016.51 1438.77 1030.73 1445.19 1044.5 L 1416.18 1044.69 C 1412.23 1036.53 1408.25 1027.84 1403.59 1020.1 C 1381.42 1019.93 1359.25 1019.9 1337.08 1020 C 1333.25 1027.98 1328.7 1036.93 1325.21 1044.97 C 1319.77 1045.02 1300.64 1045.73 1296.72 1044 C 1297.89 1040.21 1305.65 1024.68 1307.7 1020.32 C 1315.74 1006.35 1327.61 980.988 1335.24 966.069 C 1348.48 941.032 1358.83 915.307 1371.92 890.259 z" fill="rgb(149,93,32)" transform="translate(0,0)"></path>
<path d="M 1371.17 950.628 C 1375.4 956.825 1387.64 986.909 1391.42 995.87 L 1368.73 995.962 L 1348.81 996.015 C 1355.66 979.978 1362.88 965.891 1371.17 950.628 z" fill="rgb(212,168,75)" transform="translate(0,0)"></path>
<path d="M 1908.31 1045.66 C 1868.55 1032.58 1843.15 999.564 1850.23 956.73 C 1853.49 936.76 1864.57 918.912 1881.02 907.128 C 1897.16 895.735 1917.96 891.983 1937.27 895.429 C 1955.87 898.861 1972.39 909.441 1983.29 924.902 C 1975.32 930.653 1968.37 936.313 1960.78 942.497 C 1952.54 930.699 1940.43 922.622 1925.84 921.552 C 1913.37 920.76 1901.09 924.989 1891.75 933.298 C 1881.46 942.593 1876.25 955.911 1876.07 969.625 C 1876.02 983.545 1881.54 996.908 1891.4 1006.74 C 1900.15 1015.64 1912.26 1020.42 1924.74 1019.88 C 1941.13 1019.19 1950.7 1011.23 1961.14 1000.02 L 1968.47 1005.02 C 1974.22 1009.41 1979.2 1013.16 1985.22 1017.15 C 1961.64 1040.87 1942.17 1051.84 1908.31 1045.66 z" fill="rgb(149,93,32)" transform="translate(0,0)"></path>
<path d="M 1740.32 892.828 L 1767.44 892.711 L 1767.66 1016.17 L 1848.01 1016.31 L 1848 1044.83 C 1812.55 1044.43 1776.29 1044.61 1740.83 1044.79 C 1740.92 994.134 1740.74 943.48 1740.32 892.828 z" fill="rgb(149,93,32)" transform="translate(0,0)"></path>
<path d="M 1630.04 891.592 C 1638.96 891.492 1648.1 891.499 1657 891.282 C 1657 916.153 1656.08 947.751 1657.15 972.056 C 1656.43 984.705 1656.99 1003.26 1656.97 1016.36 C 1681.5 1016.9 1708.06 1016.32 1732.74 1016.21 L 1732.71 1044.63 C 1700.95 1043.67 1661.89 1044.22 1630.09 1044.81 C 1630.35 1011.41 1630.38 978.015 1630.16 944.617 L 1630.04 891.592 z" fill="rgb(149,93,32)" transform="translate(0,0)"></path>
<path d="M 1200.98 894.043 L 1227.7 894.007 C 1226.86 934.796 1227.55 978.379 1227.38 1019.51 L 1281.34 1019.12 L 1305.88 1019.1 C 1302.81 1026.38 1296.5 1037.32 1294.77 1043.45 C 1290.76 1045.94 1282.09 1045.11 1276.87 1044.99 L 1201.26 1045 L 1200.98 894.043 z" fill="rgb(149,93,32)" transform="translate(0,0)"></path>
<path d="M 1030.25 1124.89 C 1045.98 1121.49 1061.49 1131.51 1064.87 1147.25 C 1068.24 1162.99 1058.21 1178.49 1042.47 1181.85 C 1026.75 1185.21 1011.28 1175.19 1007.9 1159.47 C 1004.53 1143.75 1014.53 1128.27 1030.25 1124.89 z" fill="rgb(15,7,2)" transform="translate(0,0)"></path>
<path d="M 1032.33 1128.98 C 1045.57 1126.82 1058.12 1135.63 1060.58 1148.82 C 1063.04 1162.01 1054.53 1174.75 1041.4 1177.52 C 1032.64 1179.37 1023.56 1176.33 1017.67 1169.57 C 1011.79 1162.81 1010.03 1153.39 1013.08 1144.97 C 1016.12 1136.54 1023.49 1130.42 1032.33 1128.98 z" fill="rgb(212,168,75)" transform="translate(0,0)"></path>
<path d="M 1329.63 1124.13 C 1341.95 1124.22 1352.9 1122.96 1363.16 1130.82 C 1369.32 1135.6 1373.26 1142.68 1374.07 1150.44 C 1375.13 1160.24 1372.28 1168.33 1366.12 1175.8 C 1355.72 1184.11 1341.7 1182.83 1329.01 1182.69 L 1329.63 1124.13 z" fill="rgb(15,7,2)" transform="translate(0,0)"></path>
<path d="M 1333.82 1129 C 1342.99 1128.77 1350.44 1128.3 1358.56 1133.45 C 1373.49 1142.91 1372.37 1158.67 1363.71 1171.83 C 1354.19 1179.11 1345.38 1178.15 1333.82 1178.14 L 1333.82 1129 z" fill="rgb(212,168,75)" transform="translate(0,0)"></path>
<path d="M 1178.11 1124.42 C 1189.41 1124.48 1195.69 1124.18 1206.35 1127.64 C 1214.18 1132.33 1220.09 1137.66 1222.18 1147.06 C 1223.81 1154.67 1222.19 1162.62 1217.73 1169 C 1212.89 1176.06 1205.04 1181.02 1196.62 1182.5 C 1192.6 1183.2 1181.54 1182.97 1177.96 1180.74 C 1179.33 1168.21 1178.25 1138.12 1178.11 1124.42 z" fill="rgb(15,7,2)" transform="translate(0,0)"></path>
<path d="M 1182.86 1128.78 C 1194.51 1128.73 1198.56 1128.8 1208.76 1134.25 C 1238.48 1164.34 1193.49 1187.81 1183.13 1175.6 L 1182.9 1170.18 L 1182.86 1128.78 z" fill="rgb(212,168,75)" transform="translate(0,0)"></path>
<path d="M 1579.6 1123.25 L 1582.59 1124.07 C 1585.1 1127.38 1584.2 1173.98 1585.19 1182.93 L 1542.04 1135.7 C 1541.8 1151.73 1542.12 1167.67 1541.77 1183.79 L 1539.07 1182.86 C 1536.82 1178.62 1537.3 1131.84 1537.18 1123.48 C 1550.3 1136.66 1566.69 1156.16 1579.69 1170.5 C 1580.08 1155.61 1578.73 1136.65 1579.6 1123.25 z" fill="rgb(15,7,2)" transform="translate(0,0)"></path>
<path d="M 1488.1 1124 C 1495.31 1124.01 1512.21 1123.01 1518.02 1126.28 C 1513.56 1129.37 1498.74 1128.56 1492.62 1128.49 L 1492.64 1145.33 C 1499.58 1145.25 1508.98 1144.89 1515.68 1145.4 C 1517.42 1147.86 1517.22 1146.58 1517.06 1149.14 C 1513.46 1150.8 1503.54 1148.11 1494.45 1150.81 C 1492.02 1153.32 1492.85 1153.07 1492.65 1157.75 L 1492.64 1178.28 C 1497.69 1178.21 1515.31 1177.65 1519.26 1178.48 L 1520.23 1180.3 L 1519.32 1181.93 C 1512.86 1183.27 1495.45 1182.7 1487.98 1182.62 L 1488.1 1124 z" fill="rgb(15,7,2)" transform="translate(0,0)"></path>
<path d="M 1656.66 1124.31 C 1663.39 1124.19 1681.39 1123.44 1686.91 1125.1 L 1687.21 1126.71 C 1683.3 1130.18 1667.44 1128.74 1661.06 1128.67 L 1661.06 1146 C 1667.4 1145.92 1681.72 1144.75 1686.21 1147.63 L 1686.02 1148.97 C 1679.07 1153.2 1670.22 1148.3 1661.51 1151.43 L 1661.12 1154.75 L 1661.15 1177.96 C 1668.36 1177.85 1681.91 1176.33 1686.78 1180.01 L 1686.03 1181.34 C 1679.11 1182.94 1664.67 1182.28 1656.84 1182.2 L 1656.66 1124.31 z" fill="rgb(15,7,2)" transform="translate(0,0)"></path>
<path d="M 1394.56 1124.02 C 1400 1123.97 1418.77 1123.25 1422.57 1124.44 L 1422.45 1126.72 C 1418.32 1130.23 1405.17 1128.75 1398.89 1128.56 L 1398.92 1146.25 C 1404.73 1146.06 1413.75 1145.04 1418.56 1147.96 L 1417.33 1149.25 C 1411.46 1151.34 1405.11 1150.91 1398.81 1150.97 L 1398.77 1165.25 L 1398.73 1178.95 C 1405.83 1178.85 1418.98 1177.33 1423.69 1181.07 L 1423.03 1182.33 C 1417.08 1183.78 1401.02 1183.25 1394.05 1183.18 L 1394.56 1124.02 z" fill="rgb(15,7,2)" transform="translate(0,0)"></path>
<path d="M 1243.01 1124.29 C 1254.58 1128.86 1233.94 1179.84 1261.63 1178.91 C 1288.24 1178.02 1271.37 1132.37 1278.6 1124.64 L 1280.61 1125.33 L 1281.22 1127.75 C 1281.19 1142.63 1284.94 1169.41 1273.32 1179.54 C 1269.59 1182.85 1264.61 1184.39 1259.66 1183.75 C 1244.44 1181.73 1241.34 1165.01 1241.87 1152.49 C 1242.26 1143.33 1241.62 1133.33 1243.01 1124.29 z" fill="rgb(15,7,2)" transform="translate(0,0)"></path>
<path d="M 1615.78 1122.98 L 1617.16 1122.95 C 1623.23 1122.74 1627.59 1124.28 1632.31 1128.23 C 1633.34 1131.29 1633.47 1129.89 1632.15 1132.61 C 1626.75 1132.86 1624.97 1126.99 1616.96 1127.16 C 1613.57 1128.68 1613.68 1129.2 1611.83 1132.4 C 1610.56 1140.85 1623.11 1148.77 1628.67 1154.44 C 1642.55 1168.58 1640.71 1181.04 1619.16 1183.45 C 1612.88 1181.77 1605.7 1178.14 1603.18 1171.71 C 1605.06 1169.74 1603.89 1170.49 1607.34 1170.3 C 1612.79 1177.13 1620.21 1182.67 1627.79 1176.17 C 1649.52 1157.55 1582.28 1143.61 1615.78 1122.98 z" fill="rgb(15,7,2)" transform="translate(0,0)"></path>
<path d="M 1078.62 1123.69 C 1084.6 1124.86 1098.41 1164.5 1101.59 1172.49 C 1104.69 1164.65 1118.71 1127.33 1123.12 1124.03 L 1124.66 1124.71 C 1125.18 1129.01 1124.23 1129.14 1122.27 1133.81 C 1115.22 1150.7 1107.78 1168 1101.62 1185.18 C 1097.86 1174.36 1078.61 1129.99 1078.62 1123.69 z" fill="rgb(15,7,2)" transform="translate(0,0)"></path>
<path d="M 1441.65 1124.89 C 1448.29 1124.76 1464.77 1123.62 1469.82 1127.01 C 1465.01 1129.87 1451.64 1129.11 1445.59 1129.06 L 1445.44 1147.45 C 1451.28 1147.47 1463.17 1146.18 1467.94 1148.6 L 1468.37 1150.31 L 1467.03 1151.87 L 1463.25 1152.04 L 1445.58 1152.16 C 1445.48 1159.4 1447.01 1176.59 1444.63 1182.32 L 1443.19 1182.9 L 1441.95 1181.82 C 1440.68 1177.7 1441.58 1132.47 1441.65 1124.89 z" fill="rgb(15,7,2)" transform="translate(0,0)"></path>
<path d="M 1159.14 1123.59 C 1159.19 1123.66 1160.59 1124.68 1160.24 1125.66 C 1153.64 1144.09 1145.47 1162.41 1138.55 1180.87 C 1138.18 1181.84 1136.69 1183.07 1136.17 1183.54 C 1134.76 1181.46 1135.24 1182.6 1134.76 1180.11 C 1137.45 1171.04 1153.12 1128.14 1159.14 1123.59 z" fill="rgb(15,7,2)" transform="translate(0,0)"></path>
<metadata><recraft-signature>{"signed_by": "recraft", "signature_b64": "accJCiXEAeIiXp0Cr2soOZfJb3+eP5Ef923A8KOfXePmV4hHi1R9e14Da5lpYOHMK5HQuHiWPMqLpttD1FTnCw==", "signing_algo": "Ed25519", "generation_timestamp": 1764903675, "identifier": "b4cec9b0-dfc4-40c7-a9c6-5be53a1403cd"}</recraft-signature></metadata></svg>