<svg xmlns="http://www.w3.org/2000/svg" height="1024" preserveAspectRatio="none" style="display: block;" version="1.1" viewBox="0 0 2048 2048" width="1024">
<path d="M 0 0 L 2048 0 L 2048 2048 L 0 2048 L 0 0 z" fill="rgb(255,255,255)" transform="translate(0,0)"></path>
<path d="M 553.158 459.388 C 571.987 452.664 596.308 452.565 614.972 460.754 C 640.686 472.219 647.095 500.047 659.848 521.366 C 690.563 572.706 720.733 634.845 693.579 694.5 C 668.682 749.195 584.658 724.512 545.022 704.538 C 486.717 675.156 423.741 602.575 461.366 534.763 C 475.105 509.814 508.195 475.293 535.446 465.838 C 541.557 464.847 547.735 462.325 553.158 459.388 z" fill="rgb(29,28,29)" transform="translate(0,0)"></path>
<path d="M 598.663 475.364 C 616.107 472.583 627.561 495.294 633.853 507.956 C 650.594 541.648 673.461 574.151 682.801 610.975 C 688.721 634.316 692.823 686.768 664.743 698.534 C 651.429 703.745 629.736 696.191 617.027 689.948 C 589.193 674.312 573.613 658.358 553.671 633.718 C 500.817 568.413 500.843 489.541 598.663 475.364 z" fill="rgb(249,208,82)" transform="translate(0,0)"></path>
<path d="M 577.494 471.317 C 579.232 471.101 584.397 471.18 586.404 471.165 L 586.775 472.118 C 586.117 472.267 585.459 472.415 584.801 472.564 C 547.478 477.764 507.74 506.42 495.762 543.548 C 481.223 588.609 517.492 637.134 550.14 664.889 C 573.337 684.609 600.926 702.172 631.434 708.133 C 636.014 709.062 641.963 708.44 646.31 709.757 C 644.155 711.48 639.192 711.189 636.1 711.314 C 594.19 710.351 555.813 692.989 524.069 668.718 C 476.092 632.036 446.386 575.539 489.538 523.165 C 512.204 495.656 541.838 475.805 577.494 471.317 z" fill="rgb(255,255,255)" transform="translate(0,0)"></path>
<path d="M 513.876 521.844 C 513.755 524.327 511.563 531.33 510.847 534.464 C 501.124 576.737 529.162 618.831 556.868 648.109 C 585.965 678.858 615.958 702.153 659.398 703.524 L 659.931 704.243 L 655.528 706.078 C 627.743 703.977 614.774 699.091 590.034 683.942 C 552.538 660.981 513.867 619.242 502.808 575.835 C 497.601 555.396 503.219 539.063 513.876 521.844 z" fill="rgb(255,255,255)" transform="translate(0,0)"></path>
<path d="M 1939.19 1484.8 C 1924.23 1442.43 1910.52 1399.59 1895.44 1357.24 L 1855.75 1244.05 C 1852.28 1234.16 1831.38 1179.33 1833.09 1173.24 C 1839.13 1172.47 1842.23 1175.54 1844.08 1181.23 C 1847.68 1192.32 1851.36 1203.22 1855.23 1214.23 C 1865.47 1244.02 1875.89 1273.76 1886.48 1303.43 C 1922.4 1405.55 1957.51 1507.96 1991.81 1610.64 C 1944.49 1709.47 1743.59 1713.09 1658.81 1666.26 C 1636.68 1654.04 1611.39 1637.36 1603.32 1612.19 C 1612.23 1579.84 1631.24 1531.25 1643 1498.04 L 1724.05 1268.19 L 1742.8 1214.71 C 1746.92 1203.08 1754.05 1184.56 1755.53 1173.04 C 1758.68 1173.02 1759.72 1173.02 1762.95 1173.43 L 1764.14 1175.33 C 1763.66 1184.39 1743.59 1240.69 1739.15 1253.69 C 1710.61 1337.29 1679.53 1420.38 1650.98 1504.04 C 1639.71 1537.06 1626.31 1570.14 1616.55 1603.59 C 1644.76 1585.81 1698.2 1577.79 1731.6 1574.64 L 1731.43 1558.54 L 1866.72 1559.13 C 1866.77 1582.9 1867.14 1606.67 1867.86 1630.43 C 1854.15 1631.27 1832.8 1630.54 1818.6 1630.49 C 1788.53 1630.32 1758.47 1630.36 1728.4 1630.63 C 1728.75 1615.3 1729.43 1599.97 1730.47 1584.67 C 1723.41 1584.88 1712.05 1586.28 1705.05 1587.67 C 1677.23 1593.16 1635.6 1597.07 1614.43 1616.87 C 1632.63 1631.04 1664.66 1636.57 1687.44 1640.41 C 1755.55 1651.72 1826 1650.39 1894.26 1641.06 C 1926.05 1636.71 1955.94 1631.52 1982.54 1612.58 C 1950.56 1595.61 1911.8 1589.78 1877.06 1580.75 C 1873.83 1579.91 1868.75 1577.97 1869.06 1574.08 C 1870.11 1573.21 1870.25 1572.99 1871.66 1572.39 C 1884.22 1566.96 1961.33 1591.9 1978.22 1598.62 C 1964.59 1563.15 1951.93 1521.37 1939.19 1484.8 z" fill="rgb(29,28,29)" transform="translate(0,0)"></path>
<path d="M 1766.89 1173.1 C 1788.26 1173.44 1809.64 1173.45 1831.01 1173.15 C 1830.66 1185.22 1832.21 1203.23 1832.97 1215.53 C 1834.36 1237.63 1835.61 1259.73 1836.72 1281.84 C 1840.1 1355.84 1842.88 1429.87 1845.08 1503.91 L 1827.5 1503.95 L 1748.9 1504.06 C 1748.75 1488 1750.77 1464.61 1751.64 1447.87 L 1757.77 1333.22 L 1763.73 1224.44 C 1764.63 1209.12 1765.05 1187.83 1766.89 1173.1 z" fill="rgb(29,28,29)" transform="translate(0,0)"></path>
<path d="M 1015.59 751.353 C 1109.13 742.095 1120.1 902.312 1063.28 947.724 C 1051.57 957.077 1042.67 959.71 1028.25 961.991 C 1008.73 962.595 994.743 961.934 978.151 949.731 C 957.437 933.834 946.444 905.833 943.612 880.528 C 937.503 825.937 951.073 758.68 1015.59 751.353 z" fill="rgb(29,28,29)" transform="translate(0,0)"></path>
<path d="M 1011.44 784.181 C 1037.33 782.2 1054.99 796.018 1061.08 820.654 C 1069.93 856.502 1070.92 916.222 1027.4 928.759 C 1001.11 930.817 984.54 919.636 977.609 894.22 C 968.037 859.116 969.175 796.99 1011.44 784.181 z" fill="rgb(255,255,255)" transform="translate(0,0)"></path>
<path d="M 159.148 664.914 C 187.49 663.228 229.522 664.596 258.669 664.626 L 448.938 664.807 L 454.635 675.428 C 423.366 676.062 389.732 675.524 358.349 675.547 L 170.956 675.805 C 169.956 826.051 169.717 976.302 170.24 1126.55 C 211.732 1127.21 254.63 1126.66 296.232 1126.62 L 530 1126.46 L 1252.06 1126.18 C 1265.21 1126.17 1278.43 1126.03 1291.57 1126.15 C 1368.77 1126.83 1446.11 1122.91 1523.29 1124.2 C 1521.97 1128.37 1521.01 1132.79 1519.99 1137.05 C 1455.25 1136.71 1391.36 1138.51 1326.85 1138.7 L 589.549 1139 L 305.836 1138.95 C 259.468 1138.93 213.011 1138.92 166.641 1138.92 C 163.687 1138.92 162.894 1138.75 160.332 1137.12 C 158.02 1132.27 158.725 1051.06 158.705 1039.33 L 158.607 869.62 L 158.611 738.795 C 158.634 715.637 158.013 687.734 159.148 664.914 z" fill="rgb(29,28,29)" transform="translate(0,0)"></path>
<path d="M 114.143 618.13 L 420.815 618.174 L 423.746 629.36 L 124.829 629.738 L 124.891 1173.6 L 1077.5 1173.65 L 1362.98 1174.24 L 1353.15 1185.77 C 1249.28 1184.63 1143.29 1185.9 1039.2 1185.78 L 133.686 1185.71 C 127.342 1185.69 118.582 1186.8 114.477 1182.69 C 112.184 1155.24 113.572 1106.51 113.55 1077.95 L 113.828 875.632 L 113.655 703.303 C 113.641 679.131 112.387 640.365 114.143 618.13 z" fill="rgb(29,28,29)" transform="translate(0,0)"></path>
<path d="M 312.767 563.183 C 313.486 472.852 371.437 379.977 462.676 357.553 C 479.355 353.454 495.104 354.7 511.21 360.163 C 499.355 364.404 482.651 370.659 471.954 376.527 C 443.204 392.298 400.927 424.311 380.059 449.315 C 383.964 446.553 387.81 443.271 391.482 440.371 C 431.187 409.007 477.367 383.565 526.309 370.191 C 534.078 368.068 541.067 361.094 550.43 360.098 C 566.766 358.358 580.254 365.821 596.087 366.998 C 607.032 367.768 615.653 363.054 626.071 361.33 C 631.304 360.464 635.713 360.664 639.972 363.896 C 643.672 378.999 612.046 380.225 602.93 385.607 C 578.269 400.169 561.432 433.287 553.158 459.388 C 547.735 462.325 541.557 464.847 535.446 465.838 C 550.116 428.855 558.813 410.326 582.083 377.426 C 572.269 372.789 544.091 363.085 532.176 371.99 C 531.045 372.835 526.08 382.489 525.447 384.131 C 513.331 415.527 501.348 446.334 477.645 471.238 C 442.885 509.198 392.654 513.188 349.283 535.791 C 335.227 543.117 324.389 552.489 312.767 563.183 z" fill="rgb(29,28,29)" transform="translate(0,0)"></path>
<path d="M 1124.55 1359.44 C 1126.04 1360.19 1125.91 1360.3 1127.17 1361.47 C 1127.14 1371.32 1102.46 1436.11 1097.77 1448.93 L 1030.32 1630.22 C 1049.57 1620.73 1062.22 1618.03 1083.73 1616.06 C 1087.36 1615.72 1095.34 1615.6 1097.34 1613.43 C 1097.3 1610.75 1096.93 1608.8 1098.31 1606.58 C 1106.6 1605.53 1187.15 1605.58 1190.08 1607.4 C 1190.49 1609.34 1190.85 1611.3 1191.18 1613.26 C 1193.91 1614.61 1216.84 1616.45 1222.77 1617.55 C 1237.39 1620.25 1245.06 1621.83 1259.04 1627.19 C 1249.77 1595.42 1235.97 1560.04 1224.57 1528.94 L 1186.53 1422.26 C 1182.39 1410.42 1178.1 1398.64 1173.66 1386.91 C 1171.04 1380.03 1164.53 1367.15 1166.2 1360.71 L 1167.85 1359.85 C 1172.96 1362.48 1172.2 1367.29 1174.16 1372.33 L 1186.57 1405.24 L 1249.22 1578.7 C 1255.47 1595.74 1265.16 1627.41 1272.59 1642.61 C 1242.87 1711.28 1054.39 1713.45 1018.41 1646.88 C 1016.95 1644.18 1038.34 1591.03 1040.58 1585.03 L 1095.4 1437.41 C 1099.71 1425.53 1120.54 1365.27 1124.55 1359.44 z" fill="rgb(29,28,29)" transform="translate(0,0)"></path>
<path d="M 1092.61 1620.42 C 1095.48 1620.04 1094.23 1619.67 1096.55 1620.92 C 1098.34 1627.05 1097.63 1643.72 1097.52 1651.1 L 1190.95 1650.86 L 1190.95 1620.54 C 1193.32 1620.65 1195.69 1620.78 1198.06 1620.94 C 1213.56 1621.95 1255.56 1627.05 1266.26 1639.25 C 1268.49 1651.21 1235.37 1654.47 1226.24 1656.09 C 1185.02 1661.26 1144.05 1661.15 1102.54 1659.89 C 1089.53 1659.49 1029.81 1655.08 1024.42 1645.05 C 1026.7 1629.56 1078.77 1622.18 1092.61 1620.42 z" fill="rgb(255,255,255)" transform="translate(0,0)"></path>
<path d="M 734.977 617.427 C 781.279 616.057 832.495 617.165 879.269 617.164 L 1149.66 617.143 L 1867.97 617.128 C 1871.95 617.15 1874.42 616.854 1877.84 618.761 C 1881.19 629.048 1879.09 714.066 1879.08 731.313 L 1878.83 1012.61 C 1875.31 1009.43 1870.96 1006.72 1866.99 1004.04 L 1867.16 629.841 L 736.124 629.186 C 735.461 625.037 735.26 621.602 734.977 617.427 z" fill="rgb(29,28,29)" transform="translate(0,0)"></path>
<path d="M 1574.01 754.328 C 1574.62 754.598 1575.26 754.787 1575.82 755.138 C 1580.4 758.016 1612.81 858.396 1617.4 872.194 C 1627.35 834.531 1633.21 793.108 1644.96 754.978 L 1673.46 755.169 C 1665.65 795.347 1654.57 836.3 1644.31 876.002 C 1636.87 904.83 1628.87 939.578 1619.27 967.667 C 1607.8 939.74 1598.95 903.014 1589.17 873.899 C 1584.97 861.407 1581.29 844.978 1575.54 833.432 C 1573.42 835.253 1572.72 838.74 1571.64 841.752 L 1548.59 915.15 C 1543.61 931.29 1538.3 950.382 1532.43 966.02 C 1528.49 955.857 1523.85 938.239 1520.65 927.397 L 1494.31 837.22 C 1484.36 803.782 1481.12 786.654 1464.48 755.967 C 1480.86 755.59 1498.14 755.847 1514.6 755.838 L 1506.44 770.17 C 1510.01 786.003 1515.96 804.796 1520.58 820.625 C 1524.86 835.243 1530.4 855.192 1536.21 868.834 C 1541.04 851.21 1547.71 831.384 1553.48 813.78 C 1559.26 796.147 1566.72 770.719 1574.01 754.328 z" fill="rgb(29,28,29)" transform="translate(0,0)"></path>
<path d="M 265.94 754.791 C 271.579 754.712 277.494 754.833 283.16 754.861 C 290.804 771.449 300.536 789.755 308.828 806.222 C 321.599 831.929 334.616 857.514 347.878 882.972 C 367.149 842.986 392.011 794.082 412.967 755.07 L 430.803 755.175 C 428.017 758.171 425.761 761.128 423.252 764.329 C 422.639 772.737 422.557 781.255 422.525 789.7 C 422.324 843.298 422.03 897.009 423.291 950.584 C 423.341 952.682 427.474 959.293 428.716 961.382 C 414.329 961.822 397.097 962.031 382.855 961.162 C 385.337 957.637 388.307 953.865 390.922 950.383 C 391.423 943.287 391.328 934.431 391.436 927.185 C 391.782 901.964 391.704 876.739 391.201 851.52 C 386.375 860.149 380.698 873.218 376.241 882.545 C 366.072 903.749 356.031 925.013 346.116 946.336 C 330.655 917.431 316.605 883.308 301.183 853.363 C 301.101 882.495 299.535 921.6 302.925 950.419 C 303.247 953.152 307.566 958.96 309.391 961.485 C 295.24 961.756 277.538 962.286 263.682 960.79 C 267.554 956.443 269.522 954.094 272.922 949.325 C 274.256 889.008 272.72 826.827 272.327 766.465 C 272.307 763.376 267.822 757.427 265.94 754.791 z" fill="rgb(29,28,29)" transform="translate(0,0)"></path>
<path d="M 736.141 664.165 L 1547.53 663.95 L 1741 664.038 C 1758.72 664.048 1819.19 662.982 1832.93 665.958 C 1833.82 670.618 1832.97 684.503 1832.92 690.143 L 1832.88 739.189 L 1832.2 951.523 C 1828.64 947.926 1824.36 944.025 1820.66 940.501 C 1819.13 915.475 1820.26 876.877 1820.28 851.074 L 1820.53 675.945 C 1545.19 672.738 1269.16 676.938 993.761 675.299 C 907.74 674.787 820.884 674.856 734.865 675.973 C 735.12 672.181 735.703 667.978 736.141 664.165 z" fill="rgb(29,28,29)" transform="translate(0,0)"></path>
<path d="M 714.139 754.985 L 756.769 755.003 C 754.479 758.241 749.643 764.508 749.545 768.383 C 748.066 827.408 749.019 886.627 748.893 945.695 C 748.882 950.505 754.05 958.324 752.889 961.497 C 746.854 964.425 743.096 959.718 739.748 955.136 C 708.204 912.621 677.401 869.562 647.351 825.979 C 647.688 864.846 646.468 912.098 648.191 950.253 C 651.126 953.808 655.053 957.783 658.254 961.21 C 643.51 962.27 624.882 961.613 609.994 961.397 L 617.59 950.002 C 619.252 923.632 618.187 880.529 618.272 853.126 L 618.451 801.579 C 618.539 787.576 620.477 771.964 614.969 758.666 C 614.122 756.621 614.39 757.541 615.221 755.461 C 620.068 755.209 625.832 755.251 630.756 755.175 C 639.164 763.182 651.534 781.829 659.003 791.976 C 679.504 819.667 699.722 847.567 719.653 875.67 C 720.241 847.414 719.161 818.74 719.681 790.439 C 719.929 776.965 720.753 767.203 714.139 754.985 z" fill="rgb(29,28,29)" transform="translate(0,0)"></path>
<path d="M 851.252 752.367 C 875.821 749.919 890.943 757.327 911.805 768.281 C 910.313 775.106 906.78 804.16 901.159 805.773 C 897.278 803.656 895.386 799.021 892.673 795.294 C 887.449 788.598 873.918 784.365 865.932 783.551 C 830.57 779.947 814.872 807.825 812.125 838.604 C 809.29 870.357 810.503 924.656 852.423 929.704 C 864.857 931.202 876.774 926.918 885.947 918.732 C 886.187 904.675 886.042 890.261 886.055 876.173 C 879.255 875.945 871.508 876.215 864.628 876.305 C 861.148 878.989 860.704 880.279 857.028 880.739 L 856.141 879.452 C 855.872 873.2 854.319 850.138 857.603 845.974 L 860.192 846.746 C 869.703 850.794 903.968 849.246 915.777 849.164 C 915.894 865.397 913.612 916.351 917.337 927.699 C 905.122 942.959 888.28 959.657 868.116 962.139 C 817.525 968.365 786.386 930.641 780.784 883.844 C 774.305 829.732 786.886 759.862 851.252 752.367 z" fill="rgb(29,28,29)" transform="translate(0,0)"></path>
<path d="M 1350.71 1189.52 C 1365.59 1193.11 1381.58 1203.9 1391.33 1215.15 C 1435.78 1266.4 1373.14 1291.96 1331.91 1302.36 C 1285.39 1314.09 1241.33 1315.72 1193.66 1314.97 C 1187.91 1314.87 1182.2 1315.17 1176.6 1314.5 C 1175.66 1312.42 1176 1313.03 1174.46 1311.08 C 1131.07 1307.34 1086.64 1316.89 1051.39 1343.22 C 1042.3 1350.42 1034.41 1359.08 1026.75 1367.75 C 1026.7 1364.82 1026.75 1361.89 1026.91 1358.96 C 1030.28 1304.85 1104.73 1277.27 1150.49 1279.83 C 1156.7 1280.18 1163.34 1279.41 1169.58 1279.9 C 1172.64 1280.14 1170.94 1283.24 1172.9 1286.34 C 1203.26 1288.81 1231.21 1290.08 1261.45 1286.03 C 1327.01 1277.26 1360.37 1260.13 1350.71 1189.52 z" fill="rgb(29,28,29)" transform="translate(0,0)"></path>
<path d="M 1403.51 747.326 C 1405.88 748.775 1406.04 748.445 1407.27 751.644 C 1413.68 768.401 1419.51 786.205 1425.3 803.14 C 1436.13 835.086 1447.26 866.933 1458.67 898.678 C 1463.81 913.01 1469.16 928.817 1475.62 942.575 C 1478.46 948.606 1487.02 956.664 1491.9 961.502 C 1473.91 962.396 1453.68 961.934 1435.52 961.89 L 1444.19 949.147 C 1441.92 938.506 1438.39 928.06 1434.93 917.757 L 1408.65 917.922 L 1372.76 917.835 C 1369.18 927.835 1365.57 937.462 1362.87 947.753 C 1364.8 952.275 1367.4 957.359 1369.56 961.849 L 1320.33 961.811 C 1325.95 953.072 1332.97 945.052 1336.8 935.261 C 1344.58 915.36 1351.01 894.35 1358.08 874.222 L 1403.51 747.326 z" fill="rgb(29,28,29)" transform="translate(0,0)"></path>
<path d="M 1403.63 827.821 C 1406.26 830.823 1422.62 881.544 1424.45 888.929 L 1405.53 888.998 L 1382.44 888.955 C 1389.25 868.491 1396.31 848.112 1403.63 827.821 z" fill="rgb(255,255,255)" transform="translate(0,0)"></path>
<path d="M 515.111 749.875 C 516.895 749.839 521.264 749.515 521.951 751.365 C 526.717 764.191 530.875 777.374 535.262 790.373 C 546.879 825.285 558.949 860.045 571.468 894.644 C 579.057 916.049 586.273 943.668 600.173 961.326 L 550.64 961.401 L 557.826 948.316 C 554.551 936.863 550.936 925.511 546.984 914.275 L 522.789 914.57 L 486.742 914.715 C 480.553 935.297 472.697 941.177 484.11 961.587 C 468.269 961.82 452.425 961.768 436.585 961.431 C 439.548 957.64 443.825 952.292 445.537 947.964 C 471.115 883.31 492.696 815.529 515.111 749.875 z" fill="rgb(29,28,29)" transform="translate(0,0)"></path>
<path d="M 517.456 820.656 C 521.072 824.707 535.822 876.836 538.705 886.361 C 531.572 886.643 523.929 886.584 516.75 886.661 L 496.252 886.5 C 503.625 864.213 510.615 843.166 517.456 820.656 z" fill="rgb(255,255,255)" transform="translate(0,0)"></path>
<path d="M 1749.32 1095.71 C 1752.24 1099.18 1751.57 1124.81 1751.68 1131.2 C 1741.81 1138.06 1732.42 1147.96 1721.71 1155.44 C 1679.53 1184.92 1631.77 1212.1 1581.16 1223.37 C 1561.83 1227.67 1534.68 1228.52 1517.92 1216.82 C 1507.97 1209.87 1505.31 1201.88 1503.63 1190.73 C 1502.96 1176.09 1511.07 1137.87 1527.6 1135.43 C 1528.96 1136.14 1539.71 1154.39 1545.65 1159.36 C 1568.55 1178.5 1595.69 1175.81 1622.82 1167.91 C 1667.96 1154.78 1717.75 1131.03 1749.32 1095.71 z" fill="rgb(29,28,29)" transform="translate(0,0)"></path>
<path d="M 1130.24 1360.21 C 1140.75 1360.4 1151.25 1360.52 1161.76 1360.6 C 1166.49 1387.08 1167.78 1424.64 1169.92 1452.46 C 1172.86 1490.84 1176.62 1530.89 1178.1 1569.14 L 1156.75 1569.13 L 1111.38 1569.1 C 1111.78 1547.31 1116.37 1503.6 1118.14 1481.02 C 1120.19 1454.87 1123.2 1379.98 1130.24 1360.21 z" fill="rgb(29,28,29)" transform="translate(0,0)"></path>
<path d="M 1206.87 756.166 C 1221.86 755.527 1240.51 756.015 1255.79 755.984 C 1252.81 760.303 1246.78 768.347 1246.2 773.199 C 1244.19 790.131 1244.99 809.772 1244.99 826.946 L 1244.99 930.313 C 1275.96 930.201 1287.07 934.137 1315.65 921.655 C 1315.11 931.873 1314.74 942.098 1314.52 952.327 C 1314.68 956.108 1315.32 959.006 1313.24 961.529 C 1300.42 962.476 1281.03 961.945 1267.77 961.908 C 1247.04 961.85 1224.69 962.279 1204.08 961.486 C 1209.72 954.224 1215.25 947.734 1215.32 937.919 C 1215.68 883.863 1217.13 829.161 1214.73 775.186 C 1214.59 772.099 1208.25 761.215 1206.87 756.166 z" fill="rgb(29,28,29)" transform="translate(0,0)"></path>
<path d="M 1733.93 1509.02 C 1773.34 1508.86 1826.53 1507.85 1864.98 1510.75 C 1864.97 1524.18 1865.24 1538.01 1864.61 1551.39 C 1864.54 1553 1864.59 1552.35 1862.88 1553.79 C 1819.76 1553.65 1772.73 1552.69 1729.84 1553.85 C 1730.01 1541.69 1732.61 1521.4 1733.93 1509.02 z" fill="rgb(29,28,29)" transform="translate(0,0)"></path>
<path d="M 1451.13 1176.55 C 1474.28 1172.94 1496 1188.74 1499.68 1211.88 C 1503.36 1235.03 1487.62 1256.78 1464.49 1260.53 C 1441.26 1264.29 1419.4 1248.48 1415.7 1225.24 C 1412 1202 1427.88 1180.18 1451.13 1176.55 z" fill="rgb(29,28,29)" transform="translate(0,0)"></path>
<path d="M 1800.88 982.755 C 1820.89 987.487 1820.04 1012.6 1817.98 1028.71 C 1827.86 1028.75 1840.29 1028.74 1846.12 1038.32 C 1846.23 1044.68 1843.16 1046.32 1837.49 1047.6 L 1829.92 1049.35 C 1825.84 1054.68 1825.18 1055.61 1822.44 1061.85 C 1827.47 1070.42 1833.13 1082.14 1838.86 1089.9 C 1825.2 1090.15 1811.55 1090.29 1797.9 1090.34 C 1783.48 1090.39 1769.06 1090.36 1754.64 1090.23 C 1761.11 1080.16 1776.14 1065.38 1779.82 1056.94 C 1779.31 1044.32 1762.93 1049.29 1758.48 1039.64 C 1760.67 1029.25 1778.01 1028.43 1786.02 1027.69 C 1783.9 1012.5 1787.08 991.748 1800.88 982.755 z" fill="rgb(29,28,29)" transform="translate(0,0)"></path>
<path d="M 885.628 999.261 C 903.313 997.848 919.09 1004.45 924.596 1022 C 932.329 1046.66 925.838 1069.51 900.18 1077.91 C 882.143 1080.26 865.56 1072.7 860.649 1054.69 C 854.206 1031.06 859.882 1006.22 885.628 999.261 z" fill="rgb(29,28,29)" transform="translate(0,0)"></path>
<path d="M 885.119 1008.16 C 912.399 1005.56 921.51 1027.83 915.352 1052.14 C 913.352 1060.04 907.707 1065.02 900.601 1068.64 C 879.409 1072.38 869.339 1062.02 868.326 1041.07 C 867.601 1026.08 871.637 1015.2 885.119 1008.16 z" fill="rgb(255,255,255)" transform="translate(0,0)"></path>
<path d="M 1076.06 1000.7 C 1089.83 1000.49 1114.55 998.309 1125.55 1006.66 C 1144.21 1020.83 1141.72 1049.94 1128.77 1066.97 C 1114.9 1080.38 1094.34 1077.72 1076.11 1077.43 L 1076.06 1000.7 z" fill="rgb(29,28,29)" transform="translate(0,0)"></path>
<path d="M 1085.88 1009.83 C 1091.75 1009.73 1097.64 1009.85 1103.48 1009.75 C 1131.46 1009.28 1134.55 1040.99 1121.46 1060.38 C 1111.11 1070.59 1099.42 1068.99 1086.04 1068.83 L 1085.88 1009.83 z" fill="rgb(255,255,255)" transform="translate(0,0)"></path>
<path d="M 1292.5 1000.67 C 1307.21 1000.52 1327.84 998.838 1339.48 1008.51 C 1357.49 1023.47 1354.65 1049.45 1341.13 1066.09 C 1325.87 1079.28 1311.73 1076.97 1292.55 1076.71 L 1292.5 1000.67 z" fill="rgb(29,28,29)" transform="translate(0,0)"></path>
<path d="M 1306.61 1009.43 C 1309.12 1009.36 1311.63 1009.38 1314.14 1009.48 C 1343.35 1010.6 1351.97 1044.18 1330.84 1063.33 C 1320.84 1069.28 1313.29 1068.77 1302.1 1068.69 C 1302.02 1059.79 1300.79 1016 1303.26 1010.4 L 1306.61 1009.43 z" fill="rgb(255,255,255)" transform="translate(0,0)"></path>
<path d="M 1755.76 1095 L 1845.52 1095.17 C 1845.18 1108.57 1844.92 1121.97 1844.74 1135.37 C 1816.49 1136.33 1784.47 1135.85 1756.05 1135.44 L 1755.76 1095 z" fill="rgb(29,28,29)" transform="translate(0,0)"></path>
<path d="M 1867.3 1048.33 C 1906.17 1042.3 1940.89 1062.14 1959.04 1096.27 C 1948.29 1091.67 1938.58 1087.82 1927.35 1084.53 C 1897.62 1075.97 1870.95 1080.78 1841.38 1085.79 C 1837.56 1078.11 1833.52 1071.23 1829.74 1063.24 C 1841.58 1053.36 1852.47 1050.56 1867.3 1048.33 z" fill="rgb(29,28,29)" transform="translate(0,0)"></path>
<path d="M 783.098 1001.02 C 810.463 1000.29 810.127 1023.28 788.006 1034.4 L 796.664 1047.1 C 798.563 1049.84 801.831 1055.32 804.65 1055.84 C 807.01 1052.42 804.791 1046.56 807.301 1040.02 C 809.368 1038.65 810.461 1038.39 813.003 1039.21 C 821.916 1042.09 811.066 1060.91 808.979 1064.59 C 816.747 1068.7 817.283 1068.91 821.643 1076.58 C 811.246 1080.82 810.693 1076.43 805.912 1072.46 C 799.924 1070.84 790.715 1080.47 782.84 1078.78 C 754.944 1072.77 754.488 1050.09 775.934 1033.1 C 767.464 1019.05 766.382 1008.63 783.098 1001.02 z" fill="rgb(29,28,29)" transform="translate(0,0)"></path>
<path d="M 779.942 1040.51 C 783.227 1041.83 797.257 1061.1 796.809 1064.67 C 793.975 1068.06 793.279 1068.19 789.256 1070.33 C 768.887 1071.63 766.178 1053.17 779.942 1040.51 z" fill="rgb(255,255,255)" transform="translate(0,0)"></path>
<path d="M 783.036 1008.93 C 787.713 1008.74 788.528 1008.43 792.4 1010.76 C 796.657 1016.91 794.164 1020.62 790.256 1026.18 C 777.526 1029.74 776.067 1016.74 783.036 1008.93 z" fill="rgb(255,255,255)" transform="translate(0,0)"></path>
<path d="M 1096.96 1573.73 C 1128.09 1573.37 1159.21 1573.49 1190.33 1574.09 C 1190.9 1582.31 1190.54 1592.52 1190.47 1600.9 C 1179.48 1602 1164.78 1601.61 1153.56 1601.61 L 1097.02 1601.52 L 1096.96 1573.73 z" fill="rgb(29,28,29)" transform="translate(0,0)"></path>
<path d="M 1756.72 1140.44 C 1785.68 1139.95 1815.9 1140.42 1844.94 1140.53 C 1844.99 1149.75 1845.12 1158.38 1844.48 1167.6 C 1837.36 1168.45 1820.79 1168.07 1813.14 1168.06 C 1794.41 1168.09 1775.68 1167.99 1756.96 1167.77 C 1756.59 1158.97 1756.75 1149.31 1756.72 1140.44 z" fill="rgb(29,28,29)" transform="translate(0,0)"></path>
<path d="M 1705.06 761.741 C 1710.13 762.017 1709.66 761.123 1712.35 763.804 C 1714.15 769.508 1713.16 778.03 1713.07 784.588 C 1731.52 783.88 1750.96 784.063 1769.5 783.962 C 1768.03 787.55 1766.23 790.907 1764.46 794.358 C 1747.73 794.823 1729.57 794.544 1712.75 794.581 C 1712.65 805.103 1711.61 829.934 1714.17 838.533 C 1718.09 841.994 1726.09 840.648 1731.75 840.434 C 1753.51 840.71 1751.67 837.122 1750.64 816.831 C 1757.39 822.026 1759.29 822.699 1761.11 831.605 C 1765.93 855.258 1707.48 861.052 1705.6 841.002 C 1704.82 832.77 1704.78 819.99 1704.81 811.141 L 1705.06 761.741 z" fill="rgb(29,28,29)" transform="translate(0,0)"></path>
<path d="M 459.074 1026.05 C 467.806 1026.53 468.601 1028.27 475.407 1033.8 C 485.247 1027 497.971 1019.96 505.51 1034.28 C 508.483 1039.92 509.179 1072.31 507.174 1077.47 C 491.053 1083.8 504.802 1042.63 496.015 1037.12 C 475.386 1024.19 476.875 1053.02 477.088 1064.5 C 477.155 1066.17 477.192 1067.85 477.198 1069.53 C 477.199 1073.66 476.047 1078.51 471.017 1078.27 C 463.181 1069.75 478.821 1029.16 454.56 1035.25 C 440.156 1038.87 450.728 1066.91 446.102 1077.11 C 442.338 1078.74 440.943 1078.46 438.396 1075.62 C 438.043 1063.85 437.955 1041.17 438.664 1028.63 C 439.239 1028 439.815 1027.37 440.391 1026.74 C 444.316 1026.35 442.544 1026.01 445.953 1027.5 C 446.456 1030.76 445.894 1030.26 447.54 1032.66 C 452.071 1029.45 453.771 1027.91 459.074 1026.05 z" fill="rgb(29,28,29)" transform="translate(0,0)"></path>
<path d="M 1387.09 1025.18 C 1408.94 1022.73 1414.17 1035.54 1415.61 1054.7 C 1402.2 1054.11 1389.74 1054.12 1376.3 1054.19 C 1380.87 1069.36 1386.25 1073.34 1402.39 1069.53 C 1404.18 1068.22 1405.98 1067.01 1407.82 1065.76 C 1411.29 1066.68 1410.99 1067.89 1413.68 1071.92 C 1404.85 1077.46 1395.07 1080.29 1384.81 1076.87 C 1378.76 1074.84 1373.78 1070.47 1370.98 1064.74 C 1362.73 1048.23 1371.15 1032.45 1387.09 1025.18 z" fill="rgb(29,28,29)" transform="translate(0,0)"></path>
<path d="M 1389.17 1032.04 C 1396.61 1031.89 1406.91 1036.49 1405.3 1045.09 C 1402.01 1047.82 1402.13 1046.86 1396.62 1046.98 L 1376.88 1046.9 C 1380.89 1038.17 1380.54 1036.68 1389.17 1032.04 z" fill="rgb(255,255,255)" transform="translate(0,0)"></path>
<path d="M 1488.24 1025.17 C 1508.99 1024.42 1513.21 1035.62 1515.36 1053.65 C 1502.43 1053.84 1489.5 1053.91 1476.58 1053.86 C 1480.36 1067.42 1489.36 1075.49 1503.42 1068.75 C 1507.11 1065.52 1506.94 1065.06 1510.98 1067.04 L 1511.75 1069.38 C 1508.7 1078.63 1493.43 1079.58 1485.58 1077.45 C 1470.65 1073.4 1465.5 1055 1470.57 1041.69 C 1474.26 1032 1479.3 1028.92 1488.24 1025.17 z" fill="rgb(29,28,29)" transform="translate(0,0)"></path>
<path d="M 1488 1033.09 C 1495.62 1032.34 1506.28 1035.18 1504.54 1044.65 C 1501.56 1046.98 1501.87 1046.19 1497.14 1046.35 L 1477.27 1046.25 C 1480.5 1039.09 1481.49 1037.38 1488 1033.09 z" fill="rgb(255,255,255)" transform="translate(0,0)"></path>
<path d="M 1662.15 1025.03 C 1683.32 1024.39 1687.45 1032.41 1689.51 1052.23 C 1679.82 1052.58 1660.48 1050.89 1652.73 1053.53 C 1649.3 1062.43 1664.85 1075.45 1678.1 1068.03 C 1681.46 1065.42 1681.74 1064.57 1685.46 1066.09 C 1689.32 1078.12 1667.18 1079.65 1658.52 1076.37 C 1652.55 1074.15 1647.75 1069.58 1645.24 1063.72 C 1638.25 1047.65 1646.71 1031.81 1662.15 1025.03 z" fill="rgb(29,28,29)" transform="translate(0,0)"></path>
<path d="M 1661.94 1033.03 C 1669.32 1032.42 1682.03 1034.78 1679.34 1044.67 C 1675.93 1046.78 1675.83 1046.01 1671.06 1046.06 L 1651.77 1046 C 1654.63 1038.48 1655.24 1037.41 1661.94 1033.03 z" fill="rgb(255,255,255)" transform="translate(0,0)"></path>
<path d="M 294.96 1000.22 C 295.823 1000.17 296.687 1000.13 297.551 1000.1 C 309.741 999.781 316.778 1003.43 325.281 1011.33 L 317.953 1017.6 C 268.987 974.977 248.81 1084.94 308.171 1067.66 C 312.947 1064.58 314.906 1062.43 318.945 1058.52 C 320.623 1061.02 323.026 1063.55 325.046 1065.83 C 312.373 1076.93 291.81 1083.38 278.328 1072.56 C 250.4 1050.15 259.331 1007.52 294.96 1000.22 z" fill="rgb(29,28,29)" transform="translate(0,0)"></path>
<path d="M 650.084 1027.2 C 655.603 1026.59 661.794 1026.07 666.714 1029.15 C 670.096 1031.28 671.855 1034.56 672.794 1038.34 C 673.45 1040.99 674.567 1076.23 674.042 1077.11 C 668.997 1078.04 668.22 1077.43 664.997 1073.85 C 653.515 1074.98 653.421 1083.41 639.53 1073.77 C 638.461 1072.22 637.611 1071.07 636.964 1069.27 C 629.525 1048.57 651.77 1050.41 664.503 1046.09 C 666.126 1042.13 665.013 1039.5 662.489 1036.53 C 654.295 1032.86 648.506 1036.48 639.331 1036.25 L 638.843 1034.91 C 641.864 1030.23 645.057 1029.42 650.084 1027.2 z" fill="rgb(29,28,29)" transform="translate(0,0)"></path>
<path d="M 653.961 1053.23 C 659.088 1052.78 660.618 1052.18 664.451 1055.1 C 668.083 1063.17 663.179 1068.08 655.903 1071.1 C 641.162 1070.09 640.869 1058.9 653.961 1053.23 z" fill="rgb(255,255,255)" transform="translate(0,0)"></path>
<path d="M 1160.53 1026.89 C 1164.13 1026.8 1164.8 1026.83 1168.36 1027.34 C 1171.34 1033.62 1164.56 1072.38 1178.18 1071.68 C 1203.34 1070.39 1188.22 1035.75 1197.59 1026.84 C 1201.13 1026.2 1199.56 1025.94 1202.54 1026.97 C 1204.41 1031.25 1203.76 1037.57 1203.7 1042.5 C 1203.79 1048.66 1205.5 1074.5 1201.85 1077.61 C 1198.81 1077.88 1198.21 1078.28 1195.62 1076.73 C 1195.53 1073.73 1195.68 1073.38 1194.76 1070.58 C 1187.71 1076.47 1174.6 1083.51 1166.89 1075.1 C 1157.36 1064.71 1160.27 1040.28 1160.53 1026.89 z" fill="rgb(29,28,29)" transform="translate(0,0)"></path>
<path d="M 1533.2 1025.35 C 1536.28 1025.27 1539.16 1024.74 1541.63 1026.29 C 1541.85 1028.74 1541.79 1029 1542.6 1031.28 C 1551.42 1030.67 1572.03 1008.03 1576.09 1048.28 C 1576.67 1054.02 1577.24 1073.61 1573.97 1077.3 C 1570.77 1077.77 1570.99 1077.66 1568.07 1076.16 C 1565.7 1072.08 1566.78 1052.04 1566.83 1045.75 C 1566.22 1034.77 1558.25 1030.11 1548.03 1034.28 C 1536.88 1038.83 1545.71 1073.4 1540.28 1077.41 C 1536.98 1077.9 1536.67 1078.26 1533.67 1076.76 C 1532 1070.57 1533.18 1034.11 1533.2 1025.35 z" fill="rgb(29,28,29)" transform="translate(0,0)"></path>
<path d="M 1120.54 1315.35 C 1136.21 1314.6 1154.08 1314.95 1169.93 1314.92 C 1169.95 1320.28 1170.75 1332.98 1168.66 1336.67 L 1119.56 1336.29 C 1119.43 1330.73 1118.69 1320.09 1120.54 1315.35 z" fill="rgb(29,28,29)" transform="translate(0,0)"></path>
<path d="M 1126.34 1253.9 C 1140.27 1253.24 1156.46 1253.76 1170.42 1254.02 C 1170.67 1258.44 1171.77 1273.01 1169.72 1275.99 C 1154.33 1275.94 1139.14 1275.81 1123.76 1276.44 C 1123.93 1269.34 1124.46 1260.74 1126.34 1253.9 z" fill="rgb(29,28,29)" transform="translate(0,0)"></path>
<path d="M 1705.7 860.542 C 1708.32 861.052 1709.3 861.503 1711.77 862.436 C 1715.57 867.608 1713.78 881.093 1713.71 887.936 L 1753.44 887.775 C 1753.48 879.827 1751.6 869.342 1755.43 862.869 C 1758.79 861.176 1757.04 861.451 1760.9 862.25 C 1762.45 865.217 1761.93 866.089 1761.89 869.75 L 1761.93 898.133 C 1743.23 898.042 1724.53 898.112 1705.83 898.343 L 1705.7 860.542 z" fill="rgb(29,28,29)" transform="translate(0,0)"></path>
<path d="M 594.187 1026.11 C 611.289 1027.03 613.485 1038.26 612.692 1053.74 C 612.371 1060.01 613.238 1071.69 611.863 1077.23 C 607.52 1077.58 609.426 1078.05 605.847 1076.28 C 598.697 1065.37 615.325 1027.31 587.736 1035.67 L 586.588 1036.03 C 576.541 1046.68 582.255 1061.4 580.936 1076.52 C 578.611 1078.35 578.58 1077.65 574.702 1077.48 C 571.799 1073.83 572.574 1034.75 572.874 1028.02 C 575.369 1026.46 575.058 1026.9 578.361 1026.75 C 580.792 1028.49 580.108 1029.27 580.827 1033.34 C 585.791 1032.98 585.595 1028.89 594.187 1026.11 z" fill="rgb(29,28,29)" transform="translate(0,0)"></path>
<path d="M 1447.25 999.07 C 1452.82 999.074 1458.93 998.644 1460.79 1005.01 C 1457.65 1009.68 1448.91 1006.97 1444.76 1010.72 C 1443.13 1015.1 1443.47 1020.18 1443.39 1024.98 C 1448.98 1024.86 1454.53 1023.37 1456.72 1029.32 L 1455.42 1031.35 C 1451.79 1033.95 1448.1 1033.23 1443.4 1033.17 L 1443.61 1062.15 C 1443.8 1066.75 1444.28 1070.43 1443.13 1074.86 C 1440.36 1077.12 1441.15 1076.38 1436.46 1076.21 C 1431.9 1071.4 1436.42 1042.26 1434.13 1034.74 C 1433.74 1033.46 1431.38 1032.98 1429.79 1032.35 C 1428.7 1029.58 1428.87 1029.73 1429.51 1026.77 L 1432.66 1025.95 C 1439.21 1015.97 1427.01 1008.13 1447.25 999.07 z" fill="rgb(29,28,29)" transform="translate(0,0)"></path>
<path d="M 1118.99 1340.66 C 1136.3 1340.92 1153.61 1340.95 1170.92 1340.74 C 1171.18 1346.33 1171.36 1351.93 1171.46 1357.52 L 1119.02 1357.31 L 1118.99 1340.66 z" fill="rgb(29,28,29)" transform="translate(0,0)"></path>
<path d="M 1611.54 1024.19 C 1617.02 1024.58 1624.78 1025.68 1626.64 1032.01 L 1625.63 1033.45 C 1617.97 1036.35 1612.07 1027.77 1604.6 1035.17 C 1606.81 1044.75 1629.11 1050.23 1629.14 1062.87 C 1629.18 1075.88 1618.91 1078.01 1608.5 1077.98 C 1603.37 1076.82 1600.25 1076.07 1596.17 1072.81 C 1594.86 1070.22 1594.74 1070.4 1595.15 1067.57 C 1598.74 1065.07 1606.47 1069.34 1612.47 1070.41 C 1615.87 1069.27 1616.96 1069.21 1619.31 1066.46 C 1620.83 1055.02 1599.68 1050.9 1596.04 1039.57 C 1593 1030.12 1604.1 1025.71 1611.54 1024.19 z" fill="rgb(29,28,29)" transform="translate(0,0)"></path>
<path d="M 967.68 1064.99 C 972.043 1053.98 977.725 1035.58 983.568 1026.23 C 986.216 1024.57 984.948 1024.64 987.391 1025.08 C 991.692 1028.18 989.839 1029.98 988.411 1034.24 C 985.177 1042.4 974.916 1070.24 971.212 1075.99 C 967.247 1077.01 967.375 1076.87 963.243 1076.17 C 959.831 1071.91 945.955 1033.84 942.957 1026.15 C 947.114 1025.97 948.575 1025.66 952.482 1026.77 C 954.255 1029.73 964.761 1058.16 967.68 1064.99 z" fill="rgb(29,28,29)" transform="translate(0,0)"></path>
<path d="M 706.316 998.313 L 709.723 1000.26 C 710.806 1005.42 710.773 1070.72 709.418 1076.8 L 705.415 1079.3 C 702.992 1078.05 703.46 1078.31 701.345 1076.64 C 700.628 1070.12 700.485 1003.85 701.982 1000.09 L 706.316 998.313 z" fill="rgb(29,28,29)" transform="translate(0,0)"></path>
<path d="M 1012.23 1001.03 C 1015.64 1000.93 1017.2 1000.61 1020.4 1001.91 C 1022.38 1008.92 1020.93 1066.23 1020.89 1077.88 C 1017.65 1077.96 1016.5 1077.83 1013.36 1077.5 C 1010.59 1074.54 1012 1011.04 1012.23 1001.03 z" fill="rgb(29,28,29)" transform="translate(0,0)"></path>
<path d="M 1147.21 1204.72 C 1151.19 1213.84 1158.48 1238.98 1161.88 1249.55 L 1146.75 1249.74 L 1134.02 1249.63 C 1135.03 1241.35 1144.25 1216.51 1147.21 1204.72 z" fill="rgb(29,28,29)" transform="translate(0,0)"></path>
<path d="M 368.435 1026.06 C 373.369 1026.58 376.224 1026.83 379.307 1030.58 C 378.414 1034.1 378.741 1032.97 375.585 1035.84 C 371.859 1037.19 370.549 1036.16 367.034 1035.48 C 352.746 1032.72 356.086 1068.21 356.15 1076.73 C 354.337 1077.93 352.199 1078.11 350.118 1077.81 C 346.448 1073.24 348.031 1065.04 348.095 1059.05 C 348.181 1050.99 345.413 1033.69 350.585 1027.87 C 353.667 1026.97 352.279 1026.79 354.918 1028.13 L 355.513 1032.52 L 357.001 1032.6 C 362.029 1030.49 361.083 1028.15 368.435 1026.06 z" fill="rgb(29,28,29)" transform="translate(0,0)"></path>
<path d="M 1229.33 1026.21 C 1232.88 1026.17 1235.2 1025.74 1237.57 1027.72 C 1238.81 1038.59 1237.95 1065.7 1237.87 1077.77 C 1233.58 1077.69 1232.65 1078.39 1229.53 1076.52 C 1228.26 1067.72 1229.22 1036.25 1229.33 1026.21 z" fill="rgb(29,28,29)" transform="translate(0,0)"></path>
<path d="M 403.889 1025.51 L 408.734 1026.7 C 411.7 1031.49 409.705 1068.56 409.348 1076.31 C 408.702 1076.98 408.056 1077.66 407.41 1078.33 C 405.551 1077.78 403.89 1077.17 402.071 1076.52 C 399.449 1070.62 402.026 1036.44 402.107 1028.02 C 402.701 1027.18 403.295 1026.35 403.889 1025.51 z" fill="rgb(29,28,29)" transform="translate(0,0)"></path>
<path d="M 535.948 1026.62 C 539.356 1026.58 539.64 1026.41 542.991 1027.44 C 544.74 1031.4 543.955 1070.49 543.923 1077.79 C 540.607 1077.94 540.338 1077.92 537.06 1077.37 C 534.786 1073.46 535.889 1034.08 535.948 1026.62 z" fill="rgb(29,28,29)" transform="translate(0,0)"></path>
<path d="M 1232.41 1001.48 C 1235.39 1001.03 1238.19 1003.01 1238.75 1005.97 C 1239.32 1008.94 1237.44 1011.81 1234.5 1012.49 C 1232.5 1012.94 1230.41 1012.27 1229.05 1010.73 C 1227.69 1009.2 1227.28 1007.04 1227.98 1005.11 C 1228.68 1003.18 1230.38 1001.79 1232.41 1001.48 z" fill="rgb(29,28,29)" transform="translate(0,0)"></path>
<path d="M 538.969 1003.5 C 541.803 1002.63 544.812 1004.18 545.761 1006.99 C 546.71 1009.79 545.255 1012.85 542.477 1013.88 C 540.605 1014.58 538.503 1014.2 536.99 1012.89 C 535.478 1011.59 534.794 1009.57 535.205 1007.61 C 535.617 1005.66 537.059 1004.08 538.969 1003.5 z" fill="rgb(29,28,29)" transform="translate(0,0)"></path>
<path d="M 405.392 1003.49 C 408.251 1003.13 410.901 1005.04 411.455 1007.87 C 412.01 1010.69 410.28 1013.47 407.497 1014.21 C 405.52 1014.74 403.413 1014.13 402.033 1012.62 C 400.653 1011.11 400.23 1008.95 400.937 1007.03 C 401.644 1005.11 403.362 1003.74 405.392 1003.49 z" fill="rgb(29,28,29)" transform="translate(0,0)"></path>
<metadata><recraft-signature>{"signed_by": "recraft", "signature_b64": "vwUAuyQFek7XgKE1+1s2HpgHCmACD+iTcBsIEHbEfDOv+Z8ggC5UqFR891UHwgOT4y1vmegHBTrD/pyNTXQ3DA==", "signing_algo": "Ed25519", "generation_timestamp": 1764903590, "identifier": "e77bcd7e-c574-4873-86f7-63d158cbeeb6"}</recraft-signature></metadata></svg>