<svg xmlns="http://www.w3.org/2000/svg" height="1024" preserveAspectRatio="none" style="display: block;" version="1.1" viewBox="0 0 2048 2048" width="1024">
<path d="M 0 0 L 2048 0 L 2048 2048 L 0 2048 L 0 0 z" fill="rgb(253,253,250)" transform="translate(0,0)"></path>
<path d="M 916.709 422.617 C 945.83 384.741 980.369 351.771 1008.97 313.49 C 1020.24 298.415 1010.52 285.673 1022.48 273.545 C 1034.15 265.325 1057.31 258.011 1071.36 250.5 C 1096.79 236.899 1122.27 223.242 1148.09 210.472 C 1243.18 162.792 1341.47 121.783 1442.26 87.7432 C 1462.07 81.1611 1488.31 70.498 1508.21 67.3174 C 1540.96 62.0812 1555.92 120.006 1521.64 130.017 C 1503.41 135.738 1484.96 140.107 1466.64 145.217 C 1433.21 154.413 1400.08 164.678 1367.3 175.997 C 1314.73 194.15 1262.67 216.919 1212.02 239.896 C 1197.59 246.442 1183.39 254.242 1169.34 260.639 L 1200.93 264.521 C 1251.25 239.092 1379.11 231.916 1436.15 233.123 C 1457.11 233.567 1495.41 237.376 1516.46 241.28 C 1639.23 262.833 1740.54 316.424 1813.83 419.959 C 1908.83 554.154 1937.9 726.388 1936.93 887.863 C 1936.74 908.94 1936.24 930.014 1935.44 951.077 C 1935.13 959.804 1935.64 985.567 1929.81 990.56 C 1927.77 990.689 1924.93 991.232 1923.6 989.203 C 1909.91 968.295 1897.52 946.078 1883.16 925.593 C 1865.71 901.044 1847.17 877.292 1827.58 854.409 C 1786.76 806.73 1724.45 751.357 1677.42 708.683 C 1644.2 678.089 1610.4 648.139 1576.03 618.851 C 1559.59 604.751 1540.93 588.381 1523.85 575.258 C 1602.07 702.426 1572.58 905.461 1483.08 1024.65 C 1481.75 1026.42 1478.76 1025.72 1477.07 1025.28 C 1470.58 1019.86 1469.89 1007 1467.7 999.036 C 1450.05 935.081 1428.05 872.046 1397.88 812.84 C 1371.36 760.807 1337.52 714.057 1299.55 669.796 C 1246.69 608.686 1188.65 552.821 1144.95 484.134 C 1121.25 446.882 1107.11 412.52 1092.01 371.237 C 1079.29 363.948 1054.7 349.331 1041.19 345.01 C 1013.31 370.765 979.162 413.401 958.19 444.77 C 1061.19 508.789 1125.31 625.247 1152.31 740.721 C 1194.79 918.017 1164.38 1104.94 1067.91 1259.63 C 1055.96 1278.83 1044.54 1296.44 1031.29 1314.7 C 1022.54 1326.76 1009.69 1341 1001.95 1352.5 C 992.713 1362.28 984.166 1372.63 974.933 1382.39 C 952.966 1405.41 929.692 1427.14 905.224 1447.49 C 862.797 1481.58 817.227 1511.56 769.13 1537.04 C 654.986 1598.64 531.821 1640.28 401.253 1643.76 C 345.76 1645.24 260.947 1638.03 209.722 1614.96 C 191.525 1606.56 174.824 1595.25 160.282 1581.46 C 116.315 1539.7 111.048 1495.69 109.882 1438.27 C 109.053 1373.68 111.601 1309.09 117.517 1244.76 C 136.6 1013.11 190.732 796.503 355.766 622.681 C 473.042 499.159 644.612 413.071 816.441 409.265 C 853.279 408.449 881.072 412.648 916.709 422.617 z" fill="rgb(60,39,31)" transform="translate(0,0)"></path>
<path d="M 792.235 429.417 C 808.308 427.914 895.451 429.879 904.202 440.804 C 902.691 445.429 898.501 451.218 895.749 455.478 C 884.299 447.19 871.729 445.515 872.416 464.448 C 873.782 479.286 879.691 487.824 888.758 497.933 C 905.469 516.568 980.891 503.668 939.479 474.541 C 941.994 469.565 944.689 464.541 947.281 459.593 C 961.04 468.635 974.193 478.403 987.458 488.144 C 989.84 501.586 995.416 515.298 998.723 528.673 C 1052.24 745.142 1001.37 968.28 881.067 1153.04 C 767.645 1326.22 604.091 1460.67 412.244 1538.45 C 340.313 1567.09 256.338 1586.19 179.085 1574.4 C 148.285 1543.88 132.665 1515.17 130.106 1472.08 C 126.119 1404.93 129.089 1336.86 134.022 1269.92 C 150.541 1045.78 197.041 832.806 348.239 658.668 C 459.232 530.835 622.608 441.806 792.235 429.417 z" fill="rgb(252,208,114)" transform="translate(0,0)"></path>
<path d="M 313.258 793.175 C 341.009 791.469 345.673 815.899 340.873 838.088 C 334.241 868.739 323.191 899.469 312.973 929.219 C 297.986 972.851 285.422 1015.26 276.255 1060.52 C 273.061 1076.06 270.528 1091.74 268.663 1107.5 C 266.68 1124.16 266.663 1141.5 263.877 1157.82 C 262.079 1168.35 249.119 1160.38 244.746 1157.3 C 231.8 1145.22 226.801 1135.34 218.274 1120.1 C 182.475 1056.09 254.588 819.035 313.258 793.175 z" fill="rgb(60,39,31)" transform="translate(0,0)"></path>
<path d="M 315.276 801.108 C 336.088 800.627 335.962 823.552 332.588 838.232 C 325.583 868.711 314.787 900.565 304.5 930.007 C 279.537 1001.45 260.445 1074.63 256.469 1150.44 C 256.374 1152.26 254.886 1152.77 253.673 1153.36 C 249.829 1152.26 247.27 1149.09 244.331 1146.23 C 186.799 1085.53 231.953 963.323 256.166 894.777 C 265.106 869.469 291.377 811.707 315.276 801.108 z" fill="rgb(253,253,250)" transform="translate(0,0)"></path>
<path d="M 971.26 631.537 L 976.112 632.152 C 982.309 637.516 979.184 657.942 979.091 666.177 C 974.738 1052.09 627.363 1468.59 241.142 1520.01 L 236.608 1519.77 C 234.444 1517.3 235.153 1518.68 234.455 1515.43 C 238.486 1507.73 265.043 1507.18 274.054 1505.27 C 615.301 1433.14 900.102 1112.19 959.989 773.161 C 965.066 742.922 968.188 712.387 969.335 681.746 C 969.989 666.442 969.611 647.988 971.091 633.162 L 971.26 631.537 z" fill="rgb(60,39,31)" transform="translate(0,0)"></path>
<path d="M 380.428 691.132 C 411.231 687.754 398.882 719.791 386.44 732.971 C 378.991 740.861 376.025 744.245 366.174 749.635 C 349.248 752.731 343.55 741.815 348.79 726.797 C 353.944 712.027 366.775 698.361 380.428 691.132 z" fill="rgb(60,39,31)" transform="translate(0,0)"></path>
<path d="M 383.685 698.819 C 387.855 698.933 389.287 699.847 391.388 703.413 C 393.378 716.614 373.767 736.359 362.842 741.747 C 358.902 741.472 357.981 740.908 355.46 738.122 C 351.241 725.633 373.462 704.734 383.685 698.819 z" fill="rgb(253,253,250)" transform="translate(0,0)"></path>
<path d="M 586.875 501.915 C 590.096 501.476 589.886 501.4 592.966 502.364 L 593.624 504.289 C 589.814 510.547 571.302 518.804 564.451 522.086 L 561.506 522.454 C 558.411 520.375 559.317 521.74 558.364 518.461 C 560.79 512.386 580.006 505.004 586.875 501.915 z" fill="rgb(60,39,31)" transform="translate(0,0)"></path>
<path d="M 631.216 481.127 C 633.765 482.359 634.292 483.051 634.699 485.435 C 631.633 490.218 620.707 493.188 615.216 495.132 L 612.609 494.927 C 610.527 492.361 611.129 493.802 610.866 490.401 C 613.981 485.334 625.278 482.939 631.216 481.127 z" fill="rgb(60,39,31)" transform="translate(0,0)"></path>
<path d="M 1000.79 500.568 C 1007.41 504.124 1029.65 530.576 1035.87 538.001 C 1131.56 652.252 1161.2 810.861 1149.89 956.495 C 1136.28 1131.92 1035.13 1314.38 900.174 1426.66 C 782.151 1524.86 608.41 1603.34 455.441 1621.03 C 410.362 1625.97 364.893 1626.23 319.761 1621.8 C 281.751 1618.21 227.191 1606.72 195.397 1586.57 C 297.853 1596.91 418.336 1552.44 507.513 1505.84 C 687.399 1411.58 835.203 1265.97 932.143 1087.51 C 1027.81 909.398 1059.48 695.743 1000.79 500.568 z" fill="rgb(248,167,96)" transform="translate(0,0)"></path>
<path d="M 921.091 1358.55 C 923.953 1359.22 923.761 1359.14 925.709 1361.35 L 925.503 1363.8 C 921.672 1369.59 892.601 1395.12 886.14 1400.8 C 794.213 1481.59 666.346 1547.44 548.69 1580.93 C 548.173 1580.87 545.435 1579.97 544.837 1579.79 L 544.114 1577.07 C 547.081 1572.27 593.177 1558.2 601.576 1555.27 C 622.369 1547.94 642.835 1539.71 662.917 1530.61 C 766.869 1484.02 838.83 1435.72 921.091 1358.55 z" fill="rgb(60,39,31)" transform="translate(0,0)"></path>
<path d="M 1092.39 1077.36 C 1094.75 1078.42 1094.32 1078.26 1096.44 1079.82 C 1096.66 1080.55 1097.24 1082.22 1097.05 1082.85 C 1070.1 1170.06 1003.82 1279.21 942.904 1343.03 C 939.612 1341.28 940.81 1342.49 938.999 1339.45 C 939.369 1333.76 950.696 1322.86 954.873 1317.81 C 965.967 1304.55 976.613 1290.92 986.791 1276.94 C 1033.52 1211.89 1062.19 1150.28 1092.39 1077.36 z" fill="rgb(60,39,31)" transform="translate(0,0)"></path>
<path d="M 1113.82 795.44 C 1115.66 795.917 1118.03 796.514 1118.62 798.335 C 1126.33 822.306 1131.01 917.054 1125.37 937.826 C 1124.05 938.055 1119.45 938.824 1119.11 936.469 C 1118.3 921.418 1117.56 897.984 1118.92 883.056 C 1120.53 865.275 1110 808.426 1113.82 795.44 z" fill="rgb(60,39,31)" transform="translate(0,0)"></path>
<path d="M 501.233 1583.2 L 502.426 1583.4 C 505.336 1586.03 504.203 1584.46 505.483 1588.58 C 498.459 1594.95 421.066 1605.97 407.25 1607.49 C 406.226 1607.53 405.671 1607.24 404.608 1606.94 L 403.284 1604.54 L 403.957 1602.55 C 408.683 1599.11 430.683 1597.25 438.296 1595.96 C 459.405 1592.37 480.395 1588.12 501.233 1583.2 z" fill="rgb(60,39,31)" transform="translate(0,0)"></path>
<path d="M 1114.88 966.167 C 1117.55 966.637 1117.85 966.363 1119.68 968.21 C 1120.48 978.642 1111 1022.48 1107.3 1033.1 C 1104.67 1032.16 1105.23 1032.38 1102.84 1030.9 C 1102.36 1028.77 1113.42 973.105 1114.88 966.167 z" fill="rgb(60,39,31)" transform="translate(0,0)"></path>
<path d="M 1482.9 86.1986 L 1483.56 87.2108 L 1483.09 91.4852 C 1481.51 105.872 1488.01 114.687 1497 124.87 C 1394.3 152.356 1294.29 189.051 1198.18 234.508 C 1167.29 249.078 1134.48 264.755 1105.09 282.117 C 1092.65 289.464 1065.3 304.821 1055.83 313.826 C 1017.37 350.503 982.236 391.379 951.837 434.979 C 941.477 449.837 931.873 465.243 923.712 481.43 C 922.459 483.917 920.652 483.726 918.224 483.879 C 912.381 482.361 897.32 476.792 900.557 469.804 C 919.06 429.896 952.916 398.04 980.628 364.539 C 1003.49 336.9 1025.27 320.607 1028.35 282.761 C 1044.39 274.222 1063.26 267.174 1079.58 258.404 C 1133.68 229.332 1188.15 202.096 1244.13 176.747 C 1321.85 141.835 1401.58 111.598 1482.9 86.1986 z" fill="rgb(204,166,139)" transform="translate(0,0)"></path>
<path d="M 1685.73 319.248 C 1688.52 319.018 1697.73 325.335 1700.29 327.012 C 1733.31 348.604 1758.28 374.97 1783.81 404.735 C 1742.81 408.786 1713.75 412.818 1674.28 426.591 C 1667.89 428.817 1646.12 438.314 1642.27 437.085 C 1618.83 416.746 1567.08 384.014 1538.98 370.686 C 1593.47 340.425 1624.51 330.209 1685.73 319.248 z" fill="rgb(182,201,144)" transform="translate(0,0)"></path>
<path d="M 1535.43 401.338 C 1561.53 415.663 1600.94 440.633 1624.25 459.396 C 1615.16 506.367 1611.15 576.091 1610.75 624.249 L 1610.72 627.125 L 1609.67 627.956 C 1602.17 622.729 1592.34 613.154 1584.83 607.125 C 1565.36 591.479 1546.18 575.785 1527.55 559.123 C 1526.56 512.364 1526.79 447.747 1535.43 401.338 z" fill="rgb(182,201,144)" transform="translate(0,0)"></path>
<path d="M 1632 465.764 C 1654.13 478.965 1701.29 526.124 1718.2 546.88 C 1706.73 593.486 1698.84 640.901 1694.59 688.71 L 1693.34 703.507 C 1670.69 683.153 1641.1 657.717 1620.05 636.535 C 1619.5 586.974 1623.05 513.816 1632 465.764 z" fill="rgb(182,201,144)" transform="translate(0,0)"></path>
<path d="M 1776.66 414.421 C 1780.3 414.02 1786.09 414.12 1789.92 414.061 C 1812.56 436.097 1840 490.898 1854.15 519.356 C 1820.9 516.395 1788.29 515.656 1755.18 520.389 C 1749.31 521.228 1742.13 522.649 1736.29 522.698 C 1717.73 500.415 1674.96 460.979 1652.05 444.242 C 1695.14 427.991 1730.11 417.968 1776.66 414.421 z" fill="rgb(182,201,144)" transform="translate(0,0)"></path>
<path d="M 1428.28 353.211 C 1462.6 366.273 1493.84 380.776 1527 396.44 C 1518.65 446.073 1517.81 495.136 1517.91 545.25 C 1517.9 547.061 1517.74 547.869 1517.5 549.665 C 1506.75 549.34 1467.73 502.894 1458.33 493.767 C 1448.15 483.899 1437.96 473.44 1426.11 464.817 C 1424.86 426.137 1424.74 391.779 1428.28 353.211 z" fill="rgb(182,201,144)" transform="translate(0,0)"></path>
<path d="M 1552.9 264.213 C 1557.83 264.321 1570.41 268.185 1575.64 269.706 C 1611.96 280.257 1642.05 294.426 1675.61 311.437 C 1628.25 319.179 1591 332.145 1548.58 354.603 C 1541.67 358.448 1536.67 361.435 1530.11 365.832 C 1499.72 349.739 1466.58 336.739 1434.71 323.714 C 1459.37 299.632 1519.31 272.575 1552.9 264.213 z" fill="rgb(182,201,144)" transform="translate(0,0)"></path>
<path d="M 1795.84 526.443 C 1816.58 525.552 1838.22 527.698 1858.77 530.317 C 1878.6 578.597 1889.16 612.129 1900.77 662.805 C 1885.95 659.291 1873.76 657.101 1858.77 654.919 C 1847.61 653.397 1837.55 652.685 1826.34 651.879 C 1800.76 608.306 1776.19 570.783 1743.56 531.706 C 1759.97 527.792 1778.95 527.165 1795.84 526.443 z" fill="rgb(182,201,144)" transform="translate(0,0)"></path>
<path d="M 1726 555.795 C 1743 570.951 1779.82 627.999 1791.73 647.862 C 1782.53 677.827 1772.36 739.222 1767.3 770.419 C 1764.08 770.366 1709.72 718.275 1701.94 711.153 C 1707.23 664.451 1711.86 600.809 1726 555.795 z" fill="rgb(182,201,144)" transform="translate(0,0)"></path>
<path d="M 1333.83 479.428 C 1357.53 479.42 1412.75 484.871 1433.81 492.613 C 1461.22 502.686 1507.76 570.548 1520.75 596.59 C 1512.68 592.853 1505.42 590.107 1497.14 586.979 C 1462.04 573.464 1421.03 565.194 1383.6 561.84 C 1360.94 535.369 1324.81 503.793 1297.39 482.539 C 1309.45 480.347 1321.61 479.963 1333.83 479.428 z" fill="rgb(182,201,144)" transform="translate(0,0)"></path>
<path d="M 1392.5 571.981 C 1431.18 573.292 1493.97 592.594 1527.62 611.113 C 1542.64 648.328 1551.63 682.906 1553.76 723.225 C 1547.16 719.121 1541.55 714.063 1534.07 709.599 C 1511.99 696.427 1484.85 683.383 1459.96 677.064 C 1443.15 641.089 1417.12 603.007 1392.5 571.981 z" fill="rgb(182,201,144)" transform="translate(0,0)"></path>
<path d="M 1282.2 505.449 C 1302.97 520.428 1337.1 556.887 1354.76 575.955 C 1349.93 613.455 1343.68 650.759 1336.03 687.787 C 1335.77 689.506 1335.28 690.782 1334.77 692.459 C 1335.28 692.569 1274.6 624.573 1268.66 618.025 C 1276.08 590.836 1277.56 535.712 1282.2 505.449 z" fill="rgb(182,201,144)" transform="translate(0,0)"></path>
<path d="M 1322.53 318.297 C 1355.54 327.679 1388.2 338.202 1420.48 349.847 C 1415.4 382.668 1415.95 422.455 1415.96 455.638 C 1409.62 452.414 1392.42 440.006 1385.54 435.55 C 1364.19 421.728 1341.88 407.078 1319.18 395.609 C 1318.24 369.721 1317.42 343.839 1322.53 318.297 z" fill="rgb(182,201,144)" transform="translate(0,0)"></path>
<path d="M 1362.51 584.598 C 1377.78 597.492 1413.58 649.697 1423.55 668.278 C 1420.43 678.474 1417.67 696.302 1414.82 707.717 C 1409.39 729.509 1403.56 747.373 1395.98 768.5 L 1392.21 778.103 C 1374.56 747.819 1362.64 730.589 1342.32 701.993 C 1346.37 688.257 1347.98 671.746 1350.94 657.588 C 1355.93 633.733 1357.36 608.302 1362.51 584.598 z" fill="rgb(182,201,144)" transform="translate(0,0)"></path>
<path d="M 1133.33 279.129 C 1153.48 280.943 1173.35 284.74 1193.27 288.224 C 1203.53 324.248 1224.21 344.142 1250.58 368.171 C 1226.71 361.563 1214.54 358.431 1189.81 354.675 C 1171.92 352.279 1153.98 350.23 1136 348.532 C 1115.4 346.629 1097.18 347.478 1079.41 336.06 C 1075.13 333.313 1063.67 330.266 1061.39 326.093 C 1064.2 317.201 1122.84 284.157 1133.33 279.129 z" fill="rgb(253,253,250)" transform="translate(0,0)"></path>
<path d="M 1197.24 439.352 C 1223.37 458.119 1249.03 477.517 1274.21 497.529 C 1271.64 528.856 1267.88 573.169 1262.85 603.868 L 1262.13 608.005 L 1260.89 608.83 C 1254.62 603.411 1245.73 592.498 1239.82 586.141 C 1223.33 568.373 1208.38 550.514 1193.22 531.578 C 1193.78 500.807 1195.12 470.055 1197.24 439.352 z" fill="rgb(182,201,144)" transform="translate(0,0)"></path>
<path d="M 1908.1 908.935 C 1894.2 855.502 1876.44 803.15 1854.95 752.291 C 1779.2 572.007 1673.46 455.034 1495.3 371.348 C 1431.98 342.162 1366.01 319.102 1298.29 302.485 C 1262.21 293.732 1226.75 284.884 1190.13 278.666 C 1183.93 277.612 1155.92 273.001 1152.86 270.44 C 1160.2 266.023 1218.58 278.72 1230.47 280.672 C 1363.06 302.439 1483.12 342.274 1596.03 416.216 C 1649.71 451.4 1697.98 494.199 1739.34 543.27 C 1819.66 639.355 1884.88 785.264 1910.22 907.067 L 1908.1 908.935 z" fill="rgb(252,208,114)" transform="translate(0,0)"></path>
<path d="M 1797.78 659.462 C 1801.49 663.703 1809.99 680.789 1812.87 686.308 C 1830.13 719.395 1843.95 753.211 1857.7 787.853 C 1849.53 800.757 1847.02 815.246 1843.07 829.901 C 1841.81 834.584 1841.6 844.917 1838.86 848.971 L 1837.21 848.111 C 1820.33 826.136 1793.74 799.24 1774.49 778.909 C 1777.73 766.27 1780.79 745.324 1783.2 731.966 C 1787.56 707.7 1792.42 683.527 1797.78 659.462 z" fill="rgb(182,201,144)" transform="translate(0,0)"></path>
<path d="M 1262.48 411.408 C 1269.92 410.901 1277.39 410.651 1284.85 410.659 C 1293.2 410.599 1317.8 411.011 1324.04 414.057 C 1352.48 427.951 1403.32 459.673 1425.21 481.246 C 1409.13 476.74 1394 474.672 1377.5 472.607 C 1351.96 467.394 1313.7 469.163 1288.42 475.775 C 1263.79 454.574 1239.78 437.524 1213.18 418.672 C 1228.19 414.317 1246.82 412.848 1262.48 411.408 z" fill="rgb(182,201,144)" transform="translate(0,0)"></path>
<path d="M 1464.45 687.098 C 1488.63 692.701 1541.21 719.409 1555.99 739.9 C 1556.39 775.037 1554.61 795.852 1548.78 830.312 C 1548.16 833.631 1547.16 837.482 1546.39 840.825 C 1531.66 821.808 1518.35 811.478 1497.52 799.13 C 1494.01 766.287 1477.17 717.69 1464.45 687.098 z" fill="rgb(182,201,144)" transform="translate(0,0)"></path>
<path d="M 1429.55 679.798 C 1431.91 682.429 1437.36 694.123 1439.07 697.718 C 1454.31 729.692 1464.21 756.956 1471.47 791.636 C 1460.92 817.953 1452.66 839.252 1437.44 863.61 C 1436.64 864.579 1437.2 864.172 1435.49 864.363 C 1432.4 859.187 1429.58 852.459 1427.05 846.851 C 1417.77 826.251 1407.54 806.22 1397.37 786.048 C 1408.71 764.329 1425.77 704.378 1429.55 679.798 z" fill="rgb(182,201,144)" transform="translate(0,0)"></path>
<path d="M 1423.37 247.41 C 1453.85 246.987 1503.29 251.792 1532.22 260.452 C 1496.76 273.048 1471.83 285.398 1440.85 306.814 L 1422.02 319.581 C 1400.39 310.791 1366.32 301.379 1343.81 295.262 C 1362.98 279.94 1399.97 253.147 1423.37 247.41 z" fill="rgb(182,201,144)" transform="translate(0,0)"></path>
<path d="M 1831.36 661.695 C 1857.1 663.244 1878.91 668.364 1903.76 674.318 C 1911.62 717.008 1917.05 760.108 1920.03 803.412 C 1912.32 800.801 1899.41 799.775 1890.94 798.875 C 1887.9 788.34 1880.73 770.616 1876.62 760.227 C 1863.49 726.52 1848.38 693.619 1831.36 661.695 z" fill="rgb(182,201,144)" transform="translate(0,0)"></path>
<path d="M 1489.19 875.428 C 1488.41 848.77 1486.3 818.281 1480.49 791.22 C 1435.92 583.807 1245.37 452.401 1074.71 350.101 C 1070.63 347.657 1051.85 338.817 1050.08 336.39 L 1050.99 335.073 C 1069.61 334.745 1183.67 410.907 1205.83 425.649 C 1366.68 532.63 1490.28 666.107 1493.25 869.472 C 1493.51 884.652 1493.02 899.836 1491.77 914.967 L 1490.72 914.692 C 1488.67 910.179 1491.56 884.934 1489.19 875.428 z" fill="rgb(252,208,114)" transform="translate(0,0)"></path>
<path d="M 1107.86 382.355 C 1116.75 384.837 1176.95 426.177 1189.3 434.274 C 1186.22 461.823 1184.77 489.53 1184.97 517.25 C 1184.86 518.983 1185.17 518.212 1183.95 519.536 C 1179.05 514.129 1170.76 501.457 1166.4 495.21 C 1141.32 459.247 1122.94 423.494 1107.86 382.355 z" fill="rgb(182,201,144)" transform="translate(0,0)"></path>
<path d="M 1251.66 300.688 C 1267.34 305.797 1297.26 311.852 1314.29 315.739 C 1308.93 334.901 1308.72 356.252 1309.31 376.068 C 1309.41 379.477 1310.12 387.563 1308.9 390.351 L 1307.29 390.071 C 1280.03 375.413 1263.16 367.213 1240.62 345.332 C 1242.49 330.061 1246.19 315.071 1251.66 300.688 z" fill="rgb(182,201,144)" transform="translate(0,0)"></path>
<path d="M 1473.57 808.84 C 1479.54 817.644 1480.52 901.618 1479.46 917.389 C 1478.47 931.985 1477.25 960.385 1474.46 974.756 C 1472.44 968.19 1470.07 961.67 1467.8 955.184 C 1458.98 927.865 1449.81 903.249 1440.09 876.364 C 1452.42 854.976 1464.89 832.002 1473.57 808.84 z" fill="rgb(182,201,144)" transform="translate(0,0)"></path>
<path d="M 1176.81 370.373 C 1198.54 368.555 1247.64 380.356 1269.44 387.382 C 1278.14 390.187 1292.91 397.259 1301.62 401.587 C 1289.19 401.516 1276.22 401.878 1263.75 402.056 C 1244.69 403.351 1221.61 404.358 1204.56 413.218 C 1188.8 401.28 1167.86 387.957 1150.81 378.059 C 1160.84 373.516 1165.92 371.817 1176.81 370.373 z" fill="rgb(182,201,144)" transform="translate(0,0)"></path>
<path d="M 1499.02 809.575 C 1518.66 819.511 1531.16 835.203 1543.78 852.447 C 1541.4 867.576 1532.12 895.776 1527.4 911.371 L 1520.87 929.224 C 1515.53 918.594 1509.76 910.52 1503.06 900.809 C 1503.67 870.993 1502.8 839.138 1499.02 809.575 z" fill="rgb(182,201,144)" transform="translate(0,0)"></path>
<path d="M 1379.26 248.421 C 1385.53 247.871 1394.12 248.03 1400.6 247.973 C 1374.47 258.504 1353.44 273.478 1333.33 292.963 C 1323.43 290.724 1313.54 288.397 1303.67 285.983 C 1293.87 283.849 1284.08 281.651 1274.31 279.391 L 1302.24 255.363 C 1327.12 251.372 1354.07 249.955 1379.26 248.421 z" fill="rgb(182,201,144)" transform="translate(0,0)"></path>
<path d="M 1861.81 799.852 C 1869.32 809.515 1899.75 917.032 1904.52 934.399 L 1897.89 925.465 C 1886.93 907.722 1860.57 874.842 1847.19 858.357 C 1850.45 834.799 1854.56 822.283 1861.81 799.852 z" fill="rgb(182,201,144)" transform="translate(0,0)"></path>
<path d="M 1506.78 78.1375 C 1531.51 78.2214 1539.36 112.757 1513.21 121.996 C 1510.01 122.226 1506.53 122.811 1503.74 121.325 C 1495.99 117.194 1492.38 105.827 1489.91 97.9083 C 1492.21 85.9968 1494.85 81.3366 1506.78 78.1375 z" fill="rgb(159,141,124)" transform="translate(0,0)"></path>
<path d="M 1894.18 810.392 C 1902.58 808.971 1911.48 811.998 1919.8 814.095 C 1922.73 829.739 1922.76 889.584 1921.73 907.149 L 1920.87 906.695 C 1916.48 880.038 1907.89 854.062 1900.46 828.159 C 1899.52 824.876 1896.92 817.759 1897.29 814.684 C 1899.29 814.088 1898.95 814.247 1900.85 813.268 L 1899.72 811.755 C 1896.98 811.94 1896.62 811.648 1894.18 810.392 z" fill="rgb(182,201,144)" transform="translate(0,0)"></path>
<path d="M 1205.8 290.545 L 1242.35 298.419 C 1238.89 307.506 1236.32 319.194 1234.19 328.765 C 1233.63 332.243 1234.2 332.281 1232.25 334.624 C 1222.31 331.101 1208.93 300.942 1205.8 290.545 z" fill="rgb(182,201,144)" transform="translate(0,0)"></path>
<path d="M 1502.24 915.442 C 1506.63 918.119 1513.35 934.248 1515.83 939.66 C 1510.25 954.193 1503.97 968.444 1496.99 982.363 L 1491.92 991.06 C 1497.52 964.939 1500.12 942.026 1502.24 915.442 z" fill="rgb(182,201,144)" transform="translate(0,0)"></path>
<path d="M 1278.49 258.342 C 1281.12 257.825 1280.94 257.776 1283.53 258.413 C 1281.33 262.585 1267.79 273.282 1263.33 277.015 L 1244.5 273.47 L 1229.23 271.13 C 1248.21 262.807 1257.75 261.347 1278.49 258.342 z" fill="rgb(182,201,144)" transform="translate(0,0)"></path>
<path d="M 1117.84 358.179 C 1123.85 358.127 1157.64 360.621 1161.44 363.498 L 1157.14 365.892 L 1143.13 373.261 C 1134.67 368.289 1126.24 363.262 1117.84 358.179 z" fill="rgb(182,201,144)" transform="translate(0,0)"></path>
<path d="M 907.151 493.385 C 892.199 487.993 885.068 479.558 881.693 462.89 C 881.198 460.442 881.782 460.317 883.201 458.738 L 885.803 459.384 C 893.71 468.853 886.89 482.211 906.761 491.608 L 907.151 493.385 z" fill="rgb(146,170,145)" transform="translate(0,0)"></path>
<path d="M 1489.19 875.428 C 1491.56 884.934 1488.67 910.179 1490.72 914.692 L 1491.77 914.967 C 1490.79 935.098 1488.42 953.835 1485.84 973.814 L 1484.27 973.943 C 1488.73 937.106 1489.07 912.088 1489.19 875.428 z" fill="rgb(204,166,139)" transform="translate(0,0)"></path>
<path d="M 928.199 492.172 C 930.635 489.258 933.991 483.675 936.414 482.841 C 939.175 484.903 939.046 484.691 940.218 487.923 C 936.209 493.637 913.237 495.879 907.151 493.385 L 906.761 491.608 C 914.852 492.251 920.064 492.349 928.199 492.172 z" fill="rgb(90,78,67)" transform="translate(0,0)"></path>
<path d="M 1910.22 907.067 C 1911.92 914.561 1912.32 921.455 1913.62 927.286 C 1910.49 920.19 1909.81 916.58 1908.1 908.935 L 1910.22 907.067 z" fill="rgb(252,208,114)" transform="translate(0,0)"></path>
<path d="M 1484.27 973.943 L 1485.84 973.814 C 1485.22 979.197 1484.97 984.943 1482.92 989.85 L 1482.54 989.742 L 1482.37 988.872 L 1483.32 988.858 L 1482.33 987.399 C 1482.8 982.215 1483.25 979.045 1484.27 973.943 z" fill="rgb(159,141,124)" transform="translate(0,0)"></path>
<path d="M 1673.59 1073.71 C 1704.46 1058.18 1735.2 1038.14 1765.37 1021.18 C 1775.51 1015.48 1807.75 994.846 1816.18 993.058 C 1824.85 1000.05 1837.13 1093 1838.61 1107.55 C 1844.09 1161.39 1846.58 1223.76 1841.78 1277.71 C 1827.31 1427.3 1769.5 1569.42 1675.45 1686.65 C 1660.43 1705.21 1647.34 1719.44 1631.32 1736.8 C 1493.58 1879.01 1315.86 1967.3 1115.51 1972.13 C 980.013 1975.39 846.618 1934.07 747.92 1838.11 C 715.468 1807.01 688.433 1770.71 667.928 1730.72 C 664.312 1723.54 658.892 1712.65 656.936 1704.98 C 668.763 1679.07 680.376 1676.76 704.382 1664.87 C 722.914 1655.81 741.36 1646.57 759.717 1637.16 C 777.076 1628.11 794.36 1618.91 811.566 1609.58 C 818.835 1605.66 835.434 1595.91 842.426 1594.45 C 848.314 1599.02 854.586 1614.83 859.449 1622.67 C 864.993 1606.84 884.173 1545.64 892.175 1536.24 C 892.469 1535.89 892.741 1535.52 893.026 1535.17 L 893.575 1534.5 C 893.484 1530.1 892.579 1511.38 894.491 1508.27 C 916.92 1471.83 945.08 1438.51 970.18 1403.81 C 976.13 1395.58 982.472 1387.45 989.089 1379.76 C 993.396 1374.75 998.03 1377.39 1003.33 1379.41 C 1002.79 1370.82 1001.95 1361.02 1001.95 1352.5 C 1008.38 1347.8 1021.5 1334.45 1028.22 1328.32 C 1053.24 1305.25 1078.42 1282.36 1103.76 1259.63 C 1111.23 1252.99 1129.35 1236.32 1136.7 1231.14 C 1148.21 1235.46 1159.5 1240.23 1170.24 1246.26 C 1170.33 1240.11 1168.58 1216.41 1173.03 1213.22 C 1219.28 1179.97 1267.54 1148.82 1316.67 1119.96 C 1325.11 1115 1333.97 1109.68 1342.88 1105.77 C 1353.47 1110.08 1372.73 1121.94 1383.66 1127.81 C 1386.94 1084.86 1379.54 1086.68 1420.52 1080.15 C 1500.52 1067.39 1593.2 1061.01 1673.59 1073.71 z" fill="rgb(60,39,31)" transform="translate(0,0)"></path>
<path d="M 1808.75 1006.74 C 1810.57 1013.63 1811.04 1043.49 1811.47 1052.13 C 1815.6 1134.68 1811.29 1208.35 1796.26 1289.53 C 1760.02 1494.8 1642.99 1676.97 1471.36 1795.26 C 1364 1868.86 1248.28 1913.04 1117.87 1921.22 C 949.724 1931.76 807.371 1876.01 710.766 1734.57 C 702.545 1721.79 690.223 1700.82 684.426 1687.04 C 707.091 1674.07 738.024 1660.23 762.195 1647.61 C 785.075 1635.67 816.28 1617.27 838.597 1607.55 C 896.985 1705.6 962.307 1771.77 1085.76 1773.45 C 1239.96 1775.56 1355.96 1703.64 1465.43 1602.34 C 1632.65 1447.63 1670.81 1307.79 1676.15 1085.65 C 1689.01 1077 1703.32 1069.65 1716.54 1061.62 C 1746.7 1043.28 1779.25 1025.89 1808.75 1006.74 z" fill="rgb(252,208,114)" transform="translate(0,0)"></path>
<path d="M 1255.23 1857 L 1256.75 1856.89 C 1259.7 1858.48 1258.54 1857.35 1260.06 1860.66 L 1259.2 1862.74 C 1252.71 1867.91 1237.42 1871.48 1228.92 1873.82 C 1181.22 1886.98 1137.96 1892.53 1088.75 1893.93 C 1086.94 1893.83 1087.57 1894 1085.98 1893.44 C 1084.39 1892.88 1084.5 1892.14 1083.8 1890.69 C 1084.11 1890.07 1084.43 1889.46 1084.75 1888.85 C 1090.89 1887.53 1103.77 1887.21 1109.49 1886.63 C 1157.36 1881.79 1209.71 1872.6 1255.23 1857 z" fill="rgb(60,39,31)" transform="translate(0,0)"></path>
<path d="M 1513.73 1722.76 L 1516.11 1723.1 C 1518.45 1725.3 1517.86 1724 1518.06 1727.1 C 1514.41 1733.61 1491.25 1749.68 1483.62 1755.44 L 1481.73 1755.33 C 1479.43 1752.77 1479.94 1754.21 1479.93 1750.97 C 1483.43 1744.95 1506.43 1728.87 1513.73 1722.76 z" fill="rgb(60,39,31)" transform="translate(0,0)"></path>
<path d="M 1456.28 1761.89 C 1457.95 1762.71 1458.08 1763.29 1459.45 1764.85 L 1459.27 1767.36 C 1456.4 1771.46 1452.79 1773.4 1448.61 1776.27 C 1446.02 1775.65 1446.21 1775.55 1444.33 1773.6 L 1444.51 1771.26 C 1447.67 1767.01 1451.79 1764.84 1456.28 1761.89 z" fill="rgb(60,39,31)" transform="translate(0,0)"></path>
<path d="M 1823.26 1077.73 C 1843.63 1196.01 1835.55 1317.43 1799.67 1431.97 C 1737.48 1629.62 1597.89 1793.67 1412.74 1886.7 C 1247.38 1971.41 1031.19 1993.39 861.839 1906.63 C 786.001 1867.78 716.556 1802.92 677.492 1726.69 C 674.007 1720.1 670.822 1712.86 667.691 1706.05 C 670.332 1701.18 673.203 1697.03 676.268 1692.43 C 690.268 1723.32 708.44 1752.15 730.275 1778.11 C 937.507 2027.62 1321.48 1943.82 1539.45 1756.58 C 1701.47 1617.4 1790.69 1437.33 1816.47 1226.52 C 1820.13 1195.75 1822.22 1164.83 1822.75 1133.85 C 1822.97 1116.49 1821.49 1094.56 1823.26 1077.73 z" fill="rgb(182,201,144)" transform="translate(0,0)"></path>
<path d="M 1137.82 1243.64 C 1143.89 1244.84 1171.97 1258.56 1179.86 1262.3 C 1222.79 1282.28 1265.22 1303.33 1307.11 1325.42 C 1267.91 1361.04 1223.57 1401.29 1186 1438.51 C 1133.97 1410.84 1069.8 1378.64 1016.08 1353.52 C 1027.71 1343.76 1042.11 1329.09 1053.61 1318.48 C 1081.1 1293.15 1108.68 1267.08 1137.82 1243.64 z" fill="rgb(252,208,114)" transform="translate(0,0)"></path>
<path d="M 1331.11 1346.57 C 1336.81 1348.79 1448.14 1453.46 1461.31 1466.12 C 1451.21 1478.38 1358.59 1578.99 1351.98 1582.21 L 1350.19 1581.26 C 1333.04 1565.4 1313.41 1549.84 1295.58 1534.46 C 1269.09 1511.64 1242.54 1488.05 1214.97 1466.63 C 1254.09 1427.77 1292.48 1386.23 1331.11 1346.57 z" fill="rgb(252,208,114)" transform="translate(0,0)"></path>
<path d="M 996.331 1387.64 C 1001.75 1390.35 1008.42 1392.71 1014.07 1395.15 C 1068.22 1418.48 1121.28 1446.27 1172.73 1475.14 C 1140.97 1511.18 1106.33 1546.88 1073.92 1583.32 L 1066.72 1591.11 C 1030.33 1572.96 994.636 1552.56 958.152 1534.47 C 941.096 1526.01 923.364 1516.94 906.816 1507.58 C 913.733 1495.95 934.202 1469.65 943.028 1458.09 C 960.124 1435.69 978.633 1409.05 996.331 1387.64 z" fill="rgb(252,208,114)" transform="translate(0,0)"></path>
<path d="M 1492.03 1217.96 C 1495.52 1220.46 1517.98 1244.14 1522.08 1248.39 C 1539.14 1266.03 1556.04 1283.82 1572.79 1301.76 C 1582.31 1311.93 1593.25 1323 1601.83 1333.7 C 1576.93 1354.81 1552.67 1376.65 1529.07 1399.21 C 1516.92 1410.59 1495.78 1431.55 1483.14 1441.25 L 1476.34 1434.26 C 1437.29 1395.45 1397.58 1357.33 1357.21 1319.9 C 1372.36 1307.05 1393.12 1291.99 1409.21 1279.8 C 1436.58 1258.87 1464.19 1238.26 1492.03 1217.96 z" fill="rgb(252,208,114)" transform="translate(0,0)"></path>
<path d="M 1198.21 1496.73 C 1203.41 1498.74 1232.54 1525.13 1238.71 1530.12 C 1268.9 1554.53 1297.32 1582.61 1327.56 1606.91 L 1225.14 1723.41 C 1224.27 1724.3 1223.53 1724.76 1222.52 1725.5 C 1218.13 1722.73 1199.87 1705.76 1194.84 1701.25 L 1132.99 1645.36 C 1124.12 1637.28 1108.71 1622.11 1099.9 1615.63 C 1132.24 1576.24 1164.51 1534.82 1198.21 1496.73 z" fill="rgb(252,208,114)" transform="translate(0,0)"></path>
<path d="M 1341.83 1117.83 C 1346.98 1119.06 1368.09 1130.96 1374.26 1134.07 C 1406.32 1150.2 1438.91 1170.74 1471.62 1185.15 C 1459.8 1195.15 1439.09 1209.27 1426.1 1218.95 C 1395.08 1241.83 1364.42 1265.2 1334.13 1289.04 L 1325.11 1284.1 C 1319.64 1281.16 1313.59 1278.21 1307.99 1275.49 C 1267.52 1255.89 1227.92 1233.43 1186.66 1215.63 C 1201.07 1204.88 1218.64 1193.89 1233.84 1183.92 C 1269.04 1160.6 1305.06 1138.56 1341.83 1117.83 z" fill="rgb(252,208,114)" transform="translate(0,0)"></path>
<path d="M 897.719 1547.47 C 920.229 1558.26 944.08 1571.52 966.305 1583.48 C 1000.82 1602.06 1038.52 1620.85 1072.12 1640.78 C 1058.67 1663.56 1032.69 1698.26 1016.73 1721.17 L 998.449 1747.2 C 938.336 1723.65 901.997 1685.79 866.681 1634.04 C 876.27 1605.9 886.744 1575.02 897.719 1547.47 z" fill="rgb(252,208,114)" transform="translate(0,0)"></path>
<path d="M 1663.86 1094.96 L 1664.93 1096.49 C 1665.67 1111.36 1664.47 1131.93 1663.43 1147.12 C 1660.21 1194.07 1654.79 1249.74 1644.18 1295.51 C 1638.83 1299.22 1632.45 1304.45 1627.2 1308.53 C 1609.23 1289.51 1590.26 1270.44 1571.95 1251.69 C 1552.68 1232.32 1533.62 1212.76 1514.77 1192.98 C 1537.67 1176.6 1567.69 1157.49 1591.46 1142.09 L 1663.86 1094.96 z" fill="rgb(252,208,114)" transform="translate(0,0)"></path>
<path d="M 1081.04 1645.85 C 1092.8 1653.89 1112.78 1671.84 1123.43 1681.41 C 1148.74 1704.54 1173.88 1727.85 1198.87 1751.33 C 1175.21 1756.95 1151.11 1760.57 1126.84 1762.15 C 1089.83 1766.52 1044.42 1761.43 1008.92 1751.16 C 1014.1 1742.01 1026.95 1724.12 1033.16 1715.06 L 1081.04 1645.85 z" fill="rgb(252,208,114)" transform="translate(0,0)"></path>
<path d="M 1529.54 1078.43 C 1560.23 1076.03 1611.03 1078.58 1641.83 1081.67 C 1602.07 1100.97 1552.48 1132.5 1513.74 1155.9 L 1504.99 1160.67 C 1471.06 1139.57 1437.81 1115.73 1403.44 1094.12 C 1442.76 1085.18 1489.41 1080.54 1529.54 1078.43 z" fill="rgb(252,208,114)" transform="translate(0,0)"></path>
<path d="M 1484.7 1495.8 C 1493.04 1505.07 1508.91 1525.63 1515.61 1535.73 C 1482.15 1575.16 1443.12 1610.64 1403.01 1643.18 L 1402.43 1643.5 C 1398.98 1642.2 1377.88 1621.19 1373.57 1617.06 C 1411.07 1578.44 1447.45 1534.82 1484.7 1495.8 z" fill="rgb(252,208,114)" transform="translate(0,0)"></path>
<path d="M 1619.93 1361.59 C 1621.9 1362.22 1621.41 1362.16 1623.15 1363.51 C 1623.59 1367.17 1615.89 1381.59 1614.01 1385.61 C 1592.16 1432.23 1567.08 1474.76 1534.23 1514.52 C 1529.92 1510.25 1526.17 1505.68 1522.23 1501.07 C 1515.57 1493.17 1508.72 1484.39 1502.2 1476.31 C 1540.92 1437.74 1580.94 1400.66 1619.93 1361.59 z" fill="rgb(252,208,114)" transform="translate(0,0)"></path>
<path d="M 1180.53 1224.51 C 1199.25 1230.23 1235.36 1249.89 1253.83 1259.29 C 1277.6 1271.38 1309.1 1285.7 1331.4 1299.29 C 1329.98 1307.91 1328.75 1316.74 1327.45 1325.39 L 1326.18 1325.9 C 1317.9 1321.71 1304.44 1312.59 1293.94 1307.02 C 1256.92 1287.36 1219.25 1268.93 1181 1251.78 C 1180.71 1242.69 1180.56 1233.6 1180.53 1224.51 z" fill="rgb(233,134,88)" transform="translate(0,0)"></path>
<path d="M 902.834 1518.23 C 921.659 1526.4 947.953 1541.16 966.529 1550.81 L 1066.87 1602.05 C 1069.17 1611.19 1071.38 1620.34 1073.49 1629.52 C 1049.17 1617.71 1020.84 1600.88 996.485 1587.92 C 966.232 1571.83 933.411 1555.4 903.688 1538.72 C 903.754 1532.31 903.176 1524.72 902.834 1518.23 z" fill="rgb(233,134,88)" transform="translate(0,0)"></path>
<path d="M 1012.72 1362.51 C 1055.16 1382.16 1097.09 1404.42 1139.12 1424.99 C 1154.9 1432.71 1173.44 1441.49 1187.88 1451.15 C 1188.15 1458.14 1188.01 1465.73 1188 1472.77 C 1174.12 1465.51 1160.36 1456.55 1146.29 1449.13 C 1102.45 1426.05 1058.07 1404 1013.19 1383 C 1012.83 1376.26 1012.82 1369.28 1012.72 1362.51 z" fill="rgb(233,134,88)" transform="translate(0,0)"></path>
<path d="M 1477.62 1192.88 C 1480.25 1199.88 1481.95 1202.76 1485.71 1209.29 C 1441.74 1244.3 1389.88 1282.81 1344.56 1316.36 L 1341.37 1318.14 L 1340.32 1317.15 C 1339.47 1312.95 1340.84 1301.91 1341.15 1296.63 C 1352.26 1285.33 1377.36 1267.72 1391.05 1257.49 L 1477.62 1192.88 z" fill="rgb(233,134,88)" transform="translate(0,0)"></path>
<path d="M 1467.61 1473.85 C 1471.38 1477.72 1475.3 1483.25 1478.64 1487.63 C 1462.12 1507.1 1442.68 1527.22 1425.21 1546.13 L 1366.78 1610.49 C 1364.06 1613.27 1365.52 1612.86 1362.56 1613.16 C 1358.85 1609.01 1359.96 1596.08 1360.02 1589.88 C 1394.82 1551.13 1432.21 1512.67 1467.61 1473.85 z" fill="rgb(233,134,88)" transform="translate(0,0)"></path>
<path d="M 1313.5 1330.08 L 1323.98 1338.3 C 1288.69 1378.71 1241.5 1425.58 1202.88 1464.25 L 1199.51 1466.91 L 1198.03 1466.73 C 1196.62 1461.24 1198.21 1453.7 1196.31 1444.19 L 1195.96 1442.48 C 1234.81 1404.61 1275.18 1368.92 1313.5 1330.08 z" fill="rgb(233,134,88)" transform="translate(0,0)"></path>
<path d="M 1350.1 1326.52 C 1355.38 1328.68 1467.31 1438.61 1479.62 1451.47 C 1479.76 1455.82 1480.82 1466.57 1478.37 1469.4 L 1476.33 1467.81 C 1436.95 1425.12 1381.82 1382.04 1339.9 1340.68 L 1350.1 1326.52 z" fill="rgb(233,134,88)" transform="translate(0,0)"></path>
<path d="M 1395.67 1100.33 C 1409.26 1110.45 1428.71 1122.12 1443.49 1131.62 C 1463.25 1144.45 1482.87 1157.51 1502.33 1170.8 C 1501.1 1177.36 1499.83 1183.9 1498.53 1190.44 C 1496.77 1190.76 1484.02 1181.37 1480.56 1179.43 C 1451.77 1163.33 1422.7 1147.63 1393.53 1132.24 C 1393.74 1120.56 1394.39 1111.89 1395.67 1100.33 z" fill="rgb(233,134,88)" transform="translate(0,0)"></path>
<path d="M 1605.97 1341.85 C 1608.9 1344.55 1612.57 1349.56 1615.15 1352.83 C 1575.25 1390.96 1532.42 1431.84 1493.63 1470.9 C 1491.57 1473.3 1491.57 1473.6 1488.91 1475.18 L 1487.67 1474.21 C 1486.59 1470.15 1487.84 1456.98 1488.04 1451.68 C 1500.48 1437.7 1520.28 1420.18 1534.19 1407.22 C 1557.65 1384.93 1581.59 1363.13 1605.97 1341.85 z" fill="rgb(233,134,88)" transform="translate(0,0)"></path>
<path d="M 1334.75 1614.63 C 1338.94 1617.52 1343.54 1623.14 1346.85 1627.06 C 1337.23 1640.66 1314.85 1662.73 1302.55 1676.55 C 1286 1695.14 1267.42 1716.79 1249.29 1733.68 C 1247.11 1735.72 1235.67 1739.99 1232.24 1741.34 L 1222.06 1744.72 C 1229.66 1729.85 1262.42 1695.61 1274.93 1681.44 C 1294.3 1659.5 1314.91 1636.17 1334.75 1614.63 z" fill="rgb(233,134,88)" transform="translate(0,0)"></path>
<path d="M 1179.36 1481.68 C 1184.2 1484.31 1186.33 1487.66 1189.36 1492.16 C 1152.9 1534.68 1118.44 1574.93 1083.8 1619.33 L 1083.12 1620.15 L 1081.79 1620.04 C 1079.42 1613.76 1077.51 1603.61 1076 1596.76 C 1085.32 1584.37 1108.84 1559.78 1119.87 1547.75 L 1179.36 1481.68 z" fill="rgb(233,134,88)" transform="translate(0,0)"></path>
<path d="M 1213.29 1479.77 C 1221 1481.57 1334.73 1580.31 1350.75 1593.75 C 1350.77 1598.07 1351.36 1612.59 1348.94 1615.53 L 1347.32 1614.02 C 1332.2 1597.27 1313.31 1581.58 1296.23 1566.64 C 1266.2 1540.16 1235.67 1514.24 1204.68 1488.89 L 1213.29 1479.77 z" fill="rgb(233,134,88)" transform="translate(0,0)"></path>
<path d="M 1353.7 1634.65 C 1362.25 1643.47 1370.95 1653.2 1379.32 1662.27 C 1346.19 1685.05 1322.92 1700.11 1287.04 1718.07 C 1280.92 1721.11 1274.79 1724.1 1268.62 1727.04 C 1295.98 1698.79 1328.18 1664.48 1353.7 1634.65 z" fill="rgb(252,208,114)" transform="translate(0,0)"></path>
<path d="M 1094.79 1623.64 C 1098.7 1626.49 1108.58 1636.05 1112.5 1639.65 L 1146.5 1670.76 L 1189.48 1709.54 C 1197.22 1716.48 1208.73 1725.91 1215.15 1733.7 C 1215.32 1739.64 1217.01 1746.54 1210.42 1748.09 C 1194.58 1735.54 1175.7 1716.7 1160.6 1702.66 C 1136.52 1679.93 1111.72 1657.97 1086.23 1636.82 C 1088.45 1632.84 1092.19 1627.55 1094.79 1623.64 z" fill="rgb(233,134,88)" transform="translate(0,0)"></path>
<path d="M 1507.89 1200.5 C 1544.03 1235.43 1587.34 1280.42 1621.1 1317.18 C 1618.16 1324.68 1617.77 1326.44 1616.62 1334.11 C 1589.68 1303.98 1561.47 1274.34 1533.15 1245.52 C 1522.93 1235.12 1512.11 1224.85 1502.41 1213.98 C 1504.74 1209.39 1506.12 1205.31 1507.89 1200.5 z" fill="rgb(233,134,88)" transform="translate(0,0)"></path>
<path d="M 1654.82 1086.06 L 1655.53 1087.18 C 1653.5 1090.29 1523.6 1175.33 1510.37 1184.17 L 1509.78 1183.67 C 1508.8 1180.81 1510.99 1172.95 1511.71 1169.26 C 1554.78 1141.2 1608.72 1108.72 1654.82 1086.06 z" fill="rgb(233,134,88)" transform="translate(0,0)"></path>
<path d="M 1494.71 1484.34 C 1497.97 1485.72 1522.74 1516.64 1526.48 1521.09 C 1526.47 1524.33 1525.77 1524.12 1523.48 1527.35 L 1522.56 1527.49 C 1518.23 1524.26 1497.64 1495.69 1493.54 1488.64 C 1492.77 1487.3 1493.8 1486.3 1494.71 1484.34 z" fill="rgb(248,167,96)" transform="translate(0,0)"></path>
<path d="M 1366.34 1624.48 C 1373.86 1630.77 1387.63 1641.89 1393.2 1648.97 C 1392.81 1652.03 1392.25 1651.67 1389.68 1654.45 C 1384.49 1656.52 1365.96 1634.66 1363.85 1629.2 C 1363.35 1627.9 1365.53 1625.63 1366.34 1624.48 z" fill="rgb(233,134,88)" transform="translate(0,0)"></path>
<path d="M 1639.61 1311.92 C 1640.36 1312.67 1639.88 1312.09 1640.43 1314.02 C 1638.32 1322.89 1634.43 1336.53 1628.11 1343.19 C 1624.47 1337.78 1627.3 1326.57 1628.3 1319.35 C 1631.79 1317.38 1636.2 1314.22 1639.61 1311.92 z" fill="rgb(233,134,88)" transform="translate(0,0)"></path>
<metadata><recraft-signature>{"signed_by": "recraft", "signature_b64": "GfMSuWoxoEJnimIt837frYIkCVDaTVuMzXbRelmOcxXd9fWfu1u7zCUTHoRFfB9tuSknkdR9Lb1Sq4WC0O0PBQ==", "signing_algo": "Ed25519", "generation_timestamp": 1764903544, "identifier": "26cb4050-0ee6-453a-9b09-74fc65e1e155"}</recraft-signature></metadata></svg>