<?xml version="1.0" encoding="UTF-8"?>
<svg id="Layer_1" data-name="Layer 1" xmlns="http://www.w3.org/2000/svg" viewBox="0 0 2000 2000">
  <g>
    <path d="M285.48,1049.67c4.76-.82,8.94-2.38,12.56-4.68,3.61-2.29,6.48-5.5,8.62-9.61,2.13-4.1,3.2-9.61,3.2-16.5v-247.78c0-6.9-1.07-12.39-3.2-16.5-2.14-4.1-5.01-7.3-8.62-9.61-3.62-2.29-7.8-3.86-12.56-4.68-4.76-.82-9.78-1.23-15.02-1.23v-8.87c9.19,0,16.83.08,22.91.25,6.07.17,11.25.33,15.52.49,4.26.17,7.96.33,11.08.49,3.12.17,6.48.25,10.1.25,6.57,0,14.45-.25,23.65-.74,9.19-.49,17.56-.74,25.12-.74l97.04,240.89,98.52-240.89c6.57,0,12.72.25,18.47.74,5.74.49,12.39.74,19.95.74,4.26,0,8.45-.08,12.56-.25,4.1-.16,8.62-.32,13.55-.49,4.93-.16,10.67-.32,17.24-.49,6.57-.16,14.61-.25,24.14-.25v8.87c-5.26,0-10.27.42-15.02,1.23-4.76.82-8.95,2.39-12.56,4.68-3.62,2.3-6.49,5.5-8.62,9.61-2.14,4.11-3.2,9.61-3.2,16.5v247.78c0,6.9,1.06,12.4,3.2,16.5,2.13,4.11,5,7.31,8.62,9.61,3.61,2.3,7.8,3.86,12.56,4.68,4.76.82,9.77,1.23,15.02,1.23v8.87c-9.85,0-18.23-.08-25.12-.25-6.9-.16-13.14-.41-18.72-.74-5.59-.32-10.76-.57-15.52-.74-4.76-.16-9.78-.25-15.02-.25-5.59,0-10.68.08-15.27.25-4.6.17-9.69.42-15.27.74-5.59.33-11.82.58-18.72.74-6.9.17-15.27.25-25.12.25v-8.87c5.25,0,10.26-.41,15.02-1.23,4.76-.82,8.94-2.38,12.56-4.68,3.61-2.29,6.48-5.5,8.62-9.61,2.13-4.1,3.2-9.61,3.2-16.5v-242.36l-115.76,283.74h-15.27l-115.27-281.77v240.39c0,6.9,1.06,12.4,3.2,16.5,2.13,4.11,5,7.31,8.62,9.61,3.61,2.3,7.8,3.86,12.56,4.68,4.76.82,9.77,1.23,15.02,1.23v8.87c-6.57,0-12.07-.08-16.5-.25-4.43-.16-8.37-.32-11.82-.49-3.45-.16-6.65-.32-9.61-.49-2.96-.16-6.24-.25-9.85-.25s-6.82.08-9.61.25c-2.79.17-5.83.33-9.11.49-3.29.17-6.98.33-11.08.49-4.11.17-9.44.25-16.01.25v-8.87c5.25,0,10.26-.41,15.02-1.23Z"/>
    <path d="M796.06,852.38c-4.93,0-10.1.33-15.52.99-5.42.66-10.43,1.72-15.02,3.2-4.6,1.48-8.37,3.2-11.33,5.17s-4.43,4.27-4.43,6.9c0,.66.57,2.79,1.73,6.4,1.15,3.62,1.72,7.72,1.72,12.32,0,5.59-1.56,10.43-4.68,14.53-3.13,4.11-7.81,6.16-14.04,6.16-5.59,0-10.35-2.05-14.29-6.16-3.94-4.1-5.91-10.1-5.91-17.98,0-8.87,3.12-16.09,9.36-21.67,6.23-5.58,13.87-9.93,22.91-13.05,9.03-3.12,18.63-5.25,28.82-6.4,10.18-1.15,19.04-1.72,26.6-1.72,11.16,0,22.17,1.07,33,3.2,10.84,2.14,20.36,5.83,28.57,11.08,8.21,5.26,14.85,12.32,19.95,21.18,5.09,8.87,7.64,20.04,7.64,33.5v107.88c0,2.63.16,5.5.49,8.62.32,3.12.98,6.08,1.97,8.87.98,2.79,2.54,5.1,4.68,6.9,2.13,1.81,5.17,2.71,9.11,2.71,3.61,0,6.48-1.31,8.62-3.94,2.13-2.62,4.02-5.25,5.67-7.88l6.4,3.45c-.66,1.65-1.97,4.03-3.94,7.14-1.97,3.13-4.68,6.24-8.13,9.36-3.45,3.13-7.8,5.91-13.05,8.37-5.26,2.46-11.33,3.69-18.23,3.69-12.49,0-22.25-2.55-29.31-7.64-7.07-5.09-12.4-12.56-16.01-22.41-11.5,9.53-22.83,16.92-33.99,22.17-11.17,5.25-24.47,7.88-39.9,7.88-7.23,0-14.21-.98-20.94-2.96-6.73-1.97-12.73-5-17.98-9.11-5.26-4.1-9.44-9.27-12.56-15.52-3.12-6.23-4.68-13.62-4.68-22.17,0-11.82,3.69-22,11.08-30.54,7.39-8.54,16.33-15.84,26.85-21.92,10.51-6.07,21.51-11.25,33-15.52,11.49-4.26,21.34-8.21,29.56-11.82,8.87-3.94,15.68-7.22,20.44-9.85,4.76-2.62,7.14-5.42,7.14-8.37v-14.29c0-3.94-.25-8.78-.74-14.53-.49-5.74-2.06-11.33-4.68-16.75-2.63-5.42-6.73-10.01-12.32-13.79-5.59-3.77-13.47-5.66-23.64-5.66ZM837.44,935.63c-9.53,4.95-18.72,9.32-27.59,13.12-8.87,3.79-16.75,8.17-23.64,13.12-6.9,4.95-12.49,10.97-16.75,18.07-4.27,7.1-6.4,16.41-6.4,27.96,0,4.29.57,8.5,1.72,12.62,1.15,4.12,2.87,7.91,5.17,11.38,2.29,3.46,5.17,6.27,8.62,8.41,3.45,2.15,7.47,3.22,12.07,3.22,9.19,0,17.81-2.14,25.86-6.43,8.04-4.29,15.02-9.57,20.94-15.83v-85.61Z"/>
    <path d="M979.31,879.23c-1.65-3.77-3.94-6.65-6.9-8.62-2.95-1.97-6.4-3.2-10.34-3.69-3.94-.49-8.37-.74-13.3-.74v-8.87c5.58-.65,11.82-1.55,18.72-2.71,6.9-1.15,13.79-2.46,20.69-3.94,6.9-1.48,13.62-3.2,20.2-5.17,6.57-1.97,12.48-4.1,17.73-6.4,1.64,8.21,2.87,15.52,3.69,21.92.82,6.4,1.39,12.4,1.72,17.98,8.54-13.46,19.21-23.15,32.02-29.06,12.81-5.91,26.6-8.87,41.38-8.87,16.75,0,29.96,2.96,39.66,8.87,9.68,5.91,16.99,13.14,21.92,21.67,4.93,8.54,8.13,17.49,9.6,26.85,1.48,9.36,2.22,17.66,2.22,24.88v99.51c0,6.57.82,11.66,2.46,15.27,1.64,3.62,3.94,6.4,6.9,8.37,2.96,1.97,6.4,3.2,10.35,3.69,3.94.49,8.37.74,13.3.74v8.87c-7.88,0-14.53-.08-19.95-.25-5.42-.16-10.27-.32-14.53-.49-4.27-.16-8.21-.32-11.82-.49-3.62-.16-7.56-.25-11.82-.25-4.6,0-8.87.08-12.81.25-3.94.17-8.21.33-12.81.49-4.6.17-9.78.33-15.52.49-5.75.17-12.56.25-20.44.25v-8.87c4.93,0,9.36-.25,13.3-.74,3.94-.49,7.39-1.72,10.35-3.69,2.95-1.96,5.25-4.75,6.9-8.35,1.64-3.6,2.46-8.67,2.46-15.23v-96.79c0-3.93-.25-9.57-.74-16.95-.49-7.37-1.97-14.74-4.43-22.11-2.46-7.37-6.4-13.84-11.82-19.41-5.42-5.57-13.05-8.35-22.91-8.35-7.56,0-14.37,1.72-20.44,5.16-6.08,3.44-11.25,7.94-15.52,13.51-4.27,5.57-7.56,12.04-9.85,19.41-2.3,7.37-3.45,15.15-3.45,23.33v102.2c0,6.56.82,11.63,2.46,15.23,1.64,3.6,3.94,6.39,6.9,8.35,2.96,1.97,6.4,3.19,10.35,3.69,3.94.49,8.37.74,13.3.74v8.87c-7.88,0-14.78-.08-20.69-.25-5.91-.16-11.25-.32-16.01-.49-4.76-.16-9.2-.32-13.3-.49-4.11-.16-8.3-.25-12.56-.25-4.6,0-8.71.08-12.31.25-3.62.17-7.39.33-11.33.49-3.94.17-8.54.33-13.79.49-5.26.17-11.82.25-19.7.25v-8.87c4.93,0,9.36-.25,13.3-.74,3.94-.49,7.39-1.72,10.34-3.69,2.96-1.97,5.25-4.76,6.9-8.37,1.64-3.61,2.46-8.7,2.46-15.27v-128.57c0-6.23-.82-11.25-2.46-15.02Z"/>
    <path d="M1410.83,877.01c3.94,5.26,7.64,11.75,11.08,19.46,3.45,7.72,5.17,15.69,5.17,23.89s-1.23,16.26-3.69,25.12c-2.46,8.87-6.9,17.08-13.3,24.63-6.4,7.56-15.36,13.96-26.85,19.21-11.5,5.26-26.11,8.54-43.84,9.85-3.62.33-8.54.58-14.78.74-6.24.17-12.31.82-18.23,1.97-5.91,1.15-11.01,2.96-15.27,5.42-4.27,2.46-6.4,6-6.4,10.59,0,4.93,2.29,8.46,6.9,10.59,4.59,2.14,10.42,3.53,17.49,4.19,7.06.66,15.02.99,23.89.99s17.73.17,26.6.49c12.48.66,24.38,2.22,35.71,4.68,11.33,2.46,21.34,6.65,30.05,12.56,8.7,5.91,15.68,13.79,20.94,23.65,5.25,9.85,7.88,22.49,7.88,37.93,0,12.81-2.71,24.55-8.13,35.22-5.42,10.67-12.98,19.87-22.66,27.59-9.69,7.71-21.27,13.71-34.73,17.98-13.47,4.26-28.08,6.4-43.84,6.4-21.67,0-39.33-2.39-52.96-7.14-13.63-4.76-24.31-10.59-32.02-17.49-7.72-6.9-12.89-14.37-15.52-22.41-2.63-8.05-3.94-15.35-3.94-21.92,0-5.26.98-10.27,2.96-15.02,1.97-4.76,4.68-8.87,8.13-12.32,3.45-3.45,7.39-6.24,11.82-8.37,4.43-2.14,9.11-3.2,14.04-3.2,5.58,0,10.75.98,15.52,2.97,4.76,1.98,7.96,3.96,9.61,5.94-8.54,2.64-14.78,7.1-18.72,13.37-3.94,6.26-5.91,13.69-5.91,22.28,0,4.62.74,9.9,2.22,15.84,1.48,5.94,4.59,11.63,9.36,17.09,4.76,5.44,11.58,9.97,20.44,13.62,8.87,3.63,20.69,5.44,35.47,5.44,12.15,0,22.91-1.48,32.27-4.46,9.36-2.97,17.24-6.94,23.64-11.88,6.4-4.96,11.25-10.64,14.53-17.08,3.28-6.44,4.93-13.12,4.93-20.05,0-10.89-2.39-19.47-7.14-25.74-4.76-6.27-11.25-11.06-19.46-14.36-8.21-3.3-17.98-5.45-29.31-6.43-11.33-.99-23.4-1.65-36.21-1.98-6.9-.33-14.62-.99-23.15-1.97-8.54-.99-16.5-3.2-23.89-6.65s-13.55-8.46-18.47-15.02c-4.93-6.57-7.39-15.43-7.39-26.6s4.19-21.34,12.56-29.56c8.37-8.21,19.29-13.3,32.76-15.27-15.76-5.58-29.06-14.61-39.9-27.09-10.84-12.48-16.26-27.26-16.26-44.33,0-10.84,2.22-21.01,6.65-30.54,4.43-9.52,10.75-17.81,18.97-24.88,8.21-7.06,17.9-12.64,29.06-16.75,11.16-4.1,23.64-6.16,37.44-6.16,9.19,0,17.49.98,24.88,2.96,7.39,1.97,13.71,4.27,18.97,6.9,5.25,2.63,9.61,5.34,13.05,8.13,3.45,2.79,6.16,5.17,8.13,7.14,6.57-5.58,13.79-10.75,21.67-15.52,7.88-4.76,17.07-7.14,27.59-7.14,3.28,0,6.73.33,10.34.99,3.61.66,6.97,1.89,10.1,3.69,3.12,1.81,5.74,4.27,7.88,7.39,2.13,3.13,3.2,6.98,3.2,11.58,0,4.93-1.72,9.2-5.17,12.81-3.45,3.62-7.81,5.42-13.05,5.42-4.27,0-7.8-.85-10.59-2.58-2.79-1.72-4.93-3.68-6.4-5.87s-2.63-4.23-3.45-6.11c-.82-1.88-1.4-2.97-1.72-3.29-1.65-1.56-4.11-2.35-7.39-2.35-3.62,0-7.8,1.21-12.56,3.62-4.76,2.41-8.62,4.82-11.58,7.22ZM1299.5,920.61c0,13.52,1.06,24.65,3.2,33.37,2.13,8.74,4.93,15.58,8.37,20.52,3.45,4.94,7.3,8.4,11.58,10.38,4.26,1.98,8.7,2.96,13.3,2.96,4.93,0,9.61-.99,14.04-2.96,4.43-1.98,8.29-5.44,11.58-10.38,3.28-4.94,5.91-11.78,7.88-20.52,1.97-8.73,2.96-19.86,2.96-33.37s-.99-24.64-2.96-33.37c-1.97-8.73-4.68-15.57-8.13-20.51-3.45-4.94-7.31-8.4-11.58-10.38-4.27-1.98-8.7-2.97-13.3-2.97s-9.11.99-13.55,2.97c-4.43,1.98-8.37,5.44-11.82,10.38-3.45,4.94-6.24,11.78-8.37,20.51-2.14,8.74-3.2,19.86-3.2,33.37Z"/>
    <path d="M1729.55,952.88c0,16.42-2.96,31.53-8.87,45.32-5.91,13.79-14.12,25.7-24.63,35.71-10.51,10.02-22.83,17.9-36.95,23.65-14.12,5.74-29.23,8.62-45.32,8.62s-31.77-2.88-46.06-8.62c-14.29-5.74-26.69-13.62-37.19-23.65-10.51-10.01-18.89-21.92-25.12-35.71-6.24-13.79-9.36-28.73-9.36-44.83,0-17.07,3.12-32.51,9.36-46.31,6.23-13.79,14.69-25.62,25.37-35.47,10.67-9.85,23.15-17.4,37.44-22.66,14.29-5.25,29.47-7.88,45.57-7.88s30.13,2.63,44.09,7.88c13.95,5.26,26.27,12.81,36.95,22.66,10.67,9.85,19.13,21.67,25.37,35.47,6.24,13.79,9.36,29.06,9.36,45.81ZM1613.79,852.38c-10.18,0-18.97,2.63-26.35,7.88-7.39,5.26-13.47,12.48-18.23,21.67-4.77,9.2-8.3,19.95-10.59,32.27-2.3,12.31-3.45,25.37-3.45,39.16s1.15,26.85,3.45,39.16c2.29,12.32,5.83,23.08,10.59,32.27,4.76,9.2,10.84,16.5,18.23,21.92,7.39,5.42,16.17,8.13,26.35,8.13s18.3-2.71,25.37-8.13c7.06-5.42,12.97-12.72,17.73-21.92,4.76-9.19,8.21-20.03,10.35-32.51,2.13-12.48,3.2-25.62,3.2-39.41s-1.07-26.76-3.2-38.92c-2.14-12.15-5.59-22.82-10.35-32.02-4.76-9.19-10.68-16.42-17.73-21.67-7.07-5.25-15.52-7.88-25.37-7.88Z"/>
  </g>
  <g>
    <path d="M270.45,1100.01h10.25v157.13h79.64v9.78h-89.89v-166.91Z"/>
    <path d="M440.94,1100.01h10.97l66.53,166.91h-10.97l-23.37-57.7h-75.35l-23.37,57.7h-10.97l66.53-166.91ZM480.52,1199.68l-34.1-85.84-34.1,85.84h68.19Z"/>
    <path d="M590.44,1266.92h-13.11l-53.65-166.91h11.21l48.88,151.89,43.4-151.89h11.44l43.4,151.89,48.88-151.89h11.21l-53.65,166.91h-13.11l-42.44-149.03-42.44,149.03Z"/>
    <path d="M834.59,1100.01h10.25v157.13h79.64v9.78h-89.89v-166.91Z"/>
    <path d="M960.25,1100.01h10.25v157.13h79.64v9.78h-89.89v-166.91Z"/>
    <path d="M1201.31,1250.35c-4.77,4.21-9.94,7.75-15.5,10.61-5.57,2.86-11.53,5.05-17.88,6.56-6.36,1.51-13.11,2.27-20.27,2.27-11.92,0-23.05-2.23-33.38-6.68-10.33-4.45-19.24-10.53-26.71-18.24-7.47-7.71-13.35-16.85-17.64-27.42-4.29-10.57-6.44-21.9-6.44-33.98s2.15-23.64,6.44-34.22c4.29-10.57,10.21-19.71,17.76-27.42,7.55-7.71,16.45-13.75,26.71-18.12,10.25-4.37,21.34-6.56,33.26-6.56,6.52,0,12.67.6,18.48,1.79,5.8,1.19,11.29,2.98,16.45,5.36,5.16,2.38,10.05,5.33,14.66,8.82,4.61,3.5,8.82,7.55,12.64,12.16l-7.39,7.63c-3.18-4.13-6.72-7.79-10.61-10.97-3.9-3.18-8.11-5.88-12.64-8.11-4.53-2.22-9.38-3.89-14.54-5.01-5.17-1.11-10.61-1.67-16.33-1.67-10.65,0-20.51,1.95-29.57,5.84-9.06,3.9-16.89,9.26-23.49,16.09-6.6,6.84-11.77,14.9-15.5,24.2-3.74,9.3-5.6,19.28-5.6,29.92s1.87,20.63,5.6,29.92c3.73,9.3,8.9,17.41,15.5,24.32,6.59,6.91,14.43,12.32,23.49,16.21,9.06,3.9,18.91,5.84,29.57,5.84,12.4,0,23.44-2.7,33.14-8.11,9.69-5.4,17.88-12.79,24.56-22.18l8.11,6.68c-3.82,5.41-8.11,10.22-12.88,14.43Z"/>
  </g>
</svg>