<?xml version="1.0" encoding="UTF-8"?>
<svg id="Layer_1" data-name="Layer 1" xmlns="http://www.w3.org/2000/svg" viewBox="0 0 2000 2000">
  <defs>
    <style>
      .cls-1 {
        fill: #fff;
      }
    </style>
  </defs>
  <g>
    <path class="cls-1" d="M322.4,855.3c-1.91,1.52-4.8,3.66-6.78,5.13-1.66,1.15-3.58,2.29-5.27,3.43-16.73,9.77-35.11,15.7-53.91,20.63,23.29-1.28,47.27-7.64,66.21-21.82,13.41-10.45,27.05-21.23,43.5-26.23,5.41-1.6,11.11-2.19,16.93-1.84-21.88-6.2-43.94,7.92-60.68,20.7Z"/>
    <path class="cls-1" d="M443.29,884.49c15.79,8.16,29.72,19.94,39.06,35.07,5.84,9.23,9.63,18.91,13.58,29.38.64-7.52-.35-15.15-2.58-22.49-6.61-21.89-26.73-40.64-50.05-41.96Z"/>
    <path class="cls-1" d="M214.78,744.4v511.2l193.69-104.28,194.61,104.28v-511.2H214.78ZM256.44,884.49h0c25.21-12.6,44.95-33.36,67.94-49.2,18.76-12.92,39.67-22.44,62.87-15.42,8.82,2.67,15.95,9.2,25.63,8.16l4.51-10.02c1.27-.81,10.49-.16,10.89.6-.59,4.69-5.16,8.28-5.89,12.93-.44,2.82,1.13,18.17.38,18.73l-9.18-.29c-.89-4.65-1.78-9.31-1.39-14.05-.49-1.06-5.51-.56-6.76-.32-5.55,1.08-16.57,11.88-22,15.72-36.71,25.98-82.31,36.5-127,33.15ZM421.56,1084.18c-54.46-26.91-99.48-81.93-94.17-145.57,4.86-58.19,53.19-92.46,109.92-81.88,29.82,5.56,58.14,23.62,71.23,51.48,16.15,34.36.97,60.85,1.8,95.61.48,20.03,6.85,38.98,8.34,58.31,4.34,56.13-67.01,36.94-97.12,22.06Z"/>
  </g>
  <g>
    <g>
      <path class="cls-1" d="M863.09,925.31c2.29,16.05,4.84,23.44,12.48,25.73,7.39,2.29,12.48,2.55,15.79,2.55,2.29,0,4.08.25,4.08,1.78,0,2.04-3.06,2.8-6.62,2.8-6.37,0-41.52-.76-51.71-1.53-5.86-.51-7.39-1.27-7.39-2.8,0-1.27,1.02-2.04,2.8-2.8,1.53-.51,2.29-3.82,1.27-10.95l-15.54-113.61-56.3,117.18c-5.86,11.97-7.13,14.27-9.43,14.27s-4.84-5.09-8.92-12.74c-6.11-11.72-26.24-50.69-29.29-57.82-2.29-5.35-18.34-39.23-27.26-58.33l-13.5,103.17c-.51,4.59-.76,7.9-.76,11.97,0,4.84,3.31,7.13,7.64,8.15,4.58,1.02,8.15,1.27,10.7,1.27,2.04,0,3.82.51,3.82,1.78,0,2.29-2.29,2.8-6.11,2.8-10.7,0-22.16-.76-26.75-.76-4.84,0-17.07.76-25.22.76-2.55,0-4.58-.51-4.58-2.8,0-1.27,1.53-1.78,4.08-1.78,2.04,0,3.82,0,7.64-.76,7.13-1.53,9.17-11.46,10.44-20.12l25.22-166.09c.76-4.33,2.29-6.62,4.33-6.62s3.57,1.27,6.88,7.9l69.54,143.67,69.29-145.45c2.04-4.08,3.31-6.11,5.6-6.11s3.82,2.55,4.59,7.9l23.18,157.42Z"/>
      <path class="cls-1" d="M971.61,891.69c-1.27,0-1.78.51-2.29,2.04l-13.76,36.43c-2.55,6.37-3.82,12.48-3.82,15.54,0,4.58,2.29,7.9,10.19,7.9h3.82c3.06,0,3.82.51,3.82,2.04,0,2.04-1.53,2.55-4.33,2.55-8.15,0-19.11-.76-27-.76-2.8,0-16.81.76-30.06.76-3.31,0-4.84-.51-4.84-2.55,0-1.53,1.53-2.04,3.57-2.04,2.29,0,5.35-.25,7.39-.51,11.72-1.53,16.56-10.19,21.65-22.93l63.94-159.97c3.06-7.39,4.84-10.19,7.13-10.19,2.04,0,3.82,2.29,6.37,8.15,6.11,14.01,46.87,117.94,63.17,156.66,9.68,22.93,17.07,26.49,22.42,27.77,3.82.76,7.64,1.02,10.7,1.02,2.04,0,3.31.51,3.31,2.04,0,2.04-2.29,2.55-11.72,2.55s-29.55,0-49.93-.51c-4.59-.25-5.86-.51-5.86-2.04,0-1.27,1.02-2.04,3.57-2.29,1.78-.51,3.57-2.8,2.29-5.86l-20.38-54c-.51-1.27-1.27-1.78-2.55-1.78h-56.81ZM1023.58,878.95c1.27,0,1.53-.76,1.27-1.53l-22.93-62.92c-.76-2.29-1.78-3.06-2.8,0l-23.44,62.66c-.25,1.02,0,1.78,1.02,1.78h46.87Z"/>
      <path class="cls-1" d="M1135.66,769.92c0-5.09.76-8.66,3.31-8.66,2.8,0,5.09,3.31,9.42,7.9,3.06,3.31,41.78,44.83,78.97,81.77,17.32,17.32,52.98,55.28,57.32,59.35l-2.55-115.65c-.25-15.54-2.55-20.38-8.66-22.93-3.82-1.53-9.93-1.53-13.5-1.53-3.06,0-4.08-.76-4.08-2.29,0-2.04,2.8-2.29,6.62-2.29,13.25,0,25.47.76,30.82.76,2.8,0,12.48-.76,24.96-.76,3.31,0,5.86.25,5.86,2.29,0,1.53-1.53,2.29-4.59,2.29-2.55,0-4.59,0-7.64.76-7.13,2.04-9.17,7.39-9.42,21.65-1.02,53.75-1.78,106.99-2.8,160.74,0,5.6-1.02,7.9-3.31,7.9-2.8,0-5.86-2.8-8.66-5.6-16.05-15.28-48.65-48.65-75.15-74.89-27.77-27.51-56.81-60.12-61.39-64.96l2.8,107.75c.51,19.87,3.82,26.49,8.92,28.28,4.33,1.53,9.17,1.78,13.25,1.78,2.8,0,4.33.51,4.33,2.04,0,2.04-2.29,2.55-5.86,2.55-16.56,0-26.75-.76-31.59-.76-2.29,0-14.26.76-27.51.76-3.31,0-5.6-.25-5.6-2.55,0-1.53,1.53-2.04,4.08-2.04,3.31,0,7.9-.25,11.46-1.27,6.62-2.04,7.64-9.43,7.9-31.59.76-54,1.78-116.92,2.29-150.8Z"/>
      <path class="cls-1" d="M1533.8,941.11c0,6.88-.25,7.39-3.31,9.17-16.56,8.66-41.52,11.46-61.39,11.46-62.41,0-117.69-29.55-117.69-99.85,0-40.76,21.14-69.29,44.32-83.3,24.45-14.77,47.13-16.56,68.52-16.56,17.58,0,39.99,3.06,45.09,4.08,5.35,1.02,14.27,2.55,20.12,2.8,3.06.25,3.57,1.27,3.57,3.06,0,2.8-1.78,9.93-1.78,41.78,0,4.08-.76,5.35-2.8,5.35-1.78,0-2.29-1.27-2.55-3.31-.76-5.86-2.04-14.01-8.66-21.14-7.64-8.15-28.02-19.87-56.81-19.87-14.01,0-32.61,1.02-50.44,15.79-14.27,11.97-23.44,31.08-23.44,62.41,0,54.77,34.9,95.78,88.65,95.78,6.62,0,15.54,0,21.65-2.8,3.82-1.78,4.84-5.09,4.84-9.43v-23.94c0-12.74,0-22.42-.25-30.06-.25-8.66-2.55-12.74-10.95-14.52-2.04-.51-6.37-.76-9.93-.76-2.29,0-3.82-.51-3.82-2.04,0-2.04,1.78-2.55,5.35-2.55,13.25,0,29.29.76,36.94.76s21.4-.76,29.8-.76c3.31,0,5.09.51,5.09,2.55,0,1.53-1.53,2.04-3.31,2.04-2.04,0-3.82.25-6.88.76-6.88,1.27-9.43,5.6-9.68,14.52-.25,7.64-.25,17.83-.25,30.57v28.02Z"/>
      <path class="cls-1" d="M1577.1,861.88c0-43.56,28.78-99.86,105.2-99.86,63.43,0,102.91,36.94,102.91,95.27s-40.76,104.44-105.46,104.44c-73.11,0-102.66-54.77-102.66-99.85ZM1749.56,866.72c0-57.06-32.86-92.47-74.64-92.47-29.29,0-62.66,16.3-62.66,79.73,0,52.98,29.29,95.02,78.2,95.02,17.83,0,59.1-8.66,59.1-82.28Z"/>
    </g>
    <g>
      <path class="cls-1" d="M642.01,996.36h6.12v93.81h47.55v5.84h-53.67v-99.65Z"/>
      <path class="cls-1" d="M743.79,996.36h6.55l39.72,99.65h-6.55l-13.95-34.45h-44.99l-13.95,34.45h-6.55l39.72-99.65ZM767.42,1055.86l-20.36-51.25-20.36,51.25h40.71Z"/>
      <path class="cls-1" d="M833.05,1096.01h-7.83l-32.03-99.65h6.69l29.18,90.68,25.91-90.68h6.83l25.91,90.68,29.18-90.68h6.69l-32.03,99.65h-7.83l-25.34-88.97-25.34,88.97Z"/>
      <path class="cls-1" d="M978.82,996.36h6.12v93.81h47.55v5.84h-53.67v-99.65Z"/>
      <path class="cls-1" d="M1053.84,996.36h6.12v93.81h47.55v5.84h-53.67v-99.65Z"/>
      <path class="cls-1" d="M1197.77,1086.11c-2.85,2.52-5.93,4.63-9.25,6.34-3.32,1.71-6.88,3.01-10.68,3.91-3.8.9-7.83,1.35-12.1,1.35-7.12,0-13.76-1.33-19.93-3.99-6.17-2.66-11.48-6.29-15.94-10.89-4.46-4.6-7.97-10.06-10.53-16.37-2.56-6.31-3.84-13.07-3.84-20.29s1.28-14.12,3.84-20.43c2.56-6.31,6.1-11.77,10.61-16.37,4.51-4.6,9.82-8.21,15.94-10.82,6.12-2.61,12.74-3.91,19.86-3.91,3.89,0,7.57.36,11.03,1.07,3.46.71,6.74,1.78,9.82,3.2,3.08,1.42,6,3.18,8.75,5.27,2.75,2.09,5.27,4.51,7.55,7.26l-4.41,4.56c-1.9-2.47-4.01-4.65-6.33-6.55-2.33-1.9-4.84-3.51-7.55-4.84-2.7-1.33-5.6-2.32-8.68-2.99-3.09-.66-6.34-1-9.75-1-6.36,0-12.24,1.16-17.65,3.49-5.41,2.33-10.09,5.53-14.02,9.61-3.94,4.08-7.02,8.9-9.25,14.45-2.23,5.55-3.35,11.51-3.35,17.87s1.11,12.31,3.35,17.87c2.23,5.55,5.31,10.39,9.25,14.52,3.94,4.13,8.61,7.36,14.02,9.68,5.41,2.33,11.29,3.49,17.65,3.49,7.4,0,14-1.61,19.79-4.84,5.79-3.23,10.68-7.64,14.66-13.24l4.84,3.99c-2.28,3.23-4.84,6.1-7.69,8.61Z"/>
    </g>
  </g>
</svg>