<?xml version="1.0" encoding="UTF-8"?>
<svg id="Layer_1" data-name="Layer 1" xmlns="http://www.w3.org/2000/svg" xmlns:xlink="http://www.w3.org/1999/xlink" viewBox="0 0 2000 2000">
  <defs>
    <style>
      .cls-1 {
        fill: none;
      }

      .cls-2 {
        fill: #e88c1f;
      }

      .cls-3 {
        fill: #fbc403;
      }

      .cls-4 {
        fill: #f4a03b;
      }

      .cls-5 {
        clip-path: url(#clippath);
      }
    </style>
    <clipPath id="clippath">
      <path class="cls-1" d="M401.56,836.57c-64.72-12.07-119.84,27.02-125.39,93.4-6.06,72.59,45.29,135.36,107.42,166.06,34.35,16.97,115.74,38.86,110.79-25.16-1.71-22.04-8.97-43.66-9.52-66.51-.94-39.64,16.38-69.87-2.05-109.06-14.94-31.78-47.25-52.38-81.26-58.72Z"/>
    </clipPath>
  </defs>
  <g>
    <path d="M636.64,977.36c4-.69,7.53-2,10.57-3.94,3.04-1.93,5.46-4.63,7.26-8.09,1.79-3.45,2.7-8.09,2.7-13.89v-208.59c0-5.81-.9-10.43-2.7-13.89-1.8-3.45-4.22-6.15-7.26-8.09-3.05-1.93-6.57-3.25-10.57-3.94-4.01-.69-8.23-1.04-12.65-1.04v-7.46c7.74,0,14.16.07,19.28.21,5.11.14,9.47.28,13.06.41,3.59.14,6.7.28,9.33.41,2.62.14,5.46.21,8.5.21,5.53,0,12.16-.21,19.91-.62,7.74-.41,14.79-.62,21.15-.62l81.69,202.78,82.94-202.78c5.53,0,10.71.21,15.55.62,4.83.41,10.43.62,16.8.62,3.59,0,7.11-.06,10.57-.21,3.45-.14,7.26-.27,11.4-.41,4.15-.14,8.98-.27,14.51-.41,5.53-.14,12.3-.21,20.32-.21v7.46c-4.43,0-8.64.35-12.65,1.04-4.01.69-7.54,2.01-10.57,3.94-3.05,1.94-5.46,4.63-7.26,8.09-1.8,3.46-2.7,8.09-2.7,13.89v208.59c0,5.81.89,10.44,2.7,13.89,1.79,3.46,4.21,6.16,7.26,8.09,3.04,1.94,6.56,3.25,10.57,3.94,4.01.69,8.22,1.04,12.65,1.04v7.46c-8.29,0-15.34-.06-21.15-.21-5.81-.14-11.06-.34-15.76-.62-4.7-.27-9.06-.48-13.06-.62-4.01-.14-8.23-.21-12.65-.21-4.7,0-8.99.07-12.86.21-3.87.14-8.16.35-12.86.62-4.7.28-9.95.49-15.76.62-5.81.14-12.86.21-21.15.21v-7.46c4.42,0,8.64-.34,12.65-1.04,4-.69,7.53-2,10.57-3.94,3.04-1.93,5.46-4.63,7.26-8.09,1.79-3.45,2.7-8.09,2.7-13.89v-204.03l-97.45,238.86h-12.86l-97.04-237.2v202.37c0,5.81.89,10.44,2.7,13.89,1.79,3.46,4.21,6.16,7.26,8.09,3.04,1.94,6.56,3.25,10.57,3.94,4,.69,8.22,1.04,12.65,1.04v7.46c-5.53,0-10.16-.06-13.89-.21-3.73-.14-7.05-.27-9.95-.41-2.9-.14-5.6-.27-8.09-.41-2.49-.14-5.26-.21-8.29-.21s-5.74.07-8.09.21c-2.35.14-4.91.28-7.67.41-2.77.14-5.88.28-9.33.41-3.46.14-7.95.21-13.48.21v-7.46c4.42,0,8.64-.34,12.65-1.04Z"/>
    <path d="M1066.46,811.27c-4.15,0-8.5.28-13.06.83-4.56.56-8.78,1.45-12.65,2.7-3.87,1.24-7.05,2.7-9.54,4.35-2.49,1.66-3.73,3.6-3.73,5.81,0,.56.48,2.35,1.45,5.39.96,3.05,1.45,6.5,1.45,10.37,0,4.7-1.32,8.78-3.94,12.23-2.63,3.46-6.57,5.18-11.82,5.18-4.7,0-8.71-1.72-12.03-5.18-3.32-3.45-4.98-8.5-4.98-15.14,0-7.46,2.62-13.54,7.88-18.25,5.25-4.7,11.68-8.36,19.28-10.99,7.6-2.62,15.69-4.42,24.26-5.39,8.57-.97,16.03-1.45,22.39-1.45,9.4,0,18.66.9,27.78,2.7,9.12,1.8,17.14,4.91,24.05,9.33,6.91,4.43,12.5,10.37,16.79,17.83,4.28,7.46,6.43,16.87,6.43,28.2v90.82c0,2.22.14,4.63.42,7.26.27,2.63.83,5.12,1.66,7.46.83,2.35,2.14,4.29,3.94,5.81,1.79,1.52,4.35,2.28,7.67,2.28,3.04,0,5.46-1.1,7.26-3.32,1.79-2.21,3.38-4.42,4.77-6.64l5.39,2.9c-.56,1.39-1.66,3.39-3.32,6.01-1.66,2.63-3.94,5.26-6.84,7.88-2.9,2.63-6.57,4.98-10.99,7.05-4.43,2.07-9.54,3.11-15.34,3.11-10.51,0-18.73-2.14-24.67-6.43-5.95-4.28-10.44-10.57-13.48-18.87-9.68,8.02-19.22,14.24-28.61,18.66-9.4,4.42-20.6,6.64-33.59,6.64-6.08,0-11.96-.83-17.62-2.49-5.67-1.66-10.72-4.21-15.14-7.67-4.43-3.45-7.95-7.81-10.57-13.06-2.63-5.25-3.94-11.47-3.94-18.66,0-9.95,3.11-18.52,9.33-25.71,6.22-7.19,13.75-13.33,22.6-18.45,8.84-5.11,18.1-9.47,27.78-13.06,9.67-3.59,17.97-6.91,24.88-9.95,7.46-3.32,13.2-6.08,17.21-8.29,4.01-2.21,6.01-4.56,6.01-7.05v-12.03c0-3.32-.21-7.39-.62-12.23-.42-4.83-1.73-9.54-3.94-14.1-2.22-4.56-5.67-8.43-10.37-11.61-4.7-3.17-11.34-4.77-19.9-4.77ZM1101.29,881.36c-8.02,4.17-15.76,7.85-23.22,11.04-7.46,3.19-14.1,6.87-19.9,11.04-5.81,4.17-10.51,9.23-14.1,15.21-3.6,5.97-5.39,13.81-5.39,23.53,0,3.62.48,7.15,1.45,10.63.97,3.47,2.42,6.66,4.35,9.58,1.93,2.92,4.35,5.28,7.26,7.08,2.9,1.81,6.29,2.71,10.16,2.71,7.74,0,14.99-1.8,21.77-5.42,6.77-3.61,12.65-8.05,17.62-13.33v-72.07Z"/>
    <path d="M1220.72,833.87c-1.39-3.17-3.32-5.6-5.81-7.26-2.49-1.66-5.39-2.7-8.71-3.11-3.32-.42-7.05-.62-11.2-.62v-7.46c4.7-.55,9.95-1.31,15.76-2.28,5.81-.97,11.61-2.07,17.42-3.32,5.81-1.24,11.47-2.7,17-4.35,5.53-1.66,10.5-3.45,14.93-5.39,1.38,6.91,2.42,13.06,3.11,18.45.69,5.39,1.17,10.44,1.45,15.14,7.19-11.33,16.17-19.49,26.96-24.47,10.78-4.98,22.39-7.46,34.83-7.46,14.1,0,25.22,2.49,33.38,7.46,8.15,4.98,14.31,11.06,18.45,18.25,4.15,7.19,6.84,14.72,8.09,22.6,1.24,7.88,1.87,14.86,1.87,20.94v83.77c0,5.53.69,9.82,2.07,12.86,1.38,3.05,3.32,5.39,5.81,7.05,2.49,1.66,5.39,2.7,8.71,3.11,3.32.42,7.05.62,11.2.62v7.46c-6.63,0-12.23-.06-16.79-.21-4.56-.14-8.64-.27-12.23-.41-3.6-.14-6.91-.27-9.95-.41-3.05-.14-6.36-.21-9.95-.21-3.87,0-7.46.07-10.78.21-3.32.14-6.91.28-10.78.41-3.87.14-8.23.28-13.06.41-4.84.14-10.57.21-17.21.21v-7.46c4.15,0,7.88-.21,11.2-.62,3.32-.41,6.22-1.44,8.71-3.1,2.49-1.65,4.42-4,5.81-7.03,1.38-3.03,2.07-7.3,2.07-12.82v-81.48c0-3.3-.21-8.06-.62-14.27-.42-6.21-1.66-12.41-3.73-18.62-2.07-6.21-5.39-11.65-9.95-16.34-4.56-4.68-10.99-7.03-19.28-7.03-6.36,0-12.1,1.45-17.21,4.35-5.12,2.9-9.47,6.69-13.06,11.37-3.6,4.69-6.36,10.13-8.29,16.34-1.94,6.21-2.9,12.75-2.9,19.64v86.03c0,5.52.69,9.79,2.07,12.82,1.38,3.03,3.32,5.38,5.81,7.03,2.49,1.66,5.39,2.69,8.71,3.1,3.32.42,7.05.62,11.2.62v7.46c-6.63,0-12.44-.06-17.42-.21-4.98-.14-9.47-.27-13.48-.41-4.01-.14-7.74-.27-11.2-.41-3.46-.14-6.98-.21-10.57-.21-3.87,0-7.33.07-10.37.21-3.05.14-6.22.28-9.54.41-3.32.14-7.19.28-11.61.41-4.43.14-9.95.21-16.59.21v-7.46c4.15,0,7.88-.21,11.2-.62,3.32-.41,6.22-1.45,8.71-3.11,2.49-1.66,4.42-4,5.81-7.05,1.38-3.04,2.07-7.32,2.07-12.86v-108.23c0-5.25-.69-9.47-2.07-12.65Z"/>
    <path d="M1583.99,832.01c3.32,4.43,6.43,9.89,9.33,16.38,2.9,6.5,4.35,13.21,4.35,20.11s-1.04,13.68-3.11,21.15c-2.07,7.46-5.81,14.38-11.2,20.73-5.39,6.36-12.93,11.75-22.6,16.17-9.68,4.43-21.98,7.19-36.91,8.29-3.05.28-7.19.49-12.44.62-5.25.14-10.37.69-15.34,1.66-4.98.97-9.27,2.49-12.86,4.56-3.6,2.07-5.39,5.05-5.39,8.92,0,4.15,1.93,7.12,5.81,8.92,3.87,1.8,8.77,2.97,14.72,3.52,5.94.56,12.65.83,20.11.83s14.93.14,22.39.41c10.5.56,20.53,1.87,30.06,3.94,9.54,2.07,17.97,5.6,25.3,10.57,7.32,4.98,13.2,11.61,17.62,19.91,4.42,8.29,6.63,18.93,6.63,31.93,0,10.78-2.28,20.66-6.84,29.65-4.56,8.98-10.93,16.72-19.08,23.22-8.16,6.49-17.9,11.54-29.24,15.14-11.34,3.59-23.64,5.39-36.91,5.39-18.25,0-33.11-2.01-44.58-6.01-11.48-4.01-20.46-8.92-26.95-14.72-6.5-5.81-10.85-12.1-13.06-18.87-2.22-6.78-3.32-12.93-3.32-18.45,0-4.43.83-8.64,2.49-12.65,1.66-4.01,3.94-7.46,6.84-10.37,2.9-2.9,6.22-5.25,9.95-7.05,3.73-1.8,7.67-2.7,11.82-2.7,4.7,0,9.05.83,13.06,2.5,4,1.67,6.7,3.33,8.09,5-7.19,2.22-12.44,5.97-15.76,11.26-3.32,5.27-4.98,11.53-4.98,18.76,0,3.89.62,8.33,1.87,13.33,1.24,5,3.87,9.79,7.88,14.38,4.01,4.58,9.75,8.4,17.21,11.46,7.46,3.05,17.42,4.58,29.86,4.58,10.22,0,19.28-1.25,27.16-3.75,7.88-2.5,14.51-5.84,19.9-10,5.39-4.17,9.47-8.96,12.23-14.38,2.76-5.42,4.15-11.05,4.15-16.88,0-9.17-2.01-16.39-6.01-21.67-4.01-5.28-9.47-9.31-16.38-12.08-6.91-2.78-15.14-4.59-24.67-5.42-9.54-.84-19.7-1.39-30.48-1.67-5.81-.28-12.3-.83-19.49-1.66-7.19-.83-13.89-2.7-20.11-5.6-6.22-2.9-11.4-7.12-15.55-12.65-4.15-5.53-6.22-12.99-6.22-22.39s3.53-17.97,10.57-24.88c7.05-6.91,16.24-11.2,27.58-12.86-13.27-4.7-24.47-12.3-33.59-22.81-9.12-10.5-13.69-22.94-13.69-37.32,0-9.12,1.87-17.69,5.6-25.71,3.73-8.02,9.05-14.99,15.97-20.94,6.91-5.94,15.07-10.64,24.47-14.1,9.39-3.45,19.9-5.18,31.52-5.18,7.74,0,14.72.83,20.94,2.49,6.22,1.66,11.54,3.6,15.97,5.81,4.42,2.22,8.09,4.5,10.99,6.84,2.9,2.35,5.18,4.35,6.84,6.01,5.53-4.7,11.61-9.05,18.25-13.06,6.63-4,14.37-6.01,23.22-6.01,2.76,0,5.66.28,8.71.83,3.04.56,5.87,1.59,8.5,3.11,2.62,1.52,4.83,3.6,6.63,6.22,1.79,2.63,2.7,5.88,2.7,9.75,0,4.15-1.45,7.74-4.35,10.78-2.9,3.05-6.57,4.56-10.99,4.56-3.6,0-6.57-.72-8.92-2.17-2.35-1.45-4.15-3.1-5.39-4.94s-2.22-3.56-2.9-5.14c-.69-1.58-1.18-2.5-1.45-2.77-1.39-1.32-3.46-1.98-6.22-1.98-3.05,0-6.57,1.02-10.57,3.05-4.01,2.03-7.26,4.06-9.74,6.08ZM1490.27,868.71c0,11.38.89,20.75,2.7,28.09,1.79,7.35,4.15,13.11,7.05,17.27,2.9,4.16,6.15,7.08,9.74,8.74,3.59,1.67,7.32,2.49,11.2,2.49,4.15,0,8.09-.83,11.82-2.49,3.73-1.67,6.98-4.58,9.74-8.74,2.76-4.16,4.98-9.92,6.64-17.27,1.66-7.35,2.49-16.72,2.49-28.09s-.83-20.74-2.49-28.1c-1.66-7.35-3.94-13.11-6.84-17.27-2.9-4.16-6.16-7.08-9.75-8.74-3.6-1.67-7.33-2.5-11.2-2.5s-7.67.84-11.4,2.5c-3.73,1.67-7.05,4.58-9.95,8.74-2.9,4.16-5.25,9.92-7.05,17.27-1.8,7.35-2.7,16.72-2.7,28.1Z"/>
    <path d="M1852.29,895.87c0,13.83-2.49,26.54-7.46,38.15-4.98,11.61-11.89,21.64-20.73,30.06-8.85,8.44-19.22,15.07-31.1,19.91-11.89,4.83-24.61,7.26-38.15,7.26s-26.75-2.42-38.77-7.26c-12.03-4.83-22.46-11.47-31.31-19.91-8.85-8.43-15.9-18.45-21.15-30.06-5.26-11.61-7.88-24.19-7.88-37.74,0-14.37,2.62-27.37,7.88-38.98,5.25-11.61,12.37-21.56,21.36-29.86,8.98-8.29,19.49-14.65,31.52-19.08,12.03-4.42,24.81-6.64,38.36-6.64s25.36,2.22,37.11,6.64c11.75,4.43,22.11,10.78,31.1,19.08,8.98,8.29,16.1,18.25,21.36,29.86,5.25,11.61,7.88,24.47,7.88,38.57ZM1754.84,811.27c-8.57,0-15.97,2.22-22.19,6.64-6.22,4.43-11.34,10.51-15.34,18.25-4.01,7.74-6.98,16.79-8.92,27.16-1.94,10.37-2.9,21.36-2.9,32.97s.96,22.6,2.9,32.97c1.93,10.37,4.91,19.43,8.92,27.16,4,7.74,9.12,13.89,15.34,18.45,6.22,4.56,13.61,6.84,22.19,6.84s15.41-2.28,21.36-6.84c5.94-4.56,10.92-10.71,14.93-18.45,4.01-7.74,6.91-16.86,8.71-27.37,1.79-10.5,2.7-21.56,2.7-33.17s-.9-22.53-2.7-32.76c-1.8-10.22-4.7-19.21-8.71-26.95-4.01-7.74-8.99-13.82-14.93-18.25-5.95-4.42-13.06-6.64-21.36-6.64Z"/>
  </g>
  <g>
    <path d="M623.99,1019.73h8.63v132.28h67.04v8.23h-75.67v-140.51Z"/>
    <path d="M767.51,1019.73h9.23l56,140.51h-9.23l-19.67-48.58h-63.43l-19.67,48.58h-9.23l56-140.51ZM800.83,1103.64l-28.7-72.26-28.7,72.26h57.41Z"/>
    <path d="M893.36,1160.24h-11.04l-45.16-140.51h9.43l41.15,127.86,36.53-127.86h9.63l36.53,127.86,41.15-127.86h9.44l-45.16,140.51h-11.04l-35.73-125.45-35.73,125.45Z"/>
    <path d="M1098.9,1019.73h8.63v132.28h67.04v8.23h-75.67v-140.51Z"/>
    <path d="M1204.68,1019.73h8.63v132.28h67.04v8.23h-75.67v-140.51Z"/>
    <path d="M1407.61,1146.29c-4.01,3.55-8.36,6.52-13.05,8.93-4.69,2.41-9.7,4.25-15.05,5.52-5.35,1.27-11.04,1.91-17.06,1.91-10.04,0-19.4-1.88-28.1-5.62-8.7-3.74-16.19-8.86-22.48-15.36-6.29-6.49-11.24-14.18-14.85-23.08-3.61-8.9-5.42-18.43-5.42-28.6s1.81-19.9,5.42-28.8c3.61-8.9,8.6-16.59,14.95-23.08,6.35-6.49,13.85-11.57,22.48-15.26,8.63-3.68,17.97-5.52,28-5.52,5.49,0,10.67.5,15.56,1.51,4.88,1,9.5,2.51,13.85,4.52,4.35,2.01,8.46,4.48,12.34,7.43,3.88,2.94,7.43,6.36,10.64,10.24l-6.22,6.42c-2.68-3.48-5.65-6.55-8.93-9.23-3.28-2.68-6.82-4.95-10.64-6.82-3.81-1.87-7.9-3.28-12.24-4.22-4.35-.93-8.93-1.4-13.75-1.4-8.97,0-17.26,1.64-24.89,4.92-7.63,3.28-14.22,7.8-19.77,13.55-5.55,5.76-9.9,12.55-13.05,20.37-3.15,7.83-4.72,16.23-4.72,25.19s1.57,17.36,4.72,25.19c3.14,7.83,7.49,14.65,13.05,20.47,5.55,5.82,12.14,10.37,19.77,13.65,7.63,3.28,15.92,4.92,24.89,4.92,10.44,0,19.74-2.27,27.9-6.82,8.16-4.55,15.05-10.77,20.67-18.67l6.83,5.62c-3.21,4.55-6.83,8.6-10.84,12.14Z"/>
  </g>
  <g>
    <polygon class="cls-3" points="590.66 1291.57 368.66 1172.62 147.71 1291.57 147.71 708.43 590.66 708.43 590.66 1291.57"/>
    <g>
      <path class="cls-2" d="M401.56,836.57c-64.72-12.07-119.84,27.02-125.39,93.4-6.06,72.59,45.29,135.36,107.42,166.06,34.35,16.97,115.74,38.86,110.79-25.16-1.71-22.04-8.97-43.66-9.52-66.51-.94-39.64,16.38-69.87-2.05-109.06-14.94-31.78-47.25-52.38-81.26-58.72Z"/>
      <g class="cls-5">
        <path class="cls-4" d="M424.71,817.63c-64.72-12.07-119.84,27.02-125.39,93.4-6.06,72.59,45.29,135.36,107.42,166.06,34.35,16.97,115.74,38.86,110.79-25.16-1.71-22.04-8.97-43.66-9.52-66.51-.94-39.64,16.38-69.87-2.05-109.06-14.94-31.78-47.25-52.38-81.26-58.72Z"/>
      </g>
      <path class="cls-2" d="M373.68,803.85c-11.04,1.18-19.17-6.27-29.23-9.31-26.47-8.01-50.32,2.86-71.72,17.59-26.23,18.06-48.74,41.75-77.5,56.12,50.98,3.82,103-8.18,144.87-37.82,6.19-4.38,18.76-16.7,25.09-17.93,1.42-.28,7.16-.84,7.71.37-.45,5.41.57,10.72,1.58,16.02l10.47.33c.86-.64-.93-18.15-.43-21.36.83-5.3,6.04-9.4,6.72-14.75-.46-.87-10.97-1.61-12.42-.68l-5.14,11.43Z"/>
    </g>
    <g>
      <path class="cls-3" d="M408.38,868.24c26.37,2.15,48.95,23.25,56.68,48.03,2.61,8.3,3.86,16.94,3.36,25.49-3.48-10.1-7.04-19.46-11.96-28.58-10.62-19.73-27.88-35.24-48.08-44.94h0Z"/>
      <path class="cls-3" d="M195.23,868.24c22.24-5.6,44.22-12.42,63.74-24.46,6.91-4.27,13.13-9.88,19.8-14.48,17.4-12.06,39.21-23.96,60.93-17.96-11.57-.99-22.66,2.06-32.86,7.16-13.2,6.49-24.77,15.44-36.35,24.53-2.4,1.8-5.89,4.26-8.45,5.74-20.08,11.99-43.65,18.01-66.82,19.48h0Z"/>
    </g>
  </g>
</svg>