<?xml version="1.0" encoding="UTF-8"?>
<svg id="Layer_1" data-name="Layer 1" xmlns="http://www.w3.org/2000/svg" viewBox="0 0 2000 2000">
  <g>
    <path d="M555.97,995.45c2.95,20.61,6.22,30.1,16.03,33.05,9.49,2.95,16.03,3.27,20.29,3.27,2.95,0,5.24.33,5.24,2.29,0,2.62-3.93,3.6-8.51,3.6-8.18,0-53.34-.98-66.43-1.96-7.53-.65-9.49-1.64-9.49-3.6,0-1.64,1.31-2.62,3.6-3.6,1.96-.65,2.95-4.91,1.64-14.07l-19.96-145.94-72.32,150.52c-7.53,15.38-9.16,18.32-12.11,18.32s-6.22-6.54-11.45-16.36c-7.85-15.05-33.7-65.12-37.63-74.28-2.95-6.87-23.56-50.39-35.01-74.93l-17.34,132.52c-.65,5.89-.98,10.14-.98,15.38,0,6.22,4.25,9.16,9.82,10.47,5.89,1.31,10.47,1.64,13.74,1.64,2.62,0,4.91.65,4.91,2.29,0,2.95-2.95,3.6-7.85,3.6-13.74,0-28.47-.98-34.36-.98-6.22,0-21.92.98-32.4.98-3.27,0-5.89-.65-5.89-3.6,0-1.64,1.96-2.29,5.24-2.29,2.62,0,4.91,0,9.82-.98,9.16-1.96,11.78-14.72,13.42-25.85l32.39-213.35c.98-5.56,2.95-8.51,5.56-8.51s4.58,1.64,8.84,10.14l89.33,184.55,89-186.84c2.62-5.24,4.25-7.85,7.2-7.85s4.91,3.27,5.89,10.14l29.78,202.22Z"/>
    <path d="M695.36,952.26c-1.64,0-2.29.65-2.95,2.62l-17.67,46.79c-3.27,8.18-4.91,16.03-4.91,19.96,0,5.89,2.95,10.14,13.09,10.14h4.91c3.93,0,4.91.65,4.91,2.62,0,2.62-1.96,3.27-5.56,3.27-10.47,0-24.54-.98-34.69-.98-3.6,0-21.6.98-38.61.98-4.25,0-6.22-.65-6.22-3.27,0-1.96,1.96-2.62,4.58-2.62,2.95,0,6.87-.33,9.49-.65,15.05-1.96,21.27-13.09,27.81-29.45l82.13-205.49c3.93-9.49,6.22-13.09,9.16-13.09,2.62,0,4.91,2.95,8.18,10.47,7.85,18,60.21,151.5,81.15,201.24,12.43,29.45,21.92,34.03,28.8,35.67,4.91.98,9.82,1.31,13.74,1.31,2.62,0,4.25.65,4.25,2.62,0,2.62-2.95,3.27-15.05,3.27s-37.96,0-64.14-.65c-5.89-.33-7.53-.65-7.53-2.62,0-1.64,1.31-2.62,4.58-2.95,2.29-.65,4.58-3.6,2.95-7.53l-26.18-69.37c-.66-1.64-1.64-2.29-3.27-2.29h-72.97ZM762.12,935.9c1.64,0,1.96-.98,1.64-1.96l-29.45-80.82c-.98-2.95-2.29-3.93-3.6,0l-30.1,80.5c-.33,1.31,0,2.29,1.31,2.29h60.21Z"/>
    <path d="M906.09,795.85c0-6.54.98-11.13,4.25-11.13,3.6,0,6.54,4.25,12.11,10.14,3.93,4.25,53.66,57.59,101.44,105.04,22.25,22.25,68.06,71.01,73.62,76.24l-3.27-148.56c-.33-19.96-3.27-26.18-11.13-29.45-4.91-1.96-12.76-1.96-17.34-1.96-3.93,0-5.24-.98-5.24-2.95,0-2.62,3.6-2.94,8.51-2.95,17.02,0,32.72.98,39.59.98,3.6,0,16.03-.98,32.07-.98,4.25,0,7.53.33,7.53,2.94,0,1.96-1.96,2.95-5.89,2.95-3.27,0-5.89,0-9.82.98-9.16,2.62-11.78,9.49-12.11,27.81-1.31,69.04-2.29,137.43-3.6,206.47,0,7.2-1.31,10.14-4.25,10.14-3.6,0-7.53-3.6-11.13-7.2-20.61-19.63-62.5-62.5-96.53-96.2-35.67-35.34-72.97-77.22-78.86-83.44l3.6,138.41c.66,25.52,4.91,34.03,11.45,36.32,5.56,1.96,11.78,2.29,17.02,2.29,3.6,0,5.56.65,5.56,2.62,0,2.62-2.95,3.27-7.53,3.27-21.27,0-34.36-.98-40.58-.98-2.95,0-18.32.98-35.34.98-4.25,0-7.2-.33-7.2-3.27,0-1.96,1.96-2.62,5.24-2.62,4.25,0,10.14-.33,14.73-1.64,8.51-2.62,9.82-12.11,10.14-40.58.98-69.37,2.29-150.19,2.95-193.71Z"/>
    <path d="M1417.53,1015.74c0,8.83-.33,9.49-4.25,11.78-21.27,11.13-53.34,14.72-78.86,14.72-80.17,0-151.17-37.96-151.17-128.27,0-52.35,27.16-89,56.94-107,31.41-18.98,60.54-21.27,88.02-21.27,22.58,0,51.37,3.93,57.92,5.24,6.87,1.31,18.32,3.27,25.85,3.6,3.93.33,4.58,1.64,4.58,3.93,0,3.6-2.29,12.76-2.29,53.66,0,5.24-.98,6.87-3.6,6.87-2.29,0-2.95-1.64-3.27-4.25-.98-7.53-2.62-18-11.13-27.16-9.82-10.47-35.99-25.52-72.97-25.52-18,0-41.88,1.31-64.79,20.29-18.32,15.38-30.1,39.92-30.1,80.17,0,70.35,44.83,123.03,113.87,123.03,8.51,0,19.96,0,27.81-3.6,4.91-2.29,6.22-6.54,6.22-12.11v-30.76c0-16.36,0-28.8-.33-38.61-.33-11.13-3.27-16.36-14.07-18.65-2.62-.65-8.18-.98-12.76-.98-2.95,0-4.91-.65-4.91-2.62,0-2.62,2.29-3.27,6.87-3.27,17.02,0,37.63.98,47.45.98s27.49-.98,38.28-.98c4.25,0,6.54.65,6.54,3.27,0,1.96-1.96,2.62-4.25,2.62-2.62,0-4.91.33-8.83.98-8.84,1.64-12.11,7.2-12.43,18.65-.33,9.82-.33,22.91-.33,39.27v35.99Z"/>
    <path d="M1473.15,913.97c0-55.95,36.98-128.27,135.14-128.27,81.48,0,132.2,47.45,132.2,122.38s-52.35,134.16-135.47,134.16c-93.91,0-131.87-70.35-131.87-128.27ZM1694.68,920.19c0-73.3-42.21-118.78-95.87-118.78-37.63,0-80.5,20.94-80.5,102.42,0,68.06,37.63,122.05,100.46,122.05,22.91,0,75.91-11.13,75.91-105.69Z"/>
  </g>
  <g>
    <path d="M638.11,1086.71h7.86v120.51h61.08v7.5h-68.94v-128.01Z"/>
    <path d="M768.86,1086.71h8.41l51.02,128.01h-8.41l-17.92-44.25h-57.79l-17.92,44.25h-8.41l51.02-128.01ZM799.21,1163.15l-26.15-65.83-26.15,65.83h52.3Z"/>
    <path d="M883.52,1214.72h-10.06l-41.14-128.01h8.59l37.49,116.49,33.28-116.49h8.78l33.28,116.49,37.49-116.49h8.6l-41.14,128.01h-10.06l-32.55-114.29-32.55,114.29Z"/>
    <path d="M1070.77,1086.71h7.86v120.51h61.08v7.5h-68.94v-128.01Z"/>
    <path d="M1167.14,1086.71h7.86v120.51h61.08v7.5h-68.94v-128.01Z"/>
    <path d="M1352.01,1202.01c-3.66,3.23-7.62,5.94-11.89,8.14-4.27,2.19-8.84,3.87-13.71,5.03-4.88,1.16-10.06,1.74-15.54,1.74-9.14,0-17.68-1.71-25.6-5.12-7.93-3.41-14.75-8.07-20.48-13.99-5.73-5.91-10.24-12.92-13.53-21.03-3.29-8.11-4.94-16.79-4.94-26.06s1.65-18.13,4.94-26.24c3.29-8.11,7.83-15.12,13.62-21.03,5.79-5.91,12.62-10.54,20.48-13.9,7.86-3.35,16.37-5.03,25.51-5.03,5,0,9.72.46,14.17,1.37,4.45.91,8.65,2.29,12.62,4.11,3.96,1.83,7.71,4.09,11.25,6.77,3.53,2.68,6.77,5.79,9.69,9.33l-5.67,5.85c-2.44-3.17-5.15-5.97-8.14-8.41-2.99-2.44-6.22-4.51-9.69-6.22-3.47-1.71-7.19-2.99-11.15-3.84-3.96-.85-8.14-1.28-12.53-1.28-8.17,0-15.73,1.49-22.68,4.48-6.95,2.99-12.96,7.1-18.01,12.34-5.06,5.24-9.02,11.43-11.89,18.56-2.87,7.13-4.3,14.78-4.3,22.95s1.43,15.82,4.3,22.95c2.86,7.13,6.83,13.35,11.89,18.65,5.06,5.3,11.06,9.45,18.01,12.43,6.95,2.99,14.51,4.48,22.68,4.48,9.51,0,17.98-2.07,25.42-6.22,7.44-4.14,13.71-9.81,18.84-17.01l6.22,5.12c-2.93,4.15-6.22,7.83-9.88,11.06Z"/>
  </g>
</svg>