<?xml version="1.0" encoding="UTF-8"?>
<svg id="Layer_1" data-name="Layer 1" xmlns="http://www.w3.org/2000/svg" viewBox="0 0 2000 2000">
  <defs>
    <style>
      .cls-1 {
        fill: #fff;
      }

      .cls-2 {
        fill: #f8a93c;
      }
    </style>
  </defs>
  <polygon class="cls-2" points="1498.89 1656.79 998.82 1388.83 501.11 1656.79 501.11 343.21 1498.89 343.21 1498.89 1656.79"/>
  <g>
    <path class="cls-1" d="M944.29,537.16c-59.62-18.04-113.35,6.43-161.55,39.62-59.09,40.68-109.8,94.04-174.59,126.41,114.84,8.61,232.02-18.42,326.34-85.18,13.95-9.88,42.26-37.61,56.53-40.39,3.2-.62,16.12-1.9,17.37.83-1,12.18,1.28,24.16,3.57,36.09l23.59.74c1.93-1.43-2.1-40.88-.97-48.13,1.86-11.95,13.61-21.16,15.13-33.22-1.03-1.95-24.71-3.63-27.97-1.54l-11.59,25.74c-24.87,2.67-43.18-14.12-65.85-20.98ZM790.48,842.25c-13.66,163.52,102.02,304.91,241.97,374.06,77.38,38.23,260.73,87.55,249.57-56.68-3.84-49.66-20.21-98.35-21.44-149.83-2.13-89.3,36.89-157.38-4.61-245.67-33.66-71.59-106.43-117.98-183.04-132.28-145.78-27.19-269.96,60.87-282.45,210.4Z"/>
    <path class="cls-2" d="M1088.28,703.19c59.4,4.85,110.27,52.36,127.68,108.19,5.88,18.69,8.7,38.16,7.57,57.41-7.85-22.75-15.85-43.85-26.95-64.37-23.92-44.45-62.8-79.39-108.3-101.23h0Z"/>
    <path class="cls-2" d="M608.15,703.19c50.09-12.62,99.61-27.98,143.58-55.1,15.57-9.62,29.57-22.25,44.61-32.63,39.19-27.16,88.32-53.96,137.25-40.46-26.06-2.22-51.04,4.65-74.01,16.12-29.73,14.62-55.8,34.79-81.87,55.25-5.4,4.05-13.27,9.6-19.03,12.93-45.23,27.01-98.33,40.58-150.52,43.88h0Z"/>
  </g>
</svg>