<?xml version="1.0" encoding="UTF-8"?>
<svg id="Layer_1" data-name="Layer 1" xmlns="http://www.w3.org/2000/svg" viewBox="0 0 16 16">
  <defs>
    <style>
      .cls-1 {
        fill: #fff;
      }

      .cls-2 {
        fill: #f8a93c;
      }
    </style>
  </defs>
  <polygon class="cls-2" points="14.08 16 7.99 12.73 1.92 16 1.92 0 14.08 0 14.08 16"/>
  <g>
    <path class="cls-1" d="M7.32,2.36c-.73-.22-1.38.08-1.97.48-.72.5-1.34,1.15-2.13,1.54,1.4.1,2.83-.22,3.97-1.04.17-.12.51-.46.69-.49.04,0,.2-.02.21.01-.01.15.02.29.04.44h.29s-.03-.49-.01-.58c.02-.15.17-.26.18-.4-.01-.02-.3-.04-.34-.02l-.14.31c-.3.03-.53-.17-.8-.26ZM5.45,6.08c-.17,1.99,1.24,3.71,2.95,4.55.94.47,3.17,1.07,3.04-.69-.05-.6-.25-1.2-.26-1.82-.03-1.09.45-1.92-.06-2.99-.41-.87-1.3-1.44-2.23-1.61-1.78-.33-3.29.74-3.44,2.56Z"/>
    <path class="cls-2" d="M9.08,4.38c.72.06,1.34.64,1.55,1.32.07.23.11.46.09.7-.1-.28-.19-.53-.33-.78-.29-.54-.76-.97-1.32-1.23h0Z"/>
    <path class="cls-2" d="M3.23,4.38c.61-.15,1.21-.34,1.75-.67.19-.12.36-.27.54-.4.48-.33,1.08-.66,1.67-.49-.32-.03-.62.06-.9.2-.36.18-.68.42-1,.67-.07.05-.16.12-.23.16-.55.33-1.2.49-1.83.53h0Z"/>
  </g>
</svg>