<?xml version="1.0" encoding="UTF-8"?>
<svg id="Layer_1" data-name="Layer 1" xmlns="http://www.w3.org/2000/svg" xmlns:xlink="http://www.w3.org/1999/xlink" viewBox="0 0 1080 1080">
  <defs>
    <style>
      .cls-1 {
        fill: none;
      }

      .cls-2 {
        fill: #e88c1f;
      }

      .cls-3 {
        fill: #fbc403;
      }

      .cls-4 {
        fill: #f4a03b;
      }

      .cls-5 {
        clip-path: url(#clippath);
      }
    </style>
    <clipPath id="clippath">
      <path class="cls-1" d="M599.82,238.01c-119.58-22.31-221.45,49.93-231.69,172.59-11.2,134.14,83.69,250.12,198.49,306.84,63.47,31.36,213.87,71.81,204.72-46.5-3.15-40.73-16.58-80.68-17.58-122.9-1.74-73.25,30.26-129.1-3.78-201.52-27.61-58.72-87.3-96.78-150.15-108.51Z"/>
    </clipPath>
  </defs>
  <polygon class="cls-3" points="949.24 1078.76 539.03 858.96 130.76 1078.76 130.76 1.24 949.24 1.24 949.24 1078.76"/>
  <g>
    <path class="cls-2" d="M599.82,238.01c-119.58-22.31-221.45,49.93-231.69,172.59-11.2,134.14,83.69,250.12,198.49,306.84,63.47,31.36,213.87,71.81,204.72-46.5-3.15-40.73-16.58-80.68-17.58-122.9-1.74-73.25,30.26-129.1-3.78-201.52-27.61-58.72-87.3-96.78-150.15-108.51Z"/>
    <g class="cls-5">
      <path class="cls-4" d="M642.61,203.02c-119.58-22.31-221.45,49.93-231.69,172.59-11.2,134.14,83.69,250.12,198.49,306.84,63.47,31.36,213.87,71.81,204.72-46.5-3.15-40.73-16.58-80.68-17.58-122.9-1.74-73.25,30.26-129.1-3.78-201.52-27.61-58.72-87.3-96.78-150.15-108.51Z"/>
    </g>
    <path class="cls-2" d="M548.31,177.54c-20.4,2.19-35.42-11.58-54.01-17.21-48.91-14.79-92.98,5.28-132.52,32.5-48.47,33.37-90.07,77.14-143.21,103.7,94.2,7.06,190.32-15.11,267.69-69.88,11.44-8.1,34.67-30.85,46.37-33.13,2.63-.51,13.23-1.56,14.25.68-.82,9.99,1.05,19.82,2.93,29.61l19.35.61c1.59-1.17-1.73-33.53-.8-39.48,1.53-9.8,11.17-17.36,12.41-27.25-.84-1.6-20.27-2.97-22.95-1.26l-9.5,21.12Z"/>
  </g>
  <g>
    <path class="cls-3" d="M612.42,296.53c48.72,3.98,90.46,42.95,104.73,88.75,4.83,15.33,7.13,31.3,6.21,47.1-6.44-18.66-13-35.97-22.11-52.8-19.62-36.47-51.51-65.12-88.83-83.04h0Z"/>
    <path class="cls-3" d="M218.57,296.53c41.09-10.35,81.71-22.95,117.78-45.2,12.78-7.89,24.25-18.25,36.59-26.76,32.15-22.28,72.45-44.27,112.59-33.19-21.37-1.82-41.87,3.81-60.71,13.22-24.39,11.99-45.77,28.54-67.16,45.32-4.43,3.32-10.88,7.88-15.61,10.61-37.1,22.16-80.66,33.29-123.47,36h0Z"/>
  </g>
</svg>