<?xml version="1.0" encoding="UTF-8"?>
<svg id="Layer_1" data-name="Layer 1" xmlns="http://www.w3.org/2000/svg" viewBox="0 0 2000 2000">
  <defs>
    <style>
      .cls-1 {
        fill: #fff;
      }

      .cls-2 {
        fill: #f8a93c;
      }
    </style>
  </defs>
  <g>
    <polygon class="cls-2" points="1105.01 1059.8 910.4 955.52 716.7 1059.8 716.7 548.6 1105.01 548.6 1105.01 1059.8"/>
    <g>
      <path class="cls-1" d="M889.17,624.07c-23.2-7.02-44.11,2.5-62.87,15.42-23,15.83-42.73,36.6-67.94,49.2,44.69,3.35,90.3-7.17,127-33.15,5.43-3.84,16.45-14.64,22-15.72,1.25-.24,6.27-.74,6.76.32-.39,4.74.5,9.4,1.39,14.05l9.18.29c.75-.56-.82-15.91-.38-18.73.73-4.65,5.3-8.24,5.89-12.93-.4-.76-9.62-1.41-10.89-.6l-4.51,10.02c-9.68,1.04-16.8-5.5-25.63-8.16ZM829.32,742.81c-5.31,63.64,39.7,118.66,94.17,145.57,30.11,14.88,101.47,34.07,97.12-22.06-1.5-19.33-7.87-38.28-8.34-58.31-.83-34.75,14.36-61.25-1.8-95.61-13.1-27.86-41.42-45.92-71.23-51.48-56.73-10.58-105.06,23.69-109.92,81.88Z"/>
      <path class="cls-2" d="M945.21,688.69c23.32,1.33,43.44,20.07,50.05,41.96,2.23,7.33,3.23,14.97,2.58,22.49-3.95-10.47-7.73-20.15-13.58-29.38-9.33-15.14-23.26-26.91-39.06-35.07h0Z"/>
      <path class="cls-2" d="M758.36,688.69c18.8-4.93,37.18-10.86,53.91-20.63,1.7-1.13,3.61-2.28,5.27-3.43,1.98-1.47,4.87-3.61,6.78-5.13,16.75-12.78,38.8-26.9,60.68-20.7-5.82-.35-11.52.24-16.93,1.84-16.45,5-30.09,15.77-43.5,26.23-18.94,14.17-42.93,20.54-66.21,21.82h0Z"/>
    </g>
  </g>
  <g>
    <g>
      <path d="M565.19,1279c2.29,16.05,4.84,23.44,12.48,25.73,7.39,2.29,12.48,2.55,15.79,2.55,2.29,0,4.08.25,4.08,1.78,0,2.04-3.06,2.8-6.62,2.8-6.37,0-41.52-.76-51.71-1.53-5.86-.51-7.39-1.27-7.39-2.8,0-1.27,1.02-2.04,2.8-2.8,1.53-.51,2.29-3.82,1.27-10.95l-15.54-113.61-56.3,117.18c-5.86,11.97-7.13,14.27-9.43,14.27s-4.84-5.09-8.92-12.74c-6.11-11.72-26.24-50.69-29.29-57.82-2.29-5.35-18.34-39.23-27.26-58.33l-13.5,103.17c-.51,4.59-.76,7.9-.76,11.97,0,4.84,3.31,7.13,7.64,8.15,4.58,1.02,8.15,1.27,10.7,1.27,2.04,0,3.82.51,3.82,1.78,0,2.29-2.29,2.8-6.11,2.8-10.7,0-22.16-.76-26.75-.76-4.84,0-17.07.76-25.22.76-2.55,0-4.58-.51-4.58-2.8,0-1.27,1.53-1.78,4.08-1.78,2.04,0,3.82,0,7.64-.76,7.13-1.53,9.17-11.46,10.44-20.12l25.22-166.09c.76-4.33,2.29-6.62,4.33-6.62s3.57,1.27,6.88,7.9l69.54,143.67,69.29-145.45c2.04-4.08,3.31-6.11,5.6-6.11s3.82,2.55,4.59,7.9l23.18,157.42Z"/>
      <path d="M673.7,1245.37c-1.27,0-1.78.51-2.29,2.04l-13.76,36.43c-2.55,6.37-3.82,12.48-3.82,15.54,0,4.58,2.29,7.9,10.19,7.9h3.82c3.06,0,3.82.51,3.82,2.04,0,2.04-1.53,2.55-4.33,2.55-8.15,0-19.11-.76-27-.76-2.8,0-16.81.76-30.06.76-3.31,0-4.84-.51-4.84-2.55,0-1.53,1.53-2.04,3.57-2.04,2.29,0,5.35-.25,7.39-.51,11.72-1.53,16.56-10.19,21.65-22.93l63.94-159.97c3.06-7.39,4.84-10.19,7.13-10.19,2.04,0,3.82,2.29,6.37,8.15,6.11,14.01,46.87,117.94,63.17,156.66,9.68,22.93,17.07,26.49,22.42,27.77,3.82.76,7.64,1.02,10.7,1.02,2.04,0,3.31.51,3.31,2.04,0,2.04-2.29,2.55-11.72,2.55s-29.55,0-49.93-.51c-4.59-.25-5.86-.51-5.86-2.04,0-1.27,1.02-2.04,3.57-2.29,1.78-.51,3.57-2.8,2.29-5.86l-20.38-54c-.51-1.27-1.27-1.78-2.55-1.78h-56.81ZM725.67,1232.64c1.27,0,1.53-.76,1.27-1.53l-22.93-62.92c-.76-2.29-1.78-3.06-2.8,0l-23.44,62.66c-.25,1.02,0,1.78,1.02,1.78h46.87Z"/>
      <path d="M837.75,1123.61c0-5.09.76-8.66,3.31-8.66,2.8,0,5.09,3.31,9.42,7.9,3.06,3.31,41.78,44.83,78.97,81.77,17.32,17.32,52.98,55.28,57.32,59.35l-2.55-115.65c-.25-15.54-2.55-20.38-8.66-22.93-3.82-1.53-9.93-1.53-13.5-1.53-3.06,0-4.08-.76-4.08-2.29,0-2.04,2.8-2.29,6.62-2.29,13.25,0,25.47.76,30.82.76,2.8,0,12.48-.76,24.96-.76,3.31,0,5.86.25,5.86,2.29,0,1.53-1.53,2.29-4.59,2.29-2.55,0-4.59,0-7.64.76-7.13,2.04-9.17,7.39-9.42,21.65-1.02,53.75-1.78,106.99-2.8,160.74,0,5.6-1.02,7.9-3.31,7.9-2.8,0-5.86-2.8-8.66-5.6-16.05-15.28-48.65-48.65-75.15-74.89-27.77-27.51-56.81-60.12-61.39-64.96l2.8,107.75c.51,19.87,3.82,26.49,8.92,28.28,4.33,1.53,9.17,1.78,13.25,1.78,2.8,0,4.33.51,4.33,2.04,0,2.04-2.29,2.55-5.86,2.55-16.56,0-26.75-.76-31.59-.76-2.29,0-14.26.76-27.51.76-3.31,0-5.6-.25-5.6-2.55,0-1.53,1.53-2.04,4.08-2.04,3.31,0,7.9-.25,11.46-1.27,6.62-2.04,7.64-9.43,7.9-31.59.76-54,1.78-116.92,2.29-150.8Z"/>
      <path d="M1235.89,1294.79c0,6.88-.25,7.39-3.31,9.17-16.56,8.66-41.52,11.46-61.39,11.46-62.41,0-117.69-29.55-117.69-99.85,0-40.76,21.14-69.29,44.32-83.3,24.45-14.77,47.13-16.56,68.52-16.56,17.58,0,39.99,3.06,45.09,4.08,5.35,1.02,14.27,2.55,20.12,2.8,3.06.25,3.57,1.27,3.57,3.06,0,2.8-1.78,9.93-1.78,41.78,0,4.08-.76,5.35-2.8,5.35-1.78,0-2.29-1.27-2.55-3.31-.76-5.86-2.04-14.01-8.66-21.14-7.64-8.15-28.02-19.87-56.81-19.87-14.01,0-32.61,1.02-50.44,15.79-14.27,11.97-23.44,31.08-23.44,62.41,0,54.77,34.9,95.78,88.65,95.78,6.62,0,15.54,0,21.65-2.8,3.82-1.78,4.84-5.09,4.84-9.43v-23.94c0-12.74,0-22.42-.25-30.06-.25-8.66-2.55-12.74-10.95-14.52-2.04-.51-6.37-.76-9.93-.76-2.29,0-3.82-.51-3.82-2.04,0-2.04,1.78-2.55,5.35-2.55,13.25,0,29.29.76,36.94.76s21.4-.76,29.8-.76c3.31,0,5.09.51,5.09,2.55,0,1.53-1.53,2.04-3.31,2.04-2.04,0-3.82.25-6.88.76-6.88,1.27-9.43,5.6-9.68,14.52-.25,7.64-.25,17.83-.25,30.57v28.02Z"/>
      <path d="M1279.19,1215.57c0-43.56,28.78-99.86,105.2-99.86,63.43,0,102.91,36.94,102.91,95.27s-40.76,104.44-105.46,104.44c-73.11,0-102.66-54.77-102.66-99.85ZM1451.65,1220.41c0-57.06-32.86-92.47-74.64-92.47-29.29,0-62.66,16.3-62.66,79.73,0,52.98,29.29,95.02,78.2,95.02,17.83,0,59.1-8.66,59.1-82.28Z"/>
    </g>
    <g>
      <path d="M629.13,1350.04h6.12v93.81h47.55v5.84h-53.67v-99.65Z"/>
      <path d="M730.92,1350.04h6.55l39.72,99.65h-6.55l-13.95-34.45h-44.99l-13.95,34.45h-6.55l39.72-99.65ZM754.55,1409.55l-20.36-51.25-20.36,51.25h40.71Z"/>
      <path d="M820.17,1449.7h-7.83l-32.03-99.65h6.69l29.18,90.68,25.91-90.68h6.83l25.91,90.68,29.18-90.68h6.69l-32.03,99.65h-7.83l-25.34-88.97-25.34,88.97Z"/>
      <path d="M965.95,1350.04h6.12v93.81h47.55v5.84h-53.67v-99.65Z"/>
      <path d="M1040.97,1350.04h6.12v93.81h47.55v5.84h-53.67v-99.65Z"/>
      <path d="M1184.89,1439.8c-2.85,2.52-5.93,4.63-9.25,6.34-3.32,1.71-6.88,3.01-10.68,3.91-3.8.9-7.83,1.35-12.1,1.35-7.12,0-13.76-1.33-19.93-3.99-6.17-2.66-11.48-6.29-15.94-10.89-4.46-4.6-7.97-10.06-10.53-16.37-2.56-6.31-3.84-13.07-3.84-20.29s1.28-14.12,3.84-20.43c2.56-6.31,6.1-11.77,10.61-16.37,4.51-4.6,9.82-8.21,15.94-10.82,6.12-2.61,12.74-3.91,19.86-3.91,3.89,0,7.57.36,11.03,1.07,3.46.71,6.74,1.78,9.82,3.2,3.08,1.42,6,3.18,8.75,5.27,2.75,2.09,5.27,4.51,7.55,7.26l-4.41,4.56c-1.9-2.47-4.01-4.65-6.33-6.55-2.33-1.9-4.84-3.51-7.55-4.84-2.7-1.33-5.6-2.32-8.68-2.99-3.09-.66-6.34-1-9.75-1-6.36,0-12.24,1.16-17.65,3.49-5.41,2.33-10.09,5.53-14.02,9.61-3.94,4.08-7.02,8.9-9.25,14.45-2.23,5.55-3.35,11.51-3.35,17.87s1.11,12.31,3.35,17.87c2.23,5.55,5.31,10.39,9.25,14.52,3.94,4.13,8.61,7.36,14.02,9.68,5.41,2.33,11.29,3.49,17.65,3.49,7.4,0,14-1.61,19.79-4.84,5.79-3.23,10.68-7.64,14.66-13.24l4.84,3.99c-2.28,3.23-4.84,6.1-7.69,8.61Z"/>
    </g>
  </g>
</svg>