<?xml version="1.0" encoding="UTF-8"?>
<svg id="Layer_1" data-name="Layer 1" xmlns="http://www.w3.org/2000/svg" viewBox="0 0 2000 2000">
  <defs>
    <style>
      .cls-1 {
        fill: #fff;
      }

      .cls-2 {
        fill: #f8a93c;
      }
    </style>
  </defs>
  <g>
    <path d="M650.34,1195.64c-1.69,1.5-3.53,2.75-5.51,3.77-1.98,1.02-4.1,1.79-6.36,2.33-2.26.54-4.66.81-7.2.81-4.24,0-8.19-.79-11.86-2.37-3.67-1.58-6.84-3.74-9.49-6.48-2.66-2.74-4.75-5.99-6.27-9.75-1.53-3.76-2.29-7.78-2.29-12.08s.76-8.4,2.29-12.16c1.53-3.76,3.63-7,6.31-9.75,2.68-2.74,5.85-4.89,9.49-6.44,3.64-1.55,7.58-2.33,11.82-2.33,2.32,0,4.5.21,6.57.64,2.06.42,4.01,1.06,5.85,1.91,1.84.85,3.57,1.89,5.21,3.14,1.64,1.24,3.14,2.68,4.49,4.32l-2.63,2.71c-1.13-1.47-2.39-2.77-3.77-3.9-1.38-1.13-2.88-2.09-4.49-2.88-1.61-.79-3.33-1.38-5.17-1.78-1.84-.39-3.77-.59-5.81-.59-3.79,0-7.29.69-10.51,2.08-3.22,1.38-6,3.29-8.35,5.72-2.35,2.43-4.18,5.3-5.51,8.6-1.33,3.31-1.99,6.85-1.99,10.64s.66,7.33,1.99,10.64c1.33,3.31,3.16,6.19,5.51,8.64,2.34,2.46,5.13,4.38,8.35,5.76,3.22,1.39,6.72,2.08,10.51,2.08,4.41,0,8.33-.96,11.78-2.88,3.45-1.92,6.36-4.55,8.73-7.88l2.88,2.37c-1.36,1.92-2.88,3.63-4.58,5.13Z"/>
    <path d="M665.17,1201.53v-59.32h21.78c2.37,0,4.62.42,6.74,1.27,2.12.85,3.98,2.02,5.59,3.52,1.61,1.5,2.88,3.28,3.81,5.34.93,2.06,1.4,4.31,1.4,6.74,0,2.03-.35,3.93-1.06,5.68-.71,1.75-1.65,3.31-2.84,4.66-1.19,1.36-2.58,2.54-4.2,3.56-1.61,1.02-3.35,1.78-5.21,2.29l13.31,26.27h-4.32l-12.97-25.68h-18.39v25.68h-3.64ZM686.78,1172.46c1.86,0,3.63-.34,5.3-1.02,1.67-.68,3.14-1.61,4.41-2.8,1.27-1.19,2.29-2.6,3.05-4.24.76-1.64,1.14-3.42,1.14-5.34s-.38-3.61-1.14-5.25c-.76-1.64-1.78-3.06-3.05-4.28-1.27-1.21-2.75-2.16-4.45-2.84-1.69-.68-3.47-1.02-5.34-1.02h-17.88v26.78h17.96Z"/>
    <path d="M717.55,1142.21h3.64v59.32h-3.64v-59.32Z"/>
    <path d="M764.92,1186.78l-23.56-36.52v51.27h-3.64v-59.32h2.88l25.68,40.42,25.68-40.42h2.88v59.32h-3.64v-51.27l-23.56,36.52h-2.71Z"/>
    <path d="M811.39,1142.21h3.64v59.32h-3.64v-59.32Z"/>
    <path d="M876.63,1142.21v59.32h-2.88l-38.47-52.12v52.12l-3.73.08v-59.4h2.88l38.56,52.2v-52.2h3.64Z"/>
    <path d="M909.51,1142.21h3.9l23.64,59.32h-3.9l-8.3-20.51h-26.78l-8.31,20.51h-3.9l23.64-59.32ZM923.58,1177.63l-12.12-30.51-12.12,30.51h24.24Z"/>
    <path d="M946.25,1142.21h3.64v55.84h28.3v3.47h-31.95v-59.32Z"/>
    <path d="M1056.12,1181.95c-.93,3.96-2.52,7.46-4.75,10.51-2.23,3.05-5.1,5.49-8.6,7.33-3.5,1.83-7.6,2.75-12.29,2.75-2.94,0-5.71-.4-8.3-1.19-2.6-.79-4.86-1.91-6.78-3.35-1.92-1.44-3.43-3.14-4.53-5.08-1.1-1.95-1.65-4.05-1.65-6.31,0-1.92.35-3.66,1.06-5.21.71-1.55,1.76-3.05,3.18-4.49,1.41-1.44,3.19-2.87,5.34-4.28,2.15-1.41,4.66-2.91,7.54-4.49l2.29,2.71c-2.77,1.53-5.13,2.9-7.08,4.11-1.95,1.22-3.56,2.42-4.83,3.6-1.27,1.19-2.22,2.4-2.84,3.64-.62,1.24-.93,2.68-.93,4.32,0,1.86.48,3.56,1.44,5.08.96,1.53,2.25,2.84,3.86,3.94s3.47,1.95,5.59,2.54c2.12.59,4.34.89,6.65.89,4.12,0,7.72-.86,10.81-2.58,3.08-1.72,5.58-3.97,7.5-6.74,1.92-2.77,3.26-5.9,4.03-9.41.76-3.5.89-7.03.38-10.59h3.64c.45,4.24.21,8.33-.72,12.29ZM1023.49,1167.84c-1.61-1.55-3.02-3.06-4.24-4.53-1.22-1.47-2.16-2.95-2.84-4.45-.68-1.5-1.02-3.15-1.02-4.96,0-1.58.31-3.14.93-4.66.62-1.53,1.55-2.88,2.8-4.07s2.8-2.15,4.66-2.88c1.86-.73,4.07-1.1,6.61-1.1s4.66.37,6.53,1.1c1.86.74,3.43,1.71,4.7,2.92,1.27,1.21,2.23,2.58,2.88,4.11.65,1.53.97,3.11.97,4.75,0,1.47-.33,2.9-.97,4.28-.65,1.39-1.63,2.75-2.92,4.11-1.3,1.36-2.97,2.71-5,4.07-2.03,1.36-4.41,2.8-7.12,4.32l-2.29-2.71c2.82-1.47,5.13-2.81,6.91-4.03,1.78-1.21,3.25-2.37,4.41-3.47,1.16-1.1,1.99-2.17,2.5-3.22.51-1.04.76-2.13.76-3.26,0-1.24-.27-2.44-.81-3.6-.54-1.16-1.31-2.2-2.33-3.14-1.02-.93-2.22-1.62-3.6-2.08-1.39-.45-2.92-.68-4.62-.68s-3.32.24-4.7.72c-1.39.48-2.56,1.14-3.52,1.99-.96.85-1.71,1.82-2.25,2.92-.54,1.1-.81,2.28-.81,3.52,0,1.64.34,3.11,1.02,4.41.68,1.3,1.58,2.58,2.71,3.86,1.13,1.27,2.44,2.6,3.94,3.98,1.5,1.39,3.15,2.92,4.96,4.62l29.91,30.85h-5.17l-27.79-28.39c-1.86-1.98-3.6-3.74-5.21-5.3Z"/>
    <path d="M1133.95,1143.52c3.67,1.55,6.88,3.72,9.62,6.48,2.74,2.77,4.89,6.02,6.44,9.75,1.55,3.73,2.33,7.77,2.33,12.12s-.78,8.39-2.33,12.12c-1.55,3.73-3.7,6.98-6.44,9.75-2.74,2.77-5.95,4.93-9.62,6.48-3.67,1.55-7.63,2.33-11.86,2.33s-8.21-.78-11.91-2.33c-3.7-1.55-6.91-3.71-9.62-6.48-2.71-2.77-4.86-6.02-6.44-9.75-1.58-3.73-2.37-7.77-2.37-12.12s.79-8.39,2.37-12.12c1.58-3.73,3.73-6.98,6.44-9.75,2.71-2.77,5.92-4.93,9.62-6.48,3.7-1.55,7.67-2.33,11.91-2.33s8.19.78,11.86,2.33ZM1111.62,1146.91c-3.19,1.39-5.99,3.32-8.39,5.81-2.4,2.49-4.28,5.34-5.64,8.56-1.36,3.22-2.03,6.75-2.03,10.59s.68,7.33,2.03,10.64c1.36,3.31,3.23,6.17,5.64,8.6,2.4,2.43,5.21,4.34,8.43,5.72,3.22,1.39,6.7,2.08,10.42,2.08s7.27-.69,10.47-2.08c3.19-1.38,5.99-3.29,8.39-5.72,2.4-2.43,4.26-5.3,5.59-8.6,1.33-3.31,1.99-6.85,1.99-10.64s-.66-7.37-1.99-10.59c-1.33-3.22-3.19-6.07-5.59-8.56-2.4-2.49-5.21-4.42-8.43-5.81-3.22-1.38-6.7-2.08-10.42-2.08s-7.27.69-10.47,2.08Z"/>
    <path d="M1155.04,1142.21h4.07l21.02,53.9,21.02-53.9h4.07l-23.05,59.32h-4.07l-23.05-59.32Z"/>
    <path d="M1214.39,1142.21h3.64v59.32h-3.64v-59.32Z"/>
    <path d="M1260.95,1135.43l-32.2,77.96h-3.64l32.2-77.96h3.64Z"/>
    <path d="M1269.37,1142.21h18.81c4.12,0,7.99.78,11.61,2.33,3.61,1.55,6.78,3.67,9.49,6.36,2.71,2.68,4.84,5.82,6.4,9.41,1.55,3.59,2.33,7.41,2.33,11.48s-.78,8.14-2.33,11.69c-1.55,3.56-3.69,6.68-6.4,9.36-2.71,2.68-5.88,4.8-9.49,6.36-3.62,1.55-7.49,2.33-11.61,2.33h-18.81v-59.32ZM1287.5,1198.05c3.73,0,7.22-.66,10.47-1.99,3.25-1.33,6.07-3.18,8.47-5.55,2.4-2.37,4.29-5.15,5.68-8.35,1.38-3.19,2.08-6.65,2.08-10.38s-.69-7.09-2.08-10.25c-1.39-3.16-3.28-5.93-5.68-8.31-2.4-2.37-5.23-4.22-8.47-5.55-3.25-1.33-6.74-1.99-10.47-1.99h-14.49v52.37h14.49Z"/>
    <path d="M1373.99,1180.26c0,3.22-.52,6.19-1.57,8.9-1.05,2.71-2.53,5.07-4.45,7.08-1.92,2.01-4.24,3.56-6.95,4.66-2.71,1.1-5.73,1.65-9.07,1.65s-6.36-.55-9.07-1.65c-2.71-1.1-5.03-2.65-6.95-4.66-1.92-2-3.4-4.36-4.45-7.08-1.05-2.71-1.57-5.68-1.57-8.9v-38.05h3.64v37.54c0,2.77.41,5.34,1.23,7.71.82,2.37,2.03,4.39,3.64,6.06,1.61,1.67,3.54,2.98,5.81,3.94,2.26.96,4.83,1.44,7.71,1.44s5.45-.48,7.71-1.44c2.26-.96,4.18-2.27,5.76-3.94,1.58-1.67,2.8-3.69,3.64-6.06.85-2.37,1.27-4.94,1.27-7.71v-37.54h3.64v38.05Z"/>
    <path d="M1390.1,1142.21h3.64v59.32h-3.64v-59.32Z"/>
    <path d="M1435.77,1142.21h18.81c4.12,0,7.99.78,11.61,2.33,3.61,1.55,6.78,3.67,9.49,6.36,2.71,2.68,4.84,5.82,6.4,9.41,1.55,3.59,2.33,7.41,2.33,11.48s-.78,8.14-2.33,11.69c-1.55,3.56-3.69,6.68-6.4,9.36-2.71,2.68-5.88,4.8-9.49,6.36-3.62,1.55-7.49,2.33-11.61,2.33h-18.81v-59.32ZM1453.91,1198.05c3.73,0,7.22-.66,10.47-1.99,3.25-1.33,6.07-3.18,8.47-5.55,2.4-2.37,4.29-5.15,5.68-8.35,1.38-3.19,2.08-6.65,2.08-10.38s-.69-7.09-2.08-10.25c-1.39-3.16-3.28-5.93-5.68-8.31-2.4-2.37-5.23-4.22-8.47-5.55-3.25-1.33-6.74-1.99-10.47-1.99h-14.49v52.37h14.49Z"/>
    <path d="M1496.87,1142.21h35v3.47h-31.35v24.15h26.18v3.47h-26.18v24.74h32.8v3.47h-36.44v-59.32Z"/>
    <path d="M1544.03,1142.21h31.86v3.39h-28.22v24.75h24.66v3.39h-24.66v27.8h-3.64v-59.32Z"/>
    <path d="M1586.27,1142.21h35v3.47h-31.35v24.15h26.18v3.47h-26.18v24.74h32.8v3.47h-36.44v-59.32Z"/>
    <path d="M1678.52,1142.21v59.32h-2.88l-38.47-52.12v52.12l-3.73.08v-59.4h2.88l38.56,52.2v-52.2h3.64Z"/>
    <path d="M1717.34,1146.57c-2.2-1.21-4.83-1.82-7.88-1.82-2.03,0-3.9.3-5.59.89s-3.17,1.41-4.41,2.46c-1.24,1.05-2.19,2.28-2.84,3.69-.65,1.41-.97,2.97-.97,4.66,0,1.81.38,3.38,1.14,4.7.76,1.33,1.79,2.49,3.09,3.47,1.3.99,2.78,1.86,4.45,2.63,1.67.76,3.4,1.51,5.21,2.25,2.09.85,4.18,1.74,6.27,2.67,2.09.93,3.95,2.06,5.59,3.39,1.64,1.33,2.98,2.92,4.03,4.79,1.04,1.86,1.57,4.13,1.57,6.78,0,2.15-.41,4.15-1.23,6.02-.82,1.86-2.01,3.5-3.56,4.92-1.55,1.41-3.46,2.52-5.72,3.31-2.26.79-4.86,1.19-7.8,1.19-2.15,0-4.17-.27-6.06-.81s-3.62-1.26-5.17-2.16c-1.55-.9-2.92-1.96-4.11-3.18-1.19-1.21-2.18-2.53-2.97-3.94l3.14-2.2c1.64,2.66,3.77,4.76,6.4,6.31,2.63,1.55,5.78,2.33,9.45,2.33,1.98,0,3.81-.27,5.51-.81,1.69-.54,3.16-1.31,4.41-2.33,1.24-1.02,2.2-2.25,2.88-3.69.68-1.44,1.02-3.04,1.02-4.79,0-2.09-.44-3.87-1.31-5.34-.88-1.47-2.02-2.77-3.43-3.9-1.41-1.13-3.04-2.12-4.87-2.97-1.84-.85-3.72-1.67-5.64-2.46-1.98-.85-3.93-1.72-5.85-2.63-1.92-.9-3.64-1.96-5.17-3.18-1.53-1.21-2.75-2.65-3.69-4.32-.93-1.67-1.4-3.69-1.4-6.06,0-2.03.38-3.97,1.14-5.8.76-1.84,1.89-3.45,3.39-4.83,1.5-1.38,3.33-2.5,5.51-3.35,2.17-.85,4.67-1.27,7.5-1.27,1.75,0,3.43.17,5.04.51,1.61.34,3.12.88,4.53,1.61,1.41.73,2.7,1.65,3.86,2.75,1.16,1.1,2.13,2.39,2.92,3.86l-2.88,2.03c-1.47-2.37-3.31-4.17-5.51-5.38Z"/>
    <path d="M1739.14,1142.21h35v3.47h-31.35v24.15h26.18v3.47h-26.18v24.74h32.8v3.47h-36.44v-59.32Z"/>
  </g>
  <g>
    <polygon class="cls-2" points="569.67 1277.12 358.68 1164.06 148.68 1277.12 148.68 722.88 569.67 722.88 569.67 1277.12"/>
    <g>
      <path class="cls-1" d="M335.67,804.71c-25.16-7.61-47.83,2.71-68.16,16.72-24.93,17.17-46.33,39.68-73.66,53.34,48.45,3.63,97.9-7.77,137.69-35.94,5.89-4.17,17.83-15.87,23.85-17.04,1.35-.26,6.8-.8,7.33.35-.42,5.14.54,10.19,1.5,15.23l9.95.31c.82-.6-.89-17.25-.41-20.31.79-5.04,5.74-8.93,6.38-14.02-.43-.82-10.43-1.53-11.8-.65l-4.89,10.86c-10.5,1.13-18.22-5.96-27.78-8.85ZM270.77,933.44c-5.76,69,43.05,128.65,102.1,157.83,32.65,16.13,110.01,36.94,105.3-23.92-1.62-20.95-8.53-41.5-9.04-63.22-.9-37.68,15.57-66.41-1.95-103.65-14.2-30.2-44.9-49.78-77.23-55.81-61.51-11.47-113.9,25.68-119.17,88.77Z"/>
      <path class="cls-2" d="M396.43,874.77c25.14,1.82,46.74,21.97,54.02,45.59,2.46,7.91,3.61,16.15,3.05,24.28-4.08-11.39-8.14-21.98-14.44-32.01-10.09-16.48-25.32-29.28-42.62-37.87h0Z"/>
      <path class="cls-2" d="M193.84,874.77c20.42-5.18,40.42-11.57,58.58-22.14,1.86-1.22,3.93-2.47,5.74-3.73,1.29-.98,4.25-3.16,5.48-4.12,18.45-14.33,43.14-30.82,67.51-24.1-9.43-.72-18.51,1.22-27.02,4.98-8.47,3.66-16.29,8.6-23.82,13.96-6.31,4.43-12.41,9.63-18.79,14.16-19.88,13.16-44.09,19.6-67.69,20.99h0Z"/>
    </g>
  </g>
  <g>
    <g>
      <path d="M851.57,919.02c2.49,17.4,5.25,25.41,13.53,27.89,8.01,2.49,13.53,2.76,17.12,2.76,2.49,0,4.42.28,4.42,1.93,0,2.21-3.31,3.04-7.18,3.04-6.9,0-45.02-.83-56.06-1.66-6.35-.55-8.01-1.38-8.01-3.04,0-1.38,1.1-2.21,3.04-3.04,1.66-.55,2.49-4.14,1.38-11.88l-16.85-123.17-61.03,127.04c-6.35,12.98-7.73,15.47-10.22,15.47s-5.25-5.52-9.67-13.81c-6.63-12.7-28.45-54.96-31.76-62.69-2.49-5.8-19.88-42.53-29.55-63.24l-14.64,111.85c-.55,4.97-.83,8.56-.83,12.98,0,5.25,3.59,7.73,8.29,8.84,4.97,1.1,8.84,1.38,11.6,1.38,2.21,0,4.14.55,4.14,1.93,0,2.49-2.49,3.04-6.63,3.04-11.6,0-24.03-.83-29-.83-5.25,0-18.5.83-27.34.83-2.76,0-4.97-.55-4.97-3.04,0-1.38,1.66-1.93,4.42-1.93,2.21,0,4.14,0,8.29-.83,7.73-1.66,9.94-12.43,11.32-21.82l27.34-180.07c.83-4.69,2.49-7.18,4.69-7.18s3.87,1.38,7.46,8.56l75.4,155.76,75.12-157.7c2.21-4.42,3.59-6.63,6.08-6.63s4.14,2.76,4.97,8.56l25.13,170.68Z"/>
      <path d="M969.22,882.57c-1.38,0-1.93.55-2.49,2.21l-14.91,39.49c-2.76,6.9-4.14,13.53-4.14,16.85,0,4.97,2.49,8.56,11.05,8.56h4.14c3.31,0,4.14.55,4.14,2.21,0,2.21-1.66,2.76-4.69,2.76-8.84,0-20.71-.83-29.27-.83-3.04,0-18.23.83-32.59.83-3.59,0-5.25-.55-5.25-2.76,0-1.66,1.66-2.21,3.87-2.21,2.49,0,5.8-.28,8.01-.55,12.7-1.66,17.95-11.05,23.48-24.86l69.32-173.44c3.31-8.01,5.25-11.05,7.73-11.05,2.21,0,4.14,2.49,6.9,8.84,6.63,15.19,50.82,127.87,68.49,169.85,10.49,24.86,18.5,28.72,24.3,30.1,4.14.83,8.29,1.1,11.6,1.1,2.21,0,3.59.55,3.59,2.21,0,2.21-2.49,2.76-12.7,2.76s-32.04,0-54.13-.55c-4.97-.28-6.35-.55-6.35-2.21,0-1.38,1.1-2.21,3.87-2.49,1.93-.55,3.87-3.04,2.49-6.35l-22.09-58.55c-.55-1.38-1.38-1.93-2.76-1.93h-61.59ZM1025.56,868.76c1.38,0,1.66-.83,1.38-1.66l-24.86-68.22c-.83-2.49-1.93-3.31-3.04,0l-25.41,67.94c-.28,1.1,0,1.93,1.1,1.93h50.82Z"/>
      <path d="M1147.08,750.56c0-5.52.83-9.39,3.59-9.39,3.04,0,5.52,3.59,10.22,8.56,3.31,3.59,45.29,48.61,85.61,88.65,18.78,18.78,57.44,59.93,62.14,64.35l-2.76-125.38c-.28-16.85-2.76-22.09-9.39-24.86-4.14-1.66-10.77-1.66-14.64-1.66-3.31,0-4.42-.83-4.42-2.49,0-2.21,3.04-2.49,7.18-2.49,14.36,0,27.62.83,33.42.83,3.04,0,13.53-.83,27.06-.83,3.59,0,6.35.28,6.35,2.49,0,1.66-1.66,2.49-4.97,2.49-2.76,0-4.97,0-8.29.83-7.73,2.21-9.94,8.01-10.22,23.48-1.1,58.27-1.93,115.99-3.04,174.27,0,6.08-1.1,8.56-3.59,8.56-3.04,0-6.35-3.04-9.39-6.08-17.4-16.57-52.75-52.75-81.47-81.2-30.1-29.83-61.59-65.18-66.56-70.42l3.04,116.82c.55,21.54,4.14,28.72,9.67,30.66,4.7,1.66,9.94,1.93,14.36,1.93,3.04,0,4.7.55,4.7,2.21,0,2.21-2.49,2.76-6.35,2.76-17.95,0-29-.83-34.25-.83-2.49,0-15.47.83-29.83.83-3.59,0-6.08-.28-6.08-2.76,0-1.66,1.66-2.21,4.42-2.21,3.59,0,8.56-.28,12.43-1.38,7.18-2.21,8.29-10.22,8.56-34.25.83-58.55,1.93-126.76,2.49-163.5Z"/>
      <path d="M1578.74,936.15c0,7.46-.28,8.01-3.59,9.94-17.95,9.39-45.02,12.43-66.56,12.43-67.66,0-127.59-32.04-127.59-108.26,0-44.19,22.92-75.12,48.05-90.31,26.51-16.02,51.09-17.95,74.29-17.95,19.06,0,43.36,3.31,48.88,4.42,5.8,1.1,15.47,2.76,21.82,3.04,3.31.28,3.87,1.38,3.87,3.31,0,3.04-1.93,10.77-1.93,45.29,0,4.42-.83,5.8-3.04,5.8-1.93,0-2.49-1.38-2.76-3.59-.83-6.35-2.21-15.19-9.39-22.92-8.28-8.84-30.38-21.54-61.59-21.54-15.19,0-35.35,1.1-54.68,17.12-15.47,12.98-25.41,33.69-25.41,67.66,0,59.38,37.84,103.84,96.11,103.84,7.18,0,16.85,0,23.48-3.04,4.14-1.93,5.25-5.52,5.25-10.22v-25.96c0-13.81,0-24.3-.28-32.59-.28-9.39-2.76-13.81-11.88-15.74-2.21-.55-6.9-.83-10.77-.83-2.49,0-4.14-.55-4.14-2.21,0-2.21,1.93-2.76,5.8-2.76,14.36,0,31.76.83,40.05.83s23.2-.83,32.31-.83c3.59,0,5.52.55,5.52,2.76,0,1.66-1.66,2.21-3.59,2.21-2.21,0-4.14.28-7.46.83-7.46,1.38-10.22,6.08-10.49,15.74-.28,8.29-.28,19.33-.28,33.14v30.38Z"/>
      <path d="M1625.68,850.26c0-47.23,31.21-108.26,114.06-108.26,68.77,0,111.57,40.05,111.57,103.29s-44.19,113.23-114.34,113.23c-79.26,0-111.3-59.38-111.3-108.26ZM1812.65,855.5c0-61.86-35.63-100.25-80.92-100.25-31.76,0-67.94,17.68-67.94,86.44,0,57.44,31.76,103.01,84.79,103.01,19.33,0,64.07-9.39,64.07-89.2Z"/>
    </g>
    <g>
      <path d="M611.87,996.05h6.64v101.71h51.55v6.33h-58.19v-108.04Z"/>
      <path d="M722.23,996.05h7.1l43.06,108.04h-7.1l-15.13-37.35h-48.77l-15.13,37.35h-7.1l43.06-108.04ZM747.85,1060.57l-22.07-55.56-22.07,55.56h44.14Z"/>
      <path d="M819,1104.09h-8.49l-34.73-108.04h7.25l31.64,98.32,28.09-98.32h7.41l28.09,98.32,31.64-98.32h7.26l-34.73,108.04h-8.49l-27.47-96.46-27.47,96.46Z"/>
      <path d="M977.04,996.05h6.64v101.71h51.55v6.33h-58.19v-108.04Z"/>
      <path d="M1058.38,996.05h6.64v101.71h51.55v6.33h-58.19v-108.04Z"/>
      <path d="M1214.41,1093.36c-3.09,2.73-6.43,5.02-10.03,6.87-3.6,1.85-7.46,3.27-11.58,4.24-4.12.98-8.49,1.47-13.12,1.47-7.72,0-14.92-1.44-21.61-4.32-6.69-2.88-12.45-6.82-17.29-11.81-4.84-4.99-8.64-10.9-11.42-17.75-2.78-6.84-4.17-14.17-4.17-21.99s1.39-15.3,4.17-22.15c2.78-6.84,6.61-12.76,11.5-17.75,4.89-4.99,10.65-8.9,17.29-11.73,6.64-2.83,13.81-4.24,21.53-4.24,4.22,0,8.2.39,11.96,1.16,3.75.77,7.3,1.93,10.65,3.47,3.34,1.54,6.51,3.45,9.49,5.71,2.98,2.26,5.71,4.89,8.18,7.87l-4.78,4.94c-2.06-2.67-4.35-5.04-6.87-7.1-2.52-2.06-5.25-3.81-8.18-5.25-2.93-1.44-6.07-2.52-9.41-3.24-3.34-.72-6.87-1.08-10.57-1.08-6.9,0-13.27,1.26-19.14,3.78-5.87,2.52-10.93,6-15.2,10.42-4.27,4.43-7.62,9.65-10.03,15.67-2.42,6.02-3.63,12.48-3.63,19.37s1.21,13.35,3.63,19.37c2.42,6.02,5.76,11.27,10.03,15.74,4.27,4.48,9.34,7.97,15.2,10.5,5.86,2.52,12.24,3.78,19.14,3.78,8.03,0,15.18-1.75,21.45-5.25,6.28-3.5,11.58-8.28,15.9-14.35l5.25,4.32c-2.47,3.5-5.25,6.61-8.34,9.34Z"/>
    </g>
  </g>
</svg>