<?xml version="1.0" encoding="UTF-8"?>
<svg id="Layer_1" data-name="Layer 1" xmlns="http://www.w3.org/2000/svg" xmlns:xlink="http://www.w3.org/1999/xlink" viewBox="0 0 16 16">
  <defs>
    <style>
      .cls-1 {
        fill: none;
      }

      .cls-2 {
        fill: #e88c1f;
      }

      .cls-3 {
        fill: #fbc403;
      }

      .cls-4 {
        fill: #f4a03b;
      }

      .cls-5 {
        clip-path: url(#clippath);
      }
    </style>
    <clipPath id="clippath">
      <path class="cls-1" d="M8.89,3.52c-1.77-.33-3.28.74-3.44,2.56-.17,1.99,1.24,3.71,2.94,4.55.94.46,3.17,1.06,3.04-.69-.05-.6-.25-1.2-.26-1.82-.03-1.09.45-1.91-.06-2.99-.41-.87-1.29-1.43-2.23-1.61Z"/>
    </clipPath>
  </defs>
  <polygon class="cls-3" points="14.07 15.99 7.99 12.73 1.93 15.99 1.93 .01 14.07 .01 14.07 15.99"/>
  <g>
    <path class="cls-2" d="M8.89,3.52c-1.77-.33-3.28.74-3.44,2.56-.17,1.99,1.24,3.71,2.94,4.55.94.46,3.17,1.06,3.04-.69-.05-.6-.25-1.2-.26-1.82-.03-1.09.45-1.91-.06-2.99-.41-.87-1.29-1.43-2.23-1.61Z"/>
    <g class="cls-5">
      <path class="cls-4" d="M9.52,3c-1.77-.33-3.28.74-3.44,2.56-.17,1.99,1.24,3.71,2.94,4.55.94.46,3.17,1.06,3.04-.69-.05-.6-.25-1.2-.26-1.82-.03-1.09.45-1.91-.06-2.99-.41-.87-1.29-1.43-2.23-1.61Z"/>
    </g>
    <path class="cls-2" d="M8.12,2.63c-.3.03-.53-.17-.8-.26-.73-.22-1.38.08-1.96.48-.72.49-1.34,1.14-2.12,1.54,1.4.1,2.82-.22,3.97-1.04.17-.12.51-.46.69-.49.04,0,.2-.02.21.01-.01.15.02.29.04.44h.29s-.03-.49-.01-.58c.02-.15.17-.26.18-.4-.01-.02-.3-.04-.34-.02l-.14.31Z"/>
  </g>
  <g>
    <path class="cls-3" d="M9.07,4.39c.72.06,1.34.64,1.55,1.32.07.23.11.46.09.7-.1-.28-.19-.53-.33-.78-.29-.54-.76-.97-1.32-1.23h0Z"/>
    <path class="cls-3" d="M3.23,4.39c.61-.15,1.21-.34,1.75-.67.19-.12.36-.27.54-.4.48-.33,1.07-.66,1.67-.49-.32-.03-.62.06-.9.2-.36.18-.68.42-1,.67-.07.05-.16.12-.23.16-.55.33-1.2.49-1.83.53h0Z"/>
  </g>
</svg>