<?xml version="1.0" encoding="UTF-8"?>
<svg id="Layer_1" data-name="Layer 1" xmlns="http://www.w3.org/2000/svg" xmlns:xlink="http://www.w3.org/1999/xlink" viewBox="0 0 2000 2000">
  <defs>
    <style>
      .cls-1 {
        fill: none;
      }

      .cls-2 {
        fill: #e88c1f;
      }

      .cls-3 {
        fill: #fbc403;
      }

      .cls-4 {
        fill: #f4a03b;
      }

      .cls-5 {
        clip-path: url(#clippath);
      }
    </style>
    <clipPath id="clippath">
      <path class="cls-1" d="M1072.84,632.27c-145.61-27.16-269.66,60.8-282.13,210.16-13.64,163.34,101.91,304.57,241.7,373.63,77.29,38.19,260.43,87.45,249.28-56.62-3.84-49.6-20.19-98.24-21.41-149.66-2.12-89.2,36.85-157.21-4.61-245.39-33.62-71.51-106.3-117.85-182.84-132.13Z"/>
    </clipPath>
  </defs>
  <polygon class="cls-3" points="1498.33 1656.04 998.82 1388.39 501.67 1656.04 501.67 343.96 1498.33 343.96 1498.33 1656.04"/>
  <g>
    <path class="cls-2" d="M1072.84,632.27c-145.61-27.16-269.66,60.8-282.13,210.16-13.64,163.34,101.91,304.57,241.7,373.63,77.29,38.19,260.43,87.45,249.28-56.62-3.84-49.6-20.19-98.24-21.41-149.66-2.12-89.2,36.85-157.21-4.61-245.39-33.62-71.51-106.3-117.85-182.84-132.13Z"/>
    <g class="cls-5">
      <path class="cls-4" d="M1124.95,589.66c-145.61-27.16-269.66,60.8-282.13,210.16-13.64,163.34,101.91,304.57,241.7,373.63,77.29,38.19,260.43,87.45,249.28-56.62-3.84-49.6-20.19-98.24-21.41-149.66-2.12-89.2,36.85-157.21-4.61-245.39-33.62-71.51-106.3-117.85-182.84-132.13Z"/>
    </g>
    <path class="cls-2" d="M1010.12,558.64c-24.85,2.67-43.13-14.11-65.77-20.96-59.55-18.02-113.22,6.43-161.37,39.58-59.02,40.64-109.68,93.93-174.39,126.27,114.71,8.6,231.76-18.39,325.97-85.09,13.94-9.87,42.21-37.57,56.46-40.35,3.2-.62,16.1-1.9,17.35.83-1,12.16,1.28,24.13,3.56,36.05l23.56.74c1.93-1.43-2.1-40.83-.97-48.07,1.86-11.93,13.6-21.14,15.11-33.18-1.03-1.95-24.69-3.62-27.94-1.54l-11.57,25.72Z"/>
  </g>
  <g>
    <path class="cls-3" d="M1088.18,703.53c59.33,4.84,110.15,52.31,127.53,108.07,5.88,18.67,8.69,38.12,7.56,57.35-7.84-22.72-15.83-43.8-26.92-64.3-23.89-44.4-62.73-79.3-108.17-101.12h0Z"/>
    <path class="cls-3" d="M608.59,703.53c50.04-12.6,99.5-27.94,143.42-55.04,15.56-9.61,29.53-22.22,44.56-32.59,39.15-27.13,88.22-53.9,137.1-40.42-26.03-2.22-50.98,4.64-73.93,16.1-29.7,14.6-55.73,34.75-81.78,55.19-5.39,4.04-13.25,9.59-19.01,12.92-45.18,26.98-98.22,40.53-150.35,43.83h0Z"/>
  </g>
</svg>