<?xml version="1.0" encoding="UTF-8"?>
<svg id="Layer_1" data-name="Layer 1" xmlns="http://www.w3.org/2000/svg" xmlns:xlink="http://www.w3.org/1999/xlink" viewBox="0 0 180 180">
  <defs>
    <style>
      .cls-1 {
        fill: none;
      }

      .cls-2 {
        fill: #e88c1f;
      }

      .cls-3 {
        fill: #fbc403;
      }

      .cls-4 {
        fill: #f4a03b;
      }

      .cls-5 {
        clip-path: url(#clippath);
      }
    </style>
    <clipPath id="clippath">
      <path class="cls-1" d="M99.98,39.52c-19.96-3.72-36.96,8.33-38.67,28.8-1.87,22.39,13.97,41.74,33.13,51.21,10.59,5.23,35.69,11.98,34.17-7.76-.53-6.8-2.77-13.46-2.93-20.51-.29-12.23,5.05-21.55-.63-33.63-4.61-9.8-14.57-16.15-25.06-18.11Z"/>
    </clipPath>
  </defs>
  <polygon class="cls-3" points="158.3 179.83 89.84 143.14 21.7 179.83 21.7 0 158.3 0 158.3 179.83"/>
  <g>
    <path class="cls-2" d="M99.98,39.52c-19.96-3.72-36.96,8.33-38.67,28.8-1.87,22.39,13.97,41.74,33.13,51.21,10.59,5.23,35.69,11.98,34.17-7.76-.53-6.8-2.77-13.46-2.93-20.51-.29-12.23,5.05-21.55-.63-33.63-4.61-9.8-14.57-16.15-25.06-18.11Z"/>
    <g class="cls-5">
      <path class="cls-4" d="M107.12,33.67c-19.96-3.72-36.96,8.33-38.67,28.8-1.87,22.39,13.97,41.74,33.13,51.21,10.59,5.23,35.69,11.98,34.17-7.76-.53-6.8-2.77-13.46-2.93-20.51-.29-12.23,5.05-21.55-.63-33.63-4.61-9.8-14.57-16.15-25.06-18.11Z"/>
    </g>
    <path class="cls-2" d="M91.39,29.42c-3.41.37-5.91-1.93-9.01-2.87-8.16-2.47-15.52.88-22.12,5.42-8.09,5.57-15.03,12.87-23.9,17.31,15.72,1.18,31.76-2.52,44.68-11.66,1.91-1.35,5.79-5.15,7.74-5.53.44-.09,2.21-.26,2.38.11-.14,1.67.18,3.31.49,4.94l3.23.1c.26-.2-.29-5.6-.13-6.59.26-1.64,1.86-2.9,2.07-4.55-.14-.27-3.38-.5-3.83-.21l-1.59,3.52Z"/>
  </g>
  <g>
    <path class="cls-3" d="M102.09,49.28c8.13.66,15.1,7.17,17.48,14.81.81,2.56,1.19,5.22,1.04,7.86-1.07-3.11-2.17-6-3.69-8.81-3.27-6.09-8.6-10.87-14.83-13.86h0Z"/>
    <path class="cls-3" d="M36.36,49.28c6.86-1.73,13.64-3.83,19.66-7.54,2.13-1.32,4.05-3.05,6.11-4.47,5.37-3.72,12.09-7.39,18.79-5.54-3.57-.3-6.99.64-10.13,2.21-4.07,2-7.64,4.76-11.21,7.56-.74.55-1.82,1.31-2.61,1.77-6.19,3.7-13.46,5.56-20.61,6.01h0Z"/>
  </g>
</svg>