<?xml version="1.0" encoding="UTF-8"?>
<svg id="Layer_1" data-name="Layer 1" xmlns="http://www.w3.org/2000/svg" viewBox="0 0 180 180">
  <defs>
    <style>
      .cls-1 {
        fill: #fff;
      }

      .cls-2 {
        fill: #f8a93c;
      }
    </style>
  </defs>
  <polygon class="cls-2" points="158.35 179.99 89.84 143.28 21.65 179.99 21.65 .01 158.35 .01 158.35 179.99"/>
  <g>
    <path class="cls-1" d="M82.37,26.58c-8.17-2.47-15.53.88-22.13,5.43-8.1,5.57-15.04,12.88-23.92,17.32,15.73,1.18,31.79-2.52,44.71-11.67,1.91-1.35,5.79-5.15,7.74-5.53.44-.09,2.21-.26,2.38.11-.14,1.67.18,3.31.49,4.95l3.23.1c.27-.2-.29-5.6-.13-6.59.26-1.64,1.87-2.9,2.07-4.55-.14-.27-3.39-.5-3.83-.21l-1.59,3.53c-3.41.37-5.92-1.93-9.02-2.87ZM61.29,68.39c-1.87,22.4,13.98,41.78,33.15,51.25,10.6,5.24,35.72,11.99,34.19-7.77-.53-6.8-2.77-13.48-2.94-20.53-.29-12.24,5.05-21.56-.63-33.66-4.61-9.81-14.58-16.17-25.08-18.12-19.97-3.73-36.99,8.34-38.7,28.83Z"/>
    <path class="cls-2" d="M102.1,49.33c8.14.66,15.11,7.17,17.49,14.82.81,2.56,1.19,5.23,1.04,7.87-1.08-3.12-2.17-6.01-3.69-8.82-3.28-6.09-8.6-10.88-14.84-13.87h0Z"/>
    <path class="cls-2" d="M36.31,49.33c6.86-1.73,13.65-3.83,19.67-7.55,2.13-1.32,4.05-3.05,6.11-4.47,5.37-3.72,12.1-7.39,18.81-5.54-3.57-.3-6.99.64-10.14,2.21-4.07,2-7.64,4.77-11.22,7.57-.74.55-1.82,1.32-2.61,1.77-6.2,3.7-13.47,5.56-20.62,6.01h0Z"/>
  </g>
</svg>