<?xml version="1.0" encoding="UTF-8"?>
<svg id="Layer_1" data-name="Layer 1" xmlns="http://www.w3.org/2000/svg" viewBox="0 0 1080 1080">
  <defs>
    <style>
      .cls-1 {
        fill: #fff;
      }

      .cls-2 {
        fill: #f8a93c;
      }
    </style>
  </defs>
  <polygon class="cls-2" points="949.59 1078.46 539.03 858.46 130.41 1078.46 130.41 0 949.59 0 949.59 1078.46"/>
  <g>
    <path class="cls-1" d="M494.26,159.23c-48.95-14.81-93.06,5.28-132.64,32.53-48.51,33.4-90.15,77.2-143.34,103.79,94.28,7.07,190.49-15.12,267.93-69.94,11.45-8.11,34.7-30.88,46.41-33.16,2.63-.51,13.24-1.56,14.26.68-.82,10,1.05,19.83,2.93,29.63l19.37.61c1.59-1.18-1.73-33.56-.8-39.51,1.53-9.81,11.18-17.38,12.42-27.27-.84-1.6-20.29-2.98-22.97-1.26l-9.51,21.14c-20.42,2.19-35.45-11.59-54.06-17.23ZM367.98,409.72c-11.21,134.25,83.76,250.34,198.66,307.11,63.53,31.39,214.06,71.88,204.9-46.54-3.15-40.77-16.59-80.75-17.6-123.01-1.75-73.32,30.29-129.21-3.79-201.69-27.63-58.77-87.38-96.87-150.28-108.6-119.69-22.33-221.64,49.97-231.89,172.74Z"/>
    <path class="cls-2" d="M612.48,295.55c48.77,3.98,90.53,42.99,104.82,88.83,4.83,15.35,7.14,31.33,6.21,47.14-6.44-18.68-13.01-36-22.12-52.85-19.64-36.5-51.56-65.18-88.91-83.11h0Z"/>
    <path class="cls-2" d="M218.29,295.55c41.13-10.36,81.78-22.97,117.88-45.24,12.79-7.9,24.27-18.27,36.63-26.79,32.18-22.3,72.51-44.31,112.69-33.22-21.39-1.83-41.9,3.81-60.76,13.24-24.41,12-45.81,28.56-67.22,45.36-4.43,3.32-10.89,7.88-15.63,10.62-37.13,22.18-80.73,33.31-123.58,36.03h0Z"/>
  </g>
</svg>