<?xml version="1.0" encoding="UTF-8"?>
<svg id="Layer_1" data-name="Layer 1" xmlns="http://www.w3.org/2000/svg" viewBox="0 0 32 32">
  <defs>
    <style>
      .cls-1 {
        fill: #fff;
      }

      .cls-2 {
        fill: #f8a93c;
      }
    </style>
  </defs>
  <polygon class="cls-2" points="28.12 31.96 15.97 25.45 3.88 31.96 3.88 .04 28.12 .04 28.12 31.96"/>
  <g>
    <path class="cls-1" d="M14.65,4.75c-1.45-.44-2.75.16-3.93.96-1.44.99-2.67,2.29-4.24,3.07,2.79.21,5.64-.45,7.93-2.07.34-.24,1.03-.91,1.37-.98.08-.02.39-.05.42.02-.02.3.03.59.09.88l.57.02s-.05-.99-.02-1.17c.05-.29.33-.51.37-.81-.03-.05-.6-.09-.68-.04l-.28.63c-.6.06-1.05-.34-1.6-.51ZM10.91,12.17c-.33,3.97,2.48,7.41,5.88,9.09,1.88.93,6.34,2.13,6.06-1.38-.09-1.21-.49-2.39-.52-3.64-.05-2.17.9-3.82-.11-5.97-.82-1.74-2.59-2.87-4.45-3.21-3.54-.66-6.56,1.48-6.86,5.11Z"/>
    <path class="cls-2" d="M18.15,8.79c1.44.12,2.68,1.27,3.1,2.63.14.45.21.93.18,1.4-.19-.55-.39-1.07-.65-1.56-.58-1.08-1.53-1.93-2.63-2.46h0Z"/>
    <path class="cls-2" d="M6.48,8.79c1.22-.31,2.42-.68,3.49-1.34.38-.23.72-.54,1.08-.79.95-.66,2.15-1.31,3.34-.98-.63-.05-1.24.11-1.8.39-.72.36-1.36.85-1.99,1.34-.13.1-.32.23-.46.31-1.1.66-2.39.99-3.66,1.07h0Z"/>
  </g>
</svg>