<?xml version="1.0" encoding="UTF-8"?>
<svg id="Layer_1" data-name="Layer 1" xmlns="http://www.w3.org/2000/svg" xmlns:xlink="http://www.w3.org/1999/xlink" viewBox="0 0 32 32">
  <defs>
    <style>
      .cls-1 {
        fill: none;
      }

      .cls-2 {
        fill: #e88c1f;
      }

      .cls-3 {
        fill: #fbc403;
      }

      .cls-4 {
        fill: #f4a03b;
      }

      .cls-5 {
        clip-path: url(#clippath);
      }
    </style>
    <clipPath id="clippath">
      <path class="cls-1" d="M17.77,7.03c-3.55-.66-6.57,1.48-6.87,5.12-.33,3.98,2.48,7.42,5.89,9.1,1.88.93,6.35,2.13,6.07-1.38-.09-1.21-.49-2.39-.52-3.65-.05-2.17.9-3.83-.11-5.98-.82-1.74-2.59-2.87-4.46-3.22Z"/>
    </clipPath>
  </defs>
  <polygon class="cls-3" points="28.14 31.97 15.97 25.45 3.86 31.97 3.86 0 28.14 0 28.14 31.97"/>
  <g>
    <path class="cls-2" d="M17.77,7.03c-3.55-.66-6.57,1.48-6.87,5.12-.33,3.98,2.48,7.42,5.89,9.1,1.88.93,6.35,2.13,6.07-1.38-.09-1.21-.49-2.39-.52-3.65-.05-2.17.9-3.83-.11-5.98-.82-1.74-2.59-2.87-4.46-3.22Z"/>
    <g class="cls-5">
      <path class="cls-4" d="M19.04,5.99c-3.55-.66-6.57,1.48-6.87,5.12-.33,3.98,2.48,7.42,5.89,9.1,1.88.93,6.35,2.13,6.07-1.38-.09-1.21-.49-2.39-.52-3.65-.05-2.17.9-3.83-.11-5.98-.82-1.74-2.59-2.87-4.46-3.22Z"/>
    </g>
    <path class="cls-2" d="M16.25,5.23c-.61.06-1.05-.34-1.6-.51-1.45-.44-2.76.16-3.93.96-1.44.99-2.67,2.29-4.25,3.08,2.8.21,5.65-.45,7.94-2.07.34-.24,1.03-.92,1.38-.98.08-.02.39-.05.42.02-.02.3.03.59.09.88l.57.02s-.05-.99-.02-1.17c.05-.29.33-.52.37-.81-.03-.05-.6-.09-.68-.04l-.28.63Z"/>
  </g>
  <g>
    <path class="cls-3" d="M18.15,8.76c1.45.12,2.68,1.27,3.11,2.63.14.45.21.93.18,1.4-.19-.55-.39-1.07-.66-1.57-.58-1.08-1.53-1.93-2.64-2.46h0Z"/>
    <path class="cls-3" d="M6.46,8.76c1.22-.31,2.42-.68,3.49-1.34.38-.23.72-.54,1.09-.79.95-.66,2.15-1.31,3.34-.98-.63-.05-1.24.11-1.8.39-.72.36-1.36.85-1.99,1.34-.13.1-.32.23-.46.31-1.1.66-2.39.99-3.66,1.07h0Z"/>
  </g>
</svg>